<?xml version="1.0" encoding="utf-8"?>
<!-- Generator: Adobe Illustrator 23.0.3, SVG Export Plug-In . SVG Version: 6.00 Build 0)  -->
<svg version="1.1" id="Calque_1" xmlns="http://www.w3.org/2000/svg" xmlns:xlink="http://www.w3.org/1999/xlink" x="0px" y="0px"
	 viewBox="0 0 107.5 106.2" style="enable-background:new 0 0 107.5 106.2;" xml:space="preserve">
<style type="text/css">
	.st0{fill:url(#SVGID_1_);}
	.st1{fill:url(#SVGID_2_);}
	.st2{fill:url(#SVGID_3_);}
	.st3{fill:url(#SVGID_4_);}
	.st4{fill:url(#SVGID_5_);}
</style>
<g>
	
		<linearGradient id="SVGID_1_" gradientUnits="userSpaceOnUse" x1="62.1" y1="37.4002" x2="104.8" y2="37.4002" gradientTransform="matrix(1 0 0 -1 0 107.2756)">
		<stop  offset="2.607075e-02" style="stop-color:#F9B4A3"/>
		<stop  offset="0.23" style="stop-color:#F9AD3E"/>
		<stop  offset="0.554" style="stop-color:#E6902C"/>
		<stop  offset="0.905" style="stop-color:#B7785C"/>
		<stop  offset="1" style="stop-color:#A2623A"/>
	</linearGradient>
	<path class="st0" d="M90,81.6c-4.1,0-8.9-1.1-14.3-3.8c-2.9-1.5-11-6.5-11.4-6.7l-2.2-1.4l2.1-1.5c0.3-0.2,7-4.8,11.5-6.8l0,0
		c11.5-5.1,21.9-3.6,25.8,0.4c2.1,2.1,3.3,4.9,3.3,7.9s-1.2,5.8-3.3,7.9C99.2,79.7,95.2,81.6,90,81.6z M68.3,69.5
		c2.7,1.6,6.9,4.2,8.8,5.2C87.3,79.9,95.5,78.6,99,75c1.5-1.5,2.3-3.4,2.3-5.4c0-2.1-0.8-4-2.3-5.4c-3.2-3.2-12.3-3.9-22,0.4l0,0
		C74.4,65.7,70.7,68,68.3,69.5z"/>
</g>
<g>
	
		<linearGradient id="SVGID_2_" gradientUnits="userSpaceOnUse" x1="27.1509" y1="81.8256" x2="50.6202" y2="81.8256" gradientTransform="matrix(1 0 0 -1 0 107.2756)">
		<stop  offset="2.607075e-02" style="stop-color:#F9B4A3"/>
		<stop  offset="0.23" style="stop-color:#F9AD3E"/>
		<stop  offset="0.554" style="stop-color:#E6902C"/>
		<stop  offset="0.905" style="stop-color:#B7785C"/>
		<stop  offset="1" style="stop-color:#A2623A"/>
	</linearGradient>
	<path class="st1" d="M38.7,46.8l-1.5-2.1c-0.2-0.3-4.8-7-6.8-11.5l0,0c-5.1-11.5-3.6-21.9,0.4-25.8c2.1-2.1,4.9-3.3,7.9-3.3
		s5.8,1.2,7.9,3.3c4.1,4.1,6.7,13.4,0.3,25.9c-1.5,2.9-6.5,11-6.7,11.4L38.7,46.8z M33.5,31.8c1.2,2.7,3.5,6.4,5,8.7
		c1.6-2.7,4.2-6.9,5.2-8.8c5.2-10.2,3.9-18.4,0.3-21.9c-1.5-1.5-3.4-2.3-5.4-2.3c-2.1,0-4,0.8-5.4,2.3C30,13,29.2,22.1,33.5,31.8
		L33.5,31.8z"/>
</g>
<g>
	
		<linearGradient id="SVGID_3_" gradientUnits="userSpaceOnUse" x1="27.7" y1="54.2756" x2="81.9" y2="54.2756" gradientTransform="matrix(1 0 0 -1 0 107.2756)">
		<stop  offset="2.607075e-02" style="stop-color:#F9B4A3"/>
		<stop  offset="0.23" style="stop-color:#F9AD3E"/>
		<stop  offset="0.554" style="stop-color:#E6902C"/>
		<stop  offset="0.905" style="stop-color:#B7785C"/>
		<stop  offset="1" style="stop-color:#A2623A"/>
	</linearGradient>
	<path class="st2" d="M27.7,80.1l0.5-2.6c0.2-0.7,3.9-17.6,18.1-31.8s32.1-18.9,32.8-19.1l2.8-0.7l-0.7,2.8
		c-0.2,0.8-5,18.7-19.1,32.8C47.9,75.7,31,79.4,30.3,79.5L27.7,80.1z M77,30.8c-5.7,2-18.1,7.1-28.2,17.3
		C38.6,58.2,34,70.1,32.4,75.4c5.3-1.6,17.2-6.2,27.3-16.4C69.9,48.9,75,36.4,77,30.8z"/>
</g>
<g>
	
		<linearGradient id="SVGID_4_" gradientUnits="userSpaceOnUse" x1="8.31" y1="57.2756" x2="32.6868" y2="57.2756" gradientTransform="matrix(1 0 0 -1 0 107.2756)">
		<stop  offset="2.607075e-02" style="stop-color:#F9B4A3"/>
		<stop  offset="0.23" style="stop-color:#F9AD3E"/>
		<stop  offset="0.554" style="stop-color:#E6902C"/>
		<stop  offset="0.905" style="stop-color:#B7785C"/>
		<stop  offset="1" style="stop-color:#A2623A"/>
	</linearGradient>
	<path class="st3" d="M30.6,83.1l-2.1-2C27.9,80.7,16.1,69.6,11,52.9S9.6,20.4,9.7,19.7l0.7-2.8l2.1,2c0.5,0.5,12.3,11.5,17.4,28.2
		s1.4,32.5,1.2,33.1L30.6,83.1z M12.5,23.7c-0.8,5.3-1.7,16.6,1.8,28.2s10.6,20.4,14.2,24.4c0.8-5.3,1.7-16.6-1.8-28.2
		S16.1,27.7,12.5,23.7z"/>
</g>
<g>
	
		<linearGradient id="SVGID_5_" gradientUnits="userSpaceOnUse" x1="26.4782" y1="19.3815" x2="91.7916" y2="19.3815" gradientTransform="matrix(1 0 0 -1 0 107.2756)">
		<stop  offset="2.607075e-02" style="stop-color:#F9B4A3"/>
		<stop  offset="0.23" style="stop-color:#F9AD3E"/>
		<stop  offset="0.554" style="stop-color:#E6902C"/>
		<stop  offset="0.905" style="stop-color:#B7785C"/>
		<stop  offset="1" style="stop-color:#A2623A"/>
	</linearGradient>
	<path class="st4" d="M74.7,99.9c-5.5,0-12.1-0.6-18.9-2.7c-16.7-5.1-27-15.8-27.5-16.2l-1.9-2l2.6-0.8c0.6-0.2,15.7-5.1,32.6,0
		c16.7,5.1,27.8,16.9,28.2,17.4l2,2.1L89,98.5C88.6,98.6,82.8,99.9,74.7,99.9z M33,80.7C36.8,84,45.3,90.5,56.8,94
		s22.8,2.6,28.2,1.8C81,92.1,72.1,85,60.6,81.5C49,78,38.1,79.6,33,80.7z"/>
</g>
</svg>
