<?xml version="1.0" encoding="utf-8"?>
<!-- Generator: Adobe Illustrator 23.0.3, SVG Export Plug-In . SVG Version: 6.00 Build 0)  -->
<svg version="1.1" id="Calque_1" xmlns="http://www.w3.org/2000/svg" xmlns:xlink="http://www.w3.org/1999/xlink" x="0px" y="0px"
	 viewBox="0 0 107.5 106.2" style="enable-background:new 0 0 107.5 106.2;" xml:space="preserve">
<style type="text/css">
	.st0{fill:url(#SVGID_1_);}
	.st1{fill:url(#SVGID_2_);}
	.st2{fill:url(#SVGID_3_);}
	.st3{fill:url(#SVGID_4_);}
	.st4{fill:url(#SVGID_5_);}
</style>
<g>
	
		<linearGradient id="SVGID_1_" gradientUnits="userSpaceOnUse" x1="62.1" y1="37.4002" x2="104.8" y2="37.4002" gradientTransform="matrix(-1 0 0 -1 113.11 107.2756)">
		<stop  offset="2.607075e-02" style="stop-color:#F9B4A3"/>
		<stop  offset="0.23" style="stop-color:#F9AD3E"/>
		<stop  offset="0.554" style="stop-color:#E6902C"/>
		<stop  offset="0.905" style="stop-color:#B7785C"/>
		<stop  offset="1" style="stop-color:#A2623A"/>
	</linearGradient>
	<path class="st0" d="M11.6,77.6c-2.1-2.1-3.3-4.9-3.3-7.9s1.2-5.8,3.3-7.9c3.9-4,14.3-5.5,25.8-0.4l0,0c4.5,2,11.2,6.6,11.5,6.8
		l2.1,1.5l-2.2,1.4c-0.4,0.2-8.5,5.2-11.4,6.7c-5.4,2.7-10.2,3.8-14.3,3.8C17.9,81.6,13.9,79.7,11.6,77.6z M36.1,64.6L36.1,64.6
		c-9.7-4.3-18.8-3.6-22-0.4c-1.5,1.4-2.3,3.3-2.3,5.4c0,2,0.8,3.9,2.3,5.4c3.5,3.6,11.7,4.9,21.9-0.3c1.9-1,6.1-3.6,8.8-5.2
		C42.4,68,38.7,65.7,36.1,64.6z"/>
</g>
<g>
	
		<linearGradient id="SVGID_2_" gradientUnits="userSpaceOnUse" x1="27.1509" y1="81.8256" x2="50.6202" y2="81.8256" gradientTransform="matrix(-1 0 0 -1 113.11 107.2756)">
		<stop  offset="2.607075e-02" style="stop-color:#F9B4A3"/>
		<stop  offset="0.23" style="stop-color:#F9AD3E"/>
		<stop  offset="0.554" style="stop-color:#E6902C"/>
		<stop  offset="0.905" style="stop-color:#B7785C"/>
		<stop  offset="1" style="stop-color:#A2623A"/>
	</linearGradient>
	<path class="st1" d="M72.9,44.7c-0.2-0.4-5.2-8.5-6.7-11.4c-6.4-12.5-3.8-21.8,0.3-25.9c2.1-2.1,4.9-3.3,7.9-3.3s5.8,1.2,7.9,3.3
		c4,3.9,5.5,14.3,0.4,25.8l0,0c-2,4.5-6.6,11.2-6.8,11.5l-1.5,2.1L72.9,44.7z M79.6,31.8c4.3-9.7,3.5-18.8,0.3-22
		c-1.4-1.5-3.3-2.3-5.4-2.3c-2,0-3.9,0.8-5.4,2.3c-3.6,3.5-4.9,11.7,0.3,21.9c1,1.9,3.6,6.1,5.2,8.8C76.1,38.2,78.4,34.5,79.6,31.8
		L79.6,31.8z"/>
</g>
<g>
	
		<linearGradient id="SVGID_3_" gradientUnits="userSpaceOnUse" x1="27.7" y1="54.2756" x2="81.9" y2="54.2756" gradientTransform="matrix(-1 0 0 -1 113.11 107.2756)">
		<stop  offset="2.607075e-02" style="stop-color:#F9B4A3"/>
		<stop  offset="0.23" style="stop-color:#F9AD3E"/>
		<stop  offset="0.554" style="stop-color:#E6902C"/>
		<stop  offset="0.905" style="stop-color:#B7785C"/>
		<stop  offset="1" style="stop-color:#A2623A"/>
	</linearGradient>
	<path class="st2" d="M82.8,79.5c-0.7-0.1-17.6-3.8-31.8-18c-14.1-14.1-18.9-32-19.1-32.8l-0.7-2.8l2.8,0.7
		c0.7,0.2,18.6,4.9,32.8,19.1s17.9,31.1,18.1,31.8l0.5,2.6L82.8,79.5z M53.4,59c10.1,10.2,22,14.8,27.3,16.4
		c-1.6-5.3-6.2-17.2-16.4-27.3C54.2,37.9,41.8,32.8,36.1,30.8C38.1,36.4,43.2,48.9,53.4,59z"/>
</g>
<g>
	
		<linearGradient id="SVGID_4_" gradientUnits="userSpaceOnUse" x1="8.31" y1="57.2756" x2="32.6868" y2="57.2756" gradientTransform="matrix(-1 0 0 -1 113.11 107.2756)">
		<stop  offset="2.607075e-02" style="stop-color:#F9B4A3"/>
		<stop  offset="0.23" style="stop-color:#F9AD3E"/>
		<stop  offset="0.554" style="stop-color:#E6902C"/>
		<stop  offset="0.905" style="stop-color:#B7785C"/>
		<stop  offset="1" style="stop-color:#A2623A"/>
	</linearGradient>
	<path class="st3" d="M82,80.2c-0.2-0.6-3.9-16.4,1.2-33.1s16.9-27.7,17.4-28.2l2.1-2l0.7,2.8c0.1,0.7,3.8,16.5-1.3,33.2
		S85.2,80.7,84.6,81.1l-2.1,2L82,80.2z M86.4,48.1c-3.5,11.6-2.6,22.9-1.8,28.2c3.6-4,10.7-12.8,14.2-24.4s2.6-22.9,1.8-28.2
		C97,27.7,89.9,36.5,86.4,48.1z"/>
</g>
<g>
	
		<linearGradient id="SVGID_5_" gradientUnits="userSpaceOnUse" x1="26.4782" y1="19.3815" x2="91.7916" y2="19.3815" gradientTransform="matrix(-1 0 0 -1 113.11 107.2756)">
		<stop  offset="2.607075e-02" style="stop-color:#F9B4A3"/>
		<stop  offset="0.23" style="stop-color:#F9AD3E"/>
		<stop  offset="0.554" style="stop-color:#E6902C"/>
		<stop  offset="0.905" style="stop-color:#B7785C"/>
		<stop  offset="1" style="stop-color:#A2623A"/>
	</linearGradient>
	<path class="st4" d="M24.1,98.5l-2.8-0.8l2-2.1c0.4-0.5,11.5-12.3,28.2-17.4c16.9-5.1,32-0.2,32.6,0l2.6,0.8l-1.9,2
		C84.3,81.4,74,92.1,57.3,97.2c-6.8,2.1-13.4,2.7-18.9,2.7C30.3,99.9,24.5,98.6,24.1,98.5z M52.5,81.5C41,85,32.1,92.1,28.1,95.8
		c5.4,0.8,16.7,1.7,28.2-1.8s20-10,23.8-13.3C75,79.6,64.1,78,52.5,81.5z"/>
</g>
</svg>
