<?xml version="1.0" encoding="utf-8"?>
<!-- Generator: Adobe Illustrator 23.0.3, SVG Export Plug-In . SVG Version: 6.00 Build 0)  -->
<svg version="1.1" id="Calque_1" xmlns="http://www.w3.org/2000/svg" xmlns:xlink="http://www.w3.org/1999/xlink" x="0px" y="0px"
	 viewBox="0 0 203.2 108.5" style="enable-background:new 0 0 203.2 108.5;" xml:space="preserve">
<style type="text/css">
	.st0{fill:url(#SVGID_1_);}
	.st1{fill:url(#SVGID_2_);}
	.st2{fill:url(#SVGID_3_);}
</style>
<g>
	
		<linearGradient id="SVGID_1_" gradientUnits="userSpaceOnUse" x1="-3.81" y1="-22.2045" x2="133.9291" y2="38.0564" gradientTransform="matrix(-1 0 0 1 203.0783 0)">
		<stop  offset="0" style="stop-color:#A97C50"/>
		<stop  offset="0.1032" style="stop-color:#B98E61"/>
		<stop  offset="0.1927" style="stop-color:#C49A6C"/>
		<stop  offset="0.4981" style="stop-color:#D8A25E"/>
		<stop  offset="1" style="stop-color:#FBB040"/>
	</linearGradient>
	<path class="st0" d="M195.8,32.2c-0.1-0.1-9.6-7.2-23.2-10.4c-18-4.2-34,0.4-47.7,13.6c-35,33.9-48.3,38.7-68.4,40.8
		c-16.2,1.7-29.9-1.4-39.6-9.1C8.2,60.2,3.4,50,3.4,38.3c0-19.4,19.2-35.2,42.7-35.2c19,0,34.5,12.8,34.5,28.5
		c0,12.7-12.5,23.1-28,23.1c-12.6,0-22.8-8.5-22.8-18.9c0-8.5,8.3-15.4,18.6-15.4v3.5c-8.1,0-14.7,5.4-14.7,12
		c0,8.5,8.5,15.4,18.9,15.4c13.3,0,24.1-8.9,24.1-19.7c0-13.8-13.7-25-30.6-25C24.7,6.6,7.3,20.8,7.3,38.3c0,10.7,4.3,20,12.2,26.2
		c8.9,7,21.5,9.8,36.6,8.2c19.1-2,31.8-6.6,66-39.7c35-33.9,75.9-3.8,76.3-3.5L195.8,32.2z"/>
</g>
<g>
	
		<linearGradient id="SVGID_2_" gradientUnits="userSpaceOnUse" x1="39.6891" y1="92.6435" x2="39.6891" y2="27.9435" gradientTransform="matrix(-1 0 0 1 203.0783 0)">
		<stop  offset="0" style="stop-color:#8B5E3C"/>
		<stop  offset="7.301319e-02" style="stop-color:#A47850"/>
		<stop  offset="0.1472" style="stop-color:#B98F63"/>
		<stop  offset="0.1927" style="stop-color:#C49A6C"/>
		<stop  offset="0.4981" style="stop-color:#D8A25E"/>
		<stop  offset="1" style="stop-color:#FBB040"/>
	</linearGradient>
	<path class="st1" d="M199.1,30.4c-0.2,1-5.1,23.5-24,40.3c-18.9,16.9-44.1,21.2-45.2,21.4l-2.8,0.5l0.5-2.5c0.2-1,5.1-23.5,24-40.3
		c18.9-16.9,44.1-21.2,45.2-21.4l2.8-0.5L199.1,30.4z M172.4,68.2c14.3-12.7,20.3-29.4,22.2-35.8c-7.2,1.7-25.9,7-40.2,19.8
		c-14.3,12.7-20.3,29.4-22.2,35.8C139.3,86.3,158,81,172.4,68.2z"/>
</g>
<g>
	
		<linearGradient id="SVGID_3_" gradientUnits="userSpaceOnUse" x1="164.1391" y1="106.6435" x2="164.1391" y2="79.6435" gradientTransform="matrix(-1 0 0 1 203.0783 0)">
		<stop  offset="0" style="stop-color:#8B5E3C"/>
		<stop  offset="7.301319e-02" style="stop-color:#A47850"/>
		<stop  offset="0.1472" style="stop-color:#B98F63"/>
		<stop  offset="0.1927" style="stop-color:#C49A6C"/>
		<stop  offset="0.4981" style="stop-color:#D8A25E"/>
		<stop  offset="1" style="stop-color:#FBB040"/>
	</linearGradient>
	<path class="st2" d="M38.9,106.6c-8.3,0-15.1-6.1-15.1-13.5c0-7.5,6.8-13.5,15.1-13.5S54,85.7,54,93.1v13.5H38.9z M38.9,103.1h11.2
		v-10c0-5.5-5-10-11.2-10s-11.2,4.5-11.2,10S32.7,103.1,38.9,103.1z"/>
</g>
</svg>
