<?xml version="1.0" encoding="utf-8"?>
<!-- Generator: Adobe Illustrator 23.0.1, SVG Export Plug-In . SVG Version: 6.00 Build 0)  -->
<svg version="1.1" id="Calque_1" xmlns="http://www.w3.org/2000/svg" xmlns:xlink="http://www.w3.org/1999/xlink" x="0px" y="0px"
	 viewBox="0 0 506.5 118.1" style="enable-background:new 0 0 506.5 118.1;" xml:space="preserve">
<style type="text/css">
	.st0{fill:none;}
	.st1{font-family:'adrippingmarker';}
	.st2{font-size:103.8305px;}
	.st3{fill:url(#SVGID_1_);}
	.st4{fill:url(#SVGID_2_);}
	.st5{fill:url(#SVGID_3_);}
	.st6{fill:url(#SVGID_4_);}
	.st7{fill:url(#SVGID_5_);}
	.st8{fill:url(#SVGID_6_);}
	.st9{fill:url(#SVGID_7_);}
	.st10{fill:url(#SVGID_8_);}
	.st11{fill:url(#SVGID_9_);}
	.st12{fill:url(#SVGID_10_);}
	.st13{fill:url(#SVGID_11_);}
	.st14{fill:url(#SVGID_12_);}
	.st15{fill:url(#SVGID_13_);}
</style>
<g>
	
		<rect x="10.3" y="-2.9" transform="matrix(0.9997 -2.431380e-02 2.431380e-02 0.9997 -1.476 6.2141)" class="st0" width="488.9" height="133.4"/>
	<text transform="matrix(0.9084 -2.209353e-02 2.431377e-02 0.9997 10.8742 88.353)" class="st1 st2">YOU GOT JINXED!</text>
	<g>
		<linearGradient id="SVGID_1_" gradientUnits="userSpaceOnUse" x1="253.5414" y1="3.5565" x2="253.5414" y2="112.8202">
			<stop  offset="0.2151" style="stop-color:#E7048C"/>
			<stop  offset="0.3017" style="stop-color:#EC008C"/>
			<stop  offset="0.5842" style="stop-color:#D4238F"/>
			<stop  offset="0.6844" style="stop-color:#CB2B91"/>
			<stop  offset="0.7823" style="stop-color:#D02680"/>
			<stop  offset="0.9991" style="stop-color:#DA1C5C"/>
			<stop  offset="1" style="stop-color:#DA1C5C"/>
		</linearGradient>
		<path class="st3" d="M25.7,90.7c-0.1,0-0.3-0.1-0.6-0.2c-0.3-0.2-0.4-0.2-0.6-0.2c-0.1-0.1-0.2-0.3-0.3-0.4
			c-0.2-0.1-0.2-0.2-0.2-0.4l0-0.6l0-0.9c0.1-0.1,0.3-0.5,0.5-1.1c0.2-0.6,0.4-1,0.5-1.1c0.2-0.3,0.5-0.7,1-1.3c0.5-0.6,0.8-1,1-1.1
			c0.1-0.1,0.4-0.3,1-0.6c0.5-0.3,0.9-0.5,1.2-0.5c0.1,0,0.3,0,0.8-0.1c0.5-0.1,1-0.1,1.6-0.2c0.6,0,1.1-0.1,1.6-0.2
			c0.5-0.1,0.9-0.1,1-0.1c0.2-0.1,0.7-0.3,1.5-0.4c0.8-0.1,1.3-0.3,1.5-0.4l0-0.6l0-0.9c0-0.1,0-0.4-0.1-0.8c0-0.4-0.1-0.8-0.2-1.2
			c-0.1-0.4-0.1-0.9-0.2-1.2c0-0.4-0.1-0.6-0.1-0.8c-0.1-0.1-0.1-0.4-0.2-0.9c-0.1-0.5-0.2-1-0.2-1.5c-0.1-0.5-0.1-1-0.2-1.5
			c0-0.5-0.1-0.8-0.1-0.9c0-0.2-0.1-0.7-0.3-1.4c-0.2-0.8-0.3-1.2-0.3-1.3c-0.2,0.1-0.5,0.5-0.9,1c-0.4,0.5-0.8,1-1.3,1.5
			c-0.5,0.5-0.9,1-1.4,1.5c-0.5,0.5-0.8,0.8-1,1c-0.1,0.1-0.2,0.2-0.5,0.4c-0.3,0.2-0.6,0.4-0.9,0.7c-0.3,0.3-0.6,0.5-0.9,0.7
			c-0.3,0.3-0.5,0.4-0.6,0.5c-0.1,0-0.5,0.2-1.1,0.5c-0.6,0.4-0.9,0.6-1,0.7l-0.5,0.5c-0.1,0.3-0.2,1.1-0.3,2.2
			c-0.1,1.1-0.2,1.8-0.3,2.2c0,0.2,0,0.4-0.1,0.7c-0.1,0.2-0.1,0.5-0.2,0.8c-0.1,0.3-0.1,0.6-0.2,0.8l-0.6,0l-0.2-6.6l-0.4,0
			L22.2,80c-0.1-0.1-0.2-0.1-0.3-0.2l-0.2-0.2c0-0.1,0-0.3-0.1-0.6c-0.1-0.3-0.1-0.6-0.2-0.9c0-0.3-0.1-0.6-0.2-0.9
			c-0.1-0.3-0.1-0.4-0.2-0.4c0-0.1-0.1-0.2-0.4-0.4c-0.3-0.2-0.6-0.3-1-0.5c-0.4-0.2-0.7-0.3-1.1-0.5c-0.3-0.2-0.5-0.3-0.5-0.4
			c-0.1-0.1-0.3-0.3-0.6-0.6c-0.3-0.3-0.6-0.6-0.9-1c-0.3-0.4-0.6-0.7-0.9-1.1c-0.3-0.3-0.5-0.6-0.6-0.7c-0.1,0-0.4-0.4-0.8-1.2
			c-0.4-0.8-0.7-1.5-1-1.9c0-0.1-0.1-0.4-0.2-0.9c-0.1-0.4-0.2-0.7-0.2-0.9c-0.1-0.3-0.3-0.8-0.4-1.3c-0.1-0.5-0.2-0.8-0.2-1
			l-1.5-15.1c-0.1,0-0.2-0.2-0.5-0.5c-0.3-0.3-0.4-0.6-0.4-0.7l0-0.6l0-0.9c0-0.1,0.1-0.5,0.2-1.1c0.1-0.6,0.2-1,0.2-1.1
			c0.1-0.1,0.2-0.3,0.3-0.6c0.1-0.3,0.2-0.5,0.2-0.5c0.1-0.2,0.3-0.5,0.6-0.8c0.3-0.4,0.6-0.7,0.9-1.1c0.3-0.4,0.6-0.7,0.9-1.1
			s0.4-0.5,0.5-0.7c0.1-0.1,0.4-0.3,1-0.5c0.5-0.3,0.9-0.4,1.1-0.4l0.4,0c0.1,0,0.2,0,0.3-0.1c0.1,0,0.1-0.1,0.2-0.1l0.8,0.1
			c0.2,0.1,0.4,0.3,0.5,0.4c0.1,0.1,0.2,0.3,0.3,0.4c0.1,0.1,0.1,0.2,0.2,0.2c0.1,0.3,0.2,0.6,0.5,0.8c0.1,0.1,0.2,0.3,0.3,0.4
			l0.4,16.4c0.1,0.4,0.2,0.8,0.3,1.1c0.1,0.3,0.2,0.7,0.3,0.9c0.1,0.3,0.2,0.5,0.3,0.7c0,0.3,0.1,0.6,0.2,0.9c0.1,0.3,0.2,0.7,0.4,1
			c0.1,0.4,0.3,0.8,0.5,1.2c0,0.1,0.2,0.4,0.5,0.9c0.3,0.4,0.6,0.8,0.7,1l1.5,1.5c0.1,0.1,0.3,0.2,0.5,0.3C24.8,67,25,67,25.1,67
			c0.1,0.1,0.4,0.3,0.8,0.3c0.4,0.1,0.6,0.2,0.7,0.3l0.5,0l0.7,0c0-0.1,0.1-0.3,0.4-0.4c0.3-0.1,0.5-0.2,0.6-0.4
			c0-0.1,0.1-0.3,0.4-0.6c0.3-0.2,0.4-0.4,0.4-0.6c0.1-0.1,0.2-0.3,0.4-0.7c0.2-0.4,0.4-0.9,0.7-1.3c0.2-0.5,0.4-0.9,0.6-1.4
			c0.2-0.5,0.3-0.8,0.3-1c0.1-0.1,0.3-0.6,0.5-1.5c0.2-0.8,0.4-1.5,0.5-1.9c0-0.1,0-0.3,0.1-0.7s0.2-0.9,0.3-1.4
			c0.1-0.5,0.2-1,0.3-1.5c0.1-0.5,0.2-0.8,0.2-1c0-0.2,0-0.7,0.2-1.4c0.1-0.7,0.2-1.2,0.2-1.5c0-0.1,0-0.4,0.1-0.9
			c0.1-0.4,0.1-0.9,0.1-1.5c0-0.5,0.1-1,0.1-1.5c0.1-0.5,0.1-0.8,0.1-0.9c0.1-0.2,0.1-0.8,0.2-1.8c0.1-1,0.1-2.1,0.2-3.3
			c0-1.2,0.1-2.3,0.1-3.3c0-1,0-1.6,0-1.8c0-0.2,0-0.6,0.1-1.1c0-0.5,0.1-1,0.1-1.6c0-0.5,0.1-1,0.1-1.5c0.1-0.5,0.1-0.8,0.1-1
			c0-0.1,0.1-0.4,0.2-0.8c0.1-0.4,0.2-0.7,0.4-0.7c0-0.1,0.1-0.3,0.2-0.7c0.1-0.2,0.1-0.4,0.2-0.5c0.2-0.2,0.5-0.5,0.8-1
			c0.4-0.4,0.7-0.8,1.1-1.2c0.4-0.4,0.7-0.8,1-1.1c0.3-0.4,0.5-0.6,0.6-0.7l0.6-0.2c0.4-0.1,0.7-0.2,0.8-0.2l0.3,0l0.2,0
			c0.1,0,0.3,0.1,0.7,0.2c0.1,0.1,0.3,0.1,0.5,0.2c0.1,0.1,0.1,0.3,0.3,0.6c0.1,0.2,0.2,0.4,0.3,0.6l0.1,3.2l0.1,3.6
			C43,31.7,43,32.6,43,34c0,1.4-0.1,2.9-0.1,4.6c0,1.6,0,3.2,0,4.6c0,1.4,0,2.3,0,2.6l0.2,6.7l0.2,6.3c0,0.3,0,0.8,0.1,1.6
			c0,0.8,0.1,1.6,0.2,2.5c0.1,0.9,0.2,1.7,0.3,2.5c0.1,0.8,0.2,1.4,0.2,1.7c0,0.1,0.1,0.6,0.2,1.3c0.1,0.8,0.2,1.6,0.3,2.5
			c0.1,0.9,0.2,1.7,0.3,2.5c0.1,0.8,0.2,1.2,0.2,1.3c0,0.1,0.1,0.5,0.2,1c0.1,0.5,0.2,0.9,0.2,1.2c0,0.2,0,0.6-0.2,1.1
			c-0.1,0.3-0.1,0.5-0.1,0.7c0,0.1,0,0.3-0.1,0.7c-0.1,0.4-0.2,0.7-0.3,0.8c0.6,0.1,1.5,0.1,2.8,0.1c1.3,0,2.7,0.1,4.2,0.1
			c1.4,0,2.8,0,4.2,0.1c1.3,0,2.2,0.1,2.7,0.1c0.3,0,0.8,0,1.7,0.1c0.9,0.1,1.5,0.2,1.9,0.3c0.1,0,0.5,0.1,1,0.2
			c0.5,0.1,0.9,0.2,1,0.2c0.1,0.1,0.2,0.3,0.5,0.4c0.3,0.1,0.4,0.2,0.4,0.2c0.1,0.1,0.4,0.3,0.7,0.6c0.3,0.3,0.5,0.5,0.5,0.6l0,1.1
			l0,1.7c-0.1,0.2-0.1,0.4-0.2,0.5L66,87.5c-0.1,0.1-0.3,0.4-0.6,0.6c-0.3,0.3-0.6,0.6-0.9,1c-0.3,0.4-0.7,0.7-1,1.1
			c-0.3,0.3-0.6,0.5-0.7,0.6c-0.1,0-0.2,0.1-0.5,0.3c-0.2,0.2-0.4,0.3-0.5,0.3c-0.2,0.1-0.3,0.1-0.5,0.2c-0.2,0.1-0.4,0.1-0.7,0.1
			c-0.2,0-0.3,0-0.5-0.1l-0.4-0.2c-0.1,0-0.4-0.1-0.8-0.4c-0.3-0.1-0.5-0.3-0.7-0.5c-0.3-0.1-0.7-0.3-1.2-0.4
			c-0.5-0.1-0.9-0.2-1-0.2L44,90.2c0,0.3,0,0.8-0.1,1.5c0,0.7-0.1,1.4-0.1,2.2c0,0.8,0,1.5-0.1,2.2c0,0.7-0.1,1.1-0.1,1.4
			c0,0.2-0.1,0.5-0.2,1c-0.1,0.5-0.3,0.7-0.4,0.9c0-0.2,0-0.6-0.1-1.1c0-0.5-0.1-1-0.1-1.6c0-0.5-0.1-1-0.2-1.5
			c-0.1-0.5-0.1-0.8-0.2-1c-0.1-0.3-0.1-0.6-0.1-1c0-0.4-0.1-0.8-0.1-1.2c-0.1-0.5-0.2-1-0.2-1.6l-0.8,0l0.2,8.4l-0.8,1.1
			c0-0.1-0.1-0.4-0.3-1c-0.2-0.6-0.3-1-0.3-1.2c0-0.2,0-0.7-0.1-1.3c0-0.7-0.1-1.4-0.2-2.2c-0.1-0.8-0.1-1.5-0.2-2.2
			c0-0.7-0.1-1.2-0.1-1.5L25.7,90.7z"/>
		<linearGradient id="SVGID_2_" gradientUnits="userSpaceOnUse" x1="253.5414" y1="3.5565" x2="253.5414" y2="112.8202">
			<stop  offset="0.2151" style="stop-color:#E7048C"/>
			<stop  offset="0.3017" style="stop-color:#EC008C"/>
			<stop  offset="0.5842" style="stop-color:#D4238F"/>
			<stop  offset="0.6844" style="stop-color:#CB2B91"/>
			<stop  offset="0.7823" style="stop-color:#D02680"/>
			<stop  offset="0.9991" style="stop-color:#DA1C5C"/>
			<stop  offset="1" style="stop-color:#DA1C5C"/>
		</linearGradient>
		<path class="st4" d="M75.1,86.2c-0.1,0.2-0.1,0.6-0.2,1.1c-0.1,0.6-0.2,1.1-0.3,1.7c-0.1,0.6-0.2,1.1-0.3,1.7
			c-0.1,0.6-0.2,0.9-0.2,1.1c0,0.1-0.1,0.2-0.2,0.5c-0.1,0.3-0.2,0.5-0.2,0.5l-0.5,0l-0.1,0c0-0.1-0.1-0.3-0.3-0.7
			c-0.2-0.4-0.3-0.7-0.3-0.8c-0.1-0.2-0.1-0.6-0.2-1.1c-0.1-0.6-0.1-1.1-0.2-1.8c0-0.6-0.1-1.2-0.2-1.7c-0.1-0.5-0.1-0.8-0.2-1
			c-0.3-0.1-0.8-0.3-1.5-0.6c-0.8-0.3-1.3-0.5-1.5-0.6c-0.1,0-0.2-0.1-0.5-0.2c-0.3-0.1-0.4-0.3-0.5-0.4c-0.1-0.1-0.3-0.1-0.4-0.2
			c-0.2-0.1-0.3-0.2-0.5-0.4c-0.3-0.1-0.5-0.2-0.7-0.3c-0.1-0.2-0.4-0.5-0.8-0.9c-0.4-0.4-0.8-0.8-1.3-1.3c-0.4-0.5-0.8-0.9-1.2-1.4
			c-0.4-0.4-0.6-0.8-0.8-1c-0.1,0-0.3-0.2-0.6-0.7c-0.3-0.4-0.5-0.8-0.6-1c-0.1-0.1-0.3-0.4-0.4-0.7c-0.2-0.3-0.3-0.6-0.5-1
			c-0.1-0.4-0.3-0.7-0.4-1c-0.1-0.3-0.2-0.5-0.2-0.6c-0.1-0.1-0.3-0.6-0.6-1.5c-0.3-0.9-0.5-1.6-0.6-1.9C58.2,70,58.1,69.6,58,69
			c-0.1-0.6-0.2-0.9-0.4-1c0-0.5-0.1-1.3-0.2-2.3c-0.2-1.1-0.2-1.7-0.2-2l-0.1-2.2l0-1.9c0-0.1,0-0.4,0-0.9c0-0.5,0.1-1,0.1-1.5
			c0-0.5,0.1-1,0.1-1.6c0-0.5,0-0.9,0-1.1c0.1-0.3,0.2-0.8,0.3-1.5c0.1-0.7,0.1-1.2,0.2-1.3c0.1-0.2,0.2-0.6,0.3-1.1
			c0.1-0.5,0.3-1,0.4-1.6c0.1-0.5,0.3-1,0.4-1.5c0.1-0.5,0.2-0.8,0.3-1c0.1-0.2,0.2-0.6,0.5-1.3c0.3-0.6,0.6-1.3,0.9-2
			c0.3-0.7,0.6-1.4,0.8-2c0.2-0.6,0.4-1,0.5-1.3c0.1-0.1,0.2-0.3,0.5-0.7c0.2-0.4,0.5-0.9,0.8-1.3c0.3-0.5,0.5-0.9,0.8-1.3
			c0.2-0.4,0.4-0.6,0.5-0.6c0.1-0.1,0.2-0.4,0.4-0.7c0.1-0.2,0.1-0.4,0.2-0.5L65,31.3l0.4-0.9c0.2-0.2,0.4-0.5,0.8-1
			c0.3-0.4,0.7-0.8,1.1-1.3c0.4-0.4,0.7-0.8,1.1-1.2c0.3-0.4,0.6-0.6,0.7-0.7c0.2-0.1,0.5-0.4,1-0.7c0.5-0.3,0.8-0.5,1-0.5l1.4,0
			l1.6,0c0.2,0,0.6,0.1,1.1,0.4c0.5,0.3,0.9,0.5,1,0.7c0.1,0.1,0.4,0.5,1,1c0.5,0.5,1.1,1.1,1.7,1.7c0.6,0.6,1.2,1.3,1.7,1.9
			c0.5,0.6,1,1,1.3,1.3c0.1,0.1,0.3,0.5,0.7,1.1c0.4,0.6,0.7,1,0.8,1.3c0.1,0.1,0.3,0.4,0.6,0.8c0.3,0.4,0.5,0.7,0.6,0.8
			c0.2,0.3,0.5,0.9,0.9,1.5c0.4,0.7,0.6,1.1,0.6,1.2c0.1,0.2,0.3,0.6,0.5,1.1c0.3,0.5,0.6,1.1,0.9,1.7c0.3,0.6,0.6,1.1,0.8,1.6
			c0.2,0.5,0.4,0.9,0.5,1.1c0.1,0.1,0.3,0.6,0.6,1.3c0.3,0.8,0.5,1.2,0.6,1.4c0.1,0.3,0.2,0.8,0.5,1.6c0.3,0.8,0.4,1.4,0.5,1.8
			c0.1,0.1,0.2,0.5,0.4,1.1c0.1,0.6,0.2,0.9,0.2,1.1c0.1,0.5,0.3,1.2,0.5,2c0.2,0.9,0.3,1.3,0.3,1.4l0.1,3.7l0.1,4
			c0,0.1-0.1,0.6-0.2,1.3c-0.1,0.7-0.3,1.2-0.4,1.6c0,0.3,0,0.7-0.1,1.3c-0.1,0.6-0.2,1-0.3,1.1c0,0.1-0.1,0.3-0.2,0.7
			c-0.1,0.4-0.2,0.7-0.2,0.8c-0.1,0.2-0.3,0.6-0.5,1c-0.2,0.5-0.4,1-0.6,1.4c-0.2,0.5-0.4,0.9-0.6,1.3C89.2,74.7,89,75,89,75
			c-0.1,0.3-0.3,0.7-0.6,1.3c-0.4,0.6-0.6,1-0.7,1.1c-0.2,0.1-0.4,0.4-0.8,0.8c-0.3,0.4-0.7,0.8-1.1,1.2c-0.4,0.4-0.7,0.8-1.1,1.2
			c-0.3,0.4-0.6,0.6-0.7,0.7c0,0.1-0.1,0.2-0.4,0.4c-0.2,0.2-0.5,0.4-0.8,0.7c-0.3,0.3-0.6,0.5-0.9,0.7c-0.3,0.2-0.6,0.4-0.7,0.4
			c-0.1,0.1-0.2,0.2-0.4,0.3c-0.2,0.1-0.4,0.2-0.7,0.4c-0.2,0.1-0.5,0.3-0.7,0.4c-0.2,0.1-0.4,0.2-0.4,0.2c-0.3,0-0.4,0.3-0.4,0.7
			c0,0.6-0.1,1.8-0.1,3.4c0,1.6,0,3.4,0,5.2c0,1.8,0,3.6,0,5.2c0,1.7,0,2.8,0,3.5c0,0.3,0,0.6-0.1,1c-0.1,0.4-0.1,0.8-0.2,1.2
			c-0.1,0.5-0.1,1-0.2,1.6l-0.7,0l-1.4-20.6L75.1,86.2z M65.1,60.3c0,0.3,0.1,0.8,0.3,1.5c0.2,0.7,0.3,1.3,0.4,1.6
			c0.1,0.3,0.3,0.8,0.6,1.6c0.3,0.8,0.5,1.4,0.6,1.6c0.1,0.2,0.4,0.7,0.8,1.6c0.4,0.9,0.6,1.4,0.7,1.6c0.1,0.3,0.4,0.7,0.8,1.2
			c0.4,0.5,0.7,0.9,0.8,1.2l2.1,2.2c0.2,0.1,0.4,0.2,0.6,0.3c0.1,0.1,0.3,0.3,0.4,0.4c0.2,0.1,0.3,0.2,0.4,0.2
			c0.1,0.1,0.3,0.3,0.6,0.4c0.3,0.1,0.4,0.2,0.6,0.2c0.1,0.1,0.4,0.3,0.8,0.3c0.4,0.1,0.6,0.1,0.7,0.1l2.5-0.1l2.5-0.1
			c0.1-0.1,0.4-0.4,0.8-0.8c0.4-0.4,0.7-0.7,0.8-0.7c0.1-0.1,0.2-0.5,0.4-1c0.2-0.6,0.4-1,0.4-1.4c0.1-0.1,0.2-0.4,0.3-0.8
			c0.1-0.4,0.1-0.7,0.1-0.8c0.1-0.1,0.1-0.3,0.2-0.8c0.1-0.5,0.1-1,0.1-1.6c0-0.6,0-1.2,0.1-1.8c0-0.6,0.1-1.1,0.2-1.4l0-0.2l0-0.3
			c-0.1-0.3-0.1-0.7-0.2-1.2c-0.1-0.5-0.1-1.1-0.2-1.6c0-0.6-0.1-1-0.2-1.4c-0.1-0.4-0.1-0.7-0.2-0.8c0-0.1-0.1-0.5-0.3-1.1
			c-0.2-0.6-0.3-1-0.3-1.3c-0.1-0.2-0.2-0.7-0.5-1.6c-0.3-0.9-0.4-1.4-0.5-1.6c-0.1-0.3-0.3-0.8-0.6-1.5c-0.3-0.7-0.5-1.1-0.6-1.3
			c-0.1-0.2-0.2-0.6-0.5-1.1c-0.2-0.5-0.5-1.1-0.8-1.6c-0.3-0.5-0.6-1.1-0.9-1.6c-0.3-0.5-0.5-0.9-0.5-1.1c-0.1-0.3-0.4-0.8-0.8-1.4
			s-0.6-1.1-0.7-1.3c-0.1-0.1-0.4-0.5-0.8-1.1c-0.4-0.6-0.7-1-0.8-1.3c-0.1,0-0.2-0.1-0.5-0.5c-0.3-0.3-0.4-0.5-0.5-0.5L74,40.5
			c-0.1,0.3-0.3,0.6-0.4,1.1c-0.1,0.5-0.2,0.7-0.2,0.8c0,0.2,0,0.7-0.1,1.6c0,0.9-0.1,1.8-0.1,2.8c0,1,0,2-0.1,2.9
			c0,0.9-0.1,1.5-0.1,1.7c0,0.2,0,0.7-0.1,1.6c-0.1,0.9-0.2,1.4-0.1,1.6c-0.1-0.2-0.3-0.7-0.4-1.6c-0.1-0.9-0.2-1.4-0.2-1.6
			c0-0.5-0.1-1.4-0.2-2.8c-0.1-1.3-0.2-2.8-0.2-4.3c-0.1-1.5-0.1-2.9-0.2-4.2c-0.1-1.3-0.1-2.2-0.2-2.8l-0.7,0l-0.5,0
			c-0.1,0-0.3,0.2-0.6,0.7c-0.4,0.5-0.6,0.8-0.7,1c-0.1,0.1-0.4,0.6-0.7,1.3c-0.4,0.7-0.7,1.2-0.9,1.6c0,0.1-0.1,0.3-0.2,0.6
			c-0.1,0.2-0.2,0.4-0.2,0.6c-0.1,0.2-0.2,0.6-0.3,1.1c-0.1,0.5-0.3,1-0.4,1.6c-0.1,0.5-0.3,1-0.4,1.5c-0.1,0.5-0.2,0.8-0.3,0.9
			c-0.1,0.3-0.2,0.8-0.3,1.5c-0.1,0.7-0.2,1.1-0.2,1.4l0.1,4.7L65.1,60.3z"/>
		<linearGradient id="SVGID_3_" gradientUnits="userSpaceOnUse" x1="253.5414" y1="3.5565" x2="253.5414" y2="112.8202">
			<stop  offset="0.2151" style="stop-color:#E7048C"/>
			<stop  offset="0.3017" style="stop-color:#EC008C"/>
			<stop  offset="0.5842" style="stop-color:#D4238F"/>
			<stop  offset="0.6844" style="stop-color:#CB2B91"/>
			<stop  offset="0.7823" style="stop-color:#D02680"/>
			<stop  offset="0.9991" style="stop-color:#DA1C5C"/>
			<stop  offset="1" style="stop-color:#DA1C5C"/>
		</linearGradient>
		<path class="st5" d="M107.4,86.9l-1.1,0c0,0.3,0,1-0.1,2c-0.1,1-0.2,1.6-0.3,1.9c0,0.3,0,0.7,0,1.1c0,0.4-0.1,0.8-0.1,1.1
			c-0.1,0.4-0.1,0.8-0.2,1.2l-0.8,0l-0.2-7.5c-0.1-0.1-0.2-0.1-0.3-0.2c-0.3-0.1-0.4-0.2-0.5-0.2c-0.1,0-0.4,0-0.8-0.1
			c-0.4-0.1-0.8-0.2-1.2-0.3c-0.4-0.1-0.9-0.3-1.2-0.4c-0.4-0.1-0.6-0.2-0.8-0.3c-0.1,0-0.5-0.1-1.2-0.3c-0.7-0.2-1.1-0.5-1.4-0.7
			c-0.3,0-0.5-0.1-0.8-0.2c-0.2-0.1-0.3-0.1-0.4-0.2c-0.1-0.1-0.3-0.3-0.5-0.6c-0.2-0.3-0.5-0.5-0.8-0.8c-0.3-0.3-0.6-0.5-0.8-0.8
			c-0.3-0.2-0.4-0.4-0.5-0.6c-0.1-0.1-0.1-0.3-0.2-0.5c-0.1-0.1-0.1-0.3-0.2-0.4c-0.1-0.1-0.1-0.2-0.2-0.4l-0.2-0.8
			c-0.1-0.2-0.1-0.4-0.2-0.7l0-1.8l0-1.6c0-0.1,0-0.6,0.2-1.3c0.1-0.7,0.2-1.2,0.2-1.5c0.1-0.5,0.3-1.3,0.5-2.5
			c0.2-1.1,0.3-1.9,0.5-2.2c0.1-0.2,0.2-0.7,0.4-1.4c0.2-0.7,0.4-1.6,0.6-2.5c0.2-0.9,0.4-1.7,0.6-2.5c0.2-0.8,0.3-1.3,0.3-1.5
			c0.1-0.3,0.3-1.1,0.5-2.2c0.2-1.1,0.4-2,0.5-2.5c0-0.2,0.1-0.7,0.2-1.5c0.1-0.8,0.2-1.2,0.2-1.4l-0.1-2.8l-0.1-2.8
			c0-0.1,0-0.3-0.1-0.5c-0.1-0.2-0.1-0.4-0.2-0.6l-0.2-0.8c-0.1-0.1-0.5-0.3-1.1-0.4c-0.6-0.1-0.9-0.3-1-0.4c-0.1,0-0.3-0.1-0.4-0.2
			c-0.1-0.1-0.1-0.1-0.1-0.2c-0.1-0.2-0.1-0.4-0.2-0.7c-0.1-0.2-0.1-0.4-0.1-0.6s0-0.4,0-0.5c0-0.1,0-0.2,0-0.4c0-0.2,0-0.3,0.1-0.5
			l0.2-0.6c0-0.2,0.1-0.6,0.3-1.2c0.2-0.6,0.4-0.9,0.5-1.2l2.1-2.4c0.1-0.1,0.3-0.2,0.6-0.5c0.4-0.3,0.6-0.5,0.7-0.5
			c0.1,0,0.4-0.1,0.7-0.3c0.4-0.2,0.6-0.3,0.7-0.3l0.5,0l0.1,0c0.1,0.1,0.5,0.3,1,0.5c0.5,0.2,0.9,0.4,1,0.5c0.1,0,0.3,0.1,0.4,0.2
			l0.2,0.2c0.1,0.3,0.3,0.7,0.6,1.3c0.3,0.6,0.5,0.9,0.6,1.1c0,0.2,0.1,0.6,0.3,1.1c0.2,0.6,0.3,0.9,0.3,1.1l0.1,4.6l0.1,4.4
			c0,0.1-0.1,0.6-0.2,1.3c-0.1,0.7-0.2,1.2-0.2,1.6c-0.1,0.2-0.1,0.6-0.2,1s-0.2,1-0.3,1.4c-0.1,0.5-0.2,0.9-0.3,1.3
			c-0.1,0.4-0.2,0.7-0.2,0.7c0,0.2-0.1,0.8-0.3,1.7c-0.2,0.9-0.5,2-0.7,3.1c-0.3,1.1-0.5,2.1-0.8,3.1c-0.3,0.9-0.4,1.5-0.5,1.7
			c-0.1,0.3-0.2,0.9-0.3,1.6c-0.1,0.7-0.2,1.1-0.2,1.3l0.1,2.6l0.1,2.5c0.1,0.1,0.4,0.4,0.8,0.9c0.4,0.4,0.7,0.7,0.9,0.9
			c0.3,0.2,0.5,0.4,0.8,0.5c0.2,0.1,0.4,0.3,0.6,0.3c0.2,0.1,0.4,0.1,0.5,0.1c0.1,0,0.4,0.1,0.8,0.2c0.4,0.2,0.6,0.2,0.8,0.2
			c0.3,0.1,0.7,0.2,1.2,0.3c0.5,0.1,0.9,0.2,1,0.3c0.1,0,0.3,0,0.6,0.1c0.3,0.1,0.7,0.1,1.1,0.1c0.4,0,0.7,0.1,1.1,0.1
			c0.3,0.1,0.6,0.1,0.7,0.1c0.3,0,0.6,0,1.2,0.1c0.5,0.1,1.1,0.1,1.7,0.1c0.6,0,1.1,0,1.5,0.1c0.4,0,0.7,0,0.8,0
			c0.1,0,0.6,0,1.3,0.1c0.7,0.1,1.2,0.1,1.6,0.1c0.1,0,0.3,0,0.5,0c0.2,0,0.4,0,0.6-0.1c0.3,0,0.5,0,0.8-0.1l0.3-1.7l-0.1-3.4
			l-0.1-5c0-0.1,0-0.4-0.1-0.9c0-0.5-0.1-1-0.2-1.6c-0.1-0.6-0.1-1.1-0.2-1.6c0-0.5-0.1-0.9-0.1-1.1c-0.1-0.1-0.1-0.3-0.3-0.8
			c-0.1-0.5-0.2-1-0.3-1.7c-0.1-0.6-0.2-1.2-0.3-1.8c-0.1-0.6-0.2-1-0.3-1.3c-0.1-0.2-0.2-0.6-0.4-1.3c-0.2-0.7-0.3-1.3-0.5-2
			c-0.1-0.7-0.3-1.3-0.5-2c-0.2-0.6-0.3-1-0.4-1.2c-0.1-0.5-0.4-1.4-0.8-2.6c-0.4-1.3-0.8-2.6-1.2-4c-0.4-1.4-0.8-2.7-1.2-4
			c-0.4-1.3-0.6-2.2-0.8-2.7l0-1.5l0-1.3c0-0.1,0-0.3,0.1-0.5c0.2-0.3,0.3-0.6,0.4-0.6c0.1-0.1,0.2-0.4,0.5-0.8
			c0.2-0.4,0.4-0.7,0.5-0.8c0.1-0.1,0.3-0.3,0.6-0.6c0.2-0.2,0.4-0.4,0.6-0.6c0.1,0,0.4-0.2,0.7-0.5c0.4-0.4,0.6-0.6,0.6-0.7
			c0.1,0,0.3-0.1,0.6-0.2c0.2-0.1,0.4-0.2,0.6-0.2l0.8,0l0.6,0c0.1,0,0.3,0.2,0.6,0.5c0.3,0.3,0.5,0.6,0.6,0.7
			c0.1,0.4,0.3,0.8,0.5,1.2c0.1,0.3,0.3,0.7,0.4,1.1c0.1,0.4,0.2,0.7,0.3,0.9c0.1,0.6,0.5,1.7,1,3.5c0.5,1.8,1.1,3.9,1.8,6.2
			c0.7,2.4,1.4,4.9,2.2,7.5c0.8,2.6,1.5,5.2,2.2,7.5c0.7,2.4,1.3,4.5,1.8,6.2c0.5,1.8,0.8,3,1,3.5c0.1,0.2,0.2,0.5,0.3,1
			c0.1,0.4,0.3,0.9,0.5,1.4c0.2,0.5,0.3,1,0.5,1.5c0.2,0.5,0.3,0.9,0.3,1.1c0.1,0.2,0.2,0.6,0.4,1.1c0.2,0.5,0.4,1.1,0.7,1.6
			c0.2,0.6,0.5,1.1,0.7,1.7c0.2,0.5,0.4,0.9,0.5,1.1c0,0.1,0.2,0.5,0.5,1.1c0.3,0.6,0.6,0.9,0.7,1.1l0,1.1l0,1.2
			c-0.1,0.2-0.1,0.4-0.3,0.5c-0.1,0.1-0.2,0.3-0.3,0.4c-0.1,0.1-0.1,0.2-0.2,0.2c-0.1,0.1-0.2,0.4-0.5,0.9c-0.2,0.5-0.4,0.8-0.5,0.9
			c0,0.1-0.1,0.2-0.4,0.5s-0.4,0.5-0.4,0.5c-0.1,0-0.4,0.2-0.8,0.5c-0.4,0.4-0.7,0.6-0.9,0.7c-0.1,0-0.3,0.1-0.6,0.3
			c-0.2,0.2-0.4,0.3-0.6,0.3l-0.6,0l-0.8,0c-0.1,0-0.5-0.2-1-0.8c-0.5-0.5-0.9-0.8-1-1c-0.1-0.1-0.4-0.2-0.9-0.5
			c-0.4-0.3-0.7-0.4-0.9-0.5c0-0.1,0-0.3-0.1-0.5c-0.1-0.1-0.1-0.3-0.2-0.4c-0.1-0.1-0.1-0.2-0.2-0.4l0-0.2l0-0.3l0.2-0.8
			c0.1-0.3,0.1-0.5,0.3-0.7c0.1-0.1,0.1-0.3,0.1-0.6c0-0.1,0-0.2-0.1-0.3l-0.1-0.1c-0.1-0.1-0.3-0.2-0.4-0.2c0,0.1-0.1,0.2-0.3,0.4
			c-0.2,0.2-0.4,0.4-0.6,0.7c-0.2,0.2-0.4,0.5-0.6,0.7c-0.2,0.2-0.4,0.4-0.4,0.4c-0.1,0.1-0.4,0.4-0.8,0.9c-0.4,0.5-0.8,0.8-1,1
			c-0.1,0-0.3,0.1-0.6,0.3c-0.2,0.2-0.4,0.3-0.6,0.3c-0.1,0.1-0.3,0.2-0.7,0.3c-0.4,0.1-0.6,0.2-0.8,0.2c-0.3,0.1-0.8,0.3-1.4,0.4
			c-0.6,0.2-1,0.2-1.1,0.2l-8.3,0.2c0,0.6,0,1.7-0.1,3.2c-0.1,1.5-0.1,3.2-0.2,4.9c-0.1,1.8-0.1,3.4-0.2,5c-0.1,1.6-0.1,2.7-0.1,3.3
			c-0.1,0.2-0.1,0.6-0.2,1.2c0,0.6-0.1,1.2-0.1,1.8c0,0.6,0,1.2-0.1,1.8c0,0.6-0.1,1-0.1,1.2l-0.5-0.4L107.4,86.9z"/>
		<linearGradient id="SVGID_4_" gradientUnits="userSpaceOnUse" x1="253.5414" y1="3.5565" x2="253.5414" y2="112.8202">
			<stop  offset="0.2151" style="stop-color:#E7048C"/>
			<stop  offset="0.3017" style="stop-color:#EC008C"/>
			<stop  offset="0.5842" style="stop-color:#D4238F"/>
			<stop  offset="0.6844" style="stop-color:#CB2B91"/>
			<stop  offset="0.7823" style="stop-color:#D02680"/>
			<stop  offset="0.9991" style="stop-color:#DA1C5C"/>
			<stop  offset="1" style="stop-color:#DA1C5C"/>
		</linearGradient>
		<path class="st6" d="M167.3,83.4c-0.2-0.1-0.5-0.2-1-0.4c-0.5-0.2-1-0.5-1.4-0.8c-0.5-0.3-0.9-0.6-1.4-0.8
			c-0.4-0.3-0.7-0.5-0.9-0.6c-0.3-0.1-0.6-0.3-1-0.5c-0.4-0.2-0.6-0.4-0.6-0.6c-0.2-0.2-0.5-0.5-1-1c-0.5-0.5-1-1-1.5-1.5
			c-0.5-0.5-1-1-1.5-1.5c-0.5-0.4-0.7-0.7-0.8-0.9c0-0.1-0.3-0.5-0.8-1.4c-0.5-0.9-0.9-1.5-1.2-2c-0.1,0-0.2-0.1-0.3-0.4
			c-0.1-0.2-0.2-0.4-0.3-0.6c-0.1-0.3-0.3-0.9-0.6-1.5c-0.2-0.7-0.4-1.1-0.5-1.2c0-0.2-0.1-0.6-0.2-1.2c-0.1-0.6-0.2-1-0.2-1
			l-0.1-4.6l-0.1-4.7c0.1-0.3,0.1-0.7,0.2-1c0.1-0.3,0.1-0.7,0.1-1c0-0.3,0-0.6,0-0.8c0.1-0.1,0.2-0.3,0.3-0.7
			c0.1-0.4,0.2-0.7,0.2-0.8c0.1-0.3,0.3-0.8,0.6-1.5c0.3-0.7,0.6-1.4,0.9-2.2c0.3-0.7,0.6-1.4,0.8-2c0.3-0.6,0.4-1,0.5-1.3
			c0.1-0.1,0.4-0.4,0.7-1c0.4-0.6,0.6-0.9,0.7-1c0.3-0.4,0.8-0.9,1.4-1.6c0.6-0.7,1.2-1.4,1.9-2.2c0.6-0.7,1.2-1.4,1.7-2
			c0.5-0.6,0.8-1,1-1.2c0.1-0.1,0.2-0.2,0.5-0.4c0.3-0.2,0.6-0.4,0.9-0.7c0.3-0.3,0.7-0.5,1-0.8c0.3-0.2,0.6-0.4,0.7-0.6
			c0.2-0.1,0.7-0.3,1.5-0.8c0.7-0.4,1.2-0.7,1.5-0.9c0.2-0.1,0.7-0.4,1.4-0.7c0.8-0.3,1.3-0.5,1.6-0.7c0.2,0,0.7-0.1,1.5-0.2
			c0.8-0.2,1.3-0.2,1.5-0.2l1.6,0l1.4,0c0.2,0,0.7,0.1,1.5,0.2c0.8,0.1,1.4,0.2,1.7,0.2c0.1,0.1,0.4,0.3,0.8,0.4
			c0.4,0.1,0.6,0.3,0.7,0.4c0.3,0,0.6,0.1,1.2,0.4c0.5,0.3,0.9,0.5,1,0.5c0.2,0.1,0.5,0.4,1.1,0.9c0.5,0.4,0.8,0.7,1,0.9
			c0.1,0,0.3,0.3,0.7,0.8c0.4,0.5,0.7,0.9,0.8,1.1c0.1,0.1,0.1,0.3,0.2,0.4c0.1,0.1,0.2,0.2,0.2,0.4c0.1,0.2,0.1,0.4,0.2,0.5l0,1.1
			l0,1.2c0,0.1-0.1,0.3-0.2,0.7c-0.1,0.4-0.3,0.7-0.4,0.8c-0.1,0.2-0.3,0.5-0.6,0.9c-0.3,0.4-0.6,0.8-1,1.2c-0.3,0.4-0.7,0.8-1,1.2
			c-0.3,0.4-0.5,0.7-0.7,0.8c-0.1,0-0.4,0.1-0.8,0.2c-0.4,0.1-0.7,0.2-0.9,0.2l-0.5,0l-0.4,0c-0.3-0.1-0.6-0.4-1-0.8
			c-0.4-0.4-0.6-0.7-0.8-0.8c0-0.1-0.1-0.4-0.3-0.8c-0.2-0.4-0.3-0.7-0.3-0.7c-0.1-0.1-0.3-0.4-0.7-0.9c-0.4-0.4-0.6-0.7-0.8-0.9
			c-0.1-0.1-0.5-0.2-1-0.5c-0.5-0.3-0.9-0.4-1.1-0.5c-0.1-0.1-0.4-0.3-0.8-0.5c-0.4-0.2-0.7-0.3-0.8-0.3l-2.1,0.1l-1.9,0
			c0,0.3,0,0.9,0,1.7c0,0.8,0,1.6-0.1,2.4c0,0.8-0.1,1.6-0.2,2.4c-0.1,0.8-0.1,1.3-0.2,1.6c0,0.2-0.1,0.7-0.2,1.4
			c-0.1,0.7-0.2,1.2-0.2,1.5l-0.9-1.1l-0.2-9.7l-1.1,4.1l-0.5-0.4c-0.1-0.3-0.2-0.7-0.3-1.2s-0.2-0.9-0.2-1.2l-0.5,0l-0.1,0
			c-0.1,0.1-0.3,0.3-0.5,0.3c-0.1,0.1-0.2,0.1-0.4,0.2c-0.1,0.1-0.2,0.1-0.3,0.1c-0.1,0.1-0.4,0.3-0.7,0.6c-0.4,0.3-0.6,0.4-0.7,0.4
			c-0.1,0.1-0.4,0.4-0.8,0.9c-0.4,0.5-0.7,0.8-0.8,1c-0.2,0.1-0.5,0.5-0.8,1.1c-0.4,0.6-0.5,1-0.5,1.1c-0.1,0.1-0.3,0.5-0.5,1.1
			c-0.2,0.6-0.4,1-0.5,1.3c-0.1,0.1-0.1,0.3-0.2,0.7c-0.1,0.4-0.2,0.7-0.3,0.8c0,0.3,0,0.9-0.1,1.6c-0.1,0.7-0.2,1.1-0.2,1.3
			l0.1,2.8l0.1,2.8c0,0.1,0.1,0.5,0.2,1c0.1,0.5,0.2,0.9,0.2,1.3c0.1,0.1,0.3,0.4,0.4,0.9c0.1,0.4,0.2,0.7,0.2,0.9
			c0.1,0.1,0.3,0.4,0.6,1c0.3,0.6,0.5,1,0.6,1.2l0.4,0.6c0.1,0.1,0.2,0.3,0.3,0.5c0.1,0.2,0.1,0.3,0.2,0.5c0.3,0.3,0.6,0.7,1,1.3
			c0.4,0.6,0.6,0.9,0.8,0.9c0.1,0.3,0.5,0.7,1,1.3c0.5,0.6,0.8,0.9,1,1.1c0.2,0.1,0.6,0.3,1.1,0.7c0.6,0.4,0.9,0.7,1,0.8
			c0.1,0.1,0.4,0.2,0.8,0.4c0.4,0.2,0.8,0.4,1.2,0.6c0.4,0.2,0.8,0.5,1.3,0.7c0.4,0.2,0.8,0.4,1,0.4c0.1,0,0.3,0.1,0.7,0.2
			c0.4,0.2,0.6,0.2,0.8,0.2c0.2,0.1,0.5,0.1,0.9,0.2c0.4,0.1,0.8,0.2,1.2,0.2c0.4,0.1,0.7,0.1,1,0.1c0.3,0,0.5,0,0.6,0
			c0.2,0,0.5-0.1,1.1-0.3c0.5-0.2,0.9-0.3,1-0.5c0.1-0.1,0.4-0.5,0.9-1c0.5-0.5,0.8-0.9,0.9-1.2c0.3-0.5,0.6-1.2,1-2
			c0.4-0.9,0.6-1.4,0.6-1.5l-0.2-7.7c-0.5-0.1-1.3-0.1-2.5-0.1c-1.1,0-2.4-0.1-3.7-0.1c-1.3,0-2.6,0-3.7-0.1c-1.2,0-2-0.1-2.5-0.1
			c-0.4,0-0.9,0-1.7-0.1c-0.7,0-1.5-0.1-2.2-0.1c-0.8,0-1.4-0.1-2.1-0.1c-0.6-0.1-1-0.1-1.2-0.1c-0.1-0.1-0.4-0.1-0.8-0.2
			c-0.4-0.1-0.6-0.2-0.7-0.3c-0.1-0.1-0.2-0.3-0.3-0.4c-0.1-0.3-0.2-0.4-0.2-0.5l0-0.4l0-0.3c0-0.2,0-0.5,0.2-0.9
			c0.1-0.2,0.1-0.4,0.3-0.6c0.1-0.2,0.3-0.5,0.6-0.9c0.3-0.4,0.7-0.8,1.1-1.3c0.4-0.4,0.7-0.8,1.1-1.2c0.3-0.4,0.6-0.6,0.7-0.7
			c0.1,0,0.4-0.1,0.8-0.3c0.4-0.2,0.7-0.3,0.8-0.3l1.2,0l1.9,0c1,0,2.3,0,3.8,0c1.5,0,3.2,0,4.9,0c1.7,0,3.5,0,5.2,0
			c1.7,0,3.3,0,4.8,0c1.4,0,2.7,0,3.6,0c1,0,1.6,0,1.7,0c0.1,0,0.4,0,0.8,0c0.4,0,0.9,0.1,1.3,0.1c0.5,0.1,0.9,0.1,1.4,0.1
			c0.4,0,0.7,0,0.9,0l0.8,0.8l0,1l0,0.9c0,0.1-0.1,0.3-0.3,0.6c-0.2,0.3-0.3,0.5-0.5,0.6c-0.1,0.1-0.2,0.5-0.4,0.9
			c-0.2,0.5-0.4,0.8-0.4,0.9c-0.1,0-0.2,0-0.3,0.1c-0.1,0.1-0.2,0.3-0.2,0.4c-0.2,0.2-0.6,0.5-1.1,1c-0.6,0.4-0.9,0.6-0.9,0.6
			c-0.2,0.1-0.7,0.4-1.5,0.7c-0.7,0.3-1.2,0.5-1.5,0.7c-0.1,0.1-0.2,0.3-0.3,0.7c-0.1,0.4-0.2,0.7-0.3,0.8l0,0.9l0,0.7
			c0.1,0.1,0.2,0.5,0.3,1c0.1,0.6,0.2,1.2,0.4,1.9c0.1,0.7,0.3,1.4,0.4,2.1c0.1,0.7,0.2,1.2,0.3,1.7c0.1,0.2,0.2,0.7,0.3,1.4
			c0.1,0.8,0.2,1.2,0.4,1.3c0,0.2,0.1,0.5,0.2,0.9c0.1,0.4,0.2,0.8,0.4,1.3c0.1,0.4,0.3,0.9,0.4,1.3c0.1,0.4,0.2,0.7,0.3,0.9
			c0,0.1,0.1,0.4,0.2,0.8c0.1,0.4,0.2,0.8,0.3,1.3c0.1,0.4,0.2,0.8,0.3,1.2c0.1,0.3,0.2,0.6,0.2,0.6c0,0.1,0,0.5,0.1,1.1
			c0,0.6,0.1,1,0.1,1.2c0,0.4,0,0.9,0,1.4c0,0.5,0,0.8,0,1c-0.1,0.3-0.2,0.5-0.4,0.7c-0.1,0.2-0.2,0.4-0.3,0.5
			c-0.1,0.1-0.1,0.3-0.1,0.4c-0.2,0.3-0.6,0.7-1.2,1.2c-0.5,0.5-0.8,0.8-1,1c-0.2,0.1-0.5,0.4-1,0.8c-0.5,0.4-0.8,0.5-1,0.5l-0.8,0
			l-0.8,0L189,92c-0.1-0.1-0.3-0.7-0.6-1.6c-0.2-0.9-0.4-1.6-0.6-1.9l-0.2-0.8c-0.1-0.2-0.2-0.4-0.3-0.7c-0.1-0.2-0.2-0.4-0.3-0.6
			c0-0.2-0.1-0.7-0.2-1.3c-0.1-0.7-0.3-1.4-0.5-2.3c-0.2-0.8-0.4-1.6-0.6-2.4c-0.2-0.8-0.3-1.2-0.3-1.4c0-0.1-0.1-0.4-0.3-0.8
			c-0.2-0.4-0.3-0.7-0.3-0.8c-0.2,0.2-0.6,0.6-1.2,1.2c-0.6,0.6-1,1-1.3,1.2c-0.3,0.3-0.7,0.7-1.2,1.1c-0.5,0.5-0.8,0.7-0.8,0.7
			c-0.3,0.1-0.7,0.3-1.5,0.8c-0.7,0.4-1.2,0.7-1.5,0.9c-0.2,0.1-0.7,0.4-1.5,0.8c-0.8,0.4-1.4,0.6-1.7,0.6c0.1,0.2,0.2,0.7,0.2,1.6
			s0,1.5-0.1,1.8c0,0.1-0.1,0.6-0.2,1.3c-0.1,0.7-0.2,1.2-0.2,1.5c-0.1-0.1-0.1-0.3-0.2-0.4c-0.1-0.1-0.1-0.2-0.1-0.3
			c-0.1,0-0.2-0.3-0.4-0.9c-0.1-0.6-0.2-1-0.3-1.2c0-0.3-0.1-0.8-0.3-1.5c-0.2-0.7-0.3-1.2-0.3-1.5l-0.2-0.2
			c-0.1-0.1-0.3-0.2-0.5-0.2l-0.2,0l-0.3,0c0,0.3,0,1,0,1.9c0,0.9,0,1.9-0.1,2.9c0,1-0.1,2-0.1,2.9c0,0.9,0,1.5,0,1.9
			c-0.1,0.2-0.1,0.6-0.2,1c-0.1,0.5-0.1,1-0.1,1.5c0,0.5-0.1,1-0.1,1.6c-0.1,0.5-0.1,0.9-0.1,1.1c0,0.2-0.1,0.7-0.2,1.4
			c-0.1,0.7-0.2,1.2-0.2,1.5c-0.1,0-0.2,0.1-0.3,0.2c-0.1,0.1-0.2,0.2-0.3,0.2c0-0.2-0.1-0.7-0.3-1.3c-0.2-0.7-0.3-1.2-0.3-1.4
			l-0.1-5.6c0-0.1-0.1-0.4-0.2-1.1c-0.1-0.7-0.2-1.1-0.2-1.2c-0.1-0.2-0.1-0.7-0.2-1.3c-0.1-0.7-0.2-1.4-0.2-2.2
			c-0.1-0.8-0.1-1.5-0.2-2.2c0-0.7-0.1-1.2-0.1-1.5L167.3,83.4z"/>
		<linearGradient id="SVGID_5_" gradientUnits="userSpaceOnUse" x1="253.5414" y1="3.5565" x2="253.5414" y2="112.8202">
			<stop  offset="0.2151" style="stop-color:#E7048C"/>
			<stop  offset="0.3017" style="stop-color:#EC008C"/>
			<stop  offset="0.5842" style="stop-color:#D4238F"/>
			<stop  offset="0.6844" style="stop-color:#CB2B91"/>
			<stop  offset="0.7823" style="stop-color:#D02680"/>
			<stop  offset="0.9991" style="stop-color:#DA1C5C"/>
			<stop  offset="1" style="stop-color:#DA1C5C"/>
		</linearGradient>
		<path class="st7" d="M214.8,82.8c-0.1,0.2-0.1,0.6-0.2,1.1c-0.1,0.6-0.2,1.1-0.3,1.7c-0.1,0.6-0.2,1.1-0.3,1.7
			c-0.1,0.6-0.2,0.9-0.2,1.1c0,0.1-0.1,0.2-0.2,0.5c-0.1,0.3-0.2,0.5-0.2,0.5l-0.5,0l-0.1,0c0-0.1-0.1-0.3-0.3-0.7
			c-0.2-0.4-0.3-0.7-0.3-0.8c-0.1-0.2-0.1-0.6-0.2-1.1c-0.1-0.6-0.1-1.1-0.2-1.8c0-0.6-0.1-1.2-0.2-1.7c-0.1-0.5-0.1-0.8-0.2-1
			c-0.3-0.1-0.8-0.3-1.5-0.6c-0.8-0.3-1.3-0.5-1.5-0.6c-0.1,0-0.2-0.1-0.5-0.2c-0.3-0.1-0.4-0.3-0.5-0.4c-0.1-0.1-0.3-0.1-0.4-0.2
			c-0.2-0.1-0.3-0.2-0.5-0.4c-0.3-0.1-0.5-0.2-0.7-0.3c-0.1-0.2-0.4-0.5-0.8-0.9c-0.4-0.4-0.8-0.8-1.3-1.3c-0.4-0.5-0.8-0.9-1.2-1.4
			c-0.4-0.4-0.6-0.8-0.8-1c-0.1,0-0.3-0.2-0.6-0.7c-0.3-0.4-0.5-0.8-0.6-1c-0.1-0.1-0.3-0.4-0.4-0.7c-0.2-0.3-0.3-0.6-0.5-1
			c-0.1-0.4-0.3-0.7-0.4-1c-0.1-0.3-0.2-0.5-0.2-0.6c-0.1-0.1-0.3-0.6-0.6-1.5c-0.3-0.9-0.5-1.6-0.6-1.9c-0.1-0.2-0.2-0.6-0.3-1.1
			c-0.1-0.6-0.2-0.9-0.4-1c0-0.5-0.1-1.3-0.2-2.3c-0.2-1.1-0.2-1.7-0.2-2l-0.1-2.2l0-1.9c0-0.1,0-0.4,0-0.9c0-0.5,0.1-1,0.1-1.5
			c0-0.5,0.1-1,0.1-1.6c0-0.5,0-0.9,0-1.1c0.1-0.3,0.2-0.8,0.3-1.5s0.1-1.2,0.2-1.3c0.1-0.2,0.2-0.6,0.3-1.1c0.1-0.5,0.3-1,0.4-1.6
			c0.1-0.5,0.3-1,0.4-1.5c0.1-0.5,0.2-0.8,0.3-1c0.1-0.2,0.2-0.6,0.5-1.3c0.3-0.6,0.6-1.3,0.9-2c0.3-0.7,0.6-1.4,0.8-2
			c0.2-0.6,0.4-1,0.5-1.3c0.1-0.1,0.2-0.3,0.5-0.7c0.2-0.4,0.5-0.9,0.8-1.3c0.3-0.5,0.5-0.9,0.8-1.3c0.2-0.4,0.4-0.6,0.5-0.6
			c0.1-0.1,0.2-0.4,0.4-0.7c0.1-0.2,0.1-0.4,0.2-0.5l-0.1-3.4l0.4-0.9c0.2-0.2,0.4-0.5,0.8-1c0.3-0.4,0.7-0.8,1.1-1.3
			c0.4-0.4,0.7-0.8,1.1-1.2c0.3-0.4,0.6-0.6,0.7-0.7c0.2-0.1,0.5-0.4,1-0.7c0.5-0.3,0.8-0.5,1-0.5l1.4,0l1.6,0
			c0.2,0,0.6,0.1,1.1,0.4c0.5,0.3,0.9,0.5,1,0.7c0.1,0.1,0.5,0.5,1,1c0.5,0.5,1.1,1.1,1.7,1.7c0.6,0.6,1.2,1.3,1.7,1.9
			c0.5,0.6,1,1,1.3,1.3c0.1,0.1,0.3,0.5,0.7,1.1c0.4,0.6,0.7,1,0.8,1.3c0.1,0.1,0.3,0.4,0.6,0.8c0.3,0.4,0.5,0.7,0.6,0.8
			c0.2,0.3,0.5,0.9,0.9,1.5c0.4,0.7,0.6,1.1,0.6,1.2c0.1,0.2,0.3,0.6,0.5,1.1c0.3,0.5,0.6,1.1,0.9,1.7c0.3,0.6,0.6,1.1,0.8,1.6
			c0.2,0.5,0.4,0.9,0.5,1.1c0.1,0.1,0.3,0.6,0.6,1.3c0.3,0.8,0.5,1.2,0.6,1.4c0.1,0.3,0.2,0.8,0.5,1.6c0.3,0.8,0.4,1.4,0.5,1.8
			c0.1,0.1,0.2,0.5,0.4,1.1c0.1,0.6,0.2,0.9,0.2,1.1c0.1,0.5,0.3,1.2,0.5,2c0.2,0.9,0.3,1.3,0.3,1.4l0.1,3.7l0.1,4
			c0,0.1-0.1,0.6-0.2,1.3c-0.1,0.7-0.3,1.2-0.4,1.6c0,0.3,0,0.7-0.1,1.3c-0.1,0.6-0.2,1-0.3,1.1c0,0.1-0.1,0.3-0.2,0.7
			c-0.1,0.4-0.2,0.7-0.2,0.8c-0.1,0.2-0.3,0.6-0.5,1c-0.2,0.5-0.4,1-0.6,1.4c-0.2,0.5-0.4,0.9-0.6,1.3c-0.2,0.4-0.3,0.7-0.4,0.7
			c-0.1,0.3-0.3,0.7-0.6,1.3c-0.4,0.6-0.6,1-0.7,1.1c-0.2,0.1-0.4,0.4-0.8,0.8c-0.3,0.4-0.7,0.8-1.1,1.2c-0.4,0.4-0.7,0.8-1.1,1.2
			c-0.3,0.4-0.6,0.6-0.7,0.7c0,0.1-0.1,0.2-0.4,0.4c-0.2,0.2-0.5,0.4-0.8,0.7c-0.3,0.3-0.6,0.5-0.9,0.7c-0.3,0.2-0.6,0.4-0.7,0.4
			c-0.1,0.1-0.2,0.2-0.4,0.3c-0.2,0.1-0.4,0.2-0.7,0.4c-0.2,0.1-0.5,0.3-0.7,0.4c-0.2,0.1-0.4,0.2-0.4,0.2c-0.3,0-0.4,0.3-0.4,0.7
			c0,0.6-0.1,1.8-0.1,3.4c0,1.6,0,3.4,0,5.2c0,1.8,0,3.6,0,5.2c0,1.7,0,2.8,0,3.5c0,0.3,0,0.6-0.1,1c-0.1,0.4-0.1,0.8-0.2,1.2
			c-0.1,0.5-0.1,1-0.2,1.6l-0.7,0l-1.4-20.6L214.8,82.8z M204.8,56.9c0,0.3,0.1,0.8,0.3,1.5c0.2,0.7,0.3,1.3,0.4,1.6
			c0.1,0.3,0.3,0.8,0.6,1.6c0.3,0.8,0.5,1.4,0.6,1.6c0.1,0.2,0.4,0.7,0.8,1.6c0.4,0.9,0.6,1.4,0.7,1.6c0.1,0.3,0.4,0.7,0.8,1.2
			c0.4,0.5,0.7,0.9,0.8,1.2l2.1,2.2c0.2,0.1,0.4,0.2,0.6,0.3c0.1,0.1,0.3,0.3,0.4,0.4c0.2,0.1,0.3,0.2,0.4,0.2
			c0.1,0.1,0.3,0.3,0.6,0.4c0.3,0.1,0.4,0.2,0.6,0.2c0.1,0.1,0.4,0.3,0.8,0.3c0.4,0.1,0.6,0.1,0.7,0.1l2.5-0.1l2.5-0.1
			c0.1-0.1,0.4-0.4,0.8-0.8c0.4-0.4,0.7-0.7,0.8-0.7c0.1-0.1,0.2-0.5,0.4-1c0.2-0.6,0.4-1,0.4-1.4c0.1-0.1,0.2-0.4,0.3-0.8
			c0.1-0.4,0.1-0.7,0.1-0.8c0.1-0.1,0.1-0.3,0.2-0.8c0.1-0.5,0.1-1,0.1-1.6c0-0.6,0-1.2,0.1-1.8c0-0.6,0.1-1.1,0.2-1.4l0-0.2l0-0.3
			c-0.1-0.3-0.1-0.7-0.2-1.2c-0.1-0.5-0.1-1.1-0.2-1.6c0-0.6-0.1-1-0.2-1.4c-0.1-0.4-0.1-0.7-0.2-0.8c0-0.1-0.1-0.5-0.3-1.1
			c-0.2-0.6-0.3-1-0.3-1.3c-0.1-0.2-0.2-0.7-0.5-1.6c-0.3-0.9-0.4-1.4-0.5-1.6c-0.1-0.3-0.3-0.8-0.6-1.5c-0.3-0.7-0.5-1.1-0.6-1.3
			c-0.1-0.2-0.2-0.6-0.5-1.1c-0.2-0.5-0.5-1.1-0.8-1.6c-0.3-0.5-0.6-1.1-0.9-1.6c-0.3-0.5-0.5-0.9-0.5-1.1c-0.1-0.3-0.4-0.8-0.8-1.4
			c-0.4-0.7-0.6-1.1-0.7-1.3c-0.1-0.1-0.4-0.5-0.8-1.1c-0.4-0.6-0.7-1-0.8-1.3c-0.1,0-0.2-0.1-0.5-0.5c-0.3-0.3-0.4-0.5-0.5-0.5
			l-0.4,0.9c-0.1,0.3-0.3,0.6-0.4,1.1c-0.1,0.5-0.2,0.7-0.2,0.8c0,0.2,0,0.7-0.1,1.6c0,0.9-0.1,1.8-0.1,2.8c0,1,0,2-0.1,2.9
			c0,0.9-0.1,1.5-0.1,1.7c0,0.2,0,0.7-0.1,1.6c-0.1,0.9-0.2,1.4-0.1,1.6c-0.1-0.2-0.3-0.7-0.4-1.6c-0.1-0.9-0.2-1.4-0.2-1.6
			c0-0.5-0.1-1.4-0.2-2.7c-0.1-1.3-0.2-2.8-0.2-4.3c-0.1-1.5-0.1-2.9-0.2-4.2c-0.1-1.3-0.1-2.2-0.2-2.8l-0.7,0l-0.5,0
			c-0.1,0-0.3,0.2-0.6,0.7c-0.4,0.5-0.6,0.8-0.7,1c-0.1,0.1-0.4,0.6-0.7,1.3c-0.4,0.7-0.7,1.2-0.9,1.6c0,0.1-0.1,0.3-0.2,0.6
			c-0.1,0.2-0.2,0.4-0.2,0.6c-0.1,0.2-0.2,0.6-0.3,1.1c-0.1,0.5-0.3,1-0.4,1.6c-0.1,0.5-0.3,1-0.4,1.5c-0.1,0.5-0.2,0.8-0.3,0.9
			c-0.1,0.3-0.2,0.8-0.3,1.5c-0.1,0.7-0.2,1.1-0.2,1.4l0.1,4.7L204.8,56.9z"/>
		<linearGradient id="SVGID_6_" gradientUnits="userSpaceOnUse" x1="253.5414" y1="3.5565" x2="253.5414" y2="112.8202">
			<stop  offset="0.2151" style="stop-color:#E7048C"/>
			<stop  offset="0.3017" style="stop-color:#EC008C"/>
			<stop  offset="0.5842" style="stop-color:#D4238F"/>
			<stop  offset="0.6844" style="stop-color:#CB2B91"/>
			<stop  offset="0.7823" style="stop-color:#D02680"/>
			<stop  offset="0.9991" style="stop-color:#DA1C5C"/>
			<stop  offset="1" style="stop-color:#DA1C5C"/>
		</linearGradient>
		<path class="st8" d="M242.5,31.7c-0.4-0.1-1-0.1-2-0.2c-0.9,0-1.9-0.1-3-0.1c-1,0-2,0-2.9-0.1c-0.9,0-1.6-0.1-1.9-0.1
			c-0.1,0-0.3,0-0.6,0c-0.3,0-0.7-0.1-1-0.1c-0.4,0-0.7-0.1-1.1-0.1c-0.3-0.1-0.6-0.1-0.7-0.2c-0.2,0-0.6-0.1-1.2-0.2
			c-0.6-0.2-1.1-0.3-1.3-0.4c-0.3,0-0.7-0.1-1.2-0.2c-0.5-0.2-0.8-0.2-0.9-0.2c-0.1,0-0.3-0.1-0.6-0.2c-0.3-0.1-0.4-0.2-0.6-0.2
			c-0.1-0.3-0.4-0.6-0.8-1c-0.4-0.4-0.6-0.7-0.6-0.8l0-0.5l0-0.4c0-0.3,0-0.6,0.2-1c0.1-0.4,0.2-0.7,0.2-0.8
			c0.1-0.1,0.3-0.4,0.5-0.8c0.2-0.4,0.4-0.7,0.5-0.7c0.1-0.1,0.4-0.4,0.7-0.9c0.4-0.5,0.6-0.8,0.7-0.9c0.1,0,0.4-0.2,0.8-0.5
			c0.4-0.3,0.7-0.5,0.9-0.6c0.2-0.2,0.3-0.4,0.5-0.4c0.1-0.1,0.2-0.1,0.4-0.1l1.3,0l1.2,0c0.3,0,0.4,0.2,0.6,0.5
			c0,0.1,0.1,0.2,0.2,0.5c0.1,0.1,0.2,0.3,0.3,0.5c0.1,0,0.4,0.1,0.8,0.2c0.4,0.2,0.6,0.2,0.8,0.2c0.3,0.1,0.8,0.3,1.5,0.4
			c0.8,0.2,1.3,0.2,1.6,0.2c0.3,0,0.7,0,1.2,0.1c0.6,0.1,1.1,0.1,1.7,0.1c0.6,0,1.1,0.1,1.7,0.1c0.5,0.1,0.8,0.1,0.9,0.1l2.5-0.1
			l2.1-0.1c0.1,0,0.5-0.2,1.1-0.5c0.6-0.4,0.9-0.6,1.1-0.8l1.1,0l0.8,0c0.1,0.1,0.2,0.3,0.5,0.6c0.3,0.3,0.4,0.5,0.4,0.6l2.2-0.1
			l2,0c0.3,0,0.9-0.1,1.9-0.2c1-0.1,2.2-0.2,3.4-0.2c1.2-0.1,2.4-0.1,3.4-0.2c1.1-0.1,1.7-0.1,2-0.2l5.4-0.1l5.2-0.1
			c0.1,0,0.3,0.1,0.4,0.3c0.1,0.2,0.3,0.3,0.4,0.3l0,0.9l0,0.6c0,0.1-0.1,0.3-0.3,0.6c-0.2,0.3-0.3,0.5-0.5,0.6
			c-0.1,0.2-0.2,0.5-0.4,0.9c-0.2,0.4-0.4,0.6-0.5,0.6c0,0.1,0,0.3-0.1,0.4c-0.1,0.1-0.2,0.2-0.3,0.4c-0.1,0.2-0.2,0.4-0.4,0.5
			c-0.1,0.1-0.4,0.3-0.8,0.5c-0.4,0.3-0.7,0.5-0.9,0.5c-0.1,0.1-0.3,0.3-0.6,0.4c-0.1,0.1-0.2,0.1-0.3,0.1l-10.4,1.5l0.8,34.6
			c0-0.1-0.1-0.3-0.3-0.6c-0.2-0.3-0.2-0.5-0.3-0.6c0-0.1,0-0.4-0.1-0.8c0-0.4-0.1-0.8-0.2-1.3c-0.1-0.4-0.1-0.9-0.2-1.3
			c0-0.4-0.1-0.7-0.1-0.9c-0.1-0.6-0.2-1.6-0.3-3.1c-0.1-1.5-0.2-3.2-0.3-5.2c-0.1-2-0.2-4.1-0.4-6.3c-0.1-2.2-0.3-4.3-0.4-6.2
			c-0.1-1.9-0.2-3.6-0.3-5.1c-0.1-1.5-0.1-2.5-0.1-3.1l-0.7,0c0,0.2,0,0.7-0.1,1.5c-0.1,0.8-0.2,1.2-0.3,1.4c0,0.1,0,0.7,0,1.6
			c0,0.9,0,1.9-0.1,2.9c0,1-0.1,2-0.1,2.9c0,0.9,0,1.4,0,1.5c-0.1-0.1-0.1-0.5-0.2-1.3c-0.1-0.8-0.2-1.7-0.2-2.6
			c-0.1-0.9-0.1-1.8-0.2-2.6c-0.1-0.8-0.1-1.2-0.1-1.3c0-0.2-0.1-0.7-0.3-1.6c-0.2-0.9-0.3-1.4-0.3-1.6l-6.2,0.2l0,1.2
			c0.1,0.2,0.1,0.8,0.2,1.8c0.1,1,0.2,2.2,0.4,3.6c0.2,1.4,0.3,2.9,0.4,4.5c0.1,1.6,0.3,3.2,0.4,4.7c0.2,1.5,0.3,2.8,0.4,3.9
			c0.1,1.1,0.2,2,0.2,2.4c0,0.1,0,0.4,0.1,0.7c0,0.3,0.1,0.7,0.2,1.1c0.1,0.4,0.1,0.8,0.2,1.2c0.1,0.4,0.1,0.6,0.2,0.7
			c0,0.3,0.1,0.7,0.2,1.4c0.1,0.7,0.2,1.3,0.3,2.1c0.1,0.7,0.2,1.4,0.3,2c0.1,0.6,0.2,1,0.2,1.2c0.1,0.2,0.3,0.7,0.4,1.3
			c0.1,0.7,0.2,1.2,0.4,1.4c0.1,0.3,0.2,0.8,0.3,1.4c0.1,0.3,0.1,0.6,0.2,0.8c0.1,0.1,0.4,0.3,1,0.3c0.6,0.1,1,0.1,1.1,0.1
			c0,0.1,0.1,0.3,0.3,0.6c0.2,0.3,0.2,0.5,0.3,0.6c0.1,0.1,0.2,0.5,0.3,1.4c0.1,0.9,0.2,1.5,0.4,2l0,0.3l0,0.1
			c-0.1,0.4-0.2,1-0.3,1.7c-0.1,0.7-0.1,1.1-0.2,1.1c0,0.1-0.1,0.3-0.2,0.6c-0.2,0.3-0.2,0.5-0.2,0.6l-1.5,2.1
			c-0.1,0.1-0.4,0.4-1,0.9c-0.5,0.4-0.9,0.8-1.2,1.1c-0.1,0-0.2,0.1-0.5,0.2c-0.2,0.1-0.4,0.2-0.5,0.2l-1.3,0l-1.2,0l-0.5-0.4
			c-0.1-0.3-0.4-0.7-0.7-1.3c-0.3-0.6-0.5-0.9-0.5-1.1c0-0.2-0.2-0.8-0.5-1.7c-0.3-0.9-0.5-1.6-0.6-2.1c-0.1-0.2-0.2-0.6-0.3-1
			c-0.1-0.5-0.2-1-0.4-1.5c-0.1-0.5-0.3-1-0.4-1.4c-0.1-0.4-0.2-0.8-0.3-1c0-0.2,0-0.6-0.1-1.2c-0.1-0.6-0.2-1.3-0.3-2
			c-0.1-0.7-0.2-1.4-0.3-2.1c-0.1-0.7-0.2-1.1-0.3-1.4c-0.1-0.4-0.2-1-0.3-1.8c-0.1-0.8-0.2-1.6-0.4-2.4c-0.1-0.8-0.3-1.6-0.4-2.3
			c-0.1-0.7-0.2-1.1-0.2-1.3c-0.1-0.3-0.2-1.2-0.4-2.6c-0.2-1.4-0.4-2.9-0.6-4.6c-0.2-1.7-0.4-3.2-0.6-4.6c-0.2-1.4-0.2-2.3-0.3-2.6
			c-0.1-0.2-0.1-0.9-0.2-2c-0.1-1.1-0.2-2.3-0.2-3.6c-0.1-1.3-0.1-2.5-0.2-3.6C242.6,32.5,242.5,31.9,242.5,31.7z"/>
		<linearGradient id="SVGID_7_" gradientUnits="userSpaceOnUse" x1="253.5414" y1="3.5565" x2="253.5414" y2="112.8202">
			<stop  offset="0.2151" style="stop-color:#E7048C"/>
			<stop  offset="0.3017" style="stop-color:#EC008C"/>
			<stop  offset="0.5842" style="stop-color:#D4238F"/>
			<stop  offset="0.6844" style="stop-color:#CB2B91"/>
			<stop  offset="0.7823" style="stop-color:#D02680"/>
			<stop  offset="0.9991" style="stop-color:#DA1C5C"/>
			<stop  offset="1" style="stop-color:#DA1C5C"/>
		</linearGradient>
		<path class="st9" d="M276.2,74.5c0-0.3,0-0.8,0.1-1.7c0.1-0.8,0.2-1.4,0.1-1.7c0.1-0.2,0.3-0.8,0.5-1.7c0.2-0.9,0.4-1.5,0.5-1.8
			c0.1-0.2,0.2-0.5,0.3-0.8c0.1-0.3,0.3-0.7,0.4-1c0.1-0.3,0.3-0.7,0.4-0.9c0.2-0.3,0.3-0.4,0.3-0.4c0.1-0.1,0.4-0.4,0.8-0.9
			c0.4-0.5,0.7-0.8,0.9-0.9c0-0.1,0.2-0.2,0.6-0.5c0.4-0.3,0.6-0.5,0.8-0.5c0.1-0.1,0.3-0.3,0.6-0.5c0.2-0.2,0.4-0.3,0.6-0.3l0.6,0
			l0.8,0c0.3,0.3,0.5,0.6,0.5,0.8c0,0.1,0,0.3,0.1,0.4c0.1,0.3,0.2,0.5,0.2,0.6c0,0.1-0.1,0.3-0.2,0.6c-0.1,0.1-0.1,0.2-0.1,0.3
			c0,0.1,0,0.4-0.1,0.8c-0.1,0.4-0.2,0.9-0.3,1.3c-0.1,0.5-0.2,0.9-0.3,1.3c-0.1,0.4-0.2,0.6-0.2,0.7l0.1,4.4l0.1,5.2
			c0,0.1,0.1,0.6,0.3,1.2c0.2,0.7,0.3,1.2,0.4,1.5c0,0.2,0.1,0.6,0.3,1.2c0.2,0.6,0.3,1,0.3,1c0.1,0.1,0.3,0.6,0.6,1.3
			c0.3,0.8,0.5,1.2,0.6,1.4l2.2,4.5c0,0.1,0.1,0.3,0.3,0.7c0.2,0.4,0.4,0.7,0.5,0.8c0.3,0.2,0.6,0.6,1,1.2c0.4,0.6,0.7,1,0.8,1
			c0.1,0.1,0.4,0.4,0.8,0.9c0.4,0.4,0.6,0.7,0.7,0.9c0.1,0.1,0.5,0.3,1,0.7c0.5,0.4,0.9,0.7,1.2,0.8c0,0.1,0.1,0.3,0.3,0.4
			c0.2,0.1,0.4,0.2,0.5,0.4c0.2,0,0.5,0.1,0.9,0.2c0.4,0.2,0.7,0.2,0.8,0.2l1.5,0l1.4,0l0.6-0.7c0.2-0.2,0.4-0.4,0.5-0.6
			c0.2-0.2,0.3-0.3,0.4-0.5c0.1-0.2,0.1-0.4,0.2-0.5c0.1-0.1,0.2-0.3,0.4-0.5c0-0.1,0.1-0.4,0.2-0.9c0.1-0.5,0.2-0.7,0.2-0.9
			c0.1-0.3,0.2-0.8,0.3-1.3s0.1-0.9,0.1-1c0-0.7,0-1.4,0-2.1c0-0.6,0.1-1.1,0.1-1.7c0-0.6,0-1.1,0-1.4c0-0.3,0-0.8-0.1-1.3
			c0-0.6-0.1-1.1-0.1-1.7c0-0.6-0.1-1.1-0.1-1.5c0-0.4-0.1-0.7-0.1-0.7c0-0.2-0.1-0.8-0.2-1.8s-0.2-1.7-0.4-2.2
			c0-0.2-0.1-0.6-0.2-1.1c-0.1-0.6-0.2-1.1-0.4-1.7c-0.1-0.6-0.3-1.1-0.4-1.7c-0.1-0.5-0.2-0.9-0.2-1.1c0-0.1-0.1-0.3-0.2-0.7
			c-0.1-0.4-0.2-0.9-0.4-1.4c-0.1-0.5-0.3-1-0.4-1.5c-0.1-0.5-0.2-0.8-0.3-1c-0.1-0.3-0.2-0.7-0.3-1.3c-0.1-0.6-0.3-1.2-0.5-1.8
			c-0.2-0.6-0.3-1.2-0.5-1.8c-0.2-0.5-0.3-0.9-0.3-1.1c-0.1-0.5-0.4-1.5-0.9-3c-0.4-1.5-0.9-3.3-1.5-5.4c-0.6-2-1.2-4.2-1.8-6.6
			c-0.7-2.3-1.3-4.5-1.8-6.6c-0.6-2-1.1-3.8-1.5-5.4c-0.4-1.5-0.7-2.6-0.9-3c0-0.1-0.1-0.4-0.2-0.7c-0.1-0.3-0.2-0.6-0.2-0.6
			c0-0.1,0-0.2,0-0.4c0-0.2,0-0.3,0.1-0.5l0.2-0.6c0-0.1,0.1-0.5,0.3-1.1c0.2-0.6,0.4-1,0.6-1.2l2.5-2.9c0.1-0.1,0.4-0.3,0.9-0.6
			c0.5-0.3,0.8-0.4,1-0.4c0.1,0,0.2,0,0.3-0.1c0.1-0.1,0.2-0.2,0.3-0.2l0.5,0.3c0.1,0,0.3,0.1,0.6,0.3c0.3,0.2,0.4,0.4,0.6,0.6
			c0,0.2,0.1,0.7,0.2,1.4c0.1,0.8,0.2,1.2,0.2,1.3c0.1,0.4,0.4,1.5,0.8,3.3c0.5,1.8,1.1,3.8,1.8,6.2c0.7,2.4,1.4,5,2.2,7.7
			c0.8,2.8,1.5,5.3,2.2,7.7c0.7,2.4,1.3,4.5,1.7,6.2c0.5,1.8,0.7,2.8,0.9,3.3c0.1,0.1,0.1,0.3,0.3,0.7c0.1,0.4,0.2,0.9,0.4,1.3
			c0.1,0.5,0.3,1,0.4,1.4c0.1,0.5,0.2,0.8,0.3,1c0,0.3,0.1,0.7,0.2,1.2c0.1,0.5,0.3,1,0.4,1.6c0.1,0.6,0.2,1.1,0.3,1.5
			c0.1,0.4,0.2,0.7,0.2,0.8c0,0.1,0,0.3,0.1,0.6c0.1,0.3,0.1,0.7,0.2,1.1c0,0.4,0.1,0.8,0.2,1.2c0.1,0.4,0.1,0.7,0.1,0.9
			c0.1,0.3,0.2,0.8,0.3,1.3c0.1,0.6,0.2,1.1,0.3,1.7c0.1,0.6,0.1,1,0.2,1.4c0,0.4,0.1,0.7,0.1,0.7l0.1,2.8l0.1,2.8
			c0,0.2-0.1,0.8-0.2,1.7c-0.1,0.9-0.3,1.6-0.4,2.1c0,0.1,0,0.5-0.1,1.1c-0.1,0.6-0.2,1-0.3,1.1c0,0.1-0.1,0.4-0.2,0.9
			c-0.1,0.5-0.2,0.8-0.2,1c-0.1,0.3-0.3,0.8-0.5,1.5c-0.2,0.7-0.4,1.2-0.5,1.4c-0.1,0.1-0.2,0.3-0.3,0.6c-0.1,0.2-0.2,0.4-0.3,0.4
			c-0.2,0.5-0.6,1.2-1,2c-0.4,0.9-0.7,1.3-0.8,1.4c-0.1,0.1-0.3,0.4-0.6,0.8c-0.3,0.4-0.6,0.8-1,1.2s-0.7,0.8-1.1,1.2
			c-0.4,0.4-0.6,0.7-0.8,0.9c-0.1,0.1-0.4,0.4-0.9,0.9c-0.6,0.4-0.9,0.7-1.1,0.8c-0.1,0.1-0.2,0.2-0.5,0.4c-0.3,0.2-0.6,0.4-0.9,0.5
			c-0.3,0.2-0.7,0.4-1,0.5c-0.3,0.2-0.5,0.3-0.6,0.4c-0.1,0-0.1,0.1-0.2,0.2c-0.1,0.1-0.1,0.3-0.1,0.4c-0.1,0.1-0.1,0.3-0.2,0.7
			c-0.1,0.4-0.1,0.8-0.1,1.2c0,0.4-0.1,0.8-0.1,1.2c-0.1,0.3-0.1,0.6-0.1,0.6c0,0.1-0.1,0.3-0.2,0.6c-0.2,0.3-0.2,0.5-0.2,0.6
			c-0.1-0.1-0.2-0.3-0.3-0.6c-0.1-0.3-0.2-0.5-0.3-0.6c0-0.3-0.1-0.8-0.3-1.7c-0.2-0.8-0.3-1.4-0.3-1.7l-0.8,0l0.1,5.6l-0.6,0
			c-0.1-0.2-0.3-0.7-0.4-1.6c-0.1-0.9-0.2-1.4-0.4-1.6c0-0.2,0-0.5-0.1-0.8c-0.1-0.3-0.1-0.6-0.2-1c-0.1-0.3-0.1-0.7-0.2-1
			c0-0.1-0.1-0.2-0.4-0.2c-0.3-0.1-0.6-0.2-1-0.3c-0.4-0.1-0.7-0.2-1-0.3c-0.3-0.1-0.5-0.1-0.7-0.1c-0.2-0.1-0.3-0.1-0.5-0.2
			c-0.3-0.1-0.4-0.3-0.4-0.5c-0.2-0.1-0.5-0.3-0.9-0.5c-0.4-0.2-0.7-0.3-0.8-0.3c-0.2-0.2-0.5-0.5-0.9-1c-0.4-0.4-0.9-0.9-1.3-1.4
			c-0.5-0.5-0.9-0.9-1.3-1.3c-0.4-0.4-0.6-0.7-0.7-0.9c-0.1-0.1-0.5-0.6-1-1.4c-0.5-0.8-0.9-1.4-1-1.8c-0.1-0.1-0.3-0.4-0.5-0.9
			c-0.2-0.4-0.4-0.9-0.7-1.3c-0.3-0.4-0.5-0.9-0.7-1.3c-0.2-0.4-0.3-0.7-0.3-0.8c-0.1-0.1-0.2-0.3-0.3-0.8c-0.2-0.4-0.3-0.9-0.5-1.5
			c-0.2-0.6-0.3-1.1-0.5-1.6c-0.2-0.5-0.3-0.9-0.4-1.2c-0.1-0.3-0.2-0.7-0.3-1.2c-0.1-0.5-0.2-0.9-0.4-1.2c0-0.2,0-0.5-0.1-0.9
			c0-0.4-0.1-0.8-0.2-1.2c-0.1-0.4-0.1-0.8-0.2-1.1c0-0.3-0.1-0.5-0.1-0.6l-0.1-3.2L276.2,74.5z"/>
		<linearGradient id="SVGID_8_" gradientUnits="userSpaceOnUse" x1="253.5414" y1="3.5565" x2="253.5414" y2="112.8202">
			<stop  offset="0.2151" style="stop-color:#E7048C"/>
			<stop  offset="0.3017" style="stop-color:#EC008C"/>
			<stop  offset="0.5842" style="stop-color:#D4238F"/>
			<stop  offset="0.6844" style="stop-color:#CB2B91"/>
			<stop  offset="0.7823" style="stop-color:#D02680"/>
			<stop  offset="0.9991" style="stop-color:#DA1C5C"/>
			<stop  offset="1" style="stop-color:#DA1C5C"/>
		</linearGradient>
		<path class="st10" d="M314.6,81.4c-0.4,0.1-0.7,0.2-0.8,0.2c-0.1-0.1-0.2-0.2-0.5-0.5c-0.3-0.3-0.4-0.4-0.4-0.5l-0.2-6.5l-0.2-6.4
			c0-0.5,0-1.7,0-3.7c0-2,0-4.3,0-7c0-2.7,0-5.6,0-8.7c0-3.1,0-6,0-8.7c0-2.7,0-5.1,0-7.1c0-2,0-3.3,0-3.7c0.1-0.2,0.4-0.8,0.8-1.6
			c0.4-0.9,0.6-1.4,0.8-1.6c0-0.1,0.2-0.4,0.6-0.9c0.4-0.5,0.7-0.8,0.8-0.9c0.1-0.1,0.4-0.3,0.7-0.5c0.4-0.3,0.6-0.5,0.7-0.5
			c0.2-0.2,0.4-0.4,0.6-0.5c0.1-0.1,0.3-0.2,0.5-0.3l0.8,0l0.7,0c0.1,0,0.3,0.1,0.4,0.3c0.1,0.2,0.2,0.4,0.2,0.5
			c0,0.1,0.1,0.3,0.3,0.7c0.2,0.4,0.3,0.7,0.3,0.8l0,1.2l0,1c0,0.1,0,0.4-0.1,0.9c-0.1,0.5-0.1,0.9-0.1,1.4c0,0.5-0.1,1-0.1,1.4
			c-0.1,0.5-0.1,0.7-0.1,0.9c0,0.6,0,2.1,0,4.3c0,2.3,0,4.9,0,8c0,3.1,0,6.4-0.1,9.9c0,3.5-0.1,6.8-0.1,9.9c0,3.1,0,5.7-0.1,8
			c0,2.3-0.1,3.7,0,4.3c-0.1,0.3-0.2,0.6-0.3,1s-0.2,0.7-0.3,0.8c-0.2,0.2-0.3,0.5-0.5,0.7l-0.5,0.8c0,0.1-0.1,0.3-0.2,0.6
			c-0.1,0.3-0.2,0.5-0.2,0.6c0,0.3,0,0.8-0.1,1.5c0,0.7-0.1,1.5-0.1,2.3c0,0.8,0,1.6-0.1,2.3c0,0.7-0.1,1.2-0.1,1.5
			c-0.1,0.3-0.1,0.8-0.2,1.5c-0.1,0.6-0.1,1.3-0.2,1.9c0,0.7-0.1,1.3-0.1,1.8c0,0.6,0,0.9,0,1.1c0,0.1-0.1,0.7-0.2,1.6
			c-0.1,0.9-0.2,1.5-0.2,1.8c0,0.1-0.1,0.4-0.2,1c-0.1,0.6-0.2,1-0.3,1.3c0,0.1-0.1,0.4-0.2,0.8c-0.1,0.4-0.2,0.7-0.2,0.7l-0.5-20
			C315.3,81.2,315,81.2,314.6,81.4z"/>
		<linearGradient id="SVGID_9_" gradientUnits="userSpaceOnUse" x1="253.5414" y1="3.5565" x2="253.5414" y2="112.8202">
			<stop  offset="0.2151" style="stop-color:#E7048C"/>
			<stop  offset="0.3017" style="stop-color:#EC008C"/>
			<stop  offset="0.5842" style="stop-color:#D4238F"/>
			<stop  offset="0.6844" style="stop-color:#CB2B91"/>
			<stop  offset="0.7823" style="stop-color:#D02680"/>
			<stop  offset="0.9991" style="stop-color:#DA1C5C"/>
			<stop  offset="1" style="stop-color:#DA1C5C"/>
		</linearGradient>
		<path class="st11" d="M345.8,78.2c0.1-0.1,0-0.3-0.2-0.4c-0.2-0.1-0.4-0.2-0.6-0.5L344,88.1l-0.7,0.4c-0.1-0.1-0.2-0.4-0.2-0.9
			c0-0.5-0.1-0.7-0.2-0.8c0-0.2,0-0.7,0-1.6c0-0.8,0-1.7,0-2.6c0-0.9,0-1.8,0.1-2.7c0-0.8,0.1-1.4,0.1-1.6c0-0.2,0-0.6,0-1.1
			c0-0.6,0-1.1,0.1-1.7c0-0.6,0-1.1,0-1.6c0-0.5,0-0.8,0-0.9c-0.1-0.1-0.1-0.2-0.2-0.3c-0.1-0.3-0.2-0.5-0.2-0.6
			c-0.1-0.2-0.4-0.6-0.7-1.2c-0.4-0.6-0.6-1-0.7-1.2c-0.1-0.2-0.3-0.5-0.5-1c-0.2-0.4-0.5-0.9-0.7-1.4c-0.3-0.5-0.5-0.9-0.7-1.3
			c-0.2-0.4-0.4-0.6-0.4-0.8c-0.2-0.1-0.5-0.5-1-1.1c-0.5-0.6-1-1.2-1.5-1.8c-0.5-0.6-0.9-1.3-1.4-1.9c-0.4-0.6-0.7-1.1-0.9-1.3
			c-0.1,0.1-0.1,0.4-0.1,0.7c0,0.3,0,0.6,0,0.6c-0.1,0.2-0.1,0.5-0.1,0.9c0,0.2,0,0.4-0.1,0.5c0,0.3,0,1.2,0.1,2.4
			c0.1,1.3,0.1,2.6,0.2,4.1c0.1,1.5,0.1,2.8,0.2,4.1c0.1,1.3,0.1,2.1,0.1,2.4c-0.1,0.1-0.1,0.2-0.1,0.5c0,0.1,0,0.3-0.1,0.4l0,0.9
			c-0.1,0.1-0.4,0.4-0.7,0.9c-0.3,0.5-0.6,0.8-0.7,0.9c-0.1,0.1-0.3,0.4-0.6,0.6c-0.3,0.3-0.6,0.6-1,0.9c-0.4,0.3-0.7,0.6-1.1,1
			c-0.3,0.3-0.6,0.5-0.7,0.7l-0.9,0.4c-0.1,0-0.3,0-0.6,0c-0.3,0-0.4,0-0.6,0c-0.1,0-0.2,0-0.3,0c-0.1,0-0.2,0-0.3,0
			c-0.1,0-0.2,0-0.3-0.1l-0.4-0.5c0-0.1,0-0.3,0-0.6c0-0.3,0-0.7,0-1.1c0-0.4-0.1-0.8-0.1-1.3c-0.1-0.4-0.1-0.8-0.2-1
			c0-0.1,0-0.3,0-0.8c0-0.4,0-0.9,0-1.4c0-0.5,0-1,0-1.4c0-0.5,0-0.7,0-0.9c0-0.2,0-0.5,0-0.9c0-0.4,0-0.8,0-1.2
			c0-0.4,0-0.9-0.1-1.2c0-0.4-0.1-0.6-0.2-0.8c0-0.3,0-0.9-0.1-1.6c0-0.7-0.1-1.4-0.1-2.1c0-0.7,0-1.4,0-2c0-0.6,0-1,0-1.1
			c0-0.4-0.1-1.1-0.2-1.9c-0.1-0.9-0.2-1.7-0.3-2.6c-0.1-0.9-0.2-1.7-0.3-2.5c-0.1-0.8-0.2-1.2-0.2-1.4c0-0.3-0.1-0.8-0.1-1.5
			c-0.1-0.7-0.2-1.4-0.3-2.1c-0.1-0.7-0.2-1.4-0.3-2.1c-0.1-0.7-0.2-1.1-0.2-1.3c0-0.1-0.1-0.5-0.2-1c-0.1-0.5-0.2-1-0.3-1.6
			c-0.1-0.6-0.2-1.1-0.3-1.7c-0.1-0.6-0.2-0.9-0.2-1.1c0.3,0,0.4-0.1,0.5-0.3c0.1-0.1,0.1-0.2,0.1-0.5c0-0.3,0-0.6,0.1-0.9
			c0-0.3,0-0.6,0-0.9c0-0.3,0-0.4,0-0.5c0.1,0,0.3-0.2,0.6-0.6c0.3-0.4,0.5-0.7,0.6-0.7c0.5-0.4,0.9-0.8,1.2-1.2
			c0.1,0,0.3-0.1,0.7-0.4c0.4-0.3,0.7-0.4,0.8-0.6c0.1-0.1,0.2-0.1,0.3-0.1c0.1,0,0.2,0,0.4-0.1c0.2,0,0.3,0,0.5-0.1
			c0.1,0.1,0.2,0.1,0.3,0.1c0.1,0,0.2,0,0.3,0c0.1,0,0.2,0,0.3,0l0.6,0c0.1,0.1,0.3,0.2,0.5,0.5c0.2,0.3,0.4,0.5,0.5,0.7
			c0,0.1,0.1,0.2,0.2,0.5c0.1,0.3,0.3,0.6,0.4,0.9c0.2,0.3,0.3,0.6,0.4,0.9c0.1,0.3,0.2,0.5,0.2,0.6c0.1,0.3,0.4,0.8,0.8,1.3
			c0.4,0.5,0.6,0.9,0.6,1c0.1,0.1,0.3,0.5,0.7,1c0.4,0.5,0.8,1.1,1.3,1.6c0.5,0.6,0.9,1.2,1.4,1.7c0.4,0.6,0.7,1,0.9,1.4
			c0.4,0.4,1,1.2,1.9,2.3c0.9,1.2,1.9,2.4,2.9,3.7c1,1.3,2,2.6,2.9,3.8c0.9,1.2,1.6,2,1.9,2.5l0-0.3l0.1-0.2c0-0.2,0-0.6-0.1-1.1
			c-0.1-0.5-0.2-1.1-0.2-1.6c-0.1-0.6-0.2-1.1-0.2-1.6c-0.1-0.5-0.1-0.8-0.1-0.9c0-0.5-0.1-1.6-0.3-3.3c-0.2-1.7-0.3-3.6-0.5-5.6
			c-0.2-2-0.3-3.9-0.5-5.6c-0.2-1.7-0.3-2.8-0.4-3.3c0-0.3,0-0.7-0.1-0.9c-0.1-0.2-0.1-0.4-0.1-0.7l-0.8-0.2
			c-0.3-0.1-0.5-0.2-0.7-0.3c-0.4-0.1-0.6-0.4-0.5-0.9l0-0.2l0-0.4l0-0.6c0-0.1,0-0.2,0.1-0.3c0.1-0.1,0.2-0.4,0.4-0.8
			c0.2-0.4,0.3-0.6,0.5-0.8c0-0.1,0.1-0.3,0.3-0.5c0.2-0.2,0.3-0.4,0.3-0.5c0.1-0.2,0.3-0.5,0.6-0.9c0.3-0.4,0.4-0.6,0.5-0.5
			c0.2-0.4,0.5-0.7,1.1-1.2c0.6-0.4,1-0.8,1.3-1c0.2-0.1,0.4-0.3,0.6-0.4c0.5-0.3,0.8-0.4,0.8-0.4c0.1-0.1,0.3-0.2,0.6-0.3
			c0.2-0.1,0.4-0.2,0.6-0.1l0.2,0c0.1,0,0.1,0,0.2,0c0.1,0,0.2,0,0.3,0l0.5,0l0.4,0c0.1,0.1,0.3,0.3,0.5,0.6
			c0.2,0.3,0.3,0.6,0.4,0.7c0,0.2,0,0.4,0.1,0.7c0.1,0.6,0.2,0.9,0.2,0.9c0,0.1,0.1,0.6,0.2,1.3c0.1,0.7,0.1,1.3,0.1,1.6
			c0,0.3,0.1,1,0.2,2.2c0.1,1.2,0.2,2.5,0.3,4c0.1,1.5,0.2,2.8,0.3,4c0.1,1.2,0.1,2,0.2,2.3c0.1,0.3,0.1,0.8,0.2,1.4
			c0.1,0.6,0.1,1.2,0.2,1.8c0,0.6,0.1,1.2,0.1,1.6c0,0.5,0.1,0.7,0.1,0.8c0.2,1,0.4,2.6,0.6,4.7s0.6,4.4,1,7
			c0.4,2.6,0.8,5.4,1.2,8.2c0.4,2.9,0.8,5.6,1.2,8.2c0.4,2.6,0.7,4.9,1,7c0.3,2.1,0.5,3.6,0.7,4.6l-0.1,0.5c0,0.3,0,0.5-0.1,0.7
			c0,0.1-0.2,0.5-0.5,0.9c-0.3,0.5-0.5,0.8-0.6,0.9c-0.1,0.1-0.2,0.2-0.5,0.5c-0.3,0.2-0.6,0.5-0.9,0.8c-0.3,0.3-0.6,0.6-0.9,0.8
			c-0.3,0.2-0.4,0.4-0.5,0.5c-0.1,0.1-0.4,0.3-1,0.5c-0.5,0.2-0.9,0.4-1.2,0.5c-0.1,0-0.2,0-0.3,0c-0.1,0-0.2,0-0.2,0l-0.5-0.1
			c-0.1-0.1-0.3-0.4-0.6-0.9c-0.3-0.5-0.5-0.8-0.6-0.9c-0.2-0.3-0.5-0.8-0.8-1.7c-0.4-0.9-0.8-1.8-1.2-2.7c-0.4-1-0.8-1.9-1.2-2.7
			c-0.4-0.9-0.6-1.5-0.8-1.8l-0.9-0.1l-1.1,12.4l-0.6,1.5c0-0.2,0-0.6,0-1.2c0-0.6,0-1.2,0-1.8c0-0.6,0-1.2,0-1.8
			c0-0.6-0.1-1-0.1-1.2c0.1-0.5,0.1-1.3,0.2-2.3c0.1-1.1,0.2-2.2,0.3-3.4c0.1-1.2,0.2-2.3,0.3-3.4c0.1-1.1,0.2-1.8,0.2-2.2
			L345.8,78.2z"/>
		<linearGradient id="SVGID_10_" gradientUnits="userSpaceOnUse" x1="253.5414" y1="3.5565" x2="253.5414" y2="112.8202">
			<stop  offset="0.2151" style="stop-color:#E7048C"/>
			<stop  offset="0.3017" style="stop-color:#EC008C"/>
			<stop  offset="0.5842" style="stop-color:#D4238F"/>
			<stop  offset="0.6844" style="stop-color:#CB2B91"/>
			<stop  offset="0.7823" style="stop-color:#D02680"/>
			<stop  offset="0.9991" style="stop-color:#DA1C5C"/>
			<stop  offset="1" style="stop-color:#DA1C5C"/>
		</linearGradient>
		<path class="st12" d="M396,78.1c0,0.2,0,0.5-0.1,1c-0.1,0.5-0.1,0.9-0.1,1.4c0,0.5-0.1,0.9-0.1,1.4c-0.1,0.4-0.1,0.7-0.1,0.7
			c0,0.3-0.1,0.7-0.2,1.3c-0.1,0.6-0.3,1-0.4,1.1l-0.6-0.5l-0.1-5.6c-0.1-0.1-0.4-0.2-1-0.3c-0.5-0.1-0.9-0.2-1-0.3l-0.5-0.5
			l-0.1-3.8c-0.1-0.1-0.1-0.3-0.2-0.5c-0.1-0.4-0.2-0.7-0.2-0.7c-0.3-0.3-0.6-0.6-1-1.1c-0.4-0.5-0.6-0.8-0.8-0.9
			c-0.1-0.3-0.5-0.7-1.1-1.4c-0.6-0.7-1.2-1.4-1.9-2.1c-0.7-0.7-1.3-1.4-1.9-2c-0.6-0.6-1-1-1.2-1.2c-0.1-0.1-0.6-0.4-1.3-1.1
			c-0.8-0.7-1.4-1.2-1.8-1.6c-0.4-0.3-0.9-0.8-1.5-1.3c-0.6-0.5-1-0.8-1.1-1c-0.1,0-0.3-0.1-0.6-0.2c-0.3-0.2-0.4-0.2-0.6-0.2
			l-0.2,0l-0.3,0l-0.4,0.5c-0.1,0.1-0.3,0.4-0.5,0.8c-0.2,0.4-0.4,0.7-0.5,0.8c-0.1,0.1-0.3,0.4-0.5,0.8c-0.2,0.4-0.4,0.9-0.7,1.4
			c-0.2,0.5-0.5,1-0.7,1.5c-0.2,0.5-0.4,0.8-0.5,1.1c-0.2,0.3-0.5,0.8-0.9,1.5c-0.4,0.7-0.6,1.2-0.6,1.3c-0.1,0.1-0.3,0.4-0.4,0.7
			c-0.1,0.4-0.3,0.7-0.4,1c-0.1,0.4-0.3,0.7-0.4,1c-0.2,0.3-0.3,0.5-0.3,0.6l0,1c0,0.1-0.1,0.4-0.2,0.9c-0.1,0.5-0.2,0.7-0.2,0.9
			c-0.1,0.1-0.2,0.3-0.5,0.7c-0.2,0.4-0.4,0.7-0.5,0.8c-0.2,0.2-0.6,0.6-1.1,1.3c-0.5,0.6-0.8,1-1,1.1c-0.1,0.1-0.2,0.2-0.5,0.4
			c-0.2,0.2-0.5,0.4-0.8,0.5c-0.3,0.2-0.6,0.4-0.9,0.5c-0.3,0.2-0.5,0.3-0.7,0.4l-0.5,0l-0.7,0c-0.1,0-0.3-0.2-0.5-0.5
			c-0.2-0.3-0.4-0.6-0.5-0.7l0-0.6l0-0.9c0.1-0.1,0.2-0.4,0.3-0.9c0.1-0.5,0.2-0.7,0.2-0.9c0.1-0.2,0.2-0.6,0.4-1.2
			c0.2-0.6,0.5-1.1,0.8-1.7c0.3-0.6,0.5-1.1,0.7-1.7c0.2-0.6,0.4-0.9,0.5-1.2c0-0.1,0.2-0.5,0.6-1.3c0.4-0.8,0.7-1.3,1-1.6
			c0.2-0.5,0.7-1.3,1.3-2.5c0.6-1.2,1.3-2.4,2-3.7c0.7-1.3,1.4-2.6,2.1-3.7c0.7-1.2,1.1-2,1.5-2.5l-0.7-0.8l-13.5-10.1
			c-0.2,0-0.6-0.1-1.3-0.3c-0.7-0.2-1.1-0.4-1.2-0.5c-0.1,0-0.1-0.1-0.2-0.2s-0.2-0.2-0.3-0.2c0-0.1-0.1-0.4-0.2-0.8
			c-0.1-0.4-0.2-0.7-0.2-0.7l0-0.9l0-0.8c0-0.2,0.1-0.6,0.4-1.2c0.3-0.6,0.4-1,0.5-1.1c0.1-0.1,0.5-0.6,1.1-1.4
			c0.6-0.8,1.1-1.3,1.4-1.5c0.1-0.1,0.2-0.1,0.4-0.2c0.1-0.1,0.2-0.1,0.4-0.2c0.1-0.1,0.2-0.1,0.4-0.1c0.1-0.1,0.4-0.2,0.7-0.4
			c0.4-0.2,0.6-0.3,0.7-0.3l0.3,0l0.2,0c0.1,0,0.3,0.1,0.6,0.2c0.3,0.2,0.4,0.3,0.6,0.3l15.1,11.4l0.5,0l0.6,0
			c0.1-0.1,0.2-0.3,0.4-0.5c0.1-0.1,0.2-0.3,0.3-0.4c0.1-0.1,0.1-0.2,0.2-0.3c0.2-0.2,0.6-0.8,1.2-1.7c0.6-0.9,1.4-1.9,2.2-3.1
			c0.8-1.1,1.6-2.3,2.3-3.4c0.7-1.1,1.3-2,1.6-2.6c0.2-0.4,0.5-0.8,0.9-1.4c0.4-0.6,0.7-0.9,0.8-0.9c0-0.1,0-0.2,0-0.5
			c0-0.3,0.1-0.6,0.1-0.9c0.1-0.3,0.1-0.6,0.1-0.9c0-0.3,0-0.5,0-0.5c0-0.1,0.1-0.3,0.2-0.6c0.2-0.2,0.2-0.4,0.2-0.6
			c0.1-0.1,0.3-0.4,0.6-0.8c0.3-0.4,0.5-0.7,0.5-0.8c0.1-0.1,0.2-0.3,0.5-0.6c0.2-0.2,0.4-0.4,0.5-0.6c0.1,0,0.4-0.2,0.8-0.5
			c0.4-0.4,0.7-0.6,0.8-0.7c0.1-0.1,0.1-0.1,0.2-0.1c0.1,0,0.2,0,0.3-0.1c0.1-0.1,0.3-0.1,0.5-0.2l0.8,0l0.8,0
			c0.2,0,0.4,0.2,0.6,0.5c0.2,0.3,0.3,0.6,0.3,0.7c0,0.2,0,0.4,0.1,0.6c0.1,0.4,0.2,0.7,0.2,0.9c0,0.3,0,0.6-0.2,1
			c-0.1,0.3-0.1,0.5-0.1,0.6c0,0.1-0.2,0.6-0.5,1.5c-0.3,0.8-0.6,1.5-0.8,2c-0.1,0.1-0.2,0.2-0.3,0.5c-0.2,0.3-0.3,0.6-0.5,0.9
			c-0.2,0.3-0.3,0.6-0.5,0.9c-0.1,0.3-0.2,0.5-0.2,0.5c-0.1,0.1-0.1,0.3-0.1,0.7c0,0.4,0,0.8,0,1.2c0,0.5,0.1,1.1,0.1,1.8
			c-0.1,0.2-0.1,0.6-0.2,1c-0.1,0.5-0.1,1-0.1,1.5c0,0.5-0.1,1-0.1,1.6c-0.1,0.5-0.1,0.9-0.1,1.1c-0.1,0.4-0.1,1.1-0.3,2.1
			c-0.1,1-0.3,2.1-0.4,3.2c-0.1,1.1-0.3,2.2-0.4,3.2c-0.1,1-0.2,1.7-0.3,2.1c0,0.4,0,0.9-0.2,1.5c-0.1,0.3-0.1,0.5-0.2,0.7l-0.8,0
			c0-0.2,0-0.5,0-1c0-0.4,0-0.9,0.1-1.5c0-0.5,0-1,0.1-1.5c0-0.5,0-0.8,0-1c0-0.2,0-0.7,0.2-1.5c0.1-0.8,0.2-1.6,0.3-2.5
			c0.1-0.9,0.1-1.7,0.2-2.4c0.1-0.8,0.1-1.2,0.1-1.5c0.1-0.2,0.1-0.6,0.2-1.1c0-0.5,0.1-1,0.1-1.6c0-0.5,0-1,0.1-1.5
			c0-0.5,0-0.8,0-1l0-0.6l0-0.9l-0.3,0.3c-0.1,0.1-0.1,0.1-0.1,0.2c0,0.1,0,0.1-0.1,0.1c0,0.1,0,0.3,0,0.6c0,0.3-0.1,0.7-0.1,1.1
			c-0.1,0.4-0.1,0.7-0.1,1c0,0.3,0,0.5,0,0.6c-0.1,0.2-0.3,0.6-0.6,1.2c-0.3,0.6-0.5,0.9-0.6,1.2l-0.1-2.8c-0.1,0-0.2,0.1-0.4,0.2
			c-0.2,0.1-0.3,0.2-0.5,0.4c-0.1,0.2-0.4,0.7-0.9,1.4c-0.5,0.7-1,1.5-1.5,2.3c-0.5,0.8-1.1,1.7-1.6,2.5c-0.5,0.8-0.9,1.4-1.2,1.8
			c-0.1,0.1-0.3,0.4-0.5,0.9c-0.2,0.5-0.4,0.8-0.5,0.9l0.5,0.4l5.8,5.1c0.2,0.1,0.5,0.4,0.9,0.8c0.4,0.4,0.8,0.8,1.2,1.2
			c0.4,0.4,0.8,0.8,1.2,1.2c0.4,0.4,0.7,0.6,0.9,0.7l2.6,2.7c0.3,0.3,0.7,0.8,1.4,1.6c0.6,0.8,1.1,1.4,1.3,1.6
			c0.3,0.3,0.7,1,1.2,1.8c0.6,0.9,0.9,1.4,1,1.6c0,0.1,0.1,0.4,0.2,0.8c0.1,0.4,0.2,0.7,0.2,0.7l0,1.5l0,1.3c0,0.1-0.1,0.4-0.2,0.9
			c-0.1,0.5-0.2,0.7-0.2,0.9c-0.1,0.1-0.3,0.3-0.6,0.7c-0.3,0.4-0.5,0.7-0.5,0.8c-0.1,0.1-0.1,0.3-0.2,0.4c-0.1,0.1-0.1,0.2-0.2,0.4
			c-0.1,0.2-0.1,0.4-0.2,0.5l-0.2,26.3l-0.8-1c-0.1-2.1-0.2-4.3-0.3-6.3c-0.1-1.8-0.2-3.6-0.3-5.4c-0.1-1.8-0.1-3.4-0.2-4.6
			l-0.2-7.3L396,78.1z"/>
		<linearGradient id="SVGID_11_" gradientUnits="userSpaceOnUse" x1="253.5414" y1="3.5565" x2="253.5414" y2="112.8202">
			<stop  offset="0.2151" style="stop-color:#E7048C"/>
			<stop  offset="0.3017" style="stop-color:#EC008C"/>
			<stop  offset="0.5842" style="stop-color:#D4238F"/>
			<stop  offset="0.6844" style="stop-color:#CB2B91"/>
			<stop  offset="0.7823" style="stop-color:#D02680"/>
			<stop  offset="0.9991" style="stop-color:#DA1C5C"/>
			<stop  offset="1" style="stop-color:#DA1C5C"/>
		</linearGradient>
		<path class="st13" d="M413.1,74.8c-0.1,0.1-0.2,0.3-0.4,0.3c-0.1,0.1-0.2,0.1-0.3,0.2c-0.1,0.1-0.2,0.1-0.3,0.1
			c-0.2,0.1-0.4,0.3-0.6,0.5c-0.5,0.4-0.8,0.7-0.8,0.7c-0.4,0.1-0.7,0.3-1.1,0.5l-0.7,0.4c-0.1,0-0.3,0-0.4,0.1
			c-0.2,0.1-0.3,0.1-0.4,0.1c-0.1,0-0.3,0-0.4-0.1c-0.2-0.1-0.3-0.1-0.4-0.1l-0.2-0.2l-0.2-0.2l0-0.8l0-0.9c0-0.6,0.1-1,0.2-1.3
			c0.1-0.3,0.1-0.6,0.1-0.9c0-0.3,0-0.5,0-0.6c0.1-0.5,0.2-1.1,0.3-2c0.1-0.8,0.2-1.3,0.2-1.5l-0.2-7.9l-0.2-8.3
			c0-0.1-0.1-0.2-0.2-0.3c-0.1-0.1-0.3-0.2-0.4-0.4l-0.3,0l-0.1,0c-0.1,0.1-0.2,0.1-0.5,0.2c-0.3,0.1-0.6,0.1-0.8,0.2
			c-0.3,0-0.7,0.1-1.2,0.3l-1.3,0l-1.2,0c-0.1-0.1-0.2-0.1-0.3-0.2c-0.1-0.1-0.2-0.3-0.2-0.4l-0.2-0.2c-0.1-0.1-0.1-0.2-0.1-0.5
			c0-0.2,0-0.4,0.1-0.5l0.2-0.4c0-0.1,0-0.3,0.1-0.5c0.2-0.4,0.3-0.6,0.4-0.6c0.1-0.1,0.2-0.4,0.5-0.8c0.2-0.4,0.4-0.7,0.5-0.8
			c0-0.1,0.1-0.3,0.5-0.6c0.3-0.2,0.5-0.4,0.6-0.6c0.1,0,0.4-0.3,0.9-0.7c0.5-0.5,0.8-0.8,0.9-1c0.2,0,0.3-0.1,0.5-0.2
			c0.1-0.1,0.1-0.2,0.2-0.3l0-0.6l0-0.4c-0.1-0.1-0.2-0.7-0.3-1.8c-0.1-1-0.3-2.2-0.4-3.4c-0.2-1.2-0.3-2.4-0.4-3.5
			c-0.1-1.1-0.2-1.7-0.3-1.9l-1-2.1c-0.1-0.2-0.3-0.5-0.6-1c-0.3-0.4-0.5-0.7-0.6-0.7c-0.1-0.3-0.5-0.7-1-1.3
			c-0.5-0.6-0.8-0.9-1-1.1c-0.1,0-0.4-0.1-0.9-0.4c-0.4-0.3-0.7-0.5-0.9-0.6l-0.4-0.5l0-1.2l0-1c0-0.1,0.1-0.5,0.4-1.1
			c0.3-0.6,0.4-1,0.5-1.1c0.1-0.3,0.4-0.7,1-1.3c0.5-0.6,0.8-1,1-1.1c0.2-0.1,0.6-0.3,1.2-0.5c0.5-0.3,0.9-0.5,1-0.5l0.8,0l0.6,0
			c0.1,0,0.3,0.1,0.7,0.2c0.4,0.2,0.8,0.3,1.2,0.5c0.4,0.2,0.8,0.4,1.1,0.5c0.3,0.1,0.6,0.2,0.7,0.2c0.3,0.2,0.8,0.4,1.4,0.7
			c0.6,0.3,1,0.4,1.1,0.4c0.3,0.1,0.8,0.3,1.4,0.5c0.6,0.2,1.2,0.4,1.9,0.6c0.7,0.2,1.3,0.4,1.8,0.6c0.5,0.2,0.9,0.3,1,0.4
			c0.1,0,0.4,0.1,0.9,0.2c0.5,0.1,1.1,0.3,1.8,0.5c0.7,0.2,1.3,0.4,2,0.5c0.7,0.2,1.2,0.2,1.6,0.2c0.1,0,0.5,0.1,1.1,0.2
			c0.6,0.2,1.1,0.2,1.4,0.2c0.1,0.1,0.3,0.1,0.7,0.2c0.3,0.1,0.6,0.2,0.9,0.2c0.3,0.1,0.6,0.1,0.9,0.1c0.3,0,0.5,0,0.5,0
			c0.4,0,1.2,0,2.2,0.1c1,0.1,2.1,0.2,3.2,0.3c1.1,0.1,2.2,0.2,3.2,0.3c1,0.1,1.7,0.1,2.2,0.2l0.2,0.2l0.2,0.2l0,1.2l0,1.1l-0.4,0.9
			c-0.1,0.2-0.3,0.5-0.5,0.8c-0.2,0.4-0.5,0.7-0.7,1.1c-0.2,0.4-0.5,0.7-0.7,1.1c-0.2,0.4-0.4,0.6-0.5,0.6l-0.5,22.1l-0.8,0.5
			l-0.5-21.5l-0.4,0.2c-0.1,0.1-0.1,0.1-0.2,0.1c-0.1,0-0.1,0-0.1,0.1c-0.1,0.1-0.1,0.6-0.2,1.5c0,0.9-0.1,1.9-0.1,3
			c0,1.1-0.1,2.5-0.1,4.2c0,0.1-0.1,0.3-0.4,0.4l-0.4,0.2l-0.2-9.8c-0.3-0.1-0.7-0.1-1.4-0.2c-0.7-0.1-1.4-0.1-2.1-0.1
			c-0.7,0-1.4-0.1-2.1-0.1c-0.7-0.1-1.1-0.1-1.4-0.1c-0.2,0-0.5,0-0.9-0.1c-0.4-0.1-0.8-0.1-1.3-0.1c-0.4,0-0.9-0.1-1.2-0.1
			c-0.4-0.1-0.6-0.1-0.8-0.1c-0.2-0.1-0.7-0.2-1.4-0.3c-0.8-0.2-1.6-0.3-2.4-0.5c-0.9-0.2-1.7-0.3-2.4-0.5c-0.8-0.1-1.2-0.2-1.4-0.2
			l-0.4,0c0,0.1,0,0.4-0.1,0.8c-0.1,0.4,0,0.7,0.1,0.8c0,0.1,0,0.6,0.1,1.5c0.1,0.9,0.1,2,0.2,3.1c0.1,1.1,0.2,2.6,0.3,4.5
			c0.4,0.1,1,0.1,2,0.2c0.9,0,1.9,0.1,3,0.1c1,0,2,0.1,2.9,0.1c0.9,0,1.6,0.1,1.9,0.2c0.1,0,0.5,0.1,1,0.2c0.5,0.1,0.9,0.2,1,0.2
			c0.1,0.1,0.2,0.3,0.5,0.6c0.3,0.2,0.4,0.4,0.4,0.6l0,0.7l0,0.9c0,0.1-0.1,0.3-0.2,0.6c-0.1,0.2-0.2,0.4-0.2,0.6
			c-0.1,0.3-0.3,0.6-0.5,1.1c-0.2,0.3-0.3,0.5-0.5,0.6c-0.1,0.3-0.4,0.6-0.7,1.1c-0.4,0.4-0.6,0.7-0.7,0.8c-0.2,0.1-0.6,0.3-1.2,0.6
			c-0.5,0.3-0.9,0.4-1,0.4c-0.1,0.1-0.2,0.1-0.3,0.1c-0.1,0.1-0.3,0.1-0.6,0.1c-0.2,0-0.4,0-0.7-0.1c-0.3-0.1-0.4-0.1-0.6-0.1
			c-0.1,0-0.5-0.1-1.2-0.2c-0.7-0.1-1.1-0.2-1.3-0.2l-2.5,0.1l0.4,14.4c0.2,0,0.7-0.1,1.6-0.2c0.9-0.2,1.4-0.2,1.6-0.2
			c0.3,0,0.7-0.1,1.5-0.1c0.7-0.1,1.5-0.2,2.3-0.2c0.8-0.1,1.6-0.1,2.3-0.2c0.7-0.1,1.2-0.1,1.6-0.1c-0.1-0.2-0.4-0.6-0.7-1.3
			c-0.3-0.7-0.5-1.2-0.5-1.4c0-0.1-0.1-0.6-0.2-1.3c-0.1-0.7-0.2-1.2-0.2-1.5l0-0.4l0-0.3c0-0.1,0.1-0.4,0.2-0.8
			c0.1-0.4,0.2-0.7,0.2-0.7c0-0.1,0.1-0.3,0.2-0.7c0.1-0.2,0.1-0.4,0.3-0.5c0.1-0.1,0.2-0.4,0.5-0.7c0.3-0.3,0.6-0.7,0.9-1
			c0.3-0.4,0.6-0.7,0.9-1c0.3-0.3,0.6-0.5,0.7-0.7c0.1-0.1,0.3-0.2,0.5-0.3c0.2-0.1,0.4-0.2,0.5-0.4l1.1,0l0.8,0
			c0.1,0.2,0.1,0.4,0.2,0.5c0.1,0.2,0.2,0.4,0.4,0.6c0,0.1,0.1,0.5,0.2,1.2c0.1,0.7,0.2,1,0.2,1.1c0.1,0.3,0.4,0.8,0.8,1.6
			c0.4,0.8,0.7,1.4,0.8,1.6c0.1,0.2,0.3,0.6,0.7,1.1c0.4,0.5,0.7,0.9,0.8,1.1c0.1,0.1,0.3,0.4,0.6,0.7s0.6,0.6,1,1
			c0.3,0.3,0.6,0.7,1,1c0.3,0.3,0.6,0.5,0.8,0.7c0.1,0.1,0.5,0.5,1.3,1.1c0.7,0.6,1.2,1,1.3,1.2c0.1,0.1,0.4,0.3,0.8,0.6
			c0.4,0.3,0.6,0.5,0.7,0.6c0.2,0.1,0.6,0.2,1.2,0.5c0.6,0.3,1.3,0.6,2,0.9c0.7,0.3,1.4,0.7,2,1c0.6,0.3,1,0.6,1.2,0.7
			c0.1,0.1,0.3,0.2,0.6,0.5c0.3,0.3,0.4,0.4,0.4,0.5l0,0.9l0,1.2c0,0.1-0.1,0.4-0.2,0.7c-0.1,0.3-0.3,0.5-0.3,0.5
			c-0.1,0.2-0.3,0.5-0.6,0.8c-0.3,0.4-0.6,0.7-0.9,1.1c-0.3,0.4-0.6,0.7-0.9,1.1c-0.3,0.4-0.5,0.6-0.6,0.6c-0.1,0-0.3,0.1-0.6,0.3
			c-0.2,0.2-0.4,0.3-0.6,0.3l-1.2,0l-1.3,0c-0.1,0-0.3,0-0.7-0.1c-0.3-0.1-0.7-0.2-1.1-0.3c-0.4-0.1-0.8-0.3-1.1-0.4
			c-0.3-0.1-0.6-0.2-0.6-0.3c-0.5-0.1-1.2-0.3-2-0.5c-0.9-0.2-1.7-0.4-2.6-0.6c-0.9-0.2-1.7-0.4-2.3-0.5c-0.7-0.2-1.1-0.2-1.2-0.2
			c-0.1,0-0.3,0-0.5-0.1c-0.4-0.1-0.6-0.2-0.7-0.2c-0.1,0-0.2,0.1-0.5,0.2c-0.3,0.1-0.4,0.2-0.5,0.2c0,0.1,0,0.5-0.1,0.9
			c-0.1,0.5-0.1,1-0.1,1.5c0,0.5-0.1,1-0.1,1.5c-0.1,0.5-0.1,0.8-0.1,0.9c0,0.2-0.1,0.7-0.2,1.5c-0.1,0.8-0.3,1.2-0.4,1.4
			c0,0.1-0.1,0.3-0.2,0.6c-0.2,0.3-0.2,0.5-0.2,0.6c0-0.1,0-0.4-0.1-0.8c0-0.4-0.1-0.8-0.2-1.2c-0.1-0.4-0.1-0.8-0.2-1.2
			c0-0.4-0.1-0.7-0.1-0.9c-0.1-0.1-0.1-0.5-0.2-1c-0.1-0.5-0.2-1.1-0.2-1.7c-0.1-0.6-0.1-1.2-0.2-1.8c0-0.6-0.1-0.9-0.1-1.1
			l-0.5-0.5c-0.1,0-0.3,0.1-0.4,0.2c-0.2,0.1-0.3,0.2-0.4,0.2L426,92l-0.6,2.8c-0.1-0.1-0.3-0.3-0.4-0.7c-0.1-0.4-0.2-0.7-0.2-0.8
			c0-0.2,0-0.5-0.1-1c-0.1-0.4-0.1-0.9-0.2-1.4c0-0.5-0.1-1-0.2-1.6c-0.1-0.5-0.1-0.9-0.1-1.1c-0.1-0.5-0.2-1.4-0.3-2.6
			c-0.1-1.3-0.2-2.6-0.2-4.1c-0.1-1.5-0.1-2.8-0.2-4.1s-0.2-2.2-0.3-2.7L413.1,74.8z"/>
		<linearGradient id="SVGID_12_" gradientUnits="userSpaceOnUse" x1="253.5414" y1="3.5565" x2="253.5414" y2="112.8202">
			<stop  offset="0.2151" style="stop-color:#E7048C"/>
			<stop  offset="0.3017" style="stop-color:#EC008C"/>
			<stop  offset="0.5842" style="stop-color:#D4238F"/>
			<stop  offset="0.6844" style="stop-color:#CB2B91"/>
			<stop  offset="0.7823" style="stop-color:#D02680"/>
			<stop  offset="0.9991" style="stop-color:#DA1C5C"/>
			<stop  offset="1" style="stop-color:#DA1C5C"/>
		</linearGradient>
		<path class="st14" d="M467.2,89.3c0.1-0.1,0.1-0.5,0.2-1.1c0-0.6,0.1-1.3,0.1-2c0-0.7,0-1.4,0.1-2.1c0-0.7,0.1-1.2,0.2-1.5
			c0-0.1,0-0.4,0.1-0.9c0-0.5,0.1-1.1,0.1-1.7c0-0.6,0.1-1.1,0.1-1.6c0-0.5,0.1-0.8,0.1-0.9l0-1.5l0-1.3c-0.2,0-0.5,0.1-1,0.2
			c-0.5,0.1-1,0.2-1.5,0.4c-0.5,0.2-1,0.3-1.5,0.4c-0.5,0.1-0.8,0.2-1,0.2c-0.4,0.1-0.9,0.3-1.7,0.4c-0.8,0.1-1.2,0.2-1.3,0.2
			c-0.3,0.1-0.8,0.2-1.5,0.2c-0.7,0.1-1.4,0.2-2.3,0.2c-0.8,0.1-1.6,0.1-2.3,0.2c-0.7,0.1-1.2,0.2-1.6,0.2l-2,0l-1.7,0
			c-0.1-0.1-0.2-0.3-0.5-0.6c-0.3-0.3-0.4-0.5-0.5-0.6l0-0.1l0-0.5c0.1-0.1,0.1-0.4,0.2-0.8c0.1-0.4,0.1-0.7,0.1-0.8
			c0.1-0.1,0.4-0.5,0.8-1.1c0.4-0.6,0.7-0.9,0.9-1.1c0.1-0.1,0.2-0.2,0.4-0.5c0.2-0.2,0.4-0.5,0.6-0.7c0.2-0.2,0.5-0.6,0.9-1.1
			c0-0.2,0-0.5,0.1-0.7c0.1-0.6,0.2-0.9,0.2-1c0-0.2-0.1-0.6-0.2-1.2c-0.1-0.6-0.2-0.9-0.2-1.1c0-0.1-0.1-0.6-0.2-1.2
			c-0.1-0.7-0.2-1.2-0.4-1.5c0-0.1-0.1-0.4-0.2-0.8c-0.1-0.4-0.3-0.7-0.4-0.7c0-0.3-0.2-0.8-0.5-1.5c-0.3-0.8-0.5-1.2-0.5-1.2
			c-0.2-0.4-0.4-1-0.5-1.9c-0.1-0.8-0.2-1.3-0.4-1.4c0-0.1-0.1-0.6-0.2-1.4c-0.1-0.9-0.3-2-0.6-3.3c-0.2-1.3-0.5-2.7-0.7-4.2
			c-0.3-1.5-0.5-2.9-0.8-4.2c-0.3-1.3-0.5-2.4-0.7-3.3c-0.2-0.9-0.3-1.4-0.4-1.5c-0.1-0.1-0.3-0.5-0.5-1c-0.2-0.5-0.3-1.1-0.5-1.8
			c-0.1-0.6-0.3-1.2-0.4-1.8c-0.1-0.5-0.2-0.9-0.2-0.9c-0.2-0.1-0.6-0.5-1.3-1.2c-0.6-0.7-1.1-1.3-1.4-1.5c-0.1,0-0.2-0.1-0.4-0.2
			c-0.2-0.1-0.5-0.3-0.7-0.5c-0.3-0.2-0.5-0.3-0.7-0.5c-0.2-0.2-0.3-0.3-0.3-0.4l0-1.2l0-1.6c0.1-0.1,0.1-0.3,0.2-0.5
			c0.1-0.4,0.2-0.7,0.2-0.7c0.1-0.1,0.3-0.3,0.6-0.6c0.3-0.3,0.6-0.7,0.9-1.1c0.3-0.4,0.6-0.7,0.9-1c0.3-0.3,0.5-0.5,0.6-0.6
			c0.1-0.1,0.3-0.3,0.6-0.4c0.3-0.1,0.4-0.2,0.6-0.2l0.5,0c0.1,0,0.3,0,0.4-0.1c0.2,0,0.3-0.1,0.4-0.1c0.1,0,0.3,0,0.6,0
			c0.3,0,0.5,0,0.7,0c0.1,0,0.2,0,0.5,0.1c0.3,0.1,0.6,0.2,1,0.3c0.3,0.1,0.7,0.2,1,0.3c0.3,0.1,0.5,0.1,0.6,0.1
			c0.1,0.1,0.3,0.1,0.6,0.2c0.3,0.1,0.7,0.2,1.1,0.2c0.4,0.1,0.7,0.1,1.1,0.2c0.3,0.1,0.6,0.1,0.7,0.1c0.4,0,1.3,0,2.7,0.1
			c1.4,0.1,2.9,0.1,4.5,0.2c1.6,0.1,3.1,0.2,4.5,0.3c1.4,0.1,2.3,0.2,2.7,0.1c0.1,0,0.3,0,0.6,0.1c0.3,0.1,0.7,0.1,1.2,0.1
			c0.4,0,0.9,0.1,1.3,0.1c0.4,0.1,0.7,0.1,0.9,0.1c0.2,0,0.7,0.1,1.5,0.2c0.8,0.1,1.4,0.2,1.7,0.2c0.3,0.1,0.7,0.3,1.3,0.4
			c0.6,0.1,1,0.3,1.2,0.4c0.3,0,0.6,0.1,1,0.2c0.4,0.1,0.7,0.2,0.9,0.2c0.1,0,0.4,0.1,0.9,0.2c0.4,0.2,0.7,0.3,0.9,0.3
			c0.2,0,0.6,0.1,1.2,0.4c0.6,0.3,1.1,0.4,1.3,0.4c0,0.1,0.2,0.3,0.5,0.4c0.3,0.1,0.5,0.3,0.7,0.4c0.1,0.1,0.3,0.2,0.7,0.5
			c0.4,0.3,0.6,0.4,0.8,0.5c0.2,0.1,0.4,0.4,0.8,0.7c0.3,0.3,0.6,0.6,1,1c0.3,0.3,0.6,0.7,0.9,1c0.3,0.3,0.4,0.5,0.4,0.7
			c0.1,0.1,0.3,0.8,0.6,2c0.3,1.2,0.7,2.4,1,3.8c0.4,1.4,0.7,2.7,1,3.9c0.3,1.2,0.4,1.8,0.4,1.9c-0.1,1.9-0.2,3.6-0.3,5.1
			c-0.1,1.3-0.2,2.5-0.2,3.7c0,1.1-0.1,1.8,0,1.9c0,0.2,0,0.5-0.1,0.7c-0.1,0.3-0.2,0.6-0.3,0.8l-0.4,1c0,0.1-0.1,0.4-0.2,0.9
			c-0.1,0.5-0.2,0.8-0.2,1c-0.1,0.1-0.3,0.5-0.6,1.1c-0.3,0.6-0.4,0.9-0.4,1c-0.1,0.2-0.4,0.6-0.7,1.3s-0.6,1-0.6,1.1
			c-0.2,0.1-0.5,0.4-0.8,0.8c-0.4,0.4-0.7,0.8-1.1,1.2c-0.4,0.4-0.7,0.8-1.1,1.2c-0.3,0.4-0.5,0.7-0.6,0.9c-0.1,0-0.4,0.2-0.9,0.6
			c-0.5,0.4-0.9,0.7-1.3,1c-0.1,0.1-0.3,0.4-0.6,0.6c-0.4,0.3-0.6,0.5-0.7,0.6c-0.3,0.1-0.8,0.4-1.4,0.9c-0.6,0.4-1,0.7-1.1,0.8
			c-0.1,0.1-0.3,0.2-0.6,0.4c-0.3,0.2-0.6,0.4-1,0.5c-0.4,0.2-0.7,0.4-1,0.5c-0.3,0.2-0.5,0.3-0.6,0.4l-0.5,0.4c0,0.3,0,0.9-0.1,1.8
			c-0.1,0.9-0.2,1.5-0.1,1.7c-0.1,0.1-0.2,0.4-0.3,0.9c-0.1,0.5-0.2,0.7-0.2,0.9l-0.5-0.5c-0.1-0.1-0.1-0.3-0.3-0.6
			c-0.1-0.3-0.2-0.7-0.3-1.1c-0.1-0.4-0.1-0.8-0.2-1.1c0-0.3-0.1-0.5-0.1-0.7l-0.5,0l-0.4,0c-0.3,0-0.5,0.1-0.7,0.3
			c-0.2,0.2-0.3,0.3-0.3,0.5l0,2.1c-0.1,0.3-0.1,1.2-0.3,2.6c-0.1,1.4-0.2,2.8-0.3,4.5c-0.1,1.6-0.2,3.2-0.3,4.8
			c-0.1,1.6-0.2,2.7-0.2,3.5c-0.1,0.3-0.1,0.6-0.2,1c-0.1,0.4-0.1,0.8-0.2,1.3c-0.1,0.5-0.1,1-0.2,1.6l-0.5,0
			c-0.1-0.4-0.1-0.8-0.2-1.2c-0.1-0.3-0.2-0.7-0.3-1c-0.1-0.3-0.2-0.7-0.3-0.9l0-1.5L467.2,89.3z M455.1,30.8
			c0.1,0.1,0.2,0.7,0.3,1.8c0.1,1.1,0.3,2.6,0.5,4.2c0.2,1.7,0.4,3.5,0.7,5.5c0.2,2,0.4,3.8,0.6,5.5c0.2,1.7,0.3,3.1,0.4,4.3
			c0.1,1.2,0.2,1.8,0.3,1.9c0,0.1,0.1,0.4,0.2,0.8c0.1,0.4,0.2,0.7,0.2,0.8c0.1,0.3,0.3,0.8,0.4,1.3c0.1,0.6,0.2,0.9,0.2,1
			c0.1,0.3,0.2,1,0.3,1.9c0.1,0.9,0.2,1.9,0.3,3c0.1,1.1,0.2,2.1,0.2,3.1c0.1,1,0.1,1.6,0.1,2l0.6,0l0.8,0c0.2,0,0.5,0,0.9-0.1
			c0.4-0.1,0.9-0.1,1.4-0.2c0.5,0,0.9-0.1,1.4-0.2c0.5-0.1,0.8-0.1,1-0.1c0.1,0,0.5-0.1,1.1-0.2c0.6-0.2,1.1-0.3,1.4-0.4
			c0.2,0,0.5-0.1,1-0.2c0.5-0.1,0.8-0.2,0.9-0.2c0.2-0.1,0.6-0.2,1.1-0.4c0.5-0.2,0.9-0.4,1.4-0.6c0.5-0.2,0.9-0.4,1.3-0.6
			c0.4-0.2,0.6-0.3,0.7-0.4c0.1,0,0.4-0.1,0.7-0.3c0.3-0.2,0.7-0.5,1.1-0.8c0.4-0.3,0.8-0.5,1.2-0.8c0.4-0.2,0.7-0.4,0.9-0.5
			c0.2-0.1,0.6-0.3,1-0.6c0.4-0.3,0.6-0.4,0.6-0.6c0.3-0.2,0.7-0.6,1.1-1.3c0.5-0.6,0.7-1,0.9-1l0-0.9l0-0.6
			c-0.1-0.1-0.1-0.3-0.1-0.8s0-1,0.1-1.5c0-0.5,0.1-1,0.1-1.4c0-0.4,0-0.6-0.1-0.6c0-0.1-0.1-0.5-0.2-1.3c-0.1-0.8-0.3-1.8-0.5-3
			c-0.2-1.2-0.4-2.5-0.7-3.8c-0.2-1.3-0.4-2.6-0.7-3.8c-0.2-1.2-0.4-2.2-0.6-3c-0.2-0.8-0.3-1.2-0.3-1.3c-0.1,0-0.2-0.1-0.5-0.3
			c-0.3-0.2-0.5-0.4-0.8-0.7c-0.3-0.3-0.5-0.5-0.8-0.7c-0.3-0.2-0.4-0.3-0.5-0.3c0-0.1,0,0.5-0.1,1.6c0,1.1-0.1,2.6-0.1,4.3
			c0,1.7-0.1,3.6-0.1,5.7c0,2-0.1,3.9-0.1,5.7c0,1.7-0.1,3.8-0.1,6.1c-0.1-0.1-0.2-0.7-0.3-2c-0.1-1.2-0.3-2.8-0.4-4.7
			c-0.1-1.9-0.3-3.9-0.4-6c-0.1-2.1-0.3-4.1-0.4-6c-0.1-1.9-0.3-3.4-0.4-4.6c-0.1-1.2-0.2-1.8-0.3-1.8c-0.1-0.1-0.4-0.1-0.8-0.2
			c-0.4-0.1-0.6-0.2-0.8-0.3c-0.3,0-0.7-0.1-1.2-0.2c-0.5-0.1-0.8-0.2-0.9-0.2l-0.8,0l-0.6,0c-0.1,0-0.2,0.1-0.3,0.4
			c-0.1,0.2-0.2,0.5-0.3,0.7c0,0.1,0,0.6,0,1.7c0,1.1,0,2.4,0,4s0,3.3,0,5.1c0,1.8,0,3.5,0,5.1c0,1.6,0,2.9,0,4c0,1.1,0,1.6,0,1.7
			l-0.4,0.9l-0.9-0.4l-0.6-22.8l-0.5-0.5c-0.1-0.1-0.3-0.3-0.4-0.4c-0.2-0.1-0.3-0.2-0.4-0.4c-0.1,0-0.3-0.1-0.7-0.2
			s-0.6-0.2-0.8-0.2c-0.2,0-0.5,0-1-0.1c-0.5-0.1-1-0.1-1.5-0.1c-0.5,0-1.1-0.1-1.6-0.1c-0.5-0.1-0.9-0.1-1-0.1c-0.2,0-0.5,0-0.8,0
			c-0.3,0-0.7,0-1.1,0c-0.4,0-0.8,0-1.1,0c-0.3,0-0.6,0-0.7,0L455.1,30.8z"/>
		<linearGradient id="SVGID_13_" gradientUnits="userSpaceOnUse" x1="253.5414" y1="3.5565" x2="253.5414" y2="112.8202">
			<stop  offset="0.2151" style="stop-color:#E7048C"/>
			<stop  offset="0.3017" style="stop-color:#EC008C"/>
			<stop  offset="0.5842" style="stop-color:#D4238F"/>
			<stop  offset="0.6844" style="stop-color:#CB2B91"/>
			<stop  offset="0.7823" style="stop-color:#D02680"/>
			<stop  offset="0.9991" style="stop-color:#DA1C5C"/>
			<stop  offset="1" style="stop-color:#DA1C5C"/>
		</linearGradient>
		<path class="st15" d="M489.5,43.9l-0.2-9c0-0.2,0-0.7,0-1.5c0-0.8,0-1.6,0.1-2.5c0-0.9,0.1-1.7,0.1-2.5c0-0.8,0-1.3,0-1.5
			c0-0.1,0-0.4,0-0.9c0-0.6,0-1.2,0-1.9c0-0.7,0-1.5,0-2.2c0-0.8,0-1.4,0-1.9c0-0.2,0-0.6-0.1-1.3c0-0.7-0.1-1.4-0.1-2.1
			c0-0.8-0.1-1.5-0.1-2.2c0-0.7-0.1-1.2-0.1-1.5c0-0.1-0.1-0.4-0.2-0.8c-0.1-0.4-0.2-0.7-0.2-0.8c0.1-0.2,0.1-0.5,0.2-0.7l0.2-0.8
			c0.2-0.4,0.4-0.8,0.5-1.3c0.1-0.3,0.3-0.6,0.5-1c0.2-0.4,0.4-0.6,0.6-0.6c0-0.1,0.1-0.3,0.4-0.6c0.3-0.3,0.4-0.5,0.4-0.6
			c0.1-0.1,0.4-0.3,0.8-0.6c0.4-0.3,0.7-0.4,0.9-0.6c0.1-0.1,0.2-0.2,0.5-0.3c0.1-0.1,0.2-0.1,0.4-0.1c0.1,0,0.3-0.1,0.6-0.2
			c0.2-0.1,0.5-0.2,0.8-0.2c0.1,0.1,0.1,0.1,0.2,0.1c0.1,0,0.1,0,0.1,0c0,0,0.1,0,0.1,0c0.1,0.1,0.3,0.1,0.4,0.1
			c0.1,0,0.2,0.1,0.3,0.4c0.2,0.2,0.2,0.4,0.1,0.6c0,0.4,0,1.1,0.1,2.1c0.1,1,0.1,2,0.1,3.1c0,1.1,0.1,2.1,0.1,3.1
			c0.1,1,0.1,1.7,0.1,2.1c0,0.7,0,1.6,0,2.8c0,1.1,0,2.3,0,3.4c0,1.1,0,2.5,0,4.2c0,0.2,0,0.7,0,1.6c0,0.9,0,1.8-0.1,2.7
			c0,0.9-0.1,1.8-0.1,2.6c0,0.8,0,1.3,0,1.5l0.4,17.1l-0.4,0.9c-0.1,0.1-0.2,0.4-0.4,0.6c-0.2,0.3-0.4,0.6-0.7,0.9
			c-0.2,0.3-0.5,0.6-0.6,0.8s-0.3,0.4-0.3,0.5c-0.1,0.4-0.2,1-0.4,2c-0.1,1-0.1,1.6,0,1.9l-0.7,0c0.1-0.3,0.1-0.7-0.1-1.1
			c-0.2-0.5-0.3-0.8-0.4-0.9c0-0.1-0.1-0.1-0.4-0.2c-0.3-0.1-0.5-0.1-0.8-0.1c-0.3,0-0.6-0.1-0.9-0.1c-0.3-0.1-0.5-0.1-0.5-0.2
			c-0.1,0-0.1-0.1-0.2-0.3c-0.1-0.2-0.2-0.3-0.3-0.3c0-0.2-0.1-0.6-0.2-1.1c-0.1-0.6-0.2-0.9-0.2-1.1L489.5,43.9z M489.9,66.5
			c0-0.1,0.1-0.4,0.2-0.8c0.1-0.4,0.2-0.7,0.2-0.7c0.2-0.3,0.7-0.8,1.5-1.7c0.7-0.8,1.3-1.4,1.6-1.7c0.1-0.1,0.4-0.4,0.9-0.6
			c0.5-0.3,0.8-0.5,1-0.6l0.5,0l0.1,0c0.1,0.1,0.4,0.3,0.7,0.6c0.3,0.3,0.5,0.5,0.5,0.6l0.3,10.9c0,0.1-0.1,0.3-0.2,0.6
			c-0.2,0.3-0.3,0.5-0.4,0.6c-0.1,0.1-0.2,0.4-0.4,0.7c-0.2,0.3-0.4,0.6-0.6,1c-0.2,0.4-0.4,0.7-0.6,1.1c-0.2,0.4-0.3,0.6-0.3,0.7
			c-0.1,0.1-0.1,0.5-0.1,1c0,0.5,0,1.1,0,1.7c0,0.6,0,1.2,0.1,1.8c0,0.6,0.1,0.9,0.1,1.1c0,0.1-0.1,0.4-0.2,0.8
			c-0.1,0.4-0.3,0.7-0.4,0.8c0-0.1-0.1-0.3-0.3-0.6c-0.2-0.3-0.2-0.5-0.3-0.6c-0.1-0.1-0.2-0.4-0.3-1s-0.2-1-0.4-1.2
			c0,0.3,0,0.8,0,1.5c0,0.7,0,1.4,0,2.1c0,0.7,0,1.4-0.1,2c0,0.6-0.1,1-0.1,1.2c0,0.1-0.1,0.2-0.2,0.5c-0.2,0.3-0.2,0.5-0.2,0.5
			c-0.1-0.3-0.1-0.8-0.2-1.5c-0.1-0.7-0.1-1.5-0.2-2.3c-0.1-0.8-0.1-1.6-0.2-2.4c-0.1-0.8-0.2-1.3-0.2-1.7c0-0.3-0.1-0.7-0.3-1.1
			c-0.2-0.5-0.3-0.8-0.3-0.9c-0.1-0.1-0.2-0.4-0.5-0.7c-0.3-0.3-0.4-0.5-0.5-0.5L489.9,66.5z"/>
	</g>
</g>
</svg>
