<?xml version="1.0" encoding="utf-8"?>
<!-- Generator: Adobe Illustrator 23.0.3, SVG Export Plug-In . SVG Version: 6.00 Build 0)  -->
<svg version="1.1" id="Calque_1" xmlns="http://www.w3.org/2000/svg" xmlns:xlink="http://www.w3.org/1999/xlink" x="0px" y="0px"
	 viewBox="0 0 1168.3 89.5" style="enable-background:new 0 0 1168.3 89.5;" xml:space="preserve">
<style type="text/css">
	.st0{fill:url(#SVGID_1_);}
	.st1{fill:url(#SVGID_2_);}
	.st2{fill:url(#SVGID_3_);}
	.st3{fill:url(#SVGID_4_);}
	.st4{fill:url(#SVGID_5_);}
	.st5{fill:url(#SVGID_6_);}
	.st6{fill:url(#SVGID_7_);}
	.st7{fill:url(#SVGID_8_);}
	.st8{fill:url(#SVGID_9_);}
</style>
<g>
	<g>
		<g>
			
				<linearGradient id="SVGID_1_" gradientUnits="userSpaceOnUse" x1="-11490.167" y1="-11487.3242" x2="-9433.7715" y2="-11487.3242" gradientTransform="matrix(-1 0 0 -1 -9900.9453 -11442.9795)">
				<stop  offset="4.960320e-02" style="stop-color:#E1A24E"/>
				<stop  offset="0.248" style="stop-color:#F2AD72"/>
				<stop  offset="0.5893" style="stop-color:#DDC172"/>
				<stop  offset="0.8591" style="stop-color:#A36C3A"/>
				<stop  offset="0.9663" style="stop-color:#A5895D"/>
			</linearGradient>
			<path class="st0" d="M582.6,3.5l76.6,40.8l-76.6,40.9L506,44.4L582.6,3.5z M654.2,44.4L582.5,6.2l-71.7,38.2l71.7,38.2
				L654.2,44.4z"/>
		</g>
	</g>
	<g>
		<g>
			
				<linearGradient id="SVGID_2_" gradientUnits="userSpaceOnUse" x1="-11490.165" y1="-11487.3652" x2="-9433.7793" y2="-11487.3652" gradientTransform="matrix(-1 0 0 -1 -9900.9453 -11442.9795)">
				<stop  offset="4.960320e-02" style="stop-color:#E1A24E"/>
				<stop  offset="0.248" style="stop-color:#F2AD72"/>
				<stop  offset="0.5893" style="stop-color:#DDC172"/>
				<stop  offset="0.8591" style="stop-color:#A36C3A"/>
				<stop  offset="0.9663" style="stop-color:#A5895D"/>
			</linearGradient>
			<path class="st1" d="M655.5,18.8l48.1,25.6L655.5,70l-48.1-25.6L655.5,18.8z M698.6,44.4l-43.2-23l-43.2,23l43.3,22.9L698.6,44.4
				z"/>
		</g>
	</g>
	<g>
		<g>
			
				<linearGradient id="SVGID_3_" gradientUnits="userSpaceOnUse" x1="-11490.165" y1="-11487.3652" x2="-9433.7773" y2="-11487.3652" gradientTransform="matrix(-1 0 0 -1 -9900.9453 -11442.9795)">
				<stop  offset="4.960320e-02" style="stop-color:#E1A24E"/>
				<stop  offset="0.248" style="stop-color:#F2AD72"/>
				<stop  offset="0.5893" style="stop-color:#DDC172"/>
				<stop  offset="0.8591" style="stop-color:#A36C3A"/>
				<stop  offset="0.9663" style="stop-color:#A5895D"/>
			</linearGradient>
			<path class="st2" d="M1134.5,28.5l29.9,15.9l-29.9,15.9l-29.9-15.9L1134.5,28.5z M1159.4,44.4l-24.9-13.3l-24.9,13.3l24.9,13.3
				L1159.4,44.4z"/>
		</g>
	</g>
	<g>
		<g>
			
				<linearGradient id="SVGID_4_" gradientUnits="userSpaceOnUse" x1="-11490.165" y1="-11487.3652" x2="-9433.7773" y2="-11487.3652" gradientTransform="matrix(-1 0 0 -1 -9900.9453 -11442.9795)">
				<stop  offset="4.960320e-02" style="stop-color:#E1A24E"/>
				<stop  offset="0.248" style="stop-color:#F2AD72"/>
				<stop  offset="0.5893" style="stop-color:#DDC172"/>
				<stop  offset="0.8591" style="stop-color:#A36C3A"/>
				<stop  offset="0.9663" style="stop-color:#A5895D"/>
			</linearGradient>
			<polygon class="st3" points="1044.5,44.4 1032.7,50.6 1021.1,44.4 1032.7,38.2 			"/>
		</g>
	</g>
	<g>
		<g>
			
				<linearGradient id="SVGID_5_" gradientUnits="userSpaceOnUse" x1="-11490.1689" y1="-11487.3652" x2="-9433.7832" y2="-11487.3652" gradientTransform="matrix(-1 0 0 -1 -9900.9453 -11442.9795)">
				<stop  offset="4.960320e-02" style="stop-color:#E1A24E"/>
				<stop  offset="0.248" style="stop-color:#F2AD72"/>
				<stop  offset="0.5893" style="stop-color:#DDC172"/>
				<stop  offset="0.8591" style="stop-color:#A36C3A"/>
				<stop  offset="0.9663" style="stop-color:#A5895D"/>
			</linearGradient>
			<path class="st4" d="M509.5,18.8l48.1,25.6L509.5,70l-48.1-25.6L509.5,18.8z M552.7,44.4l-43.2-23l-43,23l43,22.9L552.7,44.4z"/>
		</g>
	</g>
	<g>
		<g>
			
				<linearGradient id="SVGID_6_" gradientUnits="userSpaceOnUse" x1="-11490.167" y1="-11487.3242" x2="-9433.7764" y2="-11487.3242" gradientTransform="matrix(-1 0 0 -1 -9900.9453 -11442.9795)">
				<stop  offset="4.960320e-02" style="stop-color:#E1A24E"/>
				<stop  offset="0.248" style="stop-color:#F2AD72"/>
				<stop  offset="0.5893" style="stop-color:#DDC172"/>
				<stop  offset="0.8591" style="stop-color:#A36C3A"/>
				<stop  offset="0.9663" style="stop-color:#A5895D"/>
			</linearGradient>
			<rect x="701" y="43.4" class="st5" width="406" height="1.9"/>
		</g>
	</g>
	<g>
		<g>
			
				<linearGradient id="SVGID_7_" gradientUnits="userSpaceOnUse" x1="-11490.1699" y1="-11487.3242" x2="-9433.7715" y2="-11487.3242" gradientTransform="matrix(-1 0 0 -1 -9900.9453 -11442.9795)">
				<stop  offset="4.960320e-02" style="stop-color:#E1A24E"/>
				<stop  offset="0.248" style="stop-color:#F2AD72"/>
				<stop  offset="0.5893" style="stop-color:#DDC172"/>
				<stop  offset="0.8591" style="stop-color:#A36C3A"/>
				<stop  offset="0.9663" style="stop-color:#A5895D"/>
			</linearGradient>
			<path class="st6" d="M33.5,28.5l29.9,15.9L33.5,60.2L3.7,44.4L33.5,28.5z M58.3,44.4L33.5,31.1L8.6,44.4l24.9,13.3L58.3,44.4z"/>
		</g>
	</g>
	<g>
		<g>
			
				<linearGradient id="SVGID_8_" gradientUnits="userSpaceOnUse" x1="-11490.1748" y1="-11487.3652" x2="-9433.7715" y2="-11487.3652" gradientTransform="matrix(-1 0 0 -1 -9900.9453 -11442.9795)">
				<stop  offset="4.960320e-02" style="stop-color:#E1A24E"/>
				<stop  offset="0.248" style="stop-color:#F2AD72"/>
				<stop  offset="0.5893" style="stop-color:#DDC172"/>
				<stop  offset="0.8591" style="stop-color:#A36C3A"/>
				<stop  offset="0.9663" style="stop-color:#A5895D"/>
			</linearGradient>
			<polygon class="st7" points="123.6,44.4 135.2,38.2 146.8,44.4 135.2,50.6 			"/>
		</g>
	</g>
	<g>
		<g>
			
				<linearGradient id="SVGID_9_" gradientUnits="userSpaceOnUse" x1="-11490.165" y1="-11487.3242" x2="-9433.7744" y2="-11487.3242" gradientTransform="matrix(-1 0 0 -1 -9900.9453 -11442.9795)">
				<stop  offset="4.960320e-02" style="stop-color:#E1A24E"/>
				<stop  offset="0.248" style="stop-color:#F2AD72"/>
				<stop  offset="0.5893" style="stop-color:#DDC172"/>
				<stop  offset="0.8591" style="stop-color:#A36C3A"/>
				<stop  offset="0.9663" style="stop-color:#A5895D"/>
			</linearGradient>
			<rect x="60.9" y="43.4" class="st8" width="406" height="1.9"/>
		</g>
	</g>
</g>
</svg>
