<?xml version="1.0" encoding="utf-8"?>
<!-- Generator: Adobe Illustrator 23.0.3, SVG Export Plug-In . SVG Version: 6.00 Build 0)  -->
<svg version="1.1" id="Calque_1" xmlns="http://www.w3.org/2000/svg" xmlns:xlink="http://www.w3.org/1999/xlink" x="0px" y="0px"
	 viewBox="0 0 960 540" style="enable-background:new 0 0 960 540;" xml:space="preserve">
<style type="text/css">
	.st0{fill:#010101;}
</style>
<g>
	<g>
		<polygon class="st0" points="671.7,78.9 671.7,75.7 871.7,75.7 871.7,184.6 867.9,184.6 867.9,78.9 		"/>
	</g>
	<g>
		<polygon class="st0" points="733.1,91.8 733.1,88.6 856.4,88.6 856.4,125.5 852.6,125.5 852.6,91.8 		"/>
	</g>
	<g>
		<polygon class="st0" points="884.1,65.3 884.1,47.2 887.9,47.2 887.9,62.1 905.6,62.1 905.6,65.3 		"/>
	</g>
	<g>
		<polygon class="st0" points="867.9,78.9 867.9,47.2 871.7,47.2 871.7,75.7 905.6,75.7 905.6,78.9 		"/>
	</g>
	<g>
		<polygon class="st0" points="852.2,92.1 852.2,47.5 856,47.5 856,88.9 905.3,88.9 905.3,92.1 		"/>
	</g>
	<g>
		<path class="st0" d="M884.1,47.2c0-10,9.7-18.1,21.5-18.1c11.9,0,21.5,8.1,21.5,18.1s-9.7,18.1-21.5,18.1v-3.2
			c9.8,0,17.7-6.7,17.7-14.9c0-8.2-7.9-14.9-17.7-14.9c-9.8,0-17.7,6.7-17.7,14.9H884.1z"/>
	</g>
	<g>
		<path class="st0" d="M803.3,39.1c0-10,9.7-18.1,21.5-18.1c11.9,0,21.5,8.1,21.5,18.1v18.1h-21.5C812.9,57.1,803.3,49,803.3,39.1z
			 M842.5,39.1c0-8.2-7.9-14.9-17.7-14.9c-9.8,0-17.7,6.7-17.7,14.9c0,8.2,7.9,14.9,17.7,14.9h17.7V39.1z"/>
	</g>
	<g>
		<path class="st0" d="M894,115.3V97.2h21.5c11.9,0,21.5,8.1,21.5,18.1c0,10-9.7,18.1-21.5,18.1C903.7,133.4,894,125.2,894,115.3z
			 M897.8,100.4v14.9c0,8.2,7.9,14.9,17.7,14.9c9.8,0,17.7-6.7,17.7-14.9c0-8.2-7.9-14.9-17.7-14.9H897.8z"/>
	</g>
	<g>
		<path class="st0" d="M867.9,47.2c0-17.5,16.9-31.7,37.7-31.7s37.7,14.2,37.7,31.7s-16.9,31.7-37.7,31.7v-3.2
			c18.7,0,33.9-12.8,33.9-28.5c0-15.7-15.2-28.5-33.9-28.5c-18.7,0-33.9,12.8-33.9,28.5H867.9z"/>
	</g>
	<g>
		<path class="st0" d="M852.2,47.5c0-24.6,23.8-44.6,53.1-44.6c29.3,0,53.1,20,53.1,44.6c0,24.6-23.8,44.6-53.1,44.6v-3.2
			c27.2,0,49.3-18.6,49.3-41.4c0-22.8-22.1-41.4-49.3-41.4c-27.2,0-49.3,18.6-49.3,41.4H852.2z"/>
	</g>
	<g>
		<polygon class="st0" points="671.7,468 671.7,464.8 867.9,464.8 867.9,359.1 871.7,359.1 871.7,468 		"/>
	</g>
	<g>
		<polygon class="st0" points="733.1,455.1 733.1,451.9 852.6,451.9 852.6,418.2 856.4,418.2 856.4,455.1 		"/>
	</g>
	<g>
		<polygon class="st0" points="884.1,496.5 884.1,478.4 905.6,478.4 905.6,481.6 887.9,481.6 887.9,496.5 		"/>
	</g>
	<g>
		<polygon class="st0" points="867.9,496.5 867.9,464.8 905.6,464.8 905.6,468 871.7,468 871.7,496.5 		"/>
	</g>
	<g>
		<polygon class="st0" points="852.2,496.2 852.2,451.6 905.3,451.6 905.3,454.8 856,454.8 856,496.2 		"/>
	</g>
	<g>
		<path class="st0" d="M884.1,496.5h3.8c0,8.2,7.9,14.9,17.7,14.9c9.8,0,17.7-6.7,17.7-14.9c0-8.2-7.9-14.9-17.7-14.9v-3.2
			c11.9,0,21.5,8.1,21.5,18.1c0,10-9.7,18.1-21.5,18.1C893.8,514.6,884.1,506.5,884.1,496.5z"/>
	</g>
	<g>
		<path class="st0" d="M803.3,504.6c0-10,9.7-18.1,21.5-18.1h21.5v18.1c0,10-9.7,18.1-21.5,18.1
			C812.9,522.7,803.3,514.6,803.3,504.6z M842.5,489.7h-17.7c-9.8,0-17.7,6.7-17.7,14.9c0,8.2,7.9,14.9,17.7,14.9
			c9.8,0,17.7-6.7,17.7-14.9V489.7z"/>
	</g>
	<g>
		<path class="st0" d="M894,446.5v-18.1c0-10,9.7-18.1,21.5-18.1c11.9,0,21.5,8.1,21.5,18.1c0,10-9.7,18.1-21.5,18.1H894z
			 M933.2,428.4c0-8.2-7.9-14.9-17.7-14.9c-9.8,0-17.7,6.7-17.7,14.9v14.9h17.7C925.3,443.3,933.2,436.6,933.2,428.4z"/>
	</g>
	<g>
		<path class="st0" d="M867.9,496.5h3.8c0,15.7,15.2,28.5,33.9,28.5c18.7,0,33.9-12.8,33.9-28.5c0-15.7-15.2-28.5-33.9-28.5v-3.2
			c20.8,0,37.7,14.2,37.7,31.7c0,17.5-16.9,31.7-37.7,31.7S867.9,514,867.9,496.5z"/>
	</g>
	<g>
		<path class="st0" d="M852.2,496.2h3.8c0,22.8,22.1,41.4,49.3,41.4c27.2,0,49.3-18.6,49.3-41.4s-22.1-41.4-49.3-41.4v-3.2
			c29.3,0,53.1,20,53.1,44.6c0,24.6-23.8,44.6-53.1,44.6C876,540.8,852.2,520.8,852.2,496.2z"/>
	</g>
	<g>
		<polygon class="st0" points="88.5,468 88.5,359.1 92.3,359.1 92.3,464.8 288.5,464.8 288.5,468 		"/>
	</g>
	<g>
		<polygon class="st0" points="103.8,455.1 103.8,418.2 107.6,418.2 107.6,451.9 227.1,451.9 227.1,455.1 		"/>
	</g>
	<g>
		<polygon class="st0" points="54.6,481.6 54.6,478.4 76.1,478.4 76.1,496.5 72.3,496.5 72.3,481.6 		"/>
	</g>
	<g>
		<polygon class="st0" points="54.6,468 54.6,464.8 92.3,464.8 92.3,496.5 88.5,496.5 88.5,468 		"/>
	</g>
	<g>
		<polygon class="st0" points="54.9,454.8 54.9,451.6 108,451.6 108,496.2 104.2,496.2 104.2,454.8 		"/>
	</g>
	<g>
		<path class="st0" d="M33,496.5c0-10,9.7-18.1,21.5-18.1v3.2c-9.8,0-17.7,6.7-17.7,14.9c0,8.2,7.9,14.9,17.7,14.9
			c9.8,0,17.7-6.7,17.7-14.9h3.8c0,10-9.7,18.1-21.5,18.1C42.7,514.6,33,506.5,33,496.5z"/>
	</g>
	<g>
		<path class="st0" d="M113.9,504.6v-18.1h21.5c11.9,0,21.5,8.1,21.5,18.1s-9.7,18.1-21.5,18.1C123.6,522.7,113.9,514.6,113.9,504.6
			z M117.7,489.7v14.9c0,8.2,7.9,14.9,17.7,14.9c9.8,0,17.7-6.7,17.7-14.9c0-8.2-7.9-14.9-17.7-14.9H117.7z"/>
	</g>
	<g>
		<path class="st0" d="M23.2,428.4c0-10,9.7-18.1,21.5-18.1s21.5,8.1,21.5,18.1v18.1H44.7C32.8,446.5,23.2,438.4,23.2,428.4z
			 M62.4,428.4c0-8.2-7.9-14.9-17.7-14.9S27,420.2,27,428.4c0,8.2,7.9,14.9,17.7,14.9h17.7V428.4z"/>
	</g>
	<g>
		<path class="st0" d="M16.8,496.5c0-17.5,16.9-31.7,37.7-31.7v3.2c-18.7,0-33.9,12.8-33.9,28.5c0,15.7,15.2,28.5,33.9,28.5
			c18.7,0,33.9-12.8,33.9-28.5h3.8c0,17.5-16.9,31.7-37.7,31.7C33.8,528.2,16.8,514,16.8,496.5z"/>
	</g>
	<g>
		<path class="st0" d="M1.9,496.2c0-24.6,23.8-44.6,53.1-44.6v3.2c-27.2,0-49.3,18.6-49.3,41.4s22.1,41.4,49.3,41.4
			c27.2,0,49.3-18.6,49.3-41.4h3.8c0,24.6-23.8,44.6-53.1,44.6C25.7,540.8,1.9,520.8,1.9,496.2z"/>
	</g>
	<g>
		<path class="st0" d="M72.3,481.6V62.1h815.7v419.5H72.3z M76.1,65.3v413.1h808V65.3H76.1z"/>
	</g>
	<g>
		<polygon class="st0" points="88.5,184.6 88.5,75.7 288.5,75.7 288.5,78.9 92.3,78.9 92.3,184.6 		"/>
	</g>
	<g>
		<polygon class="st0" points="103.8,125.5 103.8,88.6 227.1,88.6 227.1,91.8 107.6,91.8 107.6,125.5 		"/>
	</g>
	<g>
		<polygon class="st0" points="54.6,65.3 54.6,62.1 72.3,62.1 72.3,47.2 76.1,47.2 76.1,65.3 		"/>
	</g>
	<g>
		<polygon class="st0" points="54.6,78.9 54.6,75.7 88.5,75.7 88.5,47.2 92.3,47.2 92.3,78.9 		"/>
	</g>
	<g>
		<polygon class="st0" points="54.9,92.1 54.9,88.9 104.2,88.9 104.2,47.5 108,47.5 108,92.1 		"/>
	</g>
	<g>
		<path class="st0" d="M33,47.2c0-10,9.7-18.1,21.5-18.1c11.9,0,21.5,8.1,21.5,18.1h-3.8c0-8.2-7.9-14.9-17.7-14.9
			c-9.8,0-17.7,6.7-17.7,14.9c0,8.2,7.9,14.9,17.7,14.9v3.2C42.7,65.3,33,57.2,33,47.2z"/>
	</g>
	<g>
		<path class="st0" d="M113.9,57.1V39.1c0-10,9.7-18.1,21.5-18.1c11.9,0,21.5,8.1,21.5,18.1c0,10-9.7,18.1-21.5,18.1H113.9z
			 M153.1,39.1c0-8.2-7.9-14.9-17.7-14.9c-9.8,0-17.7,6.7-17.7,14.9v14.9h17.7C145.2,53.9,153.1,47.3,153.1,39.1z"/>
	</g>
	<g>
		<path class="st0" d="M23.2,115.3c0-10,9.7-18.1,21.5-18.1h21.5v18.1c0,10-9.7,18.1-21.5,18.1S23.2,125.2,23.2,115.3z M62.4,100.4
			H44.7c-9.8,0-17.7,6.7-17.7,14.9c0,8.2,7.9,14.9,17.7,14.9s17.7-6.7,17.7-14.9V100.4z"/>
	</g>
	<g>
		<path class="st0" d="M16.8,47.2c0-17.5,16.9-31.7,37.7-31.7c20.8,0,37.7,14.2,37.7,31.7h-3.8c0-15.7-15.2-28.5-33.9-28.5
			c-18.7,0-33.9,12.8-33.9,28.5c0,15.7,15.2,28.5,33.9,28.5v3.2C33.8,78.9,16.8,64.7,16.8,47.2z"/>
	</g>
	<g>
		<path class="st0" d="M1.9,47.5c0-24.6,23.8-44.6,53.1-44.6c29.3,0,53.1,20,53.1,44.6h-3.8c0-22.8-22.1-41.4-49.3-41.4
			C27.8,6.1,5.7,24.7,5.7,47.5c0,22.8,22.1,41.4,49.3,41.4v3.2C25.7,92.1,1.9,72.1,1.9,47.5z"/>
	</g>
</g>
</svg>
