<?xml version="1.0" encoding="utf-8"?>
<!-- Generator: Adobe Illustrator 23.0.3, SVG Export Plug-In . SVG Version: 6.00 Build 0)  -->
<svg version="1.1" id="Calque_1" xmlns="http://www.w3.org/2000/svg" xmlns:xlink="http://www.w3.org/1999/xlink" x="0px" y="0px"
	 viewBox="0 0 960 540" style="enable-background:new 0 0 960 540;" xml:space="preserve">
<style type="text/css">
	.st0{fill:#010101;}
</style>
<g>
	<g>
		<g>
			<polygon class="st0" points="800.7,41.8 800.7,38.8 911.4,38.8 911.4,132.6 907.8,132.6 907.8,41.8 			"/>
		</g>
		<g>
			<polygon class="st0" points="800.7,504.9 800.7,501.8 907.8,501.8 907.8,411.1 911.4,411.1 911.4,504.9 			"/>
		</g>
		<g>
			<polygon class="st0" points="48.9,504.9 48.9,411.1 52.5,411.1 52.5,501.8 159.6,501.8 159.6,504.9 			"/>
		</g>
		<g>
			<path class="st0" d="M2,465.2c0-9.3,8.9-16.8,19.8-16.8h49.5v-81.5c0-8.7,7.9-16,18-16.7V193.5c-10.1-0.8-18-8-18-16.7V95.2H21.8
				C10.9,95.2,2,87.7,2,78.5s8.9-16.8,19.8-16.8h49.5v-42c0-9.3,8.9-16.8,19.8-16.8S111,10.4,111,19.7v42h96.2
				c10.3,0,18.8,6.7,19.7,15.3h506.5c0.9-8.6,9.4-15.3,19.7-15.3h96.2v-42c0-9.3,8.9-16.8,19.8-16.8c10.9,0,19.8,7.5,19.8,16.8v42
				h49.5c10.9,0,19.8,7.5,19.8,16.8s-8.9,16.8-19.8,16.8H889v81.5c0,8.7-7.9,16-18,16.7v156.7c10.1,0.8,18,8,18,16.7v81.5h49.5
				c10.9,0,19.8,7.5,19.8,16.8c0,9.3-8.9,16.8-19.8,16.8H889v42c0,9.3-8.9,16.8-19.8,16.8c-10.9,0-19.8-7.5-19.8-16.8v-42h-96.2
				c-10.3,0-18.8-6.7-19.7-15.3H226.9c-0.9,8.6-9.4,15.3-19.7,15.3H111v42c0,9.3-8.9,16.8-19.8,16.8s-19.8-7.5-19.8-16.8v-42H21.8
				C10.9,482,2,474.5,2,465.2z M71.3,451.5H21.8c-9,0-16.2,6.2-16.2,13.8c0,7.6,7.3,13.8,16.2,13.8h49.5V451.5z M71.3,64.7H21.8
				c-9,0-16.2,6.2-16.2,13.8s7.3,13.8,16.2,13.8h49.5V64.7z M74.9,482v42c0,7.6,7.3,13.8,16.2,13.8s16.2-6.2,16.2-13.8v-42H74.9z
				 M74.9,451.5V479h32.5v-7H83.2v-20.5H74.9z M92.9,190.5v162.6h-1.8c-9,0-16.2,6.2-16.2,13.8v81.5h8.3v-65.2
				c0-6.5,6.2-11.8,13.9-11.8c7.7,0,13.9,5.3,13.9,11.8v65.2h77c7.7,0,13.9,5.3,13.9,11.8c0,6.5-6.2,11.8-13.9,11.8h-77v7h96.2
				c9,0,16.2-6.2,16.2-13.8v-1.5h513.5v1.5c0,7.6,7.3,13.8,16.2,13.8h96.2v-7h-77c-7.7,0-13.9-5.3-13.9-11.8
				c0-6.5,6.2-11.8,13.9-11.8h77v-65.2c0-6.5,6.2-11.8,13.9-11.8c7.7,0,13.9,5.3,13.9,11.8v65.2h8.3v-81.5c0-7.6-7.3-13.8-16.2-13.8
				h-1.8V190.5h1.8c9,0,16.2-6.2,16.2-13.8V95.2h-8.3v65.2c0,6.5-6.2,11.8-13.9,11.8c-7.7,0-13.9-5.3-13.9-11.8V95.2h-77
				c-7.7,0-13.9-5.3-13.9-11.8c0-6.5,6.2-11.8,13.9-11.8h77v-7h-96.2c-9,0-16.2,6.2-16.2,13.8V80H223.4v-1.5
				c0-7.6-7.3-13.8-16.2-13.8H111v7h77c7.7,0,13.9,5.3,13.9,11.8c0,6.5-6.2,11.8-13.9,11.8h-77v65.2c0,6.5-6.2,11.8-13.9,11.8
				c-7.7,0-13.9-5.3-13.9-11.8V95.2h-8.3v81.5c0,7.6,7.3,13.8,16.2,13.8H92.9z M74.9,64.7v27.5h8.3V71.7h24.2v-7H74.9z M107.4,19.7
				c0-7.6-7.3-13.8-16.2-13.8s-16.2,6.2-16.2,13.8v42h32.5V19.7z M86.8,451.5v17.5h20.6v-17.5H86.8z M107.4,383.2
				c0-4.8-4.6-8.7-10.3-8.7c-5.7,0-10.3,3.9-10.3,8.7v65.2h20.6V383.2z M86.8,95.2v65.2c0,4.8,4.6,8.7,10.3,8.7
				c5.7,0,10.3-3.9,10.3-8.7V95.2H86.8z M86.8,74.7v17.5h20.6V74.7H86.8z M111,451.5v17.5h77c5.7,0,10.3-3.9,10.3-8.7
				c0-4.8-4.6-8.7-10.3-8.7H111z M111,74.7v17.5h77c5.7,0,10.3-3.9,10.3-8.7c0-4.8-4.6-8.7-10.3-8.7H111z M849.4,451.5h-77
				c-5.7,0-10.3,3.9-10.3,8.7c0,4.8,4.6,8.7,10.3,8.7h77V451.5z M849.4,74.7h-77c-5.7,0-10.3,3.9-10.3,8.7c0,4.8,4.6,8.7,10.3,8.7
				h77V74.7z M852.9,482v42c0,7.6,7.3,13.8,16.2,13.8c9,0,16.2-6.2,16.2-13.8v-42H852.9z M852.9,472v7h32.5v-27.5h-8.3V472H852.9z
				 M852.9,451.5v17.5h20.6v-17.5H852.9z M873.6,383.2c0-4.8-4.6-8.7-10.3-8.7c-5.7,0-10.3,3.9-10.3,8.7v65.2h20.6V383.2z
				 M852.9,95.2v65.2c0,4.8,4.6,8.7,10.3,8.7c5.7,0,10.3-3.9,10.3-8.7V95.2H852.9z M852.9,74.7v17.5h20.6V74.7H852.9z M852.9,64.7v7
				h24.2v20.5h8.3V64.7H852.9z M885.4,19.7c0-7.6-7.3-13.8-16.2-13.8c-9,0-16.2,6.2-16.2,13.8v42h32.5V19.7z M889,451.5V479h49.5
				c9,0,16.2-6.2,16.2-13.8c0-7.6-7.3-13.8-16.2-13.8H889z M889,64.7v27.5h49.5c9,0,16.2-6.2,16.2-13.8s-7.3-13.8-16.2-13.8H889z"/>
		</g>
		<g>
			<polygon class="st0" points="48.9,132.6 48.9,38.8 159.6,38.8 159.6,41.8 52.5,41.8 52.5,132.6 			"/>
		</g>
	</g>
</g>
</svg>
