<?xml version="1.0" encoding="utf-8"?>
<!-- Generator: Adobe Illustrator 23.0.3, SVG Export Plug-In . SVG Version: 6.00 Build 0)  -->
<svg version="1.1" id="Calque_1" xmlns="http://www.w3.org/2000/svg" xmlns:xlink="http://www.w3.org/1999/xlink" x="0px" y="0px"
	 viewBox="0 0 960 540" style="enable-background:new 0 0 960 540;" xml:space="preserve">
<style type="text/css">
	.st0{fill:#C99114;}
</style>
<g>
	<g>
		<g>
			<path class="st0" d="M882.8,33.3c0-18,17.5-32.7,39-32.7s39,14.7,39,32.7S943.3,66,921.8,66S882.8,51.3,882.8,33.3z M956.7,33.3
				C956.7,17.1,941,4,921.8,4s-34.9,13.2-34.9,29.3c0,16.2,15.7,29.3,34.9,29.3S956.7,49.4,956.7,33.3z"/>
		</g>
		<g>
			<path class="st0" d="M845.2,33.3v-1.7h78.6v66h-2C879.6,97.6,845.2,68.7,845.2,33.3z M919.7,35h-70.5c1,32.2,32.1,58.3,70.5,59.2
				V35z"/>
		</g>
		<g>
			<path class="st0" d="M865.1,33.3c0-13.4,13.7-29.9,29.8-29.9c15.9,0,28.9,10.9,28.9,24.3v3.9h4.7c15.9,0,28.9,10.9,28.9,24.3
				c0,12-11.1,25-35.6,25C890.5,80.9,865.1,59.5,865.1,33.3z M919.7,27.7c0-11.5-11.2-20.9-24.9-20.9c-13.6,0-25.8,14.8-25.8,26.5
				c0,24.4,23.6,44.2,52.6,44.2c21.7,0,31.6-11.2,31.6-21.6c0-11.5-11.2-20.9-24.9-20.9h-8.7v-7.3H919.7z"/>
		</g>
		<g>
			<polygon class="st0" points="817.7,35 817.7,31.6 923.8,31.6 923.8,120.6 919.7,120.6 919.7,35 			"/>
		</g>
		<g>
			<path class="st0" d="M789.4,33.3c0-2.8,1.3-5.6,3.8-7.7c5-4.2,13.2-4.2,18.3,0l9.1,7.7l-9.1,7.7c-5,4.2-13.2,4.2-18.3,0
				C790.6,38.8,789.4,36.1,789.4,33.3z M814.9,33.3l-6.3-5.3c-3.5-2.9-9.1-2.9-12.6,0s-3.5,7.7,0,10.6c3.5,2.9,9.1,2.9,12.6,0
				L814.9,33.3z"/>
		</g>
		<g>
			<path class="st0" d="M714.1,33.3l9.1-7.7c5-4.2,13.2-4.2,18.3,0c5,4.2,5,11.1,0,15.4c-5,4.2-13.2,4.2-18.3,0L714.1,33.3z
				 M741.2,33.3c0-1.9-0.9-3.8-2.6-5.3c-3.5-2.9-9.1-2.9-12.6,0l-6.3,5.3l6.3,5.3c3.5,2.9,9.1,2.9,12.6,0
				C740.4,37.1,741.2,35.2,741.2,33.3z"/>
		</g>
		<g>
			<path class="st0" d="M763.7,34.5c0-8.1,3.7-16.3,11-22.4c10.1-8.4,25.9-12,40.5-9c15.9,3.3,28,13.8,34,29.7l-3.8,1
				c-5.5-14.7-16.6-24.5-31.1-27.4c-13-2.7-27.7,0.6-36.7,8.1c-13.2,11.1-13.2,29,0,40.1c11.4,9.6,24.5,10.9,34.9,3.4
				c5.6-4,8.8-8.7,9-13.2c0.2-3.7-1.6-7.2-5.2-10.2l2.8-2.4c4.4,3.7,6.6,8.1,6.4,12.8c-0.3,5.6-3.9,11-10.4,15.7
				c-12,8.6-27.5,7.2-40.4-3.6C767.3,50.7,763.7,42.6,763.7,34.5z"/>
		</g>
		<g>
			<path class="st0" d="M908.8,133.6c0-2.8,1.3-5.6,3.8-7.7l9.1-7.7l9.1,7.7c5,4.2,5,11.1,0,15.4c-5,4.2-13.2,4.2-18.3,0
				C910.1,139.2,908.8,136.4,908.8,133.6z M921.8,123l-6.3,5.3c-3.5,2.9-3.5,7.7,0,10.6c3.5,2.9,9.1,2.9,12.6,0s3.5-7.7,0-10.6
				L921.8,123z"/>
		</g>
		<g>
			<path class="st0" d="M882.6,137.3c0-5.1,2.2-10,6.7-14.5c5.6-5.5,12-8.5,18.7-8.7c5.6-0.2,10.8,1.7,15.2,5.4l-2.8,2.4
				c-3.6-3-7.8-4.5-12.2-4.4c-5.4,0.2-11,2.9-15.8,7.6c-8.9,8.8-7.4,19.7,4.1,29.3c13.2,11.1,34.6,11.1,47.7,0
				c8.9-7.5,12.8-19.9,9.7-30.8c-3.5-12.2-15.2-21.4-32.7-26.1l1.2-3.2c18.9,5,31.5,15.2,35.4,28.5c3.5,12.2-0.7,25.5-10.7,34
				c-14.7,12.4-38.7,12.4-53.4,0C886.3,150.7,882.6,143.9,882.6,137.3z"/>
		</g>
	</g>
	<g>
		<g>
			<path class="st0" d="M882.8,508.3c0-18,17.5-32.7,39-32.7s39,14.7,39,32.7s-17.5,32.7-39,32.7S882.8,526.3,882.8,508.3z
				 M956.7,508.3c0-16.2-15.7-29.3-34.9-29.3s-34.9,13.2-34.9,29.3c0,16.2,15.7,29.3,34.9,29.3S956.7,524.4,956.7,508.3z"/>
		</g>
		<g>
			<path class="st0" d="M845.2,509.9v-1.7c0-35.4,34.3-64.3,76.5-64.3h2v66L845.2,509.9L845.2,509.9z M919.7,447.4
				c-38.4,0.9-69.4,26.9-70.5,59.2h70.5V447.4z"/>
		</g>
		<g>
			<path class="st0" d="M865.1,508.3c0-26.2,25.4-47.6,56.7-47.6c24.4,0,35.6,13,35.6,25c0,13.4-13,24.3-28.9,24.3h-4.7v3.9
				c0,13.4-13,24.3-28.9,24.3C878.8,538.1,865.1,521.7,865.1,508.3z M953.3,485.7c0-10.4-9.9-21.6-31.6-21.6
				c-29,0-52.6,19.8-52.6,44.2c0,11.7,12.1,26.5,25.8,26.5s24.9-9.4,24.9-20.9v-7.3h8.7C942.1,506.6,953.3,497.2,953.3,485.7z"/>
		</g>
		<g>
			<polygon class="st0" points="817.7,509.9 817.7,506.6 919.7,506.6 919.7,420.9 923.8,420.9 923.8,509.9 			"/>
		</g>
		<g>
			<path class="st0" d="M789.4,508.3c0-2.8,1.3-5.6,3.8-7.7c5-4.2,13.2-4.2,18.3,0l9.1,7.7l-9.1,7.7c-5,4.2-13.2,4.2-18.3,0
				C790.6,513.8,789.4,511,789.4,508.3z M814.9,508.3l-6.3-5.3c-3.5-2.9-9.1-2.9-12.6,0s-3.5,7.7,0,10.6c3.5,2.9,9.1,2.9,12.6,0
				L814.9,508.3z"/>
		</g>
		<g>
			<path class="st0" d="M714.1,508.3l9.1-7.7c5-4.2,13.2-4.2,18.3,0c5,4.2,5,11.1,0,15.4c-5,4.2-13.2,4.2-18.3,0L714.1,508.3z
				 M741.2,508.3c0-1.9-0.9-3.8-2.6-5.3c-3.5-2.9-9.1-2.9-12.6,0l-6.3,5.3l6.3,5.3c3.5,2.9,9.1,2.9,12.6,0
				C740.4,512.1,741.2,510.2,741.2,508.3z"/>
		</g>
		<g>
			<path class="st0" d="M763.7,507c0-8.1,3.7-16.2,11-22.4c12.9-10.8,28.4-12.2,40.4-3.6c6.6,4.7,10.2,10.1,10.4,15.7
				c0.2,4.7-2,9.1-6.4,12.8l-2.8-2.4c3.6-3,5.4-6.6,5.2-10.2c-0.2-4.5-3.4-9.2-9-13.2c-10.4-7.5-23.5-6.2-34.9,3.4
				c-13.2,11.1-13.2,29,0,40.1c8.9,7.5,23.7,10.8,36.7,8.1c14.5-3,25.5-12.7,31.1-27.4l3.8,1c-6,15.9-18,26.4-34,29.7
				c-14.5,3-30.4-0.6-40.5-9C767.3,523.3,763.7,515.2,763.7,507z"/>
		</g>
		<g>
			<path class="st0" d="M908.8,407.9c0-2.8,1.3-5.6,3.8-7.7c5-4.2,13.2-4.2,18.3,0c5,4.2,5,11.1,0,15.4l-9.1,7.7l-9.1-7.7
				C910.1,413.5,908.8,410.7,908.8,407.9z M930.7,407.9c0-1.9-0.9-3.8-2.6-5.3c-3.5-2.9-9.1-2.9-12.6,0s-3.5,7.7,0,10.6l6.3,5.3
				l6.3-5.3C929.8,411.8,930.7,409.8,930.7,407.9z"/>
		</g>
		<g>
			<path class="st0" d="M882.6,404.2c0-6.6,3.7-13.4,11-19.5c14.7-12.4,38.7-12.4,53.4,0c10.1,8.4,14.3,21.8,10.7,34
				c-3.9,13.4-16.5,23.5-35.4,28.5l-1.2-3.2c17.5-4.7,29.1-13.9,32.7-26.1c3.2-10.9-0.7-23.3-9.7-30.8c-13.2-11.1-34.6-11.1-47.7,0
				c-11.4,9.6-13,20.6-4.1,29.3c4.8,4.7,10.4,7.4,15.8,7.6c4.4,0.1,8.6-1.4,12.2-4.4l2.8,2.4c-4.4,3.7-9.7,5.5-15.2,5.4
				c-6.6-0.2-13.1-3.2-18.7-8.7C884.8,414.3,882.6,409.3,882.6,404.2z"/>
		</g>
	</g>
	<g>
		<g>
			<path class="st0" d="M2.1,508.3c0-18,17.5-32.7,39-32.7s39,14.7,39,32.7S62.6,541,41.1,541S2.1,526.3,2.1,508.3z M76,508.3
				c0-16.2-15.7-29.3-34.9-29.3S6.2,492.1,6.2,508.3c0,16.2,15.7,29.3,34.9,29.3S76,524.4,76,508.3z"/>
		</g>
		<g>
			<path class="st0" d="M39.1,509.9v-66h2c42.2,0,76.5,28.8,76.5,64.3v1.7L39.1,509.9L39.1,509.9z M43.1,447.4v59.2h70.5
				C112.5,474.3,81.5,448.3,43.1,447.4z"/>
		</g>
		<g>
			<path class="st0" d="M5.5,485.7c0-12,11.1-25,35.6-25c31.2,0,56.7,21.3,56.7,47.6c0,13.4-13.7,29.9-29.8,29.9
				c-15.9,0-28.9-10.9-28.9-24.3V510h-4.7C18.5,509.9,5.5,499.1,5.5,485.7z M93.7,508.3c0-24.4-23.6-44.2-52.6-44.2
				c-21.7,0-31.6,11.2-31.6,21.6c0,11.5,11.2,20.9,24.9,20.9h8.7v7.3c0,11.5,11.2,20.9,24.9,20.9C81.6,534.8,93.7,519.9,93.7,508.3z
				"/>
		</g>
		<g>
			<polygon class="st0" points="39.1,509.9 39.1,420.9 43.1,420.9 43.1,506.6 145.1,506.6 145.1,509.9 			"/>
		</g>
		<g>
			<path class="st0" d="M142.3,508.3l9.1-7.7c2.4-2.1,5.7-3.2,9.1-3.2c3.5,0,6.7,1.1,9.1,3.2c5,4.2,5,11.1,0,15.4
				c-2.4,2.1-5.7,3.2-9.1,3.2c-3.5,0-6.7-1.1-9.1-3.2L142.3,508.3z M169.5,508.3c0-1.9-0.9-3.8-2.6-5.3c-1.7-1.4-3.9-2.2-6.3-2.2
				s-4.6,0.8-6.3,2.2l-6.3,5.3l6.3,5.3c1.7,1.4,3.9,2.2,6.3,2.2s4.6-0.8,6.3-2.2C168.6,512.1,169.5,510.2,169.5,508.3z"/>
		</g>
		<g>
			<path class="st0" d="M217.6,508.3c0-2.8,1.3-5.6,3.8-7.7c5-4.2,13.2-4.2,18.3,0l9.1,7.7l-9.1,7.7c-5,4.2-13.2,4.2-18.3,0
				C218.8,513.8,217.6,511,217.6,508.3z M243.1,508.3l-6.3-5.3c-3.5-2.9-9.1-2.9-12.6,0s-3.5,7.7,0,10.6c3.5,2.9,9.1,2.9,12.6,0
				L243.1,508.3z"/>
		</g>
		<g>
			<path class="st0" d="M113.7,508.8l3.8-1c5.5,14.7,16.6,24.5,31.1,27.4c13,2.7,27.7-0.6,36.7-8.1c13.2-11.1,13.2-29,0-40.1
				c-11.4-9.6-24.5-10.9-34.9-3.4c-5.6,4-8.8,8.7-9,13.2c-0.2,3.7,1.6,7.2,5.2,10.2l-2.8,2.4c-4.4-3.7-6.6-8.1-6.4-12.8
				c0.3-5.6,3.9-11,10.4-15.7c12-8.6,27.5-7.2,40.4,3.6c14.7,12.4,14.7,32.5,0,44.9c-10.1,8.4-25.9,12-40.5,9
				C131.7,535.2,119.7,524.7,113.7,508.8z"/>
		</g>
		<g>
			<path class="st0" d="M28.2,407.9c0-2.8,1.3-5.6,3.8-7.7c5-4.2,13.2-4.2,18.3,0c5,4.2,5,11.1,0,15.4l-9.1,7.7l-9.1-7.7
				C29.4,413.5,28.2,410.7,28.2,407.9z M50,407.9c0-1.9-0.9-3.8-2.6-5.3c-3.5-2.9-9.1-2.9-12.6,0s-3.5,7.7,0,10.6l6.3,5.3l6.3-5.3
				C49.1,411.8,50,409.8,50,407.9z"/>
		</g>
		<g>
			<path class="st0" d="M3.9,410c0-9.5,4.3-18.8,12-25.2c14.7-12.4,38.7-12.4,53.4,0c12.9,10.8,14.5,23.8,4.3,33.9
				c-5.6,5.5-12,8.5-18.7,8.7c-5.6,0.2-10.8-1.7-15.2-5.4l2.8-2.4c3.6,3,7.8,4.5,12.2,4.4c5.4-0.2,11-2.9,15.8-7.6
				c8.9-8.8,7.4-19.7-4.1-29.3c-13.2-11.1-34.6-11.1-47.7,0c-9,7.6-12.9,19.9-9.7,30.8c3.5,12.2,15.2,21.4,32.7,26.1l-1.2,3.2
				C21.6,442.2,9,432,5.1,418.7C4.3,415.9,3.9,412.9,3.9,410z"/>
		</g>
		<g>
			<rect x="245.9" y="506.6" class="st0" width="470.9" height="3.4"/>
		</g>
	</g>
	<g>
		<g>
			<path class="st0" d="M2.1,33.3c0-18,17.5-32.7,39-32.7s39,14.7,39,32.7S62.6,66,41.1,66S2.1,51.3,2.1,33.3z M76,33.3
				C76,17.1,60.4,3.9,41.1,3.9S6.2,17.1,6.2,33.3s15.7,29.3,34.9,29.3S76,49.4,76,33.3z"/>
		</g>
		<g>
			<path class="st0" d="M39.1,97.6v-66h78.6v1.7c0,35.4-34.3,64.3-76.5,64.3C41.2,97.6,39.1,97.6,39.1,97.6z M43.1,35v59.2
				c38.4-0.9,69.4-26.9,70.5-59.2C113.6,35,43.1,35,43.1,35z"/>
		</g>
		<g>
			<path class="st0" d="M5.5,55.8c0-13.4,13-24.3,28.9-24.3h4.7v-3.9C39.1,14.3,52,3.4,68,3.4s29.8,16.4,29.8,29.9
				c0,26.2-25.4,47.6-56.7,47.6C16.7,80.9,5.5,67.9,5.5,55.8z M93.7,33.3C93.7,21.6,81.6,6.8,68,6.8c-13.7,0-24.9,9.4-24.9,20.9V35
				h-8.7C20.7,35,9.5,44.3,9.5,55.8c0,10.4,9.9,21.6,31.6,21.6C70.1,77.5,93.7,57.6,93.7,33.3z"/>
		</g>
		<g>
			<polygon class="st0" points="39.1,120.6 39.1,31.6 145.1,31.6 145.1,35 43.1,35 43.1,120.6 			"/>
		</g>
		<g>
			<path class="st0" d="M142.3,33.3l9.1-7.7c2.4-2.1,5.7-3.2,9.1-3.2c3.5,0,6.7,1.1,9.1,3.2c5,4.2,5,11.1,0,15.4
				c-2.4,2.1-5.7,3.2-9.1,3.2c-3.5,0-6.7-1.1-9.1-3.2L142.3,33.3z M169.5,33.3c0-1.9-0.9-3.8-2.6-5.3c-1.7-1.4-3.9-2.2-6.3-2.2
				s-4.6,0.8-6.3,2.2l-6.3,5.3l6.3,5.3c1.7,1.4,3.9,2.2,6.3,2.2s4.6-0.8,6.3-2.2C168.6,37.1,169.5,35.2,169.5,33.3z"/>
		</g>
		<g>
			<path class="st0" d="M217.6,33.3c0-2.8,1.3-5.6,3.8-7.7c5-4.2,13.2-4.2,18.3,0l9.1,7.7l-9.1,7.7c-5,4.2-13.2,4.2-18.3,0
				C218.8,38.8,217.6,36.1,217.6,33.3z M243.1,33.3l-6.3-5.3c-3.5-2.9-9.1-2.9-12.6,0s-3.5,7.7,0,10.6c3.5,2.9,9.1,2.9,12.6,0
				L243.1,33.3z"/>
		</g>
		<g>
			<path class="st0" d="M113.7,32.8c6-15.9,18-26.4,34-29.7c14.5-3,30.4,0.6,40.5,9c14.7,12.4,14.7,32.5,0,44.9
				c-12.9,10.8-28.4,12.2-40.4,3.6c-6.6-4.7-10.2-10.1-10.4-15.7c-0.2-4.7,2-9.1,6.4-12.8l2.8,2.4c-3.6,3-5.4,6.5-5.2,10.2
				c0.2,4.5,3.4,9.2,9,13.2c10.4,7.5,23.5,6.2,34.9-3.4c13.2-11.1,13.2-29,0-40.1c-8.9-7.5-23.7-10.8-36.7-8.1
				c-14.5,3-25.5,12.7-31.1,27.4L113.7,32.8z"/>
		</g>
		<g>
			<path class="st0" d="M28.2,133.6c0-2.8,1.3-5.6,3.8-7.7l9.1-7.7l9.1,7.7c5,4.2,5,11.1,0,15.4c-5,4.2-13.2,4.2-18.3,0
				C29.4,139.2,28.2,136.4,28.2,133.6z M41.1,123l-6.3,5.3c-3.5,2.9-3.5,7.7,0,10.6c3.5,2.9,9.1,2.9,12.6,0s3.5-7.7,0-10.6L41.1,123
				z"/>
		</g>
		<g>
			<path class="st0" d="M3.9,131.5c0-2.9,0.4-5.9,1.2-8.7C9,109.4,21.6,99.3,40.5,94.3l1.2,3.2c-17.5,4.7-29.1,13.9-32.7,26.1
				c-3.2,10.9,0.7,23.3,9.7,30.8c13.2,11.1,34.6,11.1,47.7,0c11.4-9.6,13-20.6,4.1-29.3c-4.8-4.7-10.4-7.4-15.8-7.6
				c-4.4-0.1-8.6,1.4-12.2,4.4l-2.8-2.4c4.4-3.7,9.7-5.5,15.2-5.4c6.6,0.2,13.1,3.2,18.7,8.7c10.3,10.1,8.6,23.1-4.3,33.9
				c-14.7,12.4-38.7,12.4-53.4,0C8.1,150.3,3.9,141,3.9,131.5z"/>
		</g>
		<g>
			<rect x="245.9" y="31.6" class="st0" width="470.9" height="3.4"/>
		</g>
	</g>
	<g>
		<g>
			<path class="st0" d="M908.8,198.3c0-2.9,1.3-5.6,3.8-7.7c2.4-2.1,5.7-3.2,9.1-3.2c3.5,0,6.7,1.1,9.1,3.2c5,4.2,5,11.1,0,15.4l0,0
				l-9.1,7.7l-9.1-7.7C910.2,203.9,908.8,201.2,908.8,198.3z M930.7,198.3c0-1.9-0.9-3.8-2.6-5.3c-3.5-2.9-9.1-2.9-12.6,0
				c-1.7,1.4-2.6,3.3-2.6,5.3s0.9,3.9,2.6,5.3l6.3,5.3l6.3-5.3C929.8,202.1,930.7,200.2,930.7,198.3z"/>
		</g>
		<g>
			<path class="st0" d="M908.8,343.2c0-2.8,1.3-5.6,3.8-7.7l9.1-7.7l9.1,7.7c5,4.2,5,11.1,0,15.4c-5,4.2-13.2,4.2-18.3,0
				C910.1,348.8,908.8,346,908.8,343.2z M921.8,332.6l-6.3,5.3c-3.5,2.9-3.5,7.7,0,10.6s9.1,2.9,12.6,0s3.5-7.7,0-10.6L921.8,332.6z
				"/>
		</g>
		<g>
			<rect x="919.8" y="211.3" class="st0" width="4" height="119"/>
		</g>
	</g>
	<g>
		<g>
			<path class="st0" d="M29.1,198.3c0-2.9,1.3-5.6,3.8-7.7c2.4-2.1,5.7-3.2,9.1-3.2c3.5,0,6.7,1.1,9.1,3.2c5,4.2,5,11.1,0,15.4
				l-9.1,7.7l-9.1-7.7C30.4,203.9,29.1,201.2,29.1,198.3z M50.9,198.3c0-1.9-0.9-3.8-2.6-5.3c-3.5-2.9-9.1-2.9-12.6,0
				c-1.7,1.4-2.6,3.3-2.6,5.3s0.9,3.9,2.6,5.3l6.3,5.3l6.3-5.3C50.1,202.1,50.9,200.2,50.9,198.3z"/>
		</g>
		<g>
			<path class="st0" d="M29.1,343.2c0-2.8,1.3-5.6,3.8-7.7l9.1-7.7l9.1,7.7c5,4.2,5,11.1,0,15.4c-2.4,2.1-5.7,3.2-9.1,3.2
				c-3.5,0-6.7-1.1-9.1-3.2C30.4,348.8,29.1,346,29.1,343.2z M42,332.6l-6.3,5.3c-3.5,2.9-3.5,7.7,0,10.6c1.7,1.4,3.9,2.2,6.3,2.2
				c2.4,0,4.6-0.8,6.3-2.2c3.5-2.9,3.5-7.7,0-10.6L42,332.6z"/>
		</g>
		<g>
			<rect x="40" y="211.3" class="st0" width="4" height="119"/>
		</g>
	</g>
</g>
</svg>
