<?xml version="1.0" encoding="utf-8"?>
<!-- Generator: Adobe Illustrator 23.0.3, SVG Export Plug-In . SVG Version: 6.00 Build 0)  -->
<svg version="1.1" id="Calque_1" xmlns="http://www.w3.org/2000/svg" xmlns:xlink="http://www.w3.org/1999/xlink" x="0px" y="0px"
	 viewBox="0 0 960 540" style="enable-background:new 0 0 960 540;" xml:space="preserve">
<style type="text/css">
	.st0{fill:#010101;}
</style>
<g>
	<g>
		<path class="st0" d="M869.8,74.6l0.8-2.5c0.3-1,7.7-23.5,29.6-41.4c22-17.9,49.7-23.9,50.9-24.1l3.1-0.7l-0.8,2.5
			c-0.3,1-7.7,23.5-29.6,41.4c-22,17.9-49.7,23.9-50.9,24.1L869.8,74.6z M948.7,10.3c-8,2.2-28.9,8.8-45.8,22.5
			c-16.9,13.8-25,30.8-27.6,37.3c8-2.2,28.9-8.8,45.8-22.5C938,33.9,946.1,16.8,948.7,10.3z"/>
	</g>
	<g>
		<path class="st0" d="M871.5,73.8l1.8-2.7c0.4,0.2,39.2,17.1,77.5-5.5c-9-2.2-34.1-7.3-51.4-1l-1.6-2.8c22.7-8.3,56.2,1.4,57.6,1.8
			l3.2,0.9l-2.7,1.7C914.9,92.7,872,74,871.5,73.8z"/>
	</g>
	<g>
		<path class="st0" d="M862.8,44.1c0-11.8,3.9-25.9,17.3-39.7l2.1-2.2l1.2,2.6c0.5,1.2,12.4,28.4,2.2,46.9l-3.5-1.3
			c7.8-14.1,1.5-34.5-1.2-41.9c-27.7,31.2-6.9,62.8-6.7,63.1l-3.3,1.5C870.8,73,862.8,60.8,862.8,44.1z"/>
	</g>
	<g>
		<path class="st0" d="M732.9,73.1c0-8.4,4-16.3,11.3-22.3c20.4-16.6,44.8-16.2,72.5,1.2c19.8,12.4,28.9,17.4,56.2,17.6l0,3.1
			c-28.6-0.2-38-5.4-58.5-18.3c-26.3-16.5-48.4-17-67.5-1.4c-6.6,5.4-10.2,12.5-10.2,20.1c0,7.6,3.6,14.7,10.2,20.1
			c10.7,8.8,28.2,8.8,38.9,0c8.4-6.9,8.4-18.1,0-25c-6.6-5.4-17.4-5.4-24,0c-5.1,4.2-5.1,11,0,15.2l-2.7,2.2
			c-6.6-5.4-6.6-14.2,0-19.5c8.1-6.6,21.2-6.6,29.3,0c9.9,8.1,9.9,21.2,0,29.3c-5.9,4.8-13.8,7.5-22.2,7.5c-8.4,0-16.2-2.7-22.2-7.5
			C736.9,89.4,732.9,81.5,732.9,73.1z"/>
	</g>
	<g>
		<path class="st0" d="M684.6,42.2c0-6.1,3.3-12.1,8.8-15.7c9.5-6.2,24.9-6.2,34.3,0c3.9,2.5,6,6,6,9.6s-2.1,7.1-6,9.6
			c-3.5,2.3-8.5,3.3-12.9,2.5c-4.3-0.8-7.7-3.1-9.7-6.5l3.4-1.3c1.9,3.2,5,4.4,7.1,4.8c3.3,0.6,7-0.1,9.7-1.9c3-1.9,4.6-4.5,4.6-7.2
			s-1.6-5.3-4.6-7.2c-8.2-5.4-21.4-5.4-29.6,0c-5.3,3.5-8.2,9.9-7.2,15.8c0.5,2.9,2.4,8.1,9.5,10.6c21.1,7.2,33.6,0.5,46.7-6.6
			c9.2-4.9,18.6-10,31.1-10l0,3.1c-11.3,0-19.9,4.6-29,9.5c-13.4,7.2-27.3,14.7-50.3,6.8c-6.5-2.2-10.8-6.9-11.8-13
			C684.7,44.1,684.6,43.1,684.6,42.2z"/>
	</g>
	<g>
		<path class="st0" d="M833.9,159.3c0-6.8,3.3-13.2,9.2-18.1c4.8-3.9,11.2-6.1,18-6.1s13.2,2.2,18,6.1c8.1,6.6,8.1,17.3,0,23.9
			c-3.2,2.6-7.5,4-12,4s-8.8-1.4-12-4l2.7-2.2c2.5,2,5.8,3.1,9.3,3.1s6.8-1.1,9.3-3.1c6.6-5.4,6.6-14.1,0-19.5
			c-4.1-3.3-9.5-5.2-15.3-5.2c-5.8,0-11.2,1.8-15.3,5.2c-5.2,4.2-8.1,9.9-8.1,15.9c0,6,2.9,11.6,8.1,15.9c6.6,5.4,15.4,8.3,24.7,8.3
			c9.3,0,18.1-3,24.7-8.3c19.1-15.6,18.5-33.6-1.7-55c-15.7-16.7-22.1-24.4-22.4-47.7l3.8,0c0.3,22.3,6.4,29.7,21.6,45.8
			c21.3,22.6,21.8,42.5,1.4,59.1c-7.3,6-17,9.2-27.4,9.2c-10.3,0-20-3.3-27.4-9.2C837.2,172.5,833.9,166.1,833.9,159.3z"/>
	</g>
	<g>
		<path class="st0" d="M884.7,200.9c0-10.4,6.3-18.2,12.5-25.8c6-7.4,11.7-14.4,11.7-23.6c0,0,0,0,0-0.1l3.8,0c0,0,0,0,0,0.1
			c0,10.1-6.3,17.8-12.3,25.3c-8.7,10.7-16.9,20.9-8.1,38.1c3,5.8,9.4,7.4,13,7.8c7.3,0.8,15.1-1.5,19.4-5.9
			c6.6-6.6,6.6-17.5,0-24.1c-2.4-2.4-5.5-3.7-8.8-3.7c-3.3,0-6.4,1.3-8.8,3.7c-2.1,2.2-3,5.2-2.3,7.9c0.5,1.8,1.9,4.3,5.9,5.8
			l-1.7,2.8c-4.2-1.6-7-4.5-7.9-7.9c-1-3.6,0.2-7.6,3-10.5c3.1-3.2,7.3-4.9,11.8-4.9s8.7,1.7,11.8,4.9c7.6,7.7,7.6,20.3,0,28
			c-5.2,5.2-14.2,8-22.8,7c-7.4-0.8-13.2-4.4-15.9-9.6C885.9,210.4,884.7,205.4,884.7,200.9z"/>
	</g>
	<g>
		<path class="st0" d="M866.2,214.2c0-22.3,29.5-37.9,30.8-38.5l2,2.6c-0.3,0.2-29,15.3-29,35.9c0,13.5,6.1,21.8,12,29.7
			c5.6,7.6,11.5,15.5,11.5,27.6h-3.8c0-11.2-5.3-18.4-10.9-26C872.6,237.2,866.2,228.6,866.2,214.2z"/>
	</g>
	<g>
		<path class="st0" d="M869.8,468.5l3.1,0.7c1.2,0.2,28.9,6.3,50.9,24.2c22,17.9,29.3,40.5,29.6,41.4l0.8,2.5l-3.1-0.7
			c-1.2-0.2-28.9-6.3-50.9-24.2c-22-17.9-29.3-40.5-29.6-41.4L869.8,468.5z M948.7,532.8c-2.7-6.5-10.8-23.6-27.6-37.3
			c-16.9-13.7-37.8-20.4-45.8-22.5c2.7,6.5,10.8,23.6,27.6,37.3C919.8,524.1,940.7,530.7,948.7,532.8z"/>
	</g>
	<g>
		<path class="st0" d="M871.5,469.3c0.4-0.2,43.4-18.9,84.5,7.5l2.7,1.7l-3.2,0.9c-1.4,0.4-34.9,10.1-57.6,1.8l1.6-2.8
			c17.3,6.3,42.3,1.2,51.4-1c-38.3-22.5-77.1-5.6-77.5-5.5L871.5,469.3z"/>
	</g>
	<g>
		<path class="st0" d="M862.8,499.1c0-16.8,8-28.9,8.1-29.1l3.3,1.5c-0.2,0.3-20.9,32,6.7,63.1c2.7-7.4,9-27.8,1.2-41.9l3.5-1.3
			c10.2,18.5-1.7,45.8-2.2,46.9l-1.2,2.6l-2.1-2.2C866.8,525,862.8,510.9,862.8,499.1z"/>
	</g>
	<g>
		<path class="st0" d="M732.9,470.1c0-8.4,4-16.3,11.3-22.3c5.9-4.8,13.8-7.5,22.2-7.5c8.4,0,16.2,2.7,22.2,7.5
			c4.8,3.9,7.5,9.1,7.5,14.7c0,5.5-2.6,10.7-7.5,14.7c-8.1,6.6-21.2,6.6-29.3,0c-6.6-5.4-6.6-14.2,0-19.5l2.7,2.2
			c-5.1,4.2-5.1,11,0,15.2c6.6,5.4,17.4,5.4,24,0c4.1-3.3,6.3-7.8,6.3-12.5c0-4.7-2.3-9.1-6.3-12.5c-10.7-8.8-28.2-8.8-38.9,0
			c-6.6,5.4-10.2,12.5-10.2,20.1c0,7.6,3.6,14.7,10.2,20.1c19.1,15.6,41.2,15.1,67.5-1.4c20.5-12.8,29.9-18,58.5-18.3l0,3.1
			c-27.4,0.2-36.5,5.2-56.2,17.6c-27.7,17.4-52.1,17.8-72.5,1.2C736.9,486.4,732.9,478.5,732.9,470.1z"/>
	</g>
	<g>
		<path class="st0" d="M684.6,501c0-1,0.1-1.9,0.2-2.9c1-6,5.3-10.8,11.8-13c23-7.9,36.9-0.4,50.3,6.8c9.1,4.9,17.7,9.5,29,9.5
			l0,3.1c-12.4,0-21.9-5.1-31.1-10c-13.2-7.1-25.6-13.8-46.7-6.6c-7.1,2.4-9,7.7-9.5,10.6c-1,5.9,1.9,12.3,7.2,15.8
			c8.2,5.4,21.4,5.4,29.6,0c3-1.9,4.6-4.5,4.6-7.2c0-2.7-1.6-5.3-4.6-7.2c-2.7-1.8-6.4-2.5-9.7-1.9c-2.2,0.4-5.2,1.6-7.1,4.8
			l-3.4-1.3c2-3.4,5.5-5.7,9.7-6.5c4.4-0.8,9.4,0.1,12.9,2.5c3.9,2.5,6,5.9,6,9.6s-2.1,7.1-6,9.6c-9.5,6.2-24.9,6.2-34.3,0
			C687.9,513,684.6,507.1,684.6,501z"/>
	</g>
	<g>
		<path class="st0" d="M833.9,383.8c0-6.8,3.3-13.2,9.2-18.1c7.3-6,17-9.2,27.4-9.2c10.3,0,20,3.3,27.4,9.2
			c20.4,16.6,19.9,36.5-1.4,59.1c-15.2,16.1-21.4,23.5-21.6,45.8l-3.8,0c0.3-23.3,6.7-31,22.4-47.7c20.3-21.5,20.8-39.5,1.7-55
			c-6.6-5.4-15.4-8.3-24.7-8.3c-9.3,0-18.1,3-24.7,8.3c-5.2,4.2-8.1,9.9-8.1,15.9c0,6,2.9,11.6,8.1,15.9c4.1,3.3,9.5,5.2,15.3,5.2
			c5.8,0,11.2-1.8,15.3-5.2c6.6-5.4,6.6-14.1,0-19.5c-2.5-2-5.8-3.1-9.3-3.1s-6.8,1.1-9.3,3.1l-2.7-2.2c3.2-2.6,7.5-4,12-4
			s8.8,1.4,12,4c8.1,6.6,8.1,17.3,0,23.9c-4.8,3.9-11.2,6.1-18,6.1s-13.2-2.2-18-6.1C837.2,397.1,833.9,390.6,833.9,383.8z"/>
	</g>
	<g>
		<path class="st0" d="M884.7,342.2c0-4.5,1.2-9.5,4.1-15.2c2.7-5.3,8.5-8.8,15.9-9.6c8.7-1,17.7,1.7,22.8,7c7.6,7.7,7.6,20.3,0,28
			c-3.1,3.2-7.3,4.9-11.8,4.9s-8.7-1.7-11.8-4.9c-2.9-2.9-4-6.9-3-10.5c1-3.5,3.8-6.3,7.9-7.9l1.7,2.8c-4,1.6-5.4,4-5.9,5.8
			c-0.7,2.7,0.1,5.7,2.3,7.9c2.4,2.4,5.5,3.7,8.8,3.7c3.3,0,6.4-1.3,8.8-3.7c6.6-6.6,6.6-17.5,0-24.1c-4.3-4.4-12.1-6.7-19.4-5.9
			c-3.6,0.4-10,2-13,7.8c-8.9,17.2-0.7,27.4,8.1,38.1c6,7.5,12.3,15.2,12.3,25.3c0,0,0,0,0,0.1l-3.8,0c0-9.2-5.7-16.2-11.7-23.6
			C891.1,360.4,884.7,352.6,884.7,342.2z"/>
	</g>
	<g>
		<path class="st0" d="M866.2,328.9c0-14.4,6.4-23,12.5-31.3c5.6-7.6,10.9-14.8,10.9-26h3.8c0,12.1-5.8,20-11.5,27.6
			c-5.9,8-12,16.2-12,29.7c0,20.6,28.7,35.8,29,35.9l-2,2.6C895.7,366.8,866.2,351.2,866.2,328.9z"/>
	</g>
	<g>
		<path class="st0" d="M5.4,537.3l0.8-2.5c0.3-1,7.7-23.5,29.6-41.4c22-17.9,49.7-23.9,50.9-24.2l3.1-0.7l-0.8,2.5
			c-0.3,1-7.7,23.5-29.6,41.4c-22,17.9-49.7,23.9-50.9,24.2L5.4,537.3z M84.3,473c-8,2.2-28.9,8.8-45.8,22.5
			c-16.9,13.8-25,30.8-27.6,37.3c8-2.2,28.9-8.8,45.8-22.5C73.5,496.6,81.6,479.5,84.3,473z"/>
	</g>
	<g>
		<path class="st0" d="M0.8,478.5l2.7-1.7c41.2-26.4,84.1-7.7,84.5-7.5l-1.8,2.7c-0.4-0.2-39.2-17.1-77.5,5.5c9,2.2,34.1,7.3,51.4,1
			l1.6,2.8c-22.7,8.3-56.2-1.4-57.6-1.8L0.8,478.5z"/>
	</g>
	<g>
		<path class="st0" d="M69.9,509.5c0-6.2,1.1-12.5,4.1-18l3.5,1.3c-7.8,14.1-1.5,34.5,1.2,41.9c27.7-31.2,6.9-62.8,6.7-63.1l3.3-1.5
			c0.2,0.3,23.2,35.3-9.2,68.9l-2.1,2.2l-1.2-2.6C75.8,537.6,69.9,523.9,69.9,509.5z"/>
	</g>
	<g>
		<path class="st0" d="M86.6,469.2c1-0.3,25.2-6.2,44.5-1.9c12.6,2.8,20.9,6.2,28.2,9.2c9.8,4.1,17.6,7.3,32.2,7.3
			c12.3,0,20.3-2.8,28.7-5.7c9.6-3.4,19.6-6.8,36.6-6.8c15.2,0,24.4,3.8,33.2,7.5c9.4,3.9,19.1,7.9,36.7,7.9
			c15.8,0,26.3-4.3,36.4-8.4c8.6-3.5,16.8-6.8,27-6.8c24.1,0,37.2,5.5,49.9,10.8c11.3,4.7,21.9,9.2,39.8,9.2
			c17.9,0,28.5-4.5,39.8-9.2c12.7-5.3,25.8-10.8,49.9-10.8c10.2,0,18.4,3.3,27,6.8c10.2,4.1,20.7,8.4,36.4,8.4
			c17.6,0,27.3-4,36.7-7.9c8.9-3.7,18-7.5,33.2-7.5c17,0,27,3.5,36.6,6.8c8.5,3,16.4,5.7,28.7,5.7c14.6,0,22.4-3.2,32.2-7.3
			c7.3-3,15.5-6.4,28.2-9.2c19.3-4.2,43.5,1.7,44.5,1.9l-1.1,3c-0.2-0.1-24.2-5.9-42.4-1.9c-12.3,2.7-20.3,6-27.4,9
			c-9.9,4.1-18.4,7.6-33.9,7.6c-13.1,0-21.4-2.9-30.2-6c-9.3-3.2-18.9-6.6-35.1-6.6c-14.3,0-22.7,3.5-31.5,7.1
			c-9.8,4-19.9,8.2-38.4,8.2c-16.7,0-28.1-4.6-38.1-8.7c-8.6-3.5-16-6.5-25.3-6.5c-23.2,0-35.9,5.3-48.2,10.5
			c-11.7,4.9-22.7,9.5-41.5,9.5c-18.8,0-29.8-4.6-41.5-9.5c-12.3-5.1-25-10.5-48.2-10.5c-9.4,0-16.8,3-25.3,6.5
			c-10.1,4.1-21.5,8.7-38.1,8.7c-18.5,0-28.6-4.2-38.4-8.2c-8.9-3.7-17.2-7.1-31.5-7.1c-16.2,0-25.8,3.4-35.1,6.6
			c-8.8,3.1-17.2,6-30.2,6c-15.5,0-24-3.5-33.9-7.6c-7.1-2.9-15.2-6.3-27.4-9c-18.2-4-42.1,1.8-42.4,1.9L86.6,469.2z"/>
	</g>
	<g>
		<path class="st0" d="M86.6,473.6l0-3.1c28.6,0.2,38,5.4,58.5,18.3c26.3,16.5,48.4,17,67.5,1.4c6.6-5.4,10.2-12.5,10.2-20.1
			c0-7.6-3.6-14.7-10.2-20.1c-5.2-4.2-12.1-6.6-19.5-6.6c-7.4,0-14.3,2.3-19.5,6.6c-4.1,3.3-6.3,7.8-6.3,12.5
			c0,4.7,2.3,9.1,6.3,12.5c6.6,5.4,17.4,5.4,24,0c2.5-2,3.9-4.7,3.9-7.6c0-2.9-1.4-5.6-3.9-7.6l2.7-2.2c3.2,2.6,5,6.1,5,9.8
			c0,3.7-1.8,7.2-5,9.8c-8.1,6.6-21.2,6.6-29.3,0c-4.8-3.9-7.5-9.1-7.5-14.7c0-5.5,2.6-10.7,7.5-14.7c5.9-4.8,13.8-7.5,22.2-7.5
			c8.4,0,16.2,2.7,22.2,7.5c7.3,6,11.3,13.9,11.3,22.3c0,8.4-4,16.3-11.3,22.3c-20.4,16.6-44.8,16.2-72.5-1.2
			C123.1,478.8,114,473.8,86.6,473.6z"/>
	</g>
	<g>
		<path class="st0" d="M183.6,504.5l0-3.1c11.3,0,19.9-4.6,29-9.5c13.4-7.2,27.3-14.7,50.3-6.8c6.5,2.2,10.8,6.9,11.8,13
			c1.2,7.1-2.1,14.4-8.6,18.6c-9.5,6.2-24.9,6.2-34.3,0c-3.9-2.5-6-6-6-9.6s2.1-7.1,6-9.6c3.5-2.3,8.5-3.3,12.9-2.5
			c4.3,0.8,7.7,3.1,9.7,6.5l-3.4,1.3c-1.9-3.2-5-4.4-7.1-4.8c-3.3-0.6-7,0.1-9.7,1.9c-3,1.9-4.6,4.5-4.6,7.2c0,2.7,1.6,5.3,4.6,7.2
			c8.2,5.4,21.4,5.4,29.6,0c5.3-3.5,8.2-9.9,7.2-15.8c-0.5-2.9-2.4-8.1-9.5-10.6c-21.1-7.2-33.6-0.5-46.7,6.6
			C205.6,499.4,196.1,504.5,183.6,504.5z"/>
	</g>
	<g>
		<path class="st0" d="M46.9,392.4c0-9.6,5-18.5,14.9-26.6c7.3-6,17-9.2,27.4-9.2c10.3,0,20,3.3,27.4,9.2c5.9,4.8,9.2,11.2,9.2,18.1
			s-3.3,13.2-9.2,18.1c-4.8,3.9-11.2,6.1-18,6.1c-6.8,0-13.2-2.2-18-6.1c-8.1-6.6-8.1-17.3,0-23.9c3.2-2.6,7.5-4,12-4
			c4.5,0,8.8,1.4,12,4l-2.7,2.2c-2.5-2-5.8-3.1-9.3-3.1c-3.5,0-6.8,1.1-9.3,3.1c-6.6,5.4-6.6,14.1,0,19.5c4.1,3.3,9.5,5.2,15.3,5.2
			c5.8,0,11.2-1.8,15.3-5.2c5.2-4.2,8.1-9.9,8.1-15.9c0-6-2.9-11.6-8.1-15.9c-6.6-5.4-15.4-8.3-24.7-8.3c-9.3,0-18.1,3-24.7,8.3
			c-19.1,15.6-18.5,33.6,1.7,55c15.7,16.7,22.1,24.4,22.4,47.7l-3.8,0c-0.3-22.3-6.4-29.7-21.6-45.8
			C52.3,413.3,46.9,402.5,46.9,392.4z"/>
	</g>
	<g>
		<path class="st0" d="M26.2,338.4c0-5.1,1.9-10.1,5.7-14c5.2-5.2,14.2-8,22.8-7c7.4,0.8,13.2,4.4,15.9,9.6c9.7,18.7,0.5,30-8.4,41
			c-6,7.4-11.7,14.4-11.7,23.6c0,0,0,0,0,0.1l-3.8,0c0,0,0,0,0-0.1c0-10.1,6.3-17.8,12.3-25.3c8.7-10.7,16.9-20.9,8.1-38.1
			c-3-5.8-9.4-7.4-13-7.8c-7.3-0.8-15.1,1.5-19.4,5.9c-6.6,6.6-6.6,17.5,0,24.1c2.4,2.4,5.5,3.7,8.8,3.7c3.3,0,6.4-1.3,8.8-3.7
			c2.1-2.2,3-5.2,2.3-7.9c-0.5-1.8-1.9-4.3-5.9-5.8l1.7-2.8c4.2,1.6,7,4.5,7.9,7.9c1,3.6-0.2,7.6-3,10.5c-3.1,3.2-7.3,4.9-11.8,4.9
			s-8.7-1.7-11.8-4.9C28.1,348.5,26.2,343.5,26.2,338.4z"/>
	</g>
	<g>
		<path class="st0" d="M60.6,364.9c0.3-0.2,29-15.3,29-35.9c0-13.5-6.1-21.8-12-29.7c-5.6-7.6-11.5-15.5-11.5-27.6h3.8
			c0,11.2,5.3,18.4,10.9,26c6.2,8.3,12.5,17,12.5,31.3c0,22.3-29.5,37.9-30.8,38.5L60.6,364.9z"/>
	</g>
	<g>
		<path class="st0" d="M5.4,5.8l3.1,0.7c1.2,0.2,28.9,6.3,50.9,24.1c22,17.9,29.3,40.5,29.6,41.4l0.8,2.5l-3.1-0.7
			c-1.2-0.2-28.9-6.3-50.9-24.1C13.8,31.9,6.5,9.3,6.2,8.4L5.4,5.8z M84.3,70.1c-2.7-6.5-10.8-23.6-27.6-37.3
			C39.8,19,18.9,12.4,10.9,10.3c2.7,6.5,10.8,23.6,27.6,37.3C55.4,61.4,76.3,68,84.3,70.1z"/>
	</g>
	<g>
		<path class="st0" d="M0.8,64.6L4,63.6c1.4-0.4,34.9-10.1,57.6-1.8l-1.6,2.8c-17.3-6.4-42.3-1.2-51.4,1
			c38.3,22.6,77.1,5.6,77.5,5.5l1.8,2.7C87.6,74,44.7,92.7,3.5,66.3L0.8,64.6z"/>
	</g>
	<g>
		<path class="st0" d="M69.9,33.7c0-14.5,6-28.1,6.3-28.9l1.2-2.6l2.1,2.2c32.4,33.6,9.4,68.5,9.2,68.9l-3.3-1.5
			c0.2-0.3,20.9-32-6.7-63.1c-2.7,7.4-9,27.8-1.2,41.9L74,51.7C70.9,46.2,69.9,39.8,69.9,33.7z"/>
	</g>
	<g>
		<path class="st0" d="M86.6,73.9l1.1-3c0.2,0.1,24.2,5.9,42.4,1.9c12.3-2.7,20.3-6,27.4-9c9.9-4.1,18.4-7.6,33.9-7.6
			c13.1,0,21.4,2.9,30.2,6c9.3,3.2,18.9,6.6,35.1,6.6c14.3,0,22.7-3.5,31.5-7.1c9.8-4,19.9-8.2,38.4-8.2c16.7,0,28.1,4.6,38.1,8.7
			c8.6,3.5,16,6.5,25.3,6.5c23.2,0,35.9-5.3,48.2-10.5c11.7-4.9,22.7-9.5,41.5-9.5c18.8,0,29.8,4.6,41.5,9.5
			c12.3,5.1,25,10.5,48.2,10.5c9.4,0,16.8-3,25.3-6.5c10.1-4.1,21.5-8.7,38.1-8.7c18.5,0,28.6,4.2,38.4,8.2
			c8.9,3.7,17.2,7.1,31.5,7.1c16.2,0,25.8-3.4,35.1-6.6c8.8-3.1,17.2-6,30.2-6c15.5,0,24,3.5,33.9,7.6c7.1,2.9,15.2,6.3,27.4,9
			c18.2,4,42.1-1.8,42.4-1.9l1.1,3c-1,0.3-25.2,6.2-44.5,1.9c-12.6-2.8-20.9-6.2-28.2-9.2c-9.8-4.1-17.6-7.3-32.2-7.3
			c-12.3,0-20.3,2.8-28.7,5.7c-9.6,3.4-19.6,6.8-36.6,6.8c-15.2,0-24.4-3.8-33.2-7.5c-9.4-3.9-19.1-7.9-36.7-7.9
			c-15.8,0-26.3,4.3-36.4,8.4c-8.6,3.5-16.8,6.8-27,6.8c-24.1,0-37.2-5.5-49.9-10.8c-11.3-4.7-21.9-9.2-39.8-9.2
			c-17.9,0-28.5,4.5-39.8,9.2c-12.7,5.3-25.8,10.8-49.9,10.8c-10.2,0-18.4-3.3-27-6.8c-10.2-4.1-20.7-8.4-36.4-8.4
			c-17.6,0-27.3,4-36.7,7.9c-8.9,3.7-18,7.5-33.2,7.5c-17,0-27-3.5-36.6-6.8c-8.5-3-16.4-5.7-28.7-5.7c-14.6,0-22.4,3.2-32.2,7.3
			c-7.3,3-15.5,6.4-28.2,9.2C111.8,80.1,87.6,74.2,86.6,73.9z"/>
	</g>
	<g>
		<path class="st0" d="M86.6,69.6c27.4-0.2,36.5-5.2,56.2-17.6c27.7-17.4,52.1-17.8,72.5-1.2c7.3,6,11.3,13.9,11.3,22.3
			c0,8.4-4,16.3-11.3,22.3c-5.9,4.8-13.8,7.5-22.2,7.5c-8.4,0-16.2-2.7-22.2-7.5c-9.9-8.1-9.9-21.2,0-29.3c8.1-6.6,21.2-6.6,29.3,0
			c3.2,2.6,5,6.1,5,9.8s-1.8,7.2-5,9.8l-2.7-2.2c2.5-2,3.9-4.7,3.9-7.6c0-2.9-1.4-5.6-3.9-7.6c-6.6-5.4-17.4-5.4-24,0
			c-8.4,6.9-8.4,18.1,0,25c5.2,4.2,12.1,6.6,19.5,6.6c7.4,0,14.3-2.3,19.5-6.6c6.6-5.4,10.2-12.5,10.2-20.1
			c0-7.6-3.6-14.7-10.2-20.1c-19.1-15.6-41.2-15.1-67.5,1.4c-20.5,12.8-29.9,18-58.5,18.3L86.6,69.6z"/>
	</g>
	<g>
		<path class="st0" d="M183.6,38.6c12.4,0,21.9,5.1,31.1,10c13.2,7.1,25.6,13.8,46.7,6.6c7.1-2.4,9-7.7,9.5-10.6
			c1-5.9-1.9-12.3-7.2-15.8c-8.2-5.4-21.4-5.4-29.6,0c-3,1.9-4.6,4.5-4.6,7.2s1.6,5.3,4.6,7.2c2.7,1.8,6.4,2.5,9.7,1.9
			c2.2-0.4,5.2-1.6,7.1-4.8l3.4,1.3c-2,3.4-5.5,5.7-9.7,6.5c-4.4,0.8-9.4-0.1-12.9-2.5c-3.9-2.5-6-5.9-6-9.6s2.1-7.1,6-9.6
			c9.5-6.2,24.9-6.2,34.3,0c6.4,4.2,9.8,11.5,8.6,18.6c-1,6-5.3,10.8-11.8,13c-23,7.9-36.9,0.4-50.3-6.8c-9.1-4.9-17.7-9.5-29-9.5
			L183.6,38.6z"/>
	</g>
	<g>
		<path class="st0" d="M46.9,150.7c0-10.1,5.5-20.9,16.4-32.5c15.2-16.1,21.4-23.5,21.6-45.8l3.8,0c-0.3,23.3-6.7,31-22.4,47.7
			c-20.3,21.5-20.8,39.5-1.7,55c6.6,5.4,15.4,8.3,24.7,8.3c9.3,0,18.1-3,24.7-8.3c5.2-4.2,8.1-9.9,8.1-15.9c0-6-2.9-11.6-8.1-15.9
			c-4.1-3.3-9.5-5.2-15.3-5.2c-5.8,0-11.2,1.8-15.3,5.2c-6.6,5.4-6.6,14.1,0,19.5c2.5,2,5.8,3.1,9.3,3.1c3.5,0,6.8-1.1,9.3-3.1
			l2.7,2.2c-3.2,2.6-7.5,4-12,4c-4.5,0-8.8-1.4-12-4c-8.1-6.6-8.1-17.3,0-23.9c4.8-3.9,11.2-6.1,18-6.1c6.8,0,13.2,2.2,18,6.1
			c5.9,4.8,9.2,11.2,9.2,18.1c0,6.8-3.3,13.2-9.2,18.1c-7.3,6-17,9.2-27.4,9.2c-10.3,0-20-3.3-27.4-9.2
			C51.8,169.2,46.9,160.3,46.9,150.7z"/>
	</g>
	<g>
		<path class="st0" d="M26.2,204.7c0-5.1,1.9-10.1,5.7-14c3.1-3.2,7.3-4.9,11.8-4.9s8.7,1.7,11.8,4.9c2.9,2.9,4,6.9,3,10.5
			c-1,3.5-3.8,6.3-7.9,7.9l-1.7-2.8c4-1.6,5.4-4,5.9-5.8c0.7-2.7-0.1-5.7-2.3-7.9c-2.4-2.4-5.5-3.7-8.8-3.7c-3.3,0-6.4,1.3-8.8,3.7
			c-6.6,6.6-6.6,17.5,0,24.1c4.3,4.4,12.1,6.7,19.4,5.9c3.6-0.4,10-2,13-7.8c8.9-17.2,0.7-27.4-8.1-38.1c-6-7.5-12.3-15.2-12.3-25.3
			c0,0,0,0,0-0.1l3.8,0c0,0,0,0,0,0.1c0,9.2,5.7,16.2,11.7,23.6c8.9,10.9,18.1,22.3,8.4,41c-2.7,5.3-8.5,8.8-15.9,9.6
			c-8.7,1-17.7-1.7-22.8-7C28.1,214.9,26.2,209.8,26.2,204.7z"/>
	</g>
	<g>
		<path class="st0" d="M60.6,178.3l2-2.6c1.3,0.7,30.8,16.2,30.8,38.5c0,14.4-6.4,23-12.5,31.3c-5.6,7.6-10.9,14.8-10.9,26h-3.8
			c0-12.1,5.8-20,11.5-27.6c5.9-8,12-16.2,12-29.7C89.6,193.6,60.8,178.4,60.6,178.3z"/>
	</g>
</g>
</svg>
