<?xml version="1.0" encoding="utf-8"?>
<!-- Generator: Adobe Illustrator 23.0.3, SVG Export Plug-In . SVG Version: 6.00 Build 0)  -->
<svg version="1.1" id="Calque_1" xmlns="http://www.w3.org/2000/svg" xmlns:xlink="http://www.w3.org/1999/xlink" x="0px" y="0px"
	 viewBox="0 0 960 540" style="enable-background:new 0 0 960 540;" xml:space="preserve">
<style type="text/css">
	.st0{fill:#010101;}
</style>
<g>
	<g>
		<polygon class="st0" points="866.7,39.9 866.7,0.6 959.5,0.6 959.5,79.2 913.1,79.2 913.1,75.9 955.6,75.9 955.6,3.9 870.6,3.9 
			870.6,39.9 		"/>
	</g>
	<g>
		<path class="st0" d="M825,112.1V73.5h2c21.9,0,39.7-15.1,39.7-33.6h3.9c0,19.8-18.5,36-41.7,36.9v32h43.4
			c1-18.3,18.9-32.9,40.8-32.9v3.3c-20.3,0-36.9,14-36.9,31.2v1.7H825z"/>
	</g>
	<g>
		<polygon class="st0" points="866.7,540.1 866.7,500.8 870.6,500.8 870.6,536.8 955.6,536.8 955.6,464.7 913.1,464.7 913.1,461.4 
			959.5,461.4 959.5,540.1 		"/>
	</g>
	<g>
		<path class="st0" d="M825,467.1v-38.6h51.2v1.7c0,17.2,16.5,31.2,36.9,31.2v3.3c-21.8,0-39.7-14.6-40.8-32.9h-43.4v32
			c23.1,0.9,41.7,17.1,41.7,36.9h-3.9c0-18.5-17.8-33.6-39.7-33.6H825z"/>
	</g>
	<g>
		<path class="st0" d="M664,479v-3.3h147.4c15.7,0,28.5,10.4,29.5,23.4h70.2v-59.5c-15.4-0.9-27.6-11.7-27.6-25v-59.8h3.9v59.8
			c0,12,11.5,21.8,25.7,21.8h2v66h-78v-1.7c0-12-11.5-21.8-25.7-21.8H664z"/>
	</g>
	<g>
		<polygon class="st0" points="2,540.1 2,461.4 48.5,461.4 48.5,464.7 5.9,464.7 5.9,536.8 91,536.8 91,500.8 94.9,500.8 
			94.9,540.1 		"/>
	</g>
	<g>
		<path class="st0" d="M48.5,464.7v-3.3c20.3,0,36.9-14,36.9-31.2v-1.7h51.2v38.6h-2c-21.9,0-39.7,15.1-39.7,33.6H91
			c0-19.8,18.5-36,41.7-36.9v-32H89.2C88.2,450.1,70.3,464.7,48.5,464.7z"/>
	</g>
	<g>
		<path class="st0" d="M46.5,502.4v-66h2c14.2,0,25.7-9.8,25.7-21.8v-60.8h3.9v60.8c0,13.3-12.2,24.2-27.6,25v59.5h70.2
			c1-13.1,13.9-23.4,29.5-23.4h147.4v3.3H150.2c-14.2,0-25.7,9.8-25.7,21.8v1.7H46.5z"/>
	</g>
	<g>
		<polygon class="st0" points="2,79.2 2,0.6 94.9,0.6 94.9,39.9 91,39.9 91,3.9 5.9,3.9 5.9,75.9 48.5,75.9 48.5,79.2 		"/>
	</g>
	<g>
		<path class="st0" d="M48.5,79.2v-3.3c21.8,0,39.7,14.6,40.8,32.9h43.4v-32C109.5,75.9,91,59.7,91,39.9h3.9
			c0,18.5,17.8,33.6,39.7,33.6h2v38.6H85.4v-1.7C85.4,93.2,68.8,79.2,48.5,79.2z"/>
	</g>
	<g>
		<path class="st0" d="M24.6,521V417.8h2c14.2,0,25.7-9.8,25.7-21.8V144.6c0-12-11.5-21.8-25.7-21.8h-2V19.7h121.8v1.7
			c0,12,11.5,21.8,25.7,21.8h125.5v3.3H172.1c-15.7,0-28.5-10.4-29.5-23.4h-114v96.6c15.4,0.9,27.6,11.7,27.6,25v251.5
			c0,13.3-12.2,24.2-27.6,25v96.6h114c1-13.1,13.9-23.4,29.5-23.4h617.4c15.7,0,28.5,10.4,29.5,23.4h114v-96.6
			c-15.4-0.9-27.6-11.7-27.6-25V144.6c0-13.3,12.2-24.2,27.6-25V23H819c-1,13.1-13.9,23.4-29.5,23.4H664v-3.3h125.5
			c14.2,0,25.7-9.8,25.7-21.8v-1.7h121.8v103.1h-2c-14.2,0-25.7,9.8-25.7,21.8v251.5c0,12,11.5,21.8,25.7,21.8h2V521H815.2v-1.7
			c0-12-11.5-21.8-25.7-21.8H172.1c-14.2,0-25.7,9.8-25.7,21.8v1.7H24.6z"/>
	</g>
	<g>
		<path class="st0" d="M46.5,104.3v-66h78v1.7c0,12,11.5,21.8,25.7,21.8h661.2c14.2,0,25.7-9.8,25.7-21.8v-1.7h78v66h-2
			c-14.2,0-25.7,9.8-25.7,21.8v60.8h-3.9V126c0-13.3,12.2-24.2,27.6-25V41.5h-70.2c-1,13.1-13.9,23.4-29.5,23.4H150.2
			c-15.7,0-28.5-10.4-29.5-23.4H50.4V101c15.4,0.9,27.6,11.7,27.6,25v59.8h-3.9V126c0-12-11.5-21.8-25.7-21.8H46.5z"/>
	</g>
</g>
</svg>
