<?xml version="1.0" encoding="utf-8"?>
<!-- Generator: Adobe Illustrator 23.0.3, SVG Export Plug-In . SVG Version: 6.00 Build 0)  -->
<svg version="1.1" id="Calque_1" xmlns="http://www.w3.org/2000/svg" xmlns:xlink="http://www.w3.org/1999/xlink" x="0px" y="0px"
	 viewBox="0 0 960 540" style="enable-background:new 0 0 960 540;" xml:space="preserve">
<style type="text/css">
	.st0{fill:#010101;}
</style>
<g>
	<g>
		<path class="st0" d="M884.6,55.1l0.5-2.1c0.1-0.6,3.3-13.6,15.8-23.4c12.5-9.8,29.2-12.4,29.9-12.5l2.7-0.4l-0.5,2.1
			c-0.1,0.6-3.3,13.6-15.8,23.4C904.7,52,888,54.6,887.3,54.7L884.6,55.1z M928.5,20.6c-5.2,1.2-16.3,4.3-24.9,11.1
			c-8.6,6.8-12.6,15.4-14,19.5c5.2-1.2,16.3-4.3,24.9-11.1C923.1,33.3,927,24.7,928.5,20.6z"/>
	</g>
	<g>
		<path class="st0" d="M885,52.1l1.4-0.3c1.1-0.2,26.2-5.8,43.3,2.9c4.8,2.4,8.7,5.4,12.7,8.6c3.4,2.7,7,5.4,11.6,8.3l3.7,2.3
			l-4.7,0.4c-0.2,0-16.2,1.3-29.2,2.3c-11.8,1-22.3-1.2-29.5-6.2c-6-4.2-9.3-10.1-9.4-17.1L885,52.1z M948.1,71.6
			c-3.2-2.2-5.9-4.3-8.4-6.2c-4.1-3.2-7.6-5.9-12.1-8.2c-13.5-6.8-33.3-3.8-38.7-2.8c0.4,5.6,3.2,10.4,8,13.8
			c6.3,4.4,15.8,6.3,26.5,5.4C932.3,72.8,942.4,72,948.1,71.6z"/>
	</g>
	<g>
		<path class="st0" d="M882,76.5c0-6,1.3-12.3,3.9-18.6l3.6,0.9c-6.5,15.4-4.4,31.2,5.8,42c6.5,7,15.4,11,24.3,11
			c8.7,0,15.7-5.3,15.7-11.8c0-5-5.5-9.1-12.2-9.1c-5.2,0-9.4,3.2-9.4,7l-3.8,0c0-5.5,5.9-10,13.1-10c8.8,0,16,5.4,16,12
			c0,8.1-8.7,14.8-19.5,14.8c-10.2,0-20.2-4.4-27.4-12.2C885.5,95.4,882,86.3,882,76.5z"/>
	</g>
	<g>
		<path class="st0" d="M888,218.2c31.4-9.5,44.3-27.3,38.5-52.7c-7-30.7-34.8-63.4-35.1-63.7l3.2-1.7c0.3,0.3,28.5,33.5,35.7,64.8
			c4.2,18.6,0.6,43.4-40.9,56L888,218.2z"/>
	</g>
	<g>
		<path class="st0" d="M889,319.6l0-3c16.4,0,29.7-21.5,29.7-47.9c-0.1-26.4-13.5-47.8-29.9-47.7l0-3c18.8-0.1,33.7,22.2,33.8,50.7
			C922.5,297.2,907.8,319.6,889,319.6z"/>
	</g>
	<g>
		<path class="st0" d="M856.6,29.1c0-1.3,0.1-2.7,0.3-4.1c1.3-10.1,2.8-22.6,2.8-22.8l0.4-3.7l2.9,2.9c3.7,3.6,7.2,6.3,10.7,9
			c4.1,3.1,7.9,6.1,11,9.9c11.2,13.3,4.3,32.9,4,33.7l-0.4,1.1l-1.4,0c-9,0-16.6-2.5-22-7.2C859.5,43.2,856.6,36.6,856.6,29.1z
			 M863,6c-0.5,4.5-1.5,12.4-2.4,19.3c-1.1,8.4,1.4,15.7,7.1,20.7c4.4,3.8,10.5,5.9,17.7,6.2c1.3-4.2,5-19.7-3.9-30.2
			c-3-3.5-6.5-6.2-10.6-9.4C868.5,10.6,865.8,8.5,863,6z"/>
	</g>
	<g>
		<path class="st0" d="M807.7,28.6c0-8.4,8.4-15.3,18.8-15.3c8.5,0,15.5,5.6,15.5,12.4c0,5.7-5.7,10.3-12.7,10.3l0-3
			c4.9,0,9-3.3,8.9-7.3c0-5.2-5.3-9.5-11.7-9.5c-8.3,0-15.1,5.5-15,12.3c0,7,5.2,13.9,14.2,18.9c14,7.8,34.2,9.4,53.9,4.2l1.2,2.8
			c-20.9,5.5-42.4,3.8-57.4-4.6C813.5,44.2,807.7,36.5,807.7,28.6z"/>
	</g>
	<g>
		<path class="st0" d="M478,63l2.8-2c41,33.6,72.7,23.6,113.6-5.1c22.9-16,48.8-23.8,79.2-23.9c30.1-0.1,59.7,10.2,85.8,19.3
			c19.9,6.9,37.1,12.9,50.3,12.9c30.5-0.1,57.8-10.1,58.1-10.2l1.6,2.7c-1.1,0.4-28.3,10.4-59.7,10.5c-14.1,0-31.6-6.1-51.9-13.2
			c-25.7-9-54.9-19.2-84.2-19.1c-29.5,0.1-54.6,7.7-76.7,23.2c-23.8,16.6-41.1,24.6-58,26.5C518.5,87,498.6,79.9,478,63z"/>
	</g>
	<g>
		<path class="st0" d="M885.9,482.7l2.7,0.4c0.7,0.1,17.4,2.6,29.9,12.3c12.5,9.7,15.8,22.7,15.9,23.3l0.5,2.1l-2.7-0.4
			c-0.7-0.1-17.4-2.6-29.9-12.3c-12.5-9.7-15.8-22.7-15.9-23.3L885.9,482.7z M930,516.9c-1.5-4.1-5.5-12.7-14.1-19.4
			c-8.7-6.7-19.8-9.8-25-10.9c1.5,4.1,5.5,12.7,14.1,19.4C913.7,512.7,924.8,515.7,930,516.9z"/>
	</g>
	<g>
		<path class="st0" d="M886.3,485.6l0-1.1c0.1-7,3.3-12.9,9.3-17.2c7.1-5,17.6-7.3,29.4-6.3c13,1,29,2.2,29.2,2.2l4.7,0.3l-3.7,2.3
			c-4.6,2.9-8.1,5.6-11.5,8.3c-4,3.2-7.9,6.2-12.7,8.6c-17.1,8.8-42.2,3.4-43.3,3.2L886.3,485.6z M949.3,465.8
			c-5.7-0.4-15.9-1.2-24.7-1.8c-10.8-0.8-20.2,1.2-26.5,5.6c-4.9,3.4-7.6,8.2-8,13.8c5.4,1,25.3,3.8,38.7-3.1
			c4.5-2.3,8-5.1,12.1-8.2C943.4,470.1,946.2,468,949.3,465.8z"/>
	</g>
	<g>
		<path class="st0" d="M883.1,461.3c0-9.8,3.4-19,10-26.2c7.2-7.8,17.2-12.3,27.3-12.4c10.8,0,19.5,6.5,19.6,14.7
			c0,6.7-7.1,12.1-16,12.1c-7.3,0-13.2-4.4-13.2-9.9l3.8,0c0,3.9,4.2,7,9.4,7c6.7,0,12.2-4.1,12.2-9.1c0-6.5-7.1-11.7-15.7-11.7
			c-8.9,0-17.8,4.1-24.3,11.1c-10.1,10.9-12.1,26.7-5.5,42.1l-3.6,0.9C884.5,473.6,883.1,467.3,883.1,461.3z"/>
	</g>
	<g>
		<path class="st0" d="M888.3,319.5l1.4-2.8c41.6,12.4,45.4,37.1,41.2,55.7c-6.9,31.3-35,64.7-35.3,65l-3.2-1.6
			c0.3-0.3,27.9-33.2,34.7-63.9C932.8,346.5,919.7,328.9,888.3,319.5z"/>
	</g>
	<g>
		<path class="st0" d="M889,319.6l0-3c16.4,0,29.7-21.5,29.7-47.9c-0.1-26.4-13.5-47.8-29.9-47.7l0-3c18.8-0.1,33.7,22.2,33.8,50.7
			C922.5,297.2,907.8,319.6,889,319.6z"/>
	</g>
	<g>
		<path class="st0" d="M871,424.3c0-11.2,8.1-25.8,17.6-42.7c11.3-20.1,24-42.9,24-63.5c-0.1-27-13.7-41.7-21.8-48.2l-1.3-1l1.3-1
			c8.1-6.5,21.6-21.4,21.5-48.3c-0.1-20.6-13-43.3-24.3-63.4c-9.6-16.8-17.8-31.4-17.8-42.6c-0.1-24.5,12.5-45.7,13-46.6l3.4,1.3
			c-0.1,0.2-12.7,21.6-12.7,45.4c0,10.6,8.5,25.5,17.5,41.4c11.5,20.3,24.6,43.4,24.7,64.6c0.1,26.6-12.8,42.1-21.3,49.4
			c8.6,7.2,21.6,22.5,21.6,49.2c0.1,21.2-12.9,44.3-24.3,64.7c-8.9,15.9-17.3,30.9-17.3,41.5c0.1,23.8,12.8,45.1,12.9,45.3l-3.4,1.3
			C883.7,469.9,871,448.8,871,424.3z"/>
	</g>
	<g>
		<path class="st0" d="M858,508.8c0-7.5,2.8-14.1,8.2-18.9c5.4-4.7,13-7.2,21.9-7.3l1.4,0l0.4,1.1c0.3,0.8,7.4,20.4-3.8,33.8
			c-3.1,3.8-7,6.8-11,9.9c-3.4,2.7-6.9,5.5-10.6,9.1l-2.9,2.9l-0.5-3.6c0-0.1-1.6-12.6-3-22.7C858.1,511.5,858,510.2,858,508.8z
			 M886.7,485.6c-7.2,0.3-13.3,2.5-17.6,6.3c-5.7,5-8.1,12.3-7,20.7c0.9,6.8,1.9,14.8,2.5,19.2c2.8-2.5,5.5-4.6,7.9-6.6
			c4.1-3.2,7.6-6,10.5-9.5C891.8,505.3,888,489.9,886.7,485.6z"/>
	</g>
	<g>
		<path class="st0" d="M809.1,509.6c0-7.9,5.7-15.7,15.7-21.4c15-8.5,36.4-10.3,57.3-5l-1.2,2.8c-19.8-5.1-39.9-3.4-53.9,4.6
			c-9,5.1-14.2,12-14.1,19c0,6.8,6.8,12.2,15.1,12.2c6.4,0,11.7-4.3,11.6-9.5c0-4-4-7.3-9-7.3l0-3c7,0,12.8,4.6,12.8,10.2
			c0,6.9-6.9,12.5-15.4,12.5C817.6,524.8,809.1,518,809.1,509.6z"/>
	</g>
	<g>
		<path class="st0" d="M479.2,477.2c20.5-17,40.4-24.2,60.8-22c16.9,1.8,34.2,9.7,58.1,26.2c22.2,15.4,47.4,22.8,76.8,22.7
			c29.3-0.1,58.4-10.5,84.1-19.6c20.3-7.2,37.7-13.4,51.8-13.5c31.4-0.1,58.6,9.7,59.8,10.1l-1.6,2.7c-0.3-0.1-27.6-9.9-58.1-9.8
			c-13.2,0-30.4,6.1-50.2,13.2c-26,9.3-55.6,19.8-85.7,19.9c-30.5,0.1-56.4-7.6-79.4-23.4c-41.1-28.4-72.8-38.2-113.6-4.4
			L479.2,477.2z"/>
	</g>
	<g>
		<path class="st0" d="M26.5,523.5l0.5-2.1c0.1-0.6,3.3-13.6,15.8-23.4c12.5-9.8,29.2-12.4,29.9-12.5l2.7-0.4l-0.5,2.1
			c-0.1,0.6-3.3,13.6-15.8,23.4C46.7,520.4,30,523,29.2,523.1L26.5,523.5z M70.4,489c-5.2,1.2-16.3,4.3-24.9,11.1
			c-8.6,6.8-12.5,15.4-14,19.5c5.2-1.2,16.3-4.3,24.9-11C65.1,501.7,69,493.1,70.4,489z"/>
	</g>
	<g>
		<path class="st0" d="M2.3,466.4l4.7-0.4c0.2,0,16.2-1.3,29.2-2.3c11.8-1,22.3,1.2,29.5,6.2c6,4.2,9.3,10.1,9.4,17.1l0,1.1
			l-1.4,0.3c-1.1,0.2-26.2,5.8-43.3-2.9c-4.8-2.4-8.7-5.4-12.7-8.6c-3.4-2.7-7-5.4-11.6-8.3L2.3,466.4z M71.1,485.8
			c-0.4-5.6-3.2-10.4-8-13.8c-6.3-4.4-15.8-6.3-26.5-5.4c-8.8,0.7-18.9,1.5-24.7,2c3.2,2.2,5.9,4.3,8.4,6.2
			c4.1,3.2,7.6,5.9,12.1,8.2C45.8,489.8,65.6,486.8,71.1,485.8z"/>
	</g>
	<g>
		<path class="st0" d="M20.9,440.1c0-8.1,8.7-14.8,19.5-14.8c10.2,0,20.2,4.4,27.4,12.2c10.8,11.7,13.2,28.4,6.3,44.7l-3.6-0.9
			c6.5-15.4,4.4-31.2-5.8-42c-6.5-7-15.4-11-24.3-11c-8.7,0-15.7,5.3-15.7,11.8c0,5,5.5,9.1,12.2,9.1c5.2,0,9.4-3.2,9.4-7l3.8,0
			c0,5.5-5.9,10-13.1,10C28.1,452.1,20.9,446.8,20.9,440.1z"/>
	</g>
	<g>
		<path class="st0" d="M28.4,363.8c0-16.4,8.8-34.5,42.3-44.6L72,322c-31.4,9.5-44.3,27.3-38.5,52.7c7,30.7,34.8,63.4,35.1,63.7
			l-3.2,1.7c-0.3-0.3-28.5-33.5-35.7-64.8C28.9,371.6,28.4,367.8,28.4,363.8z"/>
	</g>
	<g>
		<path class="st0" d="M37.6,271.4C37.5,243,52.2,220.6,71,220.6l0,3c-16.4,0-29.7,21.5-29.7,47.9c0.1,26.4,13.5,47.8,29.9,47.7l0,3
			C52.5,322.1,37.6,299.9,37.6,271.4z"/>
	</g>
	<g>
		<path class="st0" d="M68.9,500.8c0-7.8,2.2-14.2,2.4-14.6l0.4-1.1l1.4,0c9,0,16.6,2.5,22,7.2c6.4,5.5,9.3,13.7,8.1,22.9
			c-1.3,10.1-2.8,22.6-2.8,22.8l-0.4,3.7l-2.9-2.9c-3.7-3.6-7.2-6.3-10.7-9c-4.1-3.1-7.9-6.1-11-9.9C70.3,514,68.9,506.9,68.9,500.8
			z M74.5,488.1c-1.3,4.2-5,19.7,3.9,30.2c3,3.5,6.5,6.2,10.6,9.4c2.5,1.9,5.2,4,8,6.5c0.5-4.5,1.5-12.4,2.4-19.3
			c1.1-8.4-1.4-15.7-7.1-20.7C87.9,490.5,81.8,488.3,74.5,488.1z"/>
	</g>
	<g>
		<path class="st0" d="M79.1,485.7c20.9-5.5,42.4-3.8,57.4,4.6c10,5.6,15.8,13.4,15.8,21.3c0,8.4-8.4,15.3-18.8,15.3
			c-8.5,0-15.5-5.6-15.5-12.4c0-5.7,5.7-10.3,12.7-10.3l0,3c-4.9,0-9,3.3-8.9,7.3c0,5.2,5.3,9.5,11.7,9.5c8.3,0,15.1-5.5,15-12.3
			c0-7-5.2-13.9-14.2-18.9c-14-7.8-34.2-9.4-53.9-4.2L79.1,485.7z"/>
	</g>
	<g>
		<path class="st0" d="M133.3,492.2l2.1-2.5c0.4,0.2,42.5,21.7,81.9,27c31,4.1,53-6.4,65.2-31.3l1.7-3.4l1.9,3.3
			c8.8,15.7,31.9,24.7,63.6,24.6c30.5-0.1,53.8-11.6,74.4-21.7c20.6-10.2,38.4-19,56.6-11.7c18.1-7.4,36,1.3,56.7,11.3
			c20.6,10,44,21.4,74.5,21.3c31.7-0.1,54.8-9.2,63.5-25l1.8-3.3l1.7,3.4c12.4,24.9,34.4,35.3,65.4,31c39.3-5.5,81.3-27.3,81.7-27.5
			l2.1,2.5c-0.4,0.2-43,22.3-83.1,27.9c-31.7,4.4-54.6-5.6-68-29.7c-10.4,15-33.9,23.6-65.1,23.7c-31.6,0.1-55.5-11.5-76.5-21.7
			c-20.8-10.1-37.2-18.1-53.7-10.9l-0.9,0.4l-0.9-0.4c-16.5-7.1-32.9,1-53.7,11.2c-21,10.4-44.8,22.1-76.4,22.2
			c-31.2,0.1-54.7-8.4-65.2-23.3c-13.2,24.2-36,34.3-67.8,30.1C176.5,514.3,133.8,492.4,133.3,492.2z"/>
	</g>
	<g>
		<path class="st0" d="M90.6,483.4c1.1-0.4,28.3-10.4,59.7-10.5c14.1,0,31.6,6.1,51.9,13.2c25.7,9,54.9,19.2,84.2,19.1
			c29.5-0.1,54.6-7.7,76.7-23.2c23.8-16.6,41.1-24.6,58-26.5c20.4-2.3,40.3,4.7,60.9,21.6l-2.8,2c-41-33.6-72.7-23.6-113.6,5.1
			c-22.9,16-48.8,23.8-79.2,23.9c-30.1,0.1-59.7-10.2-85.8-19.3c-19.9-6.9-37.1-12.9-50.3-12.9c-30.5,0.1-57.8,10.1-58.1,10.2
			L90.6,483.4z"/>
	</g>
	<g>
		<path class="st0" d="M25,19.4l2.7,0.4c0.7,0.1,17.4,2.6,29.9,12.3c12.5,9.7,15.8,22.7,15.9,23.3l0.5,2.1l-2.7-0.4
			C70.7,57,54,54.5,41.4,44.8c-12.5-9.7-15.8-22.7-15.9-23.3L25,19.4z M69.1,53.6c-1.5-4.1-5.5-12.7-14.1-19.4
			c-8.7-6.7-19.8-9.8-25-10.9c1.5,4.1,5.5,12.7,14.1,19.4C52.8,49.5,63.9,52.5,69.1,53.6z"/>
	</g>
	<g>
		<path class="st0" d="M1.1,76.7l3.7-2.3c4.6-2.9,8.1-5.6,11.5-8.3c4-3.2,7.9-6.2,12.7-8.6c17.1-8.8,42.2-3.4,43.3-3.2l1.4,0.3
			l0,1.1c-0.1,7-3.3,12.9-9.3,17.2c-7.1,5-17.6,7.3-29.4,6.3c-13-1-29-2.2-29.2-2.2L1.1,76.7z M69.8,56.8c-5.4-1-25.3-3.8-38.7,3.1
			c-4.5,2.3-8,5.1-12.1,8.2c-2.5,1.9-5.2,4.1-8.4,6.2c5.7,0.4,15.9,1.2,24.7,1.8c10.8,0.8,20.2-1.2,26.5-5.6
			C66.7,67.2,69.4,62.5,69.8,56.8z"/>
	</g>
	<g>
		<path class="st0" d="M19.9,102.8c0-6.7,7.1-12.1,16-12.1c7.3,0,13.2,4.4,13.2,9.9l-3.8,0c0-3.9-4.2-7-9.4-7
			c-6.7,0-12.2,4.1-12.2,9.1c0,6.5,7.1,11.7,15.7,11.7c8.9,0,17.8-4.1,24.3-11.1c10.1-10.9,12.1-26.7,5.5-42.1l3.6-0.9
			c7,16.3,4.7,33-6,44.8c-7.2,7.8-17.2,12.3-27.3,12.4C28.7,117.5,19.9,111,19.9,102.8z"/>
	</g>
	<g>
		<path class="st0" d="M27.8,179.1c0-3.9,0.5-7.8,1.3-11.3c6.9-31.3,35-64.7,35.3-65l3.2,1.6c-0.3,0.3-27.9,33.2-34.7,63.9
			c-5.6,25.5,7.4,43.1,38.9,52.4l-1.4,2.8C36.8,213.5,27.8,195.4,27.8,179.1z"/>
	</g>
	<g>
		<path class="st0" d="M37.6,271.4C37.5,243,52.2,220.6,71,220.6l0,3c-16.4,0-29.7,21.5-29.7,47.9c0.1,26.4,13.5,47.8,29.9,47.7l0,3
			C52.5,322.1,37.6,299.9,37.6,271.4z"/>
	</g>
	<g>
		<path class="st0" d="M44,320.7c-0.1-26.6,12.8-42.1,21.3-49.4c-8.6-7.2-21.6-22.5-21.6-49.2c-0.1-21.2,12.9-44.3,24.3-64.7
			c8.9-15.9,17.3-30.9,17.3-41.5c-0.1-23.8-12.8-45.1-12.9-45.3l3.4-1.3c0.5,0.9,13.2,22,13.3,46.5c0,11.2-8.1,25.8-17.6,42.7
			c-11.3,20.1-24,42.9-24,63.5c0.1,27,13.7,41.7,21.8,48.2l1.3,1l-1.3,1c-8.1,6.5-21.6,21.4-21.5,48.3c0.1,20.6,13,43.3,24.3,63.4
			c9.6,16.8,17.8,31.4,17.8,42.6c0.1,24.5-12.5,45.7-13,46.6l-3.4-1.3c0.1-0.2,12.7-21.6,12.7-45.4c0-10.6-8.5-25.5-17.5-41.4
			C57.1,364.9,44,341.9,44,320.7z"/>
	</g>
	<g>
		<path class="st0" d="M67.5,41.9c0-6.2,1.4-13.3,6.3-19.2c3.1-3.8,7-6.8,11-9.9c3.4-2.7,6.9-5.5,10.6-9.1l2.9-2.9l0.5,3.6
			c0,0.1,1.6,12.6,3,22.7c1.2,9.2-1.6,17.4-7.9,23c-5.4,4.7-13,7.2-21.9,7.3l-1.4,0l-0.4-1.1C69.8,56,67.5,49.7,67.5,41.9z
			 M95.4,8.3c-2.8,2.5-5.5,4.6-7.9,6.6c-4.1,3.2-7.6,6-10.5,9.5c-8.8,10.5-5,26-3.7,30.2c7.2-0.3,13.3-2.5,17.6-6.3
			c5.7-5,8.1-12.3,7-20.7C97,20.7,96,12.8,95.4,8.3z"/>
	</g>
	<g>
		<path class="st0" d="M77.8,56.9l1.2-2.8c19.8,5.1,39.9,3.4,53.9-4.6c9-5.1,14.2-12,14.1-19c0-6.8-6.8-12.2-15.1-12.2
			c-6.4,0-11.7,4.3-11.6,9.5c0,4,4,7.3,9,7.3l0,3c-7,0-12.8-4.6-12.8-10.2c0-6.9,6.9-12.5,15.4-12.5c10.4,0,18.9,6.8,18.9,15.2
			c0,7.9-5.7,15.7-15.7,21.4C120.2,60.4,98.8,62.3,77.8,56.9z"/>
	</g>
	<g>
		<path class="st0" d="M132,50c0.4-0.2,43-22.3,83.1-27.9c31.7-4.4,54.6,5.6,68,29.7c10.4-15,33.9-23.6,65.1-23.7
			c31.6-0.1,55.5,11.5,76.5,21.7c20.8,10.1,37.2,18.1,53.7,10.9l0.9-0.4l0.9,0.4c16.5,7.1,32.9-1,53.7-11.2
			c21-10.4,44.8-22.1,76.4-22.2c31.2-0.1,54.7,8.4,65.2,23.3c13.2-24.2,36-34.4,67.8-30.1c40.1,5.4,82.9,27.2,83.3,27.4l-2.1,2.5
			c-0.4-0.2-42.5-21.7-81.9-27c-31-4.1-53,6.4-65.2,31.3l-1.7,3.4l-1.9-3.3c-8.8-15.7-31.9-24.7-63.6-24.6
			C579.9,30.4,556.6,41.9,536,52c-20.6,10.2-38.4,19-56.6,11.7c-18.1,7.4-36-1.3-56.7-11.3c-20.6-10-44-21.4-74.5-21.3
			c-31.7,0.1-54.8,9.2-63.5,25l-1.8,3.3l-1.7-3.4c-12.4-24.9-34.4-35.3-65.4-31c-39.3,5.5-81.3,27.2-81.7,27.5L132,50z"/>
	</g>
	<g>
		<path class="st0" d="M89.3,59.1l1.6-2.7c0.3,0.1,27.6,9.9,58.1,9.8c13.2,0,30.4-6.1,50.2-13.2c26-9.3,55.6-19.8,85.7-19.9
			c30.5-0.1,56.4,7.6,79.4,23.4C405.4,85,437.2,94.8,478,61l2.8,2c-20.5,17-40.4,24.2-60.8,22c-16.9-1.8-34.2-9.7-58.1-26.2
			C339.6,43.4,314.5,36,285,36.1c-29.3,0.1-58.4,10.5-84.1,19.6c-20.3,7.2-37.7,13.4-51.8,13.5C117.7,69.3,90.5,59.5,89.3,59.1z"/>
	</g>
</g>
</svg>
