<?xml version="1.0" encoding="utf-8"?>
<!-- Generator: Adobe Illustrator 23.0.3, SVG Export Plug-In . SVG Version: 6.00 Build 0)  -->
<svg version="1.1" id="Calque_1" xmlns="http://www.w3.org/2000/svg" xmlns:xlink="http://www.w3.org/1999/xlink" x="0px" y="0px"
	 viewBox="0 0 1920 1080" style="enable-background:new 0 0 1920 1080;" xml:space="preserve">
<style type="text/css">
	.st0{fill:#D3AF7F;}
</style>
<g>
	<g>
		<path class="st0" d="M1821.2,288.5V107.1c0-19.5,19.9-35.6,44.9-35.6c24.6,0,44.9,15.7,44.9,35.6v61.4c0,11.7-11.9,21.1-26.6,21.1
			s-26.6-9.4-26.6-21.1v-54.5h8.3v54.5c0,7.9,8.3,14.5,18.3,14.5s18.3-6.6,18.3-14.5v-61.4c0-16.1-16.3-29-36.5-29
			s-36.5,12.9-36.5,29v181.1h-8.3V288.5z"/>
	</g>
	<g>
		<path class="st0" d="M1556.8,79.1v-6.6h228.3c20.2,0,36.5-12.9,36.5-29s-16.3-28.7-36.5-28.7h-77.4c-9.9,0-18.3,6.6-18.3,14.5
			s8.3,14.5,18.3,14.5h69.1v6.6H1708c-14.7,0-26.6-9.4-26.6-21.1s11.9-21.1,26.6-21.1h77c24.6,0,44.9,15.7,44.9,35.6
			c0,19.5-19.9,35.6-44.9,35.6h-228.3V79.1z"/>
	</g>
	<g>
		<rect x="1788.2" y="348" class="st0" width="8.3" height="111.5"/>
	</g>
	<g>
		<rect x="1854.1" y="348" class="st0" width="8.3" height="111.5"/>
	</g>
	<g>
		<rect x="1324.9" y="45.7" class="st0" width="140.6" height="6.6"/>
	</g>
	<g>
		<rect x="1324.9" y="98" class="st0" width="140.6" height="6.6"/>
	</g>
	<g>
		<path class="st0" d="M1788.2,305.2h8.3c0,12.9,13.5,23.6,29.8,23.6c16.3,0,29.8-10.7,29.8-23.6v-84.1h8.3v84.1
			c0,16.7-17.1,30.2-38.1,30.2S1788.2,321.9,1788.2,305.2z"/>
	</g>
	<g>
		<path class="st0" d="M1481.7,75c0-16.7,17.1-30.2,38.1-30.2h108.8v6.6h-108.8c-16.3,0-29.8,10.7-29.8,23.6s13.5,23.6,29.8,23.6
			v6.3C1498.4,104.9,1481.7,91.4,1481.7,75z"/>
	</g>
	<g>
		<path class="st0" d="M1628.6,51.4v-6.6c14.7,0,26.6,9.4,26.6,21.1h-8.3C1646.9,57.7,1638.5,51.4,1628.6,51.4z"/>
	</g>
	<g>
		<path class="st0" d="M1837.5,206.7V200c14.7,0,26.6,9.4,26.6,21.1h-8.3C1855.7,213.3,1847.8,206.7,1837.5,206.7z"/>
	</g>
	<g>
		<path class="st0" d="M1691.7,153.4c0-9.1,7.5-13.9,22.2-14.2c7.9,0,30.2,0,31.4,0v6.6c-0.4,0-23.4,0-31,0
			c-9.9,0-13.9,2.2-13.9,7.6c0,5,3.2,7.9,9.5,8.2c4.8,0.3,9.1,0,14.7,0c3.6,0,7.5,0,12.7,0c13.5,0,25.8,0,25.8-20.2
			c0-6.6-2-11.7-6.4-14.5c-5.6-3.8-12.7-3.5-13.1-3.5h-0.4h-47.6v-6.6h47.6c1.6,0,11.5-0.3,19.1,5c6,4.4,9.1,10.7,9.1,19.5
			c0,26.8-21.4,26.8-34.1,26.8c-5.2,0-9.1,0-12.7,0c-6,0-10.3,0-15.5,0C1700.5,167.9,1691.7,163.8,1691.7,153.4z"/>
	</g>
	<g>
		<path class="st0" d="M1519,104.9v-6.6h238.2c0.8,0,17.1,0,28.6,8.8c7.1,5.7,10.7,13.2,10.7,22.7v175.4h-8.3V129.8
			c0-7.6-2.8-13.9-8.3-17.9c-8.7-6.9-22.2-6.9-22.2-6.9H1519z"/>
	</g>
	<g>
		<path class="st0" d="M1646.9,175.2V65.9h8.3v109.3c0,7.6,2.8,13.9,7.9,17.9c9.1,6.9,22.6,6.9,22.6,6.9h155.6v6.6h-155.6
			c-0.8,0-17.1,0-28.6-8.8C1650.5,192.5,1646.9,184.6,1646.9,175.2z"/>
	</g>
	<g>
		<path class="st0" d="M1821.2,968.1V787h8.3v181.1c0,16.1,16.3,29,36.5,29s36.5-12.9,36.5-29v-61.4c0-7.9-8.3-14.5-18.3-14.5
			s-18.3,6.6-18.3,14.5v54.8h-8.3V907c0-11.7,11.9-21.1,26.6-21.1s26.6,9.4,26.6,21.1v61.4c0,19.5-19.9,35.6-44.9,35.6
			C1841.4,1003.7,1821.2,987.6,1821.2,968.1z"/>
	</g>
	<g>
		<path class="st0" d="M1556.8,1003v-6.6h228.3c24.6,0,44.9,15.7,44.9,35.6c0,19.8-19.9,35.6-44.9,35.6h-77.4
			c-14.7,0-26.6-9.4-26.6-21.1c0-11.7,11.9-21.1,26.6-21.1h69.1v6.6H1708c-9.9,0-18.3,6.6-18.3,14.5c0,7.9,8.3,14.5,18.3,14.5h77
			c20.2,0,36.5-12.9,36.5-29c0-16.1-16.3-29-36.5-29L1556.8,1003L1556.8,1003z"/>
	</g>
	<g>
		<rect x="1821.2" y="332" class="st0" width="8.3" height="411.3"/>
	</g>
	<g>
		<rect x="1788.2" y="616" class="st0" width="8.3" height="111.5"/>
	</g>
	<g>
		<rect x="1854.1" y="616" class="st0" width="8.3" height="111.5"/>
	</g>
	<g>
		<rect x="1324.9" y="1023.2" class="st0" width="140.6" height="6.6"/>
	</g>
	<g>
		<rect x="1324.9" y="970.9" class="st0" width="140.6" height="6.6"/>
	</g>
	<g>
		<path class="st0" d="M1788.2,770c0-16.7,17.1-30.2,38.1-30.2s38.1,13.5,38.1,30.2v84.1h-8.3V770c0-12.9-13.5-23.6-29.8-23.6
			c-16.3,0-29.8,10.7-29.8,23.6H1788.2z"/>
	</g>
	<g>
		<path class="st0" d="M1481.7,1000.5c0-16.7,17.1-30.2,38.1-30.2v6.6c-16.3,0-29.8,10.7-29.8,23.6c0,12.9,13.5,23.6,29.8,23.6
			h108.8v6.6h-108.8C1498.4,1030.8,1481.7,1017.2,1481.7,1000.5z"/>
	</g>
	<g>
		<path class="st0" d="M1628.6,1030.8v-6.6c9.9,0,18.3-6.6,18.3-14.5h8.3C1655.2,1021.3,1642.9,1030.8,1628.6,1030.8z"/>
	</g>
	<g>
		<path class="st0" d="M1837.5,875.2v-6.6c9.9,0,18.3-6.6,18.3-14.5h8.3C1864.1,865.7,1852.2,875.2,1837.5,875.2z"/>
	</g>
	<g>
		<path class="st0" d="M1691.7,921.8c0-10.4,9.1-14.5,17.5-14.8c5.2-0.3,9.5,0,15.5,0c3.6,0,7.5,0,12.7,0c12.7,0,34.1,0,34.1,26.8
			c0,8.5-3.2,15.1-9.1,19.5c-7.5,5.4-17.5,5-19.1,5h-47.6v-6.6h48c0,0,7.5,0.6,13.1-3.5c4-2.8,6.4-7.9,6.4-14.5
			c0-20.2-12.7-20.2-25.8-20.2c-5.2,0-9.1,0-12.7,0c-6,0-9.9,0-14.7,0c-6.4,0.3-9.5,2.8-9.5,8.2s4,7.6,13.9,7.6c7.5,0,31,0,31,0v6.6
			c-0.8,0-23.4,0-31.4,0C1698.9,936,1691.7,931.2,1691.7,921.8z"/>
	</g>
	<g>
		<path class="st0" d="M1519,976.9v-6.6h238.2c0,0,13.9,0,22.6-6.9c5.6-4.1,7.9-10.4,7.9-17.9V770h8.3v175.4c0,9.4-3.6,17-10.7,22.7
			c-11.5,8.8-27.8,8.8-28.6,8.8L1519,976.9z"/>
	</g>
	<g>
		<path class="st0" d="M1646.9,1009.7V900.4c0-9.4,3.6-17,10.7-22.7c11.5-8.8,27.8-8.8,28.6-8.8h155.2v6.6h-155.6
			c0,0-13.9,0-22.6,6.9c-5.6,4.1-7.9,10.4-7.9,17.9v109.3L1646.9,1009.7L1646.9,1009.7z"/>
	</g>
	<g>
		<path class="st0" d="M12.7,968.1v-61.4c0-11.7,11.9-21.1,26.6-21.1s26.6,9.4,26.6,21.1v54.8h-8.3V907c0-7.9-8.3-14.5-18.3-14.5
			S21,899.1,21,907v61.4c0,16.1,16.3,29,36.5,29s36.5-12.9,36.5-29V787.3h8.3v181.1c0,19.5-19.9,35.6-44.9,35.6
			C32.5,1003.7,12.7,987.6,12.7,968.1z"/>
	</g>
	<g>
		<path class="st0" d="M93.7,1031.7c0-19.5,19.9-35.6,44.9-35.6h228.3v6.6H138.5c-20.2,0-36.5,12.9-36.5,29c0,16.1,16.3,29,36.5,29
			H216c9.9,0,18.3-6.6,18.3-14.5s-8.3-14.5-18.3-14.5h-68.7v-6.6H216c14.7,0,26.6,9.4,26.6,21.1c0,11.7-11.9,21.1-26.6,21.1h-77.4
			C113.5,1067.3,93.7,1051.2,93.7,1031.7z"/>
	</g>
	<g>
		<rect x="126.6" y="616" class="st0" width="8.3" height="111.5"/>
	</g>
	<g>
		<rect x="60.7" y="616" class="st0" width="8.3" height="111.5"/>
	</g>
	<g>
		<rect x="437.5" y="997.1" class="st0" width="1048.2" height="6.6"/>
	</g>
	<g>
		<rect x="457.7" y="1023.2" class="st0" width="140.6" height="6.6"/>
	</g>
	<g>
		<rect x="457.7" y="970.9" class="st0" width="140.6" height="6.6"/>
	</g>
	<g>
		<path class="st0" d="M59.1,854.1V770c0-16.7,17.1-30.2,38.1-30.2c21,0,38.1,13.5,38.1,30.2H127c0-12.9-13.5-23.6-29.8-23.6
			S67.5,757.1,67.5,770v84.1H59.1z"/>
	</g>
	<g>
		<path class="st0" d="M295,1030.8v-6.6h108.8c16.3,0,29.8-10.7,29.8-23.6c0-12.9-13.5-23.6-29.8-23.6v-6.6
			c21,0,38.1,13.5,38.1,30.2c0,16.7-17.1,30.2-38.1,30.2H295z"/>
	</g>
	<g>
		<path class="st0" d="M268.4,1009.7h8.3c0,7.9,8.3,14.5,18.3,14.5v6.6C280.3,1030.8,268.4,1021.3,268.4,1009.7z"/>
	</g>
	<g>
		<path class="st0" d="M59.1,854.1h8.3c0,7.9,8.3,14.5,18.3,14.5v6.6C71,875.2,59.1,865.7,59.1,854.1z"/>
	</g>
	<g>
		<path class="st0" d="M152,933.8c0-26.8,21.4-26.8,34.1-26.8c5.2,0,9.1,0,12.7,0c6,0,10.3,0,15.5,0c8.3,0.3,17.5,4.4,17.5,14.8
			c0,9.1-7.5,13.9-22.2,14.2c-7.9,0-30.2,0-31.4,0v-6.6c0.4,0,23.4,0,31,0c9.9,0,13.9-2.2,13.9-7.6c0-5-3.2-7.9-9.5-8.2
			c-4.8-0.3-9.1,0-14.7,0c-3.6,0-7.5,0-12.7,0c-13.5,0-25.8,0-25.8,20.2c0,6.6,2,11.3,6.4,14.5c5.6,4.1,13.1,3.5,13.1,3.5h0.4h47.6
			v6.6h-47.6c-1.6,0-11.5,0.3-19.1-5C154.8,948.9,152,942.6,152,933.8z"/>
	</g>
	<g>
		<path class="st0" d="M126.6,945.4V770h8.3v175.4c0,7.6,2.8,13.9,8.3,17.9c9.1,6.9,22.6,6.9,22.6,6.9h238.2v6.6H165.9
			c-0.8,0-17.1,0-28.6-8.8C130.2,962.7,126.6,955.2,126.6,945.4z"/>
	</g>
	<g>
		<path class="st0" d="M82.1,875.2v-6.6h155.2c0.8,0,17.1,0,28.6,8.8c7.1,5.7,10.7,13.2,10.7,22.7v109.3h-8.3V900.1
			c0-7.6-2.8-13.9-8.3-17.9c-9.1-6.9-22.6-6.9-22.6-6.9L82.1,875.2z"/>
	</g>
	<g>
		<path class="st0" d="M12.7,168.5v-61.4c0-19.5,19.9-35.6,44.9-35.6c24.6,0,44.9,15.7,44.9,35.6v181.1h-8.3V107.1
			c0-16.1-16.3-29-36.5-29S21,91.1,21,107.1v61.4c0,7.9,8.3,14.5,18.3,14.5s18.3-6.6,18.3-14.5v-54.5h8.3v54.5
			c0,11.7-11.9,21.1-26.6,21.1C24.6,189.6,12.7,180.2,12.7,168.5z"/>
	</g>
	<g>
		<path class="st0" d="M93.7,43.5c0-19.5,19.9-35.6,44.9-35.6H216c14.7,0,26.6,9.4,26.6,21.1S230.6,50.1,216,50.1h-68.7v-6.6H216
			c9.9,0,18.3-6.6,18.3-14.5s-8.3-14.5-18.3-14.5h-77.4c-20.2,0-36.5,12.9-36.5,29s16.3,29,36.5,29h228.3v6.6H138.5
			C113.5,79.1,93.7,63.1,93.7,43.5z"/>
	</g>
	<g>
		<rect x="93.7" y="332" class="st0" width="8.3" height="411.3"/>
	</g>
	<g>
		<rect x="126.6" y="348" class="st0" width="8.3" height="111.5"/>
	</g>
	<g>
		<rect x="60.7" y="348" class="st0" width="8.3" height="111.5"/>
	</g>
	<g>
		<rect x="437.5" y="71.9" class="st0" width="1048.2" height="6.6"/>
	</g>
	<g>
		<rect x="457.7" y="45.7" class="st0" width="140.6" height="6.6"/>
	</g>
	<g>
		<rect x="457.7" y="98" class="st0" width="140.6" height="6.6"/>
	</g>
	<g>
		<path class="st0" d="M59.1,305.2v-84.1h8.3v84.1c0,12.9,13.5,23.6,29.8,23.6s29.8-10.7,29.8-23.6h8.3c0,16.7-17.1,30.2-38.1,30.2
			C76.2,335.4,59.1,321.9,59.1,305.2z"/>
	</g>
	<g>
		<path class="st0" d="M295,51.4v-6.6h108.8c21,0,38.1,13.5,38.1,30.2s-17.1,30.2-38.1,30.2v-6.6c16.3,0,29.8-10.7,29.8-23.6
			S420,51.4,403.8,51.4C403.8,51.4,295,51.4,295,51.4z"/>
	</g>
	<g>
		<path class="st0" d="M268.4,65.9c0-11.7,11.9-21.1,26.6-21.1v6.6c-9.9,0-18.3,6.6-18.3,14.5H268.4z"/>
	</g>
	<g>
		<path class="st0" d="M59.1,221.1c0-11.7,11.9-21.1,26.6-21.1v6.6c-9.9,0-18.3,6.6-18.3,14.5H59.1z"/>
	</g>
	<g>
		<path class="st0" d="M152,141.5c0-8.5,3.2-15.1,9.1-19.5c7.5-5.4,17.5-5,19.1-5h47.6v6.6h-48c0,0-7.5-0.6-13.1,3.5
			c-4,2.8-6.4,7.9-6.4,14.5c0,20.2,12.7,20.2,25.8,20.2c5.2,0,9.1,0,12.7,0c6,0,9.9,0,14.7,0c6.4-0.3,9.5-2.8,9.5-8.2
			s-4-7.6-13.9-7.6c-7.5,0-31,0-31,0v-6.6c0.8,0,23.4,0,31.4,0c14.7,0.3,22.2,5,22.2,14.2c0,10.4-9.1,14.5-17.5,14.8
			c-5.2,0.3-9.5,0-15.5,0c-3.6,0-7.5,0-12.7,0C173.5,168.2,152,168.2,152,141.5z"/>
	</g>
	<g>
		<path class="st0" d="M126.6,305.2V129.8c0-9.4,3.6-17,10.7-22.7c11.5-8.8,27.8-8.8,28.6-8.8h238.2v6.6H165.9c0,0-13.9,0-22.6,6.9
			c-5.6,4.1-7.9,10.4-7.9,17.9v175.4C135.4,305.2,126.6,305.2,126.6,305.2z"/>
	</g>
	<g>
		<path class="st0" d="M82.1,206.7V200h155.2c0,0,13.9,0,22.6-6.9c5.6-4.1,7.9-10.4,7.9-17.9V65.9h8.3v109.3c0,9.4-3.6,17-10.7,22.7
			c-11.5,8.8-27.8,8.8-28.6,8.8H82.1z"/>
	</g>
</g>
</svg>
