<?xml version="1.0" encoding="utf-8"?>
<!-- Generator: Adobe Illustrator 23.0.3, SVG Export Plug-In . SVG Version: 6.00 Build 0)  -->
<svg version="1.1" id="Calque_1" xmlns="http://www.w3.org/2000/svg" xmlns:xlink="http://www.w3.org/1999/xlink" x="0px" y="0px"
	 viewBox="0 0 960 540" style="enable-background:new 0 0 960 540;" xml:space="preserve">
<style type="text/css">
	.st0{fill:#010101;}
</style>
<g>
	<g>
		<path class="st0" d="M856.4,70.4c0-7.4,10.3-18.5,29.5-24.5c7.6-2.4,20.9-4.4,21.5-4.5l3-0.4l-0.7,2.4c-0.2,0.5-3.7,13.1-5.4,17.3
			c-7.2,17.8-20.7,24.1-30.1,24.1C864.3,84.9,856.4,78.4,856.4,70.4z M905.1,45.1c-4.4,0.7-12.6,2.2-17.8,3.8h0
			c-16.9,5.3-27,15.1-27,21.5c0,6.2,6.2,11.2,13.7,11.2c8.7,0,20.3-6.8,26.4-21.9C901.7,56.7,903.9,49,905.1,45.1z"/>
	</g>
	<g>
		<path class="st0" d="M916.9,35.4l0.7-2.4c0.1-0.4,2.8-9.8,4.1-13c5.4-13.5,15.8-18.3,23-18.3c7.6,0,13.7,5,13.7,11.2
			c0,5.7-7.8,14.1-22.3,18.7c-5.7,1.8-15.7,3.3-16.1,3.4L916.9,35.4z M954.4,12.9c0-4.4-4.4-7.9-9.7-7.9c-6.3,0-14.7,5-19.2,16.1
			c-0.8,2.1-2.4,7.2-3.3,10.3c3.4-0.6,8.9-1.6,12.4-2.7l0,0C947,24.7,954.4,17.5,954.4,12.9z"/>
	</g>
	<g>
		<path class="st0" d="M889.1,205.8c0-5.3,2.3-9.3,5.1-11.7c5.3-4.4,14-4.4,19.4,0c4.9,4,6.7,14.5,0.4,26.1
			c-2.5,4.6-8.2,11.4-8.5,11.7l-1.7,2l-1.6-2.1c-0.3-0.3-6.5-8.5-8.4-11.5C890.5,214.8,889.1,209.9,889.1,205.8z M914.2,205.5
			c0-4.1-1.3-7.4-3.3-9.1c-3.8-3.1-10-3.1-13.8,0c-4.5,3.7-6.1,12,0.4,22.4c1.2,2,4.6,6.5,6.6,9.1c1.9-2.4,4.9-6.3,6.4-9.1l0,0
			C913,214.1,914.2,209.5,914.2,205.5z"/>
	</g>
	<g>
		<path class="st0" d="M734.5,48.1c0-9.7,4.9-19.5,13.4-26.4c13.8-11.3,36.4-11.3,50.2,0c5.4,4.4,8.4,10.3,8.4,16.6
			c0,6.3-3,12.2-8.4,16.6c-4.4,3.6-10.3,5.6-16.6,5.6c-6.3,0-12.1-2-16.6-5.6c-3.6-2.9-5.6-6.9-5.6-11c0-4.2,2-8.1,5.6-11l2.8,2.3
			c-2.9,2.3-4.4,5.4-4.4,8.8c0,3.3,1.6,6.4,4.4,8.8c3.7,3,8.6,4.7,13.8,4.7c5.2,0,10.1-1.7,13.8-4.7c4.7-3.8,7.3-8.9,7.3-14.3
			c0-5.4-2.6-10.5-7.3-14.3C783,14,763,14,750.7,24c-8.2,6.7-12.7,16.3-12.2,25.6c0.5,8.2,4.8,15.4,12.1,20.3
			c6.9,4.6,20.1,8.7,32.9,6.6c11.1-1.8,19.9-7.6,26.3-17.3c1.2-1.8,2.4-3.6,3.5-5.4c15.3-23.6,26.4-40.6,57.4-40.9
			c13.3-0.1,24.7,4,32.1,11.6c5.7,5.9,8.5,13.4,6.9,18.9l-3.8-0.8c1.1-3.6-0.4-10.2-6.1-16.1c-6.6-6.8-16.9-10.5-29-10.4
			C842,16.5,832,32,816.7,55.4c-1.1,1.7-2.3,3.5-3.5,5.4c-6.9,10.4-16.9,17-29,18.9c-14.2,2.3-28.4-2-36.2-7.3
			c-8.2-5.5-13-13.6-13.5-22.7C734.5,49.2,734.5,48.6,734.5,48.1z"/>
	</g>
	<g>
		<path class="st0" d="M862.3,150.4c0-2.1,0.2-4.3,0.8-6.5c2.4-9.9,10.4-18,23.2-23.6c2.2-1,4.4-1.9,6.6-2.8
			c28.8-12.4,47.8-20.6,48.1-44c0-0.1,0-0.3,0-0.5c0-9.6-4.5-17.8-12.7-23.2c-7.2-4.7-15.3-5.9-19.7-5l-0.9-3.1
			c6.6-1.3,15.9,1,23.1,5.6c9.3,6,14.3,15.4,14.2,26.2c-0.4,25.3-21.3,34.3-50.2,46.8c-2.1,0.9-4.3,1.9-6.6,2.8
			c-11.9,5.2-19,12.4-21.2,21.4c-2.5,10.5,2.5,21.2,8.1,26.9c6.1,6,14.9,9.5,25,9.8c11.5,0.4,23.2-3.3,31.4-9.9
			c6-4.9,9.2-11.3,9.2-18.2s-3.3-13.3-9.2-18.2c-9.7-7.9-25.4-7.9-35.1,0c-3.7,3-5.7,7-5.7,11.2c0,4.2,2,8.2,5.7,11.2
			c2.9,2.3,6.7,3.6,10.7,3.6c4.1,0,7.9-1.3,10.7-3.6l2.8,2.3c-3.6,2.9-8.4,4.6-13.5,4.6s-9.9-1.6-13.5-4.6
			c-4.4-3.6-6.9-8.4-6.9-13.5c0-5.1,2.4-9.9,6.9-13.5c5.4-4.4,12.7-6.9,20.4-6.9c7.7,0,14.9,2.4,20.4,6.9
			c6.7,5.5,10.4,12.7,10.4,20.5c0,7.7-3.7,15-10.4,20.5c-9,7.3-21.8,11.4-34.4,10.9c-11.2-0.4-21-4.3-27.8-11
			C866.8,168.3,862.3,159.7,862.3,150.4z"/>
	</g>
	<g>
		<path class="st0" d="M672.5,43.2l2.6-1.3c0.4-0.2,10.5-5.3,14.1-6.8c15.6-6.4,27-3.8,32.1,0.3c5.3,4.4,5.3,11.4,0,15.8
			c-4.9,4-17.8,5.5-32,0.3l0,0c-5.6-2-14-6.7-14.3-6.9L672.5,43.2z M721.3,43.3c0-2-1-4.1-2.9-5.6c-4.5-3.7-14.7-5-27.5,0.3
			c-2.4,1-7.9,3.7-11.2,5.4c2.9,1.5,7.7,4,11.1,5.2l0,0c12.2,4.4,23.6,3.6,27.6,0.3C720.4,47.3,721.3,45.3,721.3,43.3z"/>
	</g>
	<g>
		<path class="st0" d="M856.4,472.2c0-7.9,7.9-14.4,17.7-14.4c9.4,0,23,6.3,30.1,24.1c1.7,4.2,5.3,16.8,5.4,17.3l0.7,2.4l-3-0.4
			c-0.6-0.1-13.9-2.1-21.5-4.5l0,0C866.7,490.7,856.4,479.6,856.4,472.2z M905.1,497.5c-1.2-4-3.4-11.6-4.7-14.6
			c-6.1-15.1-17.6-21.9-26.4-21.9c-7.6,0-13.7,5-13.7,11.2c0,6.4,10.1,16.2,27,21.5C892.5,495.3,900.7,496.8,905.1,497.5z"/>
	</g>
	<g>
		<path class="st0" d="M916.9,507.2l3,0.4c0.4,0.1,10.4,1.6,16.1,3.4l0,0c14.5,4.6,22.3,13,22.3,18.7c0,6.2-6.1,11.2-13.7,11.2
			c-7.2,0-17.5-4.8-23-18.3c-1.3-3.2-4-12.6-4.1-13L916.9,507.2z M954.4,529.7c0-4.6-7.4-11.8-19.8-15.7l0,0
			c-3.5-1.1-9-2.1-12.4-2.7c0.9,3.1,2.4,8.2,3.3,10.3c4.5,11.1,12.9,16.1,19.2,16.1C950,537.7,954.4,534.1,954.4,529.7z"/>
	</g>
	<g>
		<path class="st0" d="M889.1,336.8c0-4.1,1.3-9,4.8-14.5c1.9-3,8.1-11.2,8.4-11.5l1.6-2.1l1.7,2c0.2,0.3,6,7.1,8.5,11.7l0,0
			c6.3,11.6,4.5,22.1-0.4,26.1c-2.6,2.1-6,3.3-9.7,3.3c-3.7,0-7.1-1.2-9.7-3.3C891.4,346.1,889.1,342.1,889.1,336.8z M904,314.6
			c-2,2.7-5.4,7.2-6.6,9.1c-6.5,10.4-4.8,18.8-0.4,22.4c1.8,1.5,4.3,2.3,6.9,2.3c2.6,0,5.1-0.8,6.9-2.3c4-3.3,5-12.6-0.4-22.5l0,0
			C908.9,320.9,905.9,317,904,314.6z"/>
	</g>
	<g>
		<path class="st0" d="M734.5,494.5c0-0.5,0-1.1,0-1.6c0.5-9.1,5.3-17.2,13.5-22.7c7.8-5.3,22.1-9.6,36.2-7.3
			c12.1,1.9,22.1,8.5,29,18.9c1.2,1.8,2.4,3.6,3.5,5.4c15.2,23.5,25.3,39,54,39.2c12,0.1,22.3-3.6,29-10.4
			c5.8-5.9,7.2-12.5,6.1-16.1l3.8-0.8c1.6,5.4-1.2,13-6.9,18.9c-7.4,7.6-18.8,11.7-32.1,11.6c-31-0.3-42.1-17.3-57.4-40.9
			c-1.1-1.7-2.3-3.5-3.5-5.4c-6.4-9.7-15.2-15.5-26.3-17.3c-12.8-2.1-26.1,2-32.9,6.6c-7.3,4.9-11.6,12.2-12.1,20.3
			c-0.5,9.4,4,18.9,12.2,25.6c6,4.9,13.9,7.5,22.3,7.5c8.4,0,16.3-2.7,22.3-7.5c4.7-3.8,7.3-8.9,7.3-14.3s-2.6-10.5-7.3-14.3
			c-7.6-6.2-20-6.2-27.5,0c-2.9,2.3-4.4,5.4-4.4,8.8c0,3.3,1.6,6.4,4.4,8.8l-2.8,2.3c-3.6-2.9-5.6-6.9-5.6-11c0-4.2,2-8.1,5.6-11
			c4.4-3.6,10.3-5.6,16.6-5.6c6.3,0,12.1,2,16.6,5.6c5.4,4.4,8.4,10.3,8.4,16.6s-3,12.2-8.4,16.6c-6.7,5.5-15.6,8.5-25.1,8.5
			c-9.5,0-18.4-3-25.1-8.5C739.4,514,734.5,504.2,734.5,494.5z"/>
	</g>
	<g>
		<path class="st0" d="M862.3,392.2c0-9.2,4.5-17.9,9.7-23.1c6.8-6.7,16.6-10.6,27.8-11c12.6-0.5,25.4,3.6,34.4,10.9
			c6.7,5.5,10.4,12.7,10.4,20.5c0,7.7-3.7,15-10.4,20.5c-5.4,4.4-12.7,6.9-20.4,6.9c-7.7,0-14.9-2.4-20.4-6.9
			c-4.4-3.6-6.9-8.4-6.9-13.5c0-5.1,2.4-9.9,6.9-13.5c3.6-2.9,8.4-4.6,13.5-4.6s9.9,1.6,13.5,4.6l-2.8,2.3
			c-2.9-2.3-6.7-3.6-10.7-3.6c-4.1,0-7.9,1.3-10.7,3.6c-3.7,3-5.7,7-5.7,11.2c0,4.2,2,8.2,5.7,11.2c4.7,3.8,10.9,5.9,17.6,5.9
			c6.6,0,12.9-2.1,17.6-5.9c6-4.9,9.2-11.3,9.2-18.2c0-6.9-3.3-13.3-9.2-18.2c-8.2-6.7-19.9-10.4-31.4-9.9c-10,0.4-18.9,3.9-25,9.8
			c-5.7,5.6-10.7,16.4-8.1,26.9c2.2,9,9.3,16.2,21.2,21.4c2.2,1,4.4,1.9,6.6,2.8c28.9,12.5,49.9,21.5,50.2,46.8
			c0.2,10.9-4.9,20.1-14.2,26.2c-7.2,4.7-16.5,6.9-23.1,5.6l0.9-3.1c4.4,0.9,12.5-0.3,19.7-5c8.2-5.3,12.7-13.5,12.7-23.2
			c0-0.2,0-0.3,0-0.5c-0.3-23.4-19.3-31.6-48.1-44c-2.1-0.9-4.3-1.9-6.6-2.9c-12.8-5.6-20.9-13.8-23.2-23.6
			C862.5,396.5,862.3,394.3,862.3,392.2z"/>
	</g>
	<g>
		<rect x="902" y="231" class="st0" width="3.9" height="80.6"/>
	</g>
	<g>
		<path class="st0" d="M672.5,499.4l2.5-1.4c0.4-0.2,8.7-4.9,14.3-6.9l0,0c14.2-5.1,27.1-3.7,32,0.3c2.6,2.1,4,4.9,4,7.9
			c0,3-1.4,5.8-4,7.9c-5.1,4.1-16.5,6.7-32.1,0.3c-3.7-1.5-13.7-6.6-14.1-6.8L672.5,499.4z M721.3,499.3c0-2.1-1-4.1-2.9-5.6
			c-4-3.3-15.5-4.1-27.6,0.3l0,0c-3.5,1.2-8.2,3.7-11.1,5.2c3.3,1.6,8.8,4.4,11.2,5.4c12.8,5.3,23,4,27.5,0.3
			C720.3,503.5,721.3,501.5,721.3,499.3z"/>
	</g>
	<g>
		<path class="st0" d="M49.3,501.6l0.7-2.4c0.2-0.5,3.7-13.1,5.4-17.3c7.2-17.8,20.7-24.1,30.1-24.1c9.7,0,17.7,6.5,17.7,14.4
			c0,7.4-10.3,18.5-29.5,24.5l0,0c-7.6,2.4-20.9,4.4-21.5,4.5L49.3,501.6z M99.3,472.2c0-6.2-6.2-11.2-13.7-11.2
			c-8.7,0-20.3,6.8-26.4,21.9c-1.2,3-3.5,10.7-4.7,14.6c4.4-0.7,12.6-2.2,17.8-3.8l0,0C89.2,488.4,99.3,478.6,99.3,472.2z"/>
	</g>
	<g>
		<path class="st0" d="M1.2,529.7c0-5.7,7.8-14.1,22.3-18.7c5.7-1.8,15.7-3.3,16.1-3.4l3-0.4l-0.7,2.4c-0.1,0.4-2.8,9.8-4.1,13
			c-5.4,13.5-15.8,18.3-23,18.3C7.4,540.9,1.2,535.9,1.2,529.7z M37.4,511.3c-3.4,0.6-8.9,1.6-12.4,2.7l0,0
			c-12.4,3.9-19.8,11-19.8,15.7c0,4.4,4.4,7.9,9.7,7.9c6.3,0,14.7-5,19.2-16.1C35,519.5,36.5,514.4,37.4,511.3z"/>
	</g>
	<g>
		<path class="st0" d="M41.5,336.9c0-4.3,1.2-9.3,4-14.5l0,0c2.5-4.6,8.2-11.4,8.5-11.7l1.7-2l1.6,2.1c0.3,0.3,6.5,8.5,8.4,11.5
			c7.9,12.7,4.7,22-0.4,26.2c-2.6,2.1-6,3.3-9.7,3.3c-3.7,0-7.1-1.2-9.7-3.3C43.3,346.3,41.5,342.1,41.5,336.9z M49.2,323.7
			c-5.4,9.9-4.4,19.2-0.4,22.5c1.8,1.5,4.3,2.3,6.9,2.3c2.6,0,5.1-0.8,6.9-2.3c4.5-3.7,6.1-12-0.4-22.4c-1.2-2-4.6-6.5-6.6-9.1
			C53.7,317,50.7,320.9,49.2,323.7L49.2,323.7z"/>
	</g>
	<g>
		<path class="st0" d="M49.5,502.5c0-1.2,0.1-2.3,0.5-3.3l3.8,0.8c-1.1,3.6,0.4,10.2,6.1,16.1c6.6,6.8,16.9,10.5,29,10.4
			c28.7-0.3,38.7-15.8,54-39.2c1.1-1.7,2.3-3.5,3.5-5.4c6.9-10.4,16.9-17,29-18.9c14.2-2.3,28.4,2,36.2,7.3
			c8.2,5.5,13,13.6,13.5,22.7c0.6,10.2-4.4,20.7-13.4,28c-6.7,5.5-15.6,8.5-25.1,8.5c-9.5,0-18.4-3-25.1-8.5
			c-5.4-4.4-8.4-10.3-8.4-16.6s3-12.2,8.4-16.6c4.4-3.6,10.3-5.6,16.6-5.6c6.3,0,12.1,2,16.6,5.6c3.6,2.9,5.6,6.9,5.6,11
			c0,4.2-2,8.1-5.6,11l-2.8-2.3c2.9-2.3,4.4-5.4,4.4-8.8c0-3.3-1.6-6.4-4.4-8.8c-3.7-3-8.6-4.7-13.8-4.7c-5.2,0-10.1,1.7-13.8,4.7
			c-9.7,7.9-9.7,20.7,0,28.6c6,4.9,13.9,7.5,22.3,7.5c8.4,0,16.3-2.7,22.3-7.5c8.2-6.7,12.7-16.2,12.2-25.6
			c-0.5-8.2-4.8-15.4-12.1-20.3c-6.9-4.6-20.1-8.7-32.9-6.6c-11.1,1.8-19.9,7.6-26.3,17.3c-1.2,1.8-2.4,3.6-3.5,5.4
			c-15.3,23.6-26.4,40.6-57.4,40.9c-13.3,0.1-24.7-4-32.1-11.6C52.2,513.3,49.5,507.4,49.5,502.5z"/>
	</g>
	<g>
		<path class="st0" d="M14.6,469.6c0-0.2,0-0.3,0-0.5c0.4-25.3,21.3-34.3,50.2-46.8c2.1-0.9,4.3-1.9,6.6-2.8
			c11.9-5.2,19-12.4,21.2-21.4c2.5-10.5-2.5-21.2-8.1-26.9c-6.1-6-14.9-9.5-25-9.8c-11.5-0.4-23.2,3.3-31.4,9.9
			c-12.3,10-12.3,26.3,0,36.4c4.7,3.8,10.9,5.9,17.6,5.9c6.6,0,12.9-2.1,17.6-5.9c3.7-3,5.7-7,5.7-11.2c0-4.2-2-8.2-5.7-11.2
			c-2.9-2.3-6.7-3.6-10.7-3.6s-7.9,1.3-10.7,3.6l-2.8-2.3c3.6-2.9,8.4-4.6,13.5-4.6s9.9,1.6,13.5,4.6c4.4,3.6,6.9,8.4,6.9,13.5
			c0,5.1-2.4,9.9-6.9,13.5c-5.4,4.4-12.7,6.9-20.4,6.9s-14.9-2.4-20.4-6.9c-13.8-11.3-13.8-29.6,0-40.9c9-7.3,21.8-11.4,34.4-10.9
			c11.2,0.4,21,4.3,27.8,11c6.5,6.4,11.8,18,9,29.5c-2.4,9.9-10.4,18-23.2,23.6c-2.2,1-4.4,1.9-6.6,2.9
			c-28.8,12.4-47.8,20.6-48.1,44c0,0.1,0,0.3,0,0.5c0,9.6,4.5,17.8,12.7,23.2c7.2,4.7,15.3,5.9,19.7,5l0.9,3.1
			c-6.6,1.3-15.9-0.9-23.1-5.6C19.7,489.3,14.6,480.2,14.6,469.6z"/>
	</g>
	<g>
		<path class="st0" d="M234.3,499.3c0-3,1.4-5.8,4-7.9c4.9-4,17.8-5.5,32-0.3c5.6,2,14,6.7,14.3,6.9l2.5,1.4l-2.6,1.3
			c-0.4,0.2-10.5,5.3-14.1,6.8c-15.6,6.4-27,3.8-32.1-0.3C235.7,505.1,234.3,502.3,234.3,499.3z M279.9,499.3
			c-2.9-1.5-7.7-4-11.1-5.2h0c-12.2-4.4-23.6-3.6-27.6-0.3c-1.8,1.5-2.9,3.5-2.9,5.6c0,2.1,1,4.1,2.9,5.6c4.5,3.7,14.7,5,27.5-0.3
			C271,503.7,276.6,500.9,279.9,499.3z"/>
	</g>
	<g>
		<rect x="283.5" y="497.7" class="st0" width="392.5" height="3.2"/>
	</g>
	<g>
		<path class="st0" d="M49.3,41l3,0.4c0.6,0.1,13.9,2.1,21.5,4.5h0c19.2,6,29.5,17.1,29.5,24.5c0,7.9-7.9,14.4-17.7,14.4
			c-9.4,0-23-6.3-30.1-24.1c-1.7-4.2-5.3-16.8-5.4-17.3L49.3,41z M99.3,70.4c0-6.4-10.1-16.2-27-21.5h0c-5.2-1.6-13.4-3.1-17.8-3.8
			c1.2,4,3.4,11.6,4.7,14.6c6.1,15.1,17.6,21.9,26.4,21.9C93.1,81.6,99.3,76.6,99.3,70.4z"/>
	</g>
	<g>
		<path class="st0" d="M1.2,12.9c0-6.2,6.1-11.2,13.7-11.2c7.2,0,17.5,4.8,23,18.3c1.3,3.2,4,12.6,4.1,13l0.7,2.4l-3-0.4
			c-0.4-0.1-10.4-1.6-16.1-3.4l0,0C9.1,27,1.2,18.6,1.2,12.9z M37.4,31.3c-0.9-3.1-2.4-8.2-3.3-10.3C29.7,9.9,21.3,5,14.9,5
			c-5.4,0-9.7,3.6-9.7,7.9c0,4.6,7.4,11.8,19.8,15.7l0,0C28.5,29.7,34,30.7,37.4,31.3z"/>
	</g>
	<g>
		<path class="st0" d="M41.5,205.7c0-5.2,1.8-9.4,4.4-11.6c5.3-4.4,14-4.4,19.4,0c5.1,4.1,8.2,13.5,0.4,26.2
			c-1.9,3-8.1,11.2-8.4,11.5l-1.6,2.1l-1.7-2c-0.2-0.3-6-7.1-8.5-11.7C42.7,215,41.5,210,41.5,205.7z M66.5,205.8
			c0-4.2-1.6-7.4-3.9-9.3c-3.8-3.1-10-3.1-13.8,0c-4,3.3-5,12.6,0.4,22.5l0,0c1.5,2.8,4.5,6.7,6.4,9.1c2-2.7,5.4-7.2,6.6-9.1
			C65.2,214,66.5,209.5,66.5,205.8z"/>
	</g>
	<g>
		<path class="st0" d="M49.5,40.1c0-4.9,2.7-10.8,7.3-15.6C64.3,17,75.7,12.8,88.9,13c31,0.3,42.1,17.3,57.4,40.9
			c1.1,1.7,2.3,3.5,3.5,5.4c6.4,9.7,15.2,15.5,26.3,17.3c12.8,2.1,26.1-2,32.9-6.6c7.3-4.9,11.6-12.2,12.1-20.3
			c0.5-9.3-4-18.9-12.2-25.6c-12.3-10-32.3-10-44.6,0c-9.7,7.9-9.7,20.7,0,28.6c3.7,3,8.6,4.7,13.8,4.7c5.2,0,10.1-1.7,13.8-4.7
			c2.9-2.3,4.4-5.4,4.4-8.8c0-3.3-1.6-6.4-4.4-8.8l2.8-2.3c3.6,2.9,5.6,6.9,5.6,11c0,4.2-2,8.1-5.6,11c-4.4,3.6-10.3,5.6-16.6,5.6
			c-6.3,0-12.1-2-16.6-5.6c-11.2-9.2-11.2-24,0-33.2c13.8-11.3,36.4-11.3,50.2,0c9,7.3,13.9,17.8,13.4,28
			c-0.5,9.1-5.3,17.2-13.5,22.7c-7.8,5.3-22.1,9.6-36.2,7.3c-12.1-1.9-22.1-8.5-29-18.9c-1.2-1.8-2.4-3.6-3.5-5.4
			c-15.2-23.5-25.3-39-54-39.2c-12-0.1-22.3,3.6-29,10.4c-5.8,5.9-7.2,12.5-6.1,16.1l-3.8,0.8C49.6,42.4,49.5,41.3,49.5,40.1z"/>
	</g>
	<g>
		<path class="st0" d="M14.6,73.1c0-10.6,5-19.7,14.2-25.7c7.2-4.7,16.5-6.9,23.1-5.6L51,44.9c-4.4-0.9-12.5,0.3-19.7,5
			C23,55.3,18.4,63.7,18.6,73.5c0.3,23.4,19.4,31.6,48.1,44c2.1,0.9,4.3,1.9,6.6,2.8c12.8,5.6,20.9,13.8,23.2,23.6
			c2.8,11.5-2.5,23.1-9,29.5c-6.8,6.7-16.6,10.6-27.8,11c-12.6,0.5-25.4-3.6-34.4-10.9c-13.8-11.3-13.8-29.6,0-40.9
			c11.2-9.1,29.5-9.1,40.7,0c4.4,3.6,6.9,8.4,6.9,13.5c0,5.1-2.4,9.9-6.9,13.5c-3.6,2.9-8.4,4.6-13.5,4.6s-9.9-1.6-13.5-4.6l2.8-2.3
			c2.9,2.3,6.7,3.6,10.7,3.6s7.9-1.3,10.7-3.6c3.7-3,5.7-7,5.7-11.2c0-4.2-2-8.2-5.7-11.2c-9.7-7.9-25.4-7.9-35.1,0
			c-12.3,10-12.3,26.3,0,36.4c8.2,6.7,19.9,10.4,31.4,9.9c10-0.4,18.9-3.9,25-9.8c5.7-5.6,10.7-16.4,8.1-26.9
			c-2.2-9-9.3-16.2-21.2-21.4c-2.2-1-4.4-1.9-6.6-2.8C35.9,107.9,15,98.8,14.6,73.6C14.6,73.4,14.6,73.2,14.6,73.1z"/>
	</g>
	<g>
		<rect x="53.7" y="231" class="st0" width="3.9" height="80.6"/>
	</g>
	<g>
		<path class="st0" d="M234.3,43.3c0-2.9,1.3-5.7,4-7.9c5.1-4.1,16.5-6.7,32.1-0.3c3.7,1.5,13.7,6.6,14.1,6.8l2.6,1.3l-2.5,1.4
			c-0.4,0.2-8.7,4.9-14.3,6.9l0,0c-14.2,5.1-27.1,3.7-32-0.3C235.7,49,234.3,46.1,234.3,43.3z M279.9,43.3
			c-3.3-1.6-8.8-4.4-11.2-5.4c-12.8-5.3-23-4-27.5-0.3c-3.8,3.1-3.8,8.1,0,11.2c4,3.3,15.5,4.1,27.6-0.3
			C272.2,47.3,277,44.9,279.9,43.3z"/>
	</g>
	<g>
		<rect x="283.5" y="41.7" class="st0" width="392.5" height="3.2"/>
	</g>
</g>
</svg>
