<?xml version="1.0" encoding="utf-8"?>
<!-- Generator: Adobe Illustrator 23.0.3, SVG Export Plug-In . SVG Version: 6.00 Build 0)  -->
<svg version="1.1" id="Calque_1" xmlns="http://www.w3.org/2000/svg" xmlns:xlink="http://www.w3.org/1999/xlink" x="0px" y="0px"
	 viewBox="0 0 960 540" style="enable-background:new 0 0 960 540;" xml:space="preserve">
<style type="text/css">
	.st0{fill:#010101;}
</style>
<g>
	<g>
		<path class="st0" d="M916.4,56.9l11.4-9.2c6.3-5.1,16.5-5.1,22.8,0c3,2.5,4.7,5.7,4.7,9.2c0,3.5-1.7,6.7-4.7,9.2
			c-3,2.5-7.1,3.8-11.4,3.8c-4.3,0-8.3-1.4-11.4-3.8h0L916.4,56.9z M951.3,56.9c0-2.6-1.3-5.1-3.5-6.9c-4.7-3.8-12.4-3.8-17.1,0
			l-8.6,6.9l8.6,6.9c2.3,1.8,5.3,2.9,8.6,2.9c3.2,0,6.3-1,8.6-2.9C950,62,951.3,59.5,951.3,56.9z"/>
	</g>
	<g>
		<path class="st0" d="M875.6,18.6c0-3.3,1.6-6.7,4.7-9.2c6.3-5.1,16.5-5.1,22.8,0c6.3,5.1,6.3,13.3,0,18.4L891.7,37l-11.4-9.2
			C877.2,25.2,875.6,21.9,875.6,18.6z M903.8,18.6c0-2.6-1.3-5.1-3.5-6.9c-4.7-3.8-12.4-3.8-17.1,0c-2.3,1.8-3.5,4.3-3.5,6.9
			c0,2.6,1.3,5.1,3.5,6.9l8.6,6.9l8.6-6.9C902.5,23.6,903.8,21.2,903.8,18.6z"/>
	</g>
	<g>
		<path class="st0" d="M893,104c0-18.2,8.8-35.3,24.7-48.2l2.8,2.3C905.3,70.4,897,86.7,897,104s8.4,33.6,23.5,45.9l-2.8,2.3
			C901.8,139.3,893,122.2,893,104z"/>
	</g>
	<g>
		<path class="st0" d="M773.9,35.9l2.8-2.3c15.2,12.3,35.3,19,56.8,19s41.6-6.8,56.8-19l2.8,2.3c-15.9,12.9-37.1,20-59.6,20
			S789.8,48.8,773.9,35.9z"/>
	</g>
	<g>
		<path class="st0" d="M879.2,237.7c23.1-18.7,23.1-49,0-67.7l2.8-2.3c24.6,19.9,24.6,52.3,0,72.2L879.2,237.7z"/>
	</g>
	<g>
		<path class="st0" d="M899.4,50.4l1.4-3.2c0.6-1.4,15.3-34.3,22.9-40.5c8.2-6.6,21.5-6.6,29.7,0c8.2,6.6,8.2,17.4,0,24
			c-7.6,6.2-48.3,18-50,18.5L899.4,50.4z M955.5,18.7c0-3.5-1.7-7-5-9.7c-6.6-5.4-17.4-5.4-24,0c-5.2,4.2-15.5,25.1-20.5,36
			c13.5-4.1,39.3-12.4,44.6-16.6C953.9,25.7,955.5,22.2,955.5,18.7z"/>
	</g>
	<g>
		<polygon class="st0" points="890.3,35.8 893.1,33.5 920.6,55.8 917.8,58.1 		"/>
	</g>
	<g>
		<path class="st0" d="M663.7,65.3c24.6-19.9,64.7-19.9,89.3,0l-2.8,2.3c-23.1-18.7-60.6-18.7-83.7,0L663.7,65.3z"/>
	</g>
	<g>
		<path class="st0" d="M916.4,484.4l11.4-9.2c6.3-5.1,16.5-5.1,22.8,0c3,2.5,4.7,5.7,4.7,9.2c0,3.5-1.7,6.7-4.7,9.2
			c-6.3,5.1-16.5,5.1-22.7,0L916.4,484.4z M951.3,484.4c0-2.6-1.3-5.1-3.5-6.9c-4.7-3.8-12.4-3.8-17.1,0l-8.6,6.9l8.6,6.9
			c4.7,3.8,12.4,3.8,17.1,0C950,489.5,951.3,487,951.3,484.4z"/>
	</g>
	<g>
		<path class="st0" d="M875.6,522.8c0-3.3,1.6-6.7,4.7-9.2l11.4-9.2l11.4,9.2c6.3,5.1,6.3,13.3,0,18.4c-6.3,5.1-16.5,5.1-22.8,0
			C877.2,529.4,875.6,526.1,875.6,522.8z M891.7,508.9l-8.6,6.9c-2.3,1.8-3.5,4.3-3.5,6.9c0,2.6,1.3,5.1,3.5,6.9
			c4.7,3.8,12.4,3.8,17.1,0c2.3-1.8,3.5-4.3,3.5-6.9c0-2.6-1.3-5.1-3.5-6.9L891.7,508.9z"/>
	</g>
	<g>
		<path class="st0" d="M893,437.3c0-18.2,8.8-35.3,24.7-48.2l2.8,2.3C905.3,403.7,897,420,897,437.3s8.4,33.6,23.5,45.9l-2.8,2.3
			C901.8,472.6,893,455.5,893,437.3z"/>
	</g>
	<g>
		<path class="st0" d="M773.9,505.4c15.9-12.9,37.1-20,59.6-20s43.7,7.1,59.6,20l-2.8,2.3c-15.2-12.3-35.3-19-56.8-19
			s-41.6,6.8-56.8,19L773.9,505.4z"/>
	</g>
	<g>
		<path class="st0" d="M872.5,436.1c0-19.8,8.7-38.3,24.7-52.6c30.4-26.9,30.3-67.4-0.1-92l-0.6-0.5v-40.8l0.6-0.5
			c30.5-24.6,30.5-65.1,0.1-92c-17.2-15.3-26-35.5-24.6-57c1.4-21.2,12.4-41.2,31-56.3l2.8,2.3c-37.2,30.1-40.1,78.9-6.3,108.8
			c15.3,13.6,23.8,30.8,23.9,48.6c0,0.1,0,0.3,0,0.4c0,17.7-8.4,34.3-23.6,46.9v38.2c15.4,12.7,23.8,29.5,23.6,47.4
			c-0.1,17.8-8.6,35.1-23.9,48.6c-33.7,29.9-30.9,78.7,6.3,108.8l-2.8,2.3c-18.7-15.1-29.7-35.1-31-56.3
			C872.6,439,872.5,437.6,872.5,436.1z"/>
	</g>
	<g>
		<path class="st0" d="M879.2,371.3c23.1-18.7,23.1-49,0-67.7l2.8-2.3c24.6,19.9,24.6,52.3,0,72.2L879.2,371.3z"/>
	</g>
	<g>
		<path class="st0" d="M899.4,490.9l4,1.2c1.7,0.5,42.4,12.4,50,18.5c8.2,6.6,8.2,17.4,0,24c-8.2,6.6-21.5,6.6-29.7,0
			c-7.6-6.2-22.3-39.1-22.9-40.5L899.4,490.9z M955.5,522.6c0-3.5-1.7-7-5-9.7c-5.2-4.2-31-12.5-44.6-16.6c5,10.9,15.3,31.8,20.5,36
			c6.6,5.4,17.4,5.4,24,0C953.9,529.7,955.5,526.1,955.5,522.6z"/>
	</g>
	<g>
		<polygon class="st0" points="890.3,505.5 917.8,483.2 920.6,485.5 893.1,507.8 		"/>
	</g>
	<g>
		<path class="st0" d="M663.7,476.1l2.8-2.3c23.1,18.7,60.6,18.7,83.7,0l2.8,2.3C728.4,496,688.3,496,663.7,476.1z"/>
	</g>
	<g>
		<path class="st0" d="M6.4,484.4c0-3.3,1.6-6.7,4.7-9.2c6.3-5.1,16.5-5.1,22.8,0h0l11.4,9.2l-11.4,9.2c-6.3,5.1-16.5,5.1-22.8,0
			C8,491,6.4,487.7,6.4,484.4z M31.1,477.5c-4.7-3.8-12.4-3.8-17.1,0c-4.7,3.8-4.7,10,0,13.8c4.7,3.8,12.4,3.8,17.1,0l8.6-6.9
			L31.1,477.5L31.1,477.5z"/>
	</g>
	<g>
		<path class="st0" d="M53.9,522.8c0-3.5,1.7-6.7,4.7-9.2h0l11.4-9.2l11.4,9.2c6.3,5.1,6.3,13.3,0,18.4c-6.3,5.1-16.5,5.1-22.8,0
			C55.6,529.5,53.9,526.2,53.9,522.8z M70,508.9l-8.6,6.9c-2.3,1.8-3.5,4.3-3.5,6.9c0,2.6,1.3,5.1,3.5,6.9c4.7,3.8,12.4,3.8,17.1,0
			c2.3-1.8,3.5-4.3,3.5-6.9c0-2.6-1.3-5.1-3.5-6.9L70,508.9z"/>
	</g>
	<g>
		<path class="st0" d="M41.2,483.2c15.2-12.3,23.5-28.6,23.5-45.9s-8.4-33.6-23.5-45.9l2.8-2.3c15.9,12.9,24.7,30,24.7,48.2
			s-8.8,35.3-24.7,48.2L41.2,483.2z"/>
	</g>
	<g>
		<path class="st0" d="M68.7,505.4c15.9-12.9,37.1-20,59.6-20c22.5,0,43.7,7.1,59.6,20l-2.8,2.3c-15.2-12.3-35.3-19-56.8-19
			c-21.4,0-41.6,6.8-56.8,19L68.7,505.4z"/>
	</g>
	<g>
		<path class="st0" d="M61.2,337.4c0-13.1,6.2-26.2,18.5-36.1l2.8,2.3c-23.1,18.7-23.1,49,0,67.7l-2.8,2.3
			C67.3,363.6,61.2,350.5,61.2,337.4z"/>
	</g>
	<g>
		<path class="st0" d="M2.2,522.6c0-4.3,2-8.7,6.1-12c7.6-6.2,48.3-18,50-18.5l4-1.2l-1.4,3.2c-0.6,1.4-15.3,34.3-22.9,40.5
			c-8.2,6.6-21.5,6.6-29.7,0C4.2,531.3,2.2,527,2.2,522.6z M55.7,496.3c-13.5,4.1-39.3,12.4-44.6,16.6c-6.6,5.4-6.6,14.1,0,19.4
			c6.6,5.4,17.4,5.4,24,0C40.4,528.1,50.6,507.3,55.7,496.3z"/>
	</g>
	<g>
		<polygon class="st0" points="41,485.5 43.9,483.2 71.4,505.5 68.6,507.8 		"/>
	</g>
	<g>
		<path class="st0" d="M208.7,476.1l2.8-2.3c23.1,18.7,60.6,18.7,83.7,0l2.8,2.3C273.4,496,233.3,496,208.7,476.1z"/>
	</g>
	<g>
		<path class="st0" d="M56.5,493.5c19.4-15.7,45.3-24.2,72.9-23.9c27,0.3,53.4,8.7,74.4,23.9c29.2,21,76.9,18.7,106.4-5.1l0.6-0.5
			H651l0.6,0.5c29.5,23.8,77.2,26.1,106.4,5.1c21-15.1,47.5-23.6,74.4-23.9c27.6-0.3,53.5,8.2,72.9,23.9l-2.8,2.3
			c-38-30.8-99-30.7-141.8,0.1c-15.1,10.9-35.2,16.3-56.4,15.1c-20.6-1.1-40.1-8.2-54.9-19.9h-337c-14.8,11.8-34.3,18.8-54.9,19.9
			c-21.2,1.1-41.2-4.2-56.4-15.1C158.3,465,97.3,465,59.3,495.7L56.5,493.5z"/>
	</g>
	<g>
		<path class="st0" d="M6.4,56.9c0-3.3,1.6-6.7,4.7-9.2c6.3-5.1,16.5-5.1,22.8,0l11.4,9.2l-11.4,9.2c-3,2.5-7.1,3.8-11.4,3.8
			s-8.3-1.4-11.4-3.8C8,63.6,6.4,60.3,6.4,56.9z M39.6,56.9L31.1,50c-4.7-3.8-12.4-3.8-17.1,0c-4.7,3.8-4.7,10,0,13.8
			c2.3,1.8,5.3,2.9,8.6,2.9s6.3-1,8.6-2.9L39.6,56.9z"/>
	</g>
	<g>
		<path class="st0" d="M53.9,18.6c0-3.5,1.7-6.7,4.7-9.2c6.3-5.1,16.5-5.1,22.7,0c6.3,5.1,6.3,13.3,0,18.4L70,37l-11.4-9.2
			C55.6,25.3,53.9,22,53.9,18.6z M82.1,18.6c0-2.6-1.3-5.1-3.5-6.9c-4.7-3.8-12.4-3.8-17.1,0c-2.3,1.8-3.5,4.3-3.5,6.9
			c0,2.6,1.3,5.1,3.5,6.9h0l8.6,6.9l8.6-6.9C80.8,23.6,82.1,21.2,82.1,18.6z"/>
	</g>
	<g>
		<path class="st0" d="M41.2,58.1l2.8-2.3c15.9,12.9,24.7,30,24.7,48.2s-8.8,35.3-24.7,48.2l-2.8-2.3c15.2-12.3,23.5-28.6,23.5-45.9
			S56.3,70.4,41.2,58.1z"/>
	</g>
	<g>
		<path class="st0" d="M68.7,35.9l2.8-2.3c15.2,12.3,35.3,19,56.8,19c21.4,0,41.6-6.8,56.8-19l2.8,2.3c-15.9,12.9-37.1,20-59.6,20
			C105.7,55.8,84.6,48.8,68.7,35.9z"/>
	</g>
	<g>
		<path class="st0" d="M37.5,336.6c0-17.7,8.4-34.3,23.6-46.9v-38.2c-15.3-12.6-23.6-29.2-23.6-46.9c0-0.2,0-0.3,0-0.4
			c0.1-17.8,8.6-35.1,23.9-48.6c33.7-29.9,30.9-78.7-6.3-108.8l2.8-2.3c18.7,15.1,29.7,35.1,31,56.3c1.4,21.5-7.4,41.7-24.6,57
			c-30.4,26.9-30.3,67.4,0.2,92l0.6,0.5v40.8l-0.6,0.5c-30.5,24.6-30.5,65.1-0.2,92c17.2,15.3,26,35.5,24.6,57
			c-1.4,21.2-12.4,41.2-31,56.3l-2.8-2.3c37.2-30.1,40.1-78.9,6.3-108.8c-15.3-13.6-23.8-30.8-23.9-48.6
			C37.5,336.9,37.5,336.8,37.5,336.6z"/>
	</g>
	<g>
		<path class="st0" d="M61.2,203.9c0-13.1,6.2-26.2,18.5-36.1l2.8,2.3c-23.1,18.7-23.1,49,0,67.7l-2.8,2.3
			C67.3,230,61.2,217,61.2,203.9z"/>
	</g>
	<g>
		<path class="st0" d="M2.2,18.7c0-4.3,2-8.7,6.1-12c8.2-6.6,21.5-6.6,29.7,0c7.6,6.2,22.3,39.1,22.9,40.5l1.4,3.2l-4-1.2
			c-1.7-0.5-42.4-12.4-50-18.5C4.2,27.4,2.2,23,2.2,18.7z M55.7,45c-5-10.9-15.3-31.8-20.5-36c-6.6-5.4-17.4-5.4-24,0
			c-6.6,5.4-6.6,14.1,0,19.4C16.4,32.6,42.1,40.9,55.7,45z"/>
	</g>
	<g>
		<polygon class="st0" points="41,55.8 68.6,33.5 71.4,35.8 43.9,58.1 		"/>
	</g>
	<g>
		<path class="st0" d="M208.7,65.3c24.6-19.9,64.7-19.9,89.3,0l-2.8,2.3c-23.1-18.7-60.6-18.7-83.7,0L208.7,65.3z"/>
	</g>
	<g>
		<path class="st0" d="M56.5,47.9l2.8-2.3c38,30.8,99,30.7,141.8-0.1c15.1-10.9,35.2-16.3,56.4-15.1c20.6,1.1,40.1,8.2,54.9,19.9
			h337c14.8-11.8,34.3-18.8,54.9-19.9c21.2-1.1,41.2,4.2,56.4,15.1c42.8,30.8,103.8,30.8,141.8,0.1l2.8,2.3
			C885.8,63.5,860,72,832.4,71.8c-27-0.3-53.4-8.7-74.4-23.9c-29.2-21-76.9-18.7-106.4,5.1l-0.6,0.5H310.7l-0.6-0.5
			c-29.5-23.8-77.2-26.1-106.4-5.1c-21,15.1-47.5,23.6-74.4,23.9C101.7,72,75.8,63.5,56.5,47.9z"/>
	</g>
</g>
</svg>
