<?xml version="1.0" encoding="utf-8"?>
<!-- Generator: Adobe Illustrator 23.0.3, SVG Export Plug-In . SVG Version: 6.00 Build 0)  -->
<svg version="1.1" id="Calque_1" xmlns="http://www.w3.org/2000/svg" xmlns:xlink="http://www.w3.org/1999/xlink" x="0px" y="0px"
	 viewBox="0 0 960 540" style="enable-background:new 0 0 960 540;" xml:space="preserve">
<style type="text/css">
	.st0{fill:#E5AF5A;}
</style>
<g>
	<g>
		<path class="st0" d="M863.3,17.9c0-4.9,2.2-8.6,5-10.8c2.5-2,5.9-3,9.5-3s7,1.1,9.5,3c4.8,3.7,6.6,13.4,0.4,24.1
			c-2.4,4.2-8,10.5-8.2,10.7l-1.8,2l-1.7-2.1c-0.3-0.3-6.3-7.9-8.1-10.6C864.6,26.2,863.3,21.7,863.3,17.9z M887.6,17.7
			c0-3.8-1.2-6.8-3.2-8.3c-1.8-1.4-4.1-2.1-6.6-2.1S873,8,871.3,9.4c-4.3,3.3-5.9,11,0.4,20.5c1.2,1.8,4.3,5.8,6.3,8.2
			c1.8-2.2,4.6-5.6,6.1-8.2l0,0C886.6,25.5,887.6,21.3,887.6,17.7z"/>
	</g>
	<g>
		<path class="st0" d="M905.4,65.8l2.7-1.3c0.4-0.2,10.2-4.9,13.8-6.3c15.2-5.9,26.4-3.5,31.4,0.3c2.5,2,3.9,4.6,3.9,7.3
			c0,2.8-1.4,5.4-3.9,7.3c-4.8,3.7-17.4,5.1-31.3,0.3l0,0c-5.5-1.9-13.6-6.2-13.9-6.4L905.4,65.8z M953,65.9c0-1.9-1-3.7-2.7-5.1
			c-4.3-3.3-14.2-4.5-26.6,0.3c-2.3,0.9-7.5,3.3-10.7,4.8c2.8,1.4,7.3,3.6,10.6,4.7l0,0c11.8,4,22.8,3.3,26.7,0.3
			C952.1,69.6,953,67.8,953,65.9z"/>
	</g>
	<g>
		<path class="st0" d="M865.1,76.1l0.7-2.4c0.2-0.7,4.7-16.5,21.9-29.7s38.9-17.7,39.8-17.9l3.4-0.7L930,28
			c-0.2,0.7-6,17.4-23.2,30.7s-37.7,16.7-38.6,16.9L865.1,76.1z M924.8,30.1c-6.9,1.8-21.9,6.7-34.2,16.1
			c-12.3,9.5-17.8,20.6-19.8,25.5c6.4-1.5,20.8-5.8,33.1-15.3C916.2,47,922.4,35.3,924.8,30.1z"/>
	</g>
	<g>
		<path class="st0" d="M861.5,73.4l3.4-0.6c0.8-0.1,19.9-3.6,40.2,1.2c20.3,4.8,33.6,15.8,34.2,16.3l2.4,2l-3.4,0.6
			c-0.8,0.1-19.9,3.6-40.2-1.2c-20.3-4.8-33.6-15.8-34.2-16.3L861.5,73.4z M933.4,90.3c-4.8-3.4-15.6-10-29.5-13.3
			c-14-3.3-27.7-2.4-34.1-1.7c4.8,3.4,15.6,10,29.5,13.3C913.3,92,927,91.1,933.4,90.3z"/>
	</g>
	<g>
		<path class="st0" d="M841,32.2c0-7.6,1.6-12.9,1.7-13.3l0.8-2.6l2.6,1.8c0.6,0.4,15,10.7,21.1,26.4c6.2,15.7,0.3,29.8,0,30.4
			l-1,2.4l-2.4-1.7c-0.5-0.4-13.5-10-19.7-25.7C841.8,43.5,841,37.3,841,32.2z M846.1,22.6c-1,5-2.1,15.5,2.1,26.3
			c4.3,10.8,12.1,18.7,16.1,22.2c1.4-4.7,3.3-15-1-25.8C859.1,34.6,850.5,26.3,846.1,22.6z"/>
	</g>
	<g>
		<path class="st0" d="M590,29.2V26h219.2l-0.7,2c-2.1,6.2-3.2,12.7-3.2,19.1c0,40.9,43.2,74.2,96.3,74.2c8.8,0,17.5-0.9,25.9-2.7
			l2.6-0.6v106.2H926v-102c-7.9,1.5-16.1,2.3-24.4,2.3c-55.4,0-100.4-34.7-100.4-77.4c0-6,0.9-12.1,2.7-17.9
			C803.9,29.2,590,29.2,590,29.2z"/>
	</g>
	<g>
		<path class="st0" d="M667.3,13.4v-3.2h121l-1.1,2.2c-5.7,11.1-8.6,22.8-8.6,34.8c0,52.3,55.2,94.8,123,94.8c16,0,31.5-2.3,46.2-7
			l2.9-0.9V196h-4.1v-57.1c-14.3,4.2-29.4,6.3-44.9,6.3c-70.1,0-127.1-44-127.1-98c0-11.6,2.6-23,7.8-33.8
			C782.4,13.4,667.3,13.4,667.3,13.4z"/>
	</g>
	<g>
		<path class="st0" d="M863.3,526.4c0-3.8,1.3-8.3,4.6-13.4c1.8-2.7,7.9-10.3,8.1-10.6l1.7-2.1l1.8,2c0.2,0.3,5.8,6.5,8.2,10.7l0,0
			c6.2,10.7,4.4,20.4-0.4,24.1c-2.5,2-5.9,3-9.5,3s-7-1.1-9.5-3C865.5,535,863.3,531.3,863.3,526.4z M877.9,506.2
			c-2,2.5-5.1,6.5-6.3,8.2c-6.3,9.5-4.7,17.2-0.4,20.5c1.8,1.4,4.1,2.1,6.6,2.1s4.8-0.7,6.6-2.1c3.9-3,4.8-11.5-0.4-20.6l0,0
			C882.6,511.9,879.8,508.4,877.9,506.2z"/>
	</g>
	<g>
		<path class="st0" d="M905.4,478.5l2.6-1.4c0.3-0.2,8.5-4.5,13.9-6.4l0,0c13.9-4.7,26.5-3.4,31.3,0.3c2.5,2,3.9,4.6,3.9,7.3
			c0,2.8-1.4,5.4-3.9,7.3c-5,3.8-16.2,6.2-31.4,0.3c-3.6-1.4-13.3-6.1-13.8-6.3L905.4,478.5z M923.6,473.7
			c-3.3,1.1-7.8,3.3-10.6,4.7c3.2,1.5,8.4,4,10.7,4.8c12.4,4.8,22.3,3.6,26.6,0.3c1.8-1.4,2.7-3.2,2.7-5.1s-1-3.7-2.7-5.1
			C946.4,470.4,935.4,469.7,923.6,473.7L923.6,473.7z"/>
	</g>
	<g>
		<path class="st0" d="M865.1,468.3l3.1,0.5c0.9,0.1,21.3,3.6,38.6,16.9c17.2,13.2,22.9,30,23.2,30.7l0.9,2.6l-3.4-0.7
			c-0.9-0.2-22.6-4.6-39.8-17.9c-17.2-13.3-21.7-29.1-21.9-29.7L865.1,468.3z M924.8,514.3c-2.4-5.3-8.7-16.9-20.9-26.4
			c-12.3-9.5-26.7-13.7-33.1-15.3c2,5,7.5,16,19.8,25.5C902.9,507.6,918,512.5,924.8,514.3z"/>
	</g>
	<g>
		<path class="st0" d="M861.5,470.9l2.4-2c0.6-0.5,13.9-11.5,34.2-16.3s39.4-1.3,40.2-1.2l3.4,0.6l-2.4,2
			c-0.6,0.5-13.9,11.5-34.2,16.3s-39.4,1.3-40.2,1.2L861.5,470.9z M933.4,454c-6.5-0.7-20.2-1.6-34.1,1.7
			c-14,3.3-24.7,9.9-29.5,13.3c6.5,0.7,20.2,1.6,34.1-1.7C917.9,464,928.6,457.4,933.4,454z"/>
	</g>
	<g>
		<path class="st0" d="M841,512.2c0-5.2,0.8-11.3,3.3-17.7c6.2-15.6,19.1-25.3,19.7-25.7l2.4-1.7l1,2.4c0.3,0.6,6.2,14.7,0,30.4
			c-6.2,15.6-20.5,25.9-21.1,26.4l-2.6,1.8l-0.8-2.6C842.7,525.1,841,519.8,841,512.2z M864.3,473.2c-4,3.5-11.8,11.5-16.1,22.2
			c-4.3,10.8-3.1,21.3-2.1,26.3c4.4-3.7,13-12,17.2-22.8C867.6,488.2,865.7,477.9,864.3,473.2z"/>
	</g>
	<g>
		<path class="st0" d="M590,518.3v-3.2h213.9c-1.8-5.9-2.7-11.9-2.7-17.9c0-42.7,45-77.4,100.4-77.4c8.3,0,16.5,0.8,24.4,2.3v-102
			h4.1v106.2l-2.6-0.6c-8.3-1.8-17-2.7-25.9-2.7c-53.1,0-96.3,33.3-96.3,74.2c0,6.5,1.1,12.9,3.2,19.1l0.7,2L590,518.3L590,518.3z"
			/>
	</g>
	<g>
		<path class="st0" d="M667.3,534.2V531h114.9c-5.2-10.8-7.8-22.1-7.8-33.8c0-54,57-98,127.1-98c15.5,0,30.6,2.1,44.9,6.3v-57.1h4.1
			v61.9l-2.9-0.9c-14.7-4.6-30.2-7-46.2-7c-67.8,0-123,42.5-123,94.8c0,12,2.9,23.7,8.6,34.8l1.1,2.2H667.3z"/>
	</g>
	<g>
		<path class="st0" d="M68,526.5c0-4,1.2-8.6,3.9-13.4l0,0c2.4-4.2,8-10.5,8.2-10.7l1.8-2l1.7,2.1c0.3,0.3,6.3,7.9,8.1,10.6
			c7.7,11.7,4.6,20.4-0.4,24.2c-2.5,2-5.9,3-9.5,3s-7-1.1-9.5-3C69.7,535.2,68,531.3,68,526.5z M75.7,514.4
			c-5.2,9.1-4.3,17.6-0.4,20.6c1.8,1.4,4.1,2.1,6.6,2.1s4.8-0.7,6.6-2.1c4.3-3.3,5.9-11-0.4-20.5c-1.2-1.8-4.3-5.8-6.3-8.2
			C80,508.4,77.2,511.9,75.7,514.4L75.7,514.4z"/>
	</g>
	<g>
		<path class="st0" d="M2.5,478.5c0-2.8,1.4-5.4,3.9-7.3c4.8-3.7,17.4-5.1,31.3-0.3l0,0c5.5,1.9,13.6,6.2,13.9,6.4l2.6,1.4l-2.7,1.3
			c-0.4,0.2-10.2,4.9-13.8,6.3c-15.2,5.9-26.4,3.5-31.4-0.3C3.9,483.8,2.5,481.2,2.5,478.5z M36.1,473.7c-11.8-4-22.8-3.3-26.7-0.3
			c-1.8,1.4-2.7,3.2-2.7,5.1s1,3.7,2.7,5.1c4.3,3.3,14.2,4.5,26.6-0.3c2.3-0.9,7.5-3.3,10.7-4.8C43.9,477,39.4,474.8,36.1,473.7
			L36.1,473.7z"/>
	</g>
	<g>
		<path class="st0" d="M28.8,519l0.9-2.6c0.2-0.7,6-17.4,23.2-30.7c17.2-13.3,37.7-16.7,38.6-16.9l3.1-0.5l-0.7,2.4
			c-0.2,0.7-4.7,16.5-21.9,29.7s-38.9,17.7-39.8,17.9L28.8,519z M88.9,472.6c-6.4,1.5-20.8,5.8-33.1,15.3S37.2,509,34.9,514.3
			c6.8-1.8,21.9-6.7,34.2-16.1C81.4,488.6,86.9,477.6,88.9,472.6z"/>
	</g>
	<g>
		<path class="st0" d="M18.1,452.1l3.4-0.6c0.8-0.1,19.9-3.6,40.2,1.2c20.3,4.8,33.6,15.8,34.2,16.3l2.4,2l-3.4,0.6
			c-0.8,0.1-19.9,3.6-40.2-1.2c-20.3-4.8-33.6-15.8-34.2-16.3L18.1,452.1z M90,469c-4.8-3.4-15.6-10-29.5-13.3
			c-14-3.3-27.7-2.4-34.1-1.7c4.8,3.4,15.6,10,29.5,13.3C69.9,470.6,83.6,469.7,90,469z"/>
	</g>
	<g>
		<path class="st0" d="M89.6,484.9c0-8.7,2.6-15,2.8-15.4l1-2.4l2.4,1.7c0.5,0.4,13.5,10,19.7,25.7c6.2,15.6,1.7,30.4,1.5,31
			l-0.8,2.6l-2.6-1.8c-0.6-0.4-14.9-10.7-21.1-26.4C90.3,494.6,89.6,489.4,89.6,484.9z M95.4,473.2c-1.4,4.7-3.3,15,1,25.8
			s12.9,19.1,17.2,22.8c1-5,2.1-15.5-2.1-26.3C107.2,484.7,99.4,476.8,95.4,473.2z"/>
	</g>
	<g>
		<path class="st0" d="M29.6,426.3V320.1h4.1v102c7.9-1.5,16.1-2.3,24.4-2.3c55.4,0,100.4,34.7,100.4,77.4c0,6-0.9,12.1-2.7,17.9
			h213.9v3.2H150.5l0.7-2c2.1-6.2,3.2-12.6,3.2-19.1c0-40.9-43.2-74.2-96.3-74.2c-8.8,0-17.5,0.9-25.9,2.7L29.6,426.3z"/>
	</g>
	<g>
		<path class="st0" d="M9.1,410.3v-61.9h4.1v57.1c14.3-4.2,29.4-6.3,44.9-6.3c70.1,0,127.1,44,127.1,98c0,11.6-2.6,23-7.8,33.8
			h114.9v3.2h-121l1.1-2.2c5.7-11.1,8.6-22.8,8.6-34.8c0-52.3-55.2-94.8-123-94.8c-16,0-31.5,2.3-46.2,7L9.1,410.3z"/>
	</g>
	<g>
		<path class="st0" d="M68,17.8c0-4.8,1.7-8.7,4.4-10.7c2.5-2,5.9-3,9.5-3s7,1.1,9.5,3c5,3.8,8.1,12.5,0.4,24.2
			c-1.8,2.8-7.9,10.3-8.1,10.6L82,44l-1.8-2c-0.2-0.3-5.8-6.5-8.2-10.7l0,0C69.1,26.4,68,21.8,68,17.8z M92.2,17.9
			c0-3.8-1.5-6.7-3.8-8.5c-1.8-1.4-4.1-2.1-6.6-2.1S77,8,75.2,9.4c-3.9,3-4.8,11.5,0.4,20.6c1.5,2.5,4.3,6,6.1,8.2
			c2-2.5,5.1-6.5,6.3-8.2C91,25.4,92.2,21.3,92.2,17.9z"/>
	</g>
	<g>
		<path class="st0" d="M2.5,65.9c0-2.8,1.4-5.4,3.9-7.3c5-3.8,16.2-6.2,31.4-0.3c3.6,1.4,13.3,6.1,13.8,6.3l2.7,1.3l-2.6,1.4
			c-0.3,0.2-8.5,4.5-13.9,6.4l0,0c-13.9,4.7-26.5,3.4-31.3-0.3C3.9,71.3,2.5,68.7,2.5,65.9z M46.7,65.9c-3.2-1.5-8.4-4-10.7-4.8
			c-12.4-4.8-22.3-3.6-26.6-0.3c-1.8,1.4-2.7,3.2-2.7,5.1s1,3.7,2.7,5.1c3.9,3,14.9,3.7,26.7-0.3l0,0C39.4,69.5,43.9,67.4,46.7,65.9
			z"/>
	</g>
	<g>
		<path class="st0" d="M28.8,25.4l3.4,0.7C33.1,26.3,54.8,30.7,72,44c17.2,13.2,21.7,29,21.9,29.7l0.7,2.4l-3.1-0.5
			c-0.9-0.1-21.3-3.6-38.6-16.9c-17.2-13.2-23-30-23.2-30.7L28.8,25.4z M88.9,71.7c-2-5-7.5-16-19.8-25.5S41.7,31.9,34.9,30.1
			c2.4,5.3,8.7,16.9,20.9,26.4C68.1,65.9,82.5,70.2,88.9,71.7z"/>
	</g>
	<g>
		<path class="st0" d="M18.1,92.3l2.4-2C21,89.8,34.4,78.7,54.7,74c20.3-4.8,39.4-1.3,40.2-1.2l3.4,0.6l-2.4,2
			C95.3,75.9,82,87,61.7,91.7c-20.3,4.8-39.4,1.3-40.2,1.2L18.1,92.3z M90,75.4c-6.5-0.7-20.2-1.6-34.1,1.7
			c-14,3.3-24.7,9.9-29.5,13.3c6.5,0.7,20.2,1.6,34.1-1.7C74.5,85.4,85.2,78.8,90,75.4z"/>
	</g>
	<g>
		<path class="st0" d="M89.6,59.5c0-4.5,0.7-9.7,2.8-15.1c6.2-15.6,20.5-25.9,21.1-26.4l2.6-1.8l0.8,2.6c0.2,0.6,4.7,15.3-1.5,31
			c-6.2,15.6-19.1,25.3-19.7,25.7l-2.4,1.7l-1-2.4C92.2,74.5,89.6,68.2,89.6,59.5z M113.6,22.6c-4.4,3.7-13,12-17.2,22.8
			c-4.3,10.8-2.3,21.1-1,25.8c4-3.5,11.8-11.5,16.1-22.2C115.7,38.1,114.6,27.6,113.6,22.6z"/>
	</g>
	<g>
		<path class="st0" d="M48.5,443.1V101.2l2.3,0.2c2.4,0.2,4.9,0.3,7.4,0.3c39.1,0,70.8-24.5,70.8-54.6c0-1.8-0.1-3.4-0.3-4.9
			l-0.2-1.8h702.8l-0.2,1.8c-0.2,1.5-0.3,3.1-0.3,4.9c0,30.1,31.8,54.6,70.8,54.6c2.5,0,5-0.1,7.4-0.3l2.3-0.2v341.9l-2.3-0.2
			c-2.4-0.2-4.9-0.3-7.4-0.3c-39.1,0-70.8,24.5-70.8,54.6c0,1.8,0.1,3.4,0.3,4.9l0.2,1.8H128.4l0.2-1.8c0.2-1.5,0.3-3.1,0.3-4.9
			c0-30.1-31.8-54.6-70.8-54.6c-2.5,0-5,0.1-7.4,0.3L48.5,443.1z M52.6,104.8v334.8c1.8-0.1,3.7-0.2,5.5-0.2c41.3,0,75,25.9,75,57.8
			c0,1.2,0,2.3-0.1,3.4h693.8c-0.1-1.1-0.1-2.2-0.1-3.4c0-31.9,33.6-57.8,75-57.8c1.9,0,3.7,0.1,5.5,0.2V104.8
			c-1.8,0.1-3.7,0.2-5.5,0.2c-41.3,0-75-25.9-75-57.8c0-1.2,0-2.3,0.1-3.4H133c0.1,1.1,0.1,2.2,0.1,3.4c0,31.9-33.6,57.8-75,57.8
			C56.3,104.9,54.4,104.9,52.6,104.8z"/>
	</g>
	<g>
		<path class="st0" d="M29.6,224.3V118.1l2.6,0.6c8.3,1.8,17,2.7,25.9,2.7c53.1,0,96.3-33.3,96.3-74.2c0-6.5-1.1-12.9-3.2-19.1
			l-0.7-2h219.2v3.2H155.8c1.8,5.9,2.7,11.9,2.7,17.9c0,42.7-45,77.4-100.4,77.4c-8.3,0-16.5-0.8-24.4-2.3v102L29.6,224.3
			L29.6,224.3z"/>
	</g>
	<g>
		<path class="st0" d="M9.1,195.9V134l2.9,0.9c14.7,4.6,30.2,7,46.2,7c67.8,0,123-42.5,123-94.8c0-12-2.9-23.7-8.6-34.8l-1.1-2.2
			h121v3.2h-115c5.2,10.8,7.8,22.1,7.8,33.8c0,54-57,98-127.1,98c-15.5,0-30.6-2.1-44.9-6.3v57.1H9.1z"/>
	</g>
</g>
</svg>
