<?xml version="1.0" encoding="utf-8"?>
<!-- Generator: Adobe Illustrator 23.0.1, SVG Export Plug-In . SVG Version: 6.00 Build 0)  -->
<svg version="1.1" id="Calque_1" xmlns="http://www.w3.org/2000/svg" xmlns:xlink="http://www.w3.org/1999/xlink" x="0px" y="0px"
	 viewBox="0 0 837.5 108.8" style="enable-background:new 0 0 837.5 108.8;" xml:space="preserve">
<style type="text/css">
	.st0{fill:url(#SVGID_1_);}
	.st1{fill:url(#SVGID_2_);}
	.st2{fill:url(#SVGID_3_);}
	.st3{fill:url(#SVGID_4_);}
	.st4{fill:url(#SVGID_5_);}
</style>
<g>
	
		<linearGradient id="SVGID_1_" gradientUnits="userSpaceOnUse" x1="-9456.3369" y1="-10802.5039" x2="-9623.8496" y2="-10802.5039" gradientTransform="matrix(-1 0 0 -1 -8779.8408 -10779.6582)">
		<stop  offset="4.960320e-02" style="stop-color:#E1A24E"/>
		<stop  offset="0.248" style="stop-color:#F2AD72"/>
		<stop  offset="0.5893" style="stop-color:#DDC172"/>
		<stop  offset="0.8591" style="stop-color:#A36C3A"/>
		<stop  offset="0.9663" style="stop-color:#A5895D"/>
	</linearGradient>
	<path class="st0" d="M695.7,42.1v0.2h69.5v-4.1h-65.6l13.4-13.4v0.1h121.6v-4.1H713.1V21L699.7,7.5h62.7V3.4h-65.4l-4.1,3
		l-16.4,16.4L695.7,42.1z M695.7,36.3l-13.5-13.5l13.5-13.5l13.5,13.5L695.7,36.3z"/>
	
		<linearGradient id="SVGID_2_" gradientUnits="userSpaceOnUse" x1="-8783.7158" y1="-10802.5039" x2="-8951.2285" y2="-10802.5039" gradientTransform="matrix(-1 0 0 -1 -8779.8408 -10779.6582)">
		<stop  offset="4.960320e-02" style="stop-color:#E1A24E"/>
		<stop  offset="0.248" style="stop-color:#F2AD72"/>
		<stop  offset="0.5893" style="stop-color:#DDC172"/>
		<stop  offset="0.8591" style="stop-color:#A36C3A"/>
		<stop  offset="0.9663" style="stop-color:#A5895D"/>
	</linearGradient>
	<path class="st1" d="M3.9,20.8v4.1h121.6v-0.2l13.5,13.5H76.2v4.1h65.4l4.1-3l16.4-16.4L142.8,3.6V3.4H73.4v4.1h65.6L125.5,21v-0.2
		H3.9z M142.8,9.3l13.5,13.5l-13.5,13.5l-13.5-13.5L142.8,9.3z"/>
	
		<linearGradient id="SVGID_3_" gradientUnits="userSpaceOnUse" x1="-8970.3281" y1="-10803.127" x2="-9107.9834" y2="-10803.127" gradientTransform="matrix(-1 0 0 -1 -8779.8408 -10779.6582)">
		<stop  offset="4.960320e-02" style="stop-color:#E1A24E"/>
		<stop  offset="0.248" style="stop-color:#F2AD72"/>
		<stop  offset="0.5893" style="stop-color:#DDC172"/>
		<stop  offset="0.8591" style="stop-color:#A36C3A"/>
		<stop  offset="0.9663" style="stop-color:#A5895D"/>
	</linearGradient>
	<rect x="190.5" y="21.4" class="st2" width="130" height="4.1"/>
	
		<linearGradient id="SVGID_4_" gradientUnits="userSpaceOnUse" x1="-8942.417" y1="-10833.6113" x2="-9485.3037" y2="-10833.6113" gradientTransform="matrix(-1 0 0 -1 -8779.8408 -10779.6582)">
		<stop  offset="4.960320e-02" style="stop-color:#E1A24E"/>
		<stop  offset="0.248" style="stop-color:#F2AD72"/>
		<stop  offset="0.5893" style="stop-color:#DDC172"/>
		<stop  offset="0.8591" style="stop-color:#A36C3A"/>
		<stop  offset="0.9663" style="stop-color:#A5895D"/>
	</linearGradient>
	<path class="st3" d="M421,104.5l62.2-62.2h192.1v-4.1h-188L518,7.5h155.9V3.4H516.3l-34.8,34.8h-9.3L489,21.4h-33.7l-17.2,17.2
		L421,21.5l-17.1,17.1l-17.2-17.2h-33.7l16.7,16.7h-9.3L325.6,3.4H164v4.1h160l30.7,30.7H162.6v4.1h196.2L421,104.5z M421,27.3
		l12.9,12.9L421,53.1l-12.9-12.9L421,27.3z M384.9,25.5L421,61.6L457,25.5h22.2L421,83.7l-58.2-58.2H384.9z M373.7,42.2L421,89.5
		l47.2-47.2h9.3L421,98.7l-56.5-56.5H373.7z"/>
	
		<linearGradient id="SVGID_5_" gradientUnits="userSpaceOnUse" x1="-9301.2959" y1="-10803.127" x2="-9434.6416" y2="-10803.127" gradientTransform="matrix(-1 0 0 -1 -8779.8408 -10779.6582)">
		<stop  offset="4.960320e-02" style="stop-color:#E1A24E"/>
		<stop  offset="0.248" style="stop-color:#F2AD72"/>
		<stop  offset="0.5893" style="stop-color:#DDC172"/>
		<stop  offset="0.8591" style="stop-color:#A36C3A"/>
		<stop  offset="0.9663" style="stop-color:#A5895D"/>
	</linearGradient>
	<rect x="521.5" y="21.4" class="st4" width="125.9" height="4.1"/>
</g>
</svg>
