<?xml version="1.0" encoding="utf-8"?>
<!-- Generator: Adobe Illustrator 23.0.3, SVG Export Plug-In . SVG Version: 6.00 Build 0)  -->
<svg version="1.1" id="Calque_1" xmlns="http://www.w3.org/2000/svg" xmlns:xlink="http://www.w3.org/1999/xlink" x="0px" y="0px"
	 viewBox="0 0 767 109.3" style="enable-background:new 0 0 767 109.3;" xml:space="preserve">
<style type="text/css">
	.st0{fill:url(#SVGID_1_);}
	.st1{fill:url(#SVGID_2_);}
	.st2{fill:url(#SVGID_3_);}
	.st3{fill:url(#SVGID_4_);}
	.st4{fill:url(#SVGID_5_);}
	.st5{fill:url(#SVGID_6_);}
	.st6{fill:url(#SVGID_7_);}
	.st7{fill:url(#SVGID_8_);}
	.st8{fill:url(#SVGID_9_);}
</style>
<g>
	<g>
		<g>
			
				<linearGradient id="SVGID_1_" gradientUnits="userSpaceOnUse" x1="-11115.7422" y1="11568.0098" x2="-9768.0508" y2="11568.0098" gradientTransform="matrix(-1 0 0 1 -10072.9453 -11513.2598)">
				<stop  offset="4.960320e-02" style="stop-color:#E1A24E"/>
				<stop  offset="0.248" style="stop-color:#F2AD72"/>
				<stop  offset="0.5893" style="stop-color:#DDC172"/>
				<stop  offset="0.8591" style="stop-color:#A36C3A"/>
				<stop  offset="0.9663" style="stop-color:#A5895D"/>
			</linearGradient>
			<path class="st0" d="M383.1,4.5l50.2,50.2L383.1,105l-50.2-50.2L383.1,4.5z M430,54.8l-47-47l-47,47l47,47L430,54.8z"/>
		</g>
	</g>
	<g>
		<g>
			
				<linearGradient id="SVGID_2_" gradientUnits="userSpaceOnUse" x1="-11115.7412" y1="11568.0596" x2="-9768.0557" y2="11568.0596" gradientTransform="matrix(-1 0 0 1 -10072.9453 -11513.2598)">
				<stop  offset="4.960320e-02" style="stop-color:#E1A24E"/>
				<stop  offset="0.248" style="stop-color:#F2AD72"/>
				<stop  offset="0.5893" style="stop-color:#DDC172"/>
				<stop  offset="0.8591" style="stop-color:#A36C3A"/>
				<stop  offset="0.9663" style="stop-color:#A5895D"/>
			</linearGradient>
			<path class="st1" d="M430.9,23.3l31.5,31.5l-31.5,31.5l-31.5-31.5L430.9,23.3z M459.1,54.8l-28.3-28.3l-28.3,28.3L430.9,83
				L459.1,54.8z"/>
		</g>
	</g>
	<g>
		<g>
			
				<linearGradient id="SVGID_3_" gradientUnits="userSpaceOnUse" x1="-11115.7412" y1="11568.0596" x2="-9768.0547" y2="11568.0596" gradientTransform="matrix(-1 0 0 1 -10072.9453 -11513.2598)">
				<stop  offset="4.960320e-02" style="stop-color:#E1A24E"/>
				<stop  offset="0.248" style="stop-color:#F2AD72"/>
				<stop  offset="0.5893" style="stop-color:#DDC172"/>
				<stop  offset="0.8591" style="stop-color:#A36C3A"/>
				<stop  offset="0.9663" style="stop-color:#A5895D"/>
			</linearGradient>
			<path class="st2" d="M744.8,35.2l19.6,19.6l-19.6,19.6l-19.6-19.6L744.8,35.2z M761.1,54.8l-16.3-16.3l-16.3,16.3l16.3,16.3
				L761.1,54.8z"/>
		</g>
	</g>
	<g>
		<g>
			
				<linearGradient id="SVGID_4_" gradientUnits="userSpaceOnUse" x1="-11115.7412" y1="11568.0596" x2="-9768.0547" y2="11568.0596" gradientTransform="matrix(-1 0 0 1 -10072.9453 -11513.2598)">
				<stop  offset="4.960320e-02" style="stop-color:#E1A24E"/>
				<stop  offset="0.248" style="stop-color:#F2AD72"/>
				<stop  offset="0.5893" style="stop-color:#DDC172"/>
				<stop  offset="0.8591" style="stop-color:#A36C3A"/>
				<stop  offset="0.9663" style="stop-color:#A5895D"/>
			</linearGradient>
			<polygon class="st3" points="685.8,54.8 678.1,62.4 670.5,54.8 678.1,47.2 			"/>
		</g>
	</g>
	<g>
		<g>
			
				<linearGradient id="SVGID_5_" gradientUnits="userSpaceOnUse" x1="-11115.7432" y1="11568.0596" x2="-9768.0586" y2="11568.0596" gradientTransform="matrix(-1 0 0 1 -10072.9453 -11513.2598)">
				<stop  offset="4.960320e-02" style="stop-color:#E1A24E"/>
				<stop  offset="0.248" style="stop-color:#F2AD72"/>
				<stop  offset="0.5893" style="stop-color:#DDC172"/>
				<stop  offset="0.8591" style="stop-color:#A36C3A"/>
				<stop  offset="0.9663" style="stop-color:#A5895D"/>
			</linearGradient>
			<path class="st4" d="M335.2,23.3l31.5,31.5l-31.5,31.5l-31.5-31.5L335.2,23.3z M363.5,54.8l-28.3-28.3L307,54.8L335.2,83
				L363.5,54.8z"/>
		</g>
	</g>
	<g>
		<g>
			
				<linearGradient id="SVGID_6_" gradientUnits="userSpaceOnUse" x1="-11115.7422" y1="11568.0098" x2="-9768.0537" y2="11568.0098" gradientTransform="matrix(-1 0 0 1 -10072.9453 -11513.2598)">
				<stop  offset="4.960320e-02" style="stop-color:#E1A24E"/>
				<stop  offset="0.248" style="stop-color:#F2AD72"/>
				<stop  offset="0.5893" style="stop-color:#DDC172"/>
				<stop  offset="0.8591" style="stop-color:#A36C3A"/>
				<stop  offset="0.9663" style="stop-color:#A5895D"/>
			</linearGradient>
			<rect x="460.7" y="53.6" class="st5" width="266.1" height="2.3"/>
		</g>
	</g>
	<g>
		<g>
			
				<linearGradient id="SVGID_7_" gradientUnits="userSpaceOnUse" x1="-11115.7441" y1="11568.0098" x2="-9768.0508" y2="11568.0098" gradientTransform="matrix(-1 0 0 1 -10072.9453 -11513.2598)">
				<stop  offset="4.960320e-02" style="stop-color:#E1A24E"/>
				<stop  offset="0.248" style="stop-color:#F2AD72"/>
				<stop  offset="0.5893" style="stop-color:#DDC172"/>
				<stop  offset="0.8591" style="stop-color:#A36C3A"/>
				<stop  offset="0.9663" style="stop-color:#A5895D"/>
			</linearGradient>
			<path class="st6" d="M23.2,35.2l19.6,19.6L23.2,74.3L3.7,54.8L23.2,35.2z M39.5,54.8L23.2,38.5L6.9,54.8l16.3,16.3L39.5,54.8z"/>
		</g>
	</g>
	<g>
		<g>
			
				<linearGradient id="SVGID_8_" gradientUnits="userSpaceOnUse" x1="-11115.7471" y1="11568.0596" x2="-9768.0508" y2="11568.0596" gradientTransform="matrix(-1 0 0 1 -10072.9453 -11513.2598)">
				<stop  offset="4.960320e-02" style="stop-color:#E1A24E"/>
				<stop  offset="0.248" style="stop-color:#F2AD72"/>
				<stop  offset="0.5893" style="stop-color:#DDC172"/>
				<stop  offset="0.8591" style="stop-color:#A36C3A"/>
				<stop  offset="0.9663" style="stop-color:#A5895D"/>
			</linearGradient>
			<polygon class="st7" points="82.3,54.8 89.9,47.2 97.5,54.8 89.9,62.4 			"/>
		</g>
	</g>
	<g>
		<g>
			
				<linearGradient id="SVGID_9_" gradientUnits="userSpaceOnUse" x1="-11115.7412" y1="11568.0098" x2="-9768.0527" y2="11568.0098" gradientTransform="matrix(-1 0 0 1 -10072.9453 -11513.2598)">
				<stop  offset="4.960320e-02" style="stop-color:#E1A24E"/>
				<stop  offset="0.248" style="stop-color:#F2AD72"/>
				<stop  offset="0.5893" style="stop-color:#DDC172"/>
				<stop  offset="0.8591" style="stop-color:#A36C3A"/>
				<stop  offset="0.9663" style="stop-color:#A5895D"/>
			</linearGradient>
			<rect x="41.2" y="53.6" class="st8" width="266.1" height="2.3"/>
		</g>
	</g>
</g>
</svg>
