<?xml version="1.0" encoding="utf-8"?>
<!-- Generator: Adobe Illustrator 23.0.3, SVG Export Plug-In . SVG Version: 6.00 Build 0)  -->
<svg version="1.1" id="Calque_1" xmlns="http://www.w3.org/2000/svg" xmlns:xlink="http://www.w3.org/1999/xlink" x="0px" y="0px"
	 viewBox="0 0 960 540" style="enable-background:new 0 0 960 540;" xml:space="preserve">
<style type="text/css">
	.st0{fill:url(#SVGID_1_);}
	.st1{fill:url(#SVGID_2_);}
	.st2{fill:url(#SVGID_3_);}
	.st3{fill:url(#SVGID_4_);}
	.st4{fill:url(#SVGID_5_);}
	.st5{fill:url(#SVGID_6_);}
	.st6{fill:url(#SVGID_7_);}
	.st7{fill:url(#SVGID_8_);}
	.st8{fill:url(#SVGID_9_);}
	.st9{fill:url(#SVGID_10_);}
	.st10{fill:url(#SVGID_11_);}
	.st11{fill:url(#SVGID_12_);}
	.st12{fill:url(#SVGID_13_);}
</style>
<g>
	<g>
		<radialGradient id="SVGID_1_" cx="862.4" cy="36.8764" r="73.6843" gradientUnits="userSpaceOnUse">
			<stop  offset="0.1378" style="stop-color:#9D571B"/>
			<stop  offset="0.3687" style="stop-color:#D3ABAB"/>
			<stop  offset="0.6881" style="stop-color:#FFA920"/>
			<stop  offset="1" style="stop-color:#B6813F"/>
		</radialGradient>
		<path class="st0" d="M764.9,26.5c0.4-0.3,41.3-30.4,76.3,3.5c34.2,33.1,46.9,37.7,66,39.7c15.1,1.6,27.7-1.2,36.6-8.2
			C951.7,55.3,956,46,956,35.3c0-17.5-17.4-31.7-38.8-31.7c-16.9,0-30.6,11.2-30.6,25c0,10.8,10.8,19.7,24.1,19.7
			c10.4,0,18.9-6.9,18.9-15.4c0-6.6-6.6-12-14.7-12v-3.5c10.3,0,18.6,6.9,18.6,15.4c0,10.4-10.2,18.9-22.8,18.9
			c-15.5,0-28-10.4-28-23.1c0-15.7,15.5-28.5,34.5-28.5c23.5,0,42.7,15.8,42.7,35.2c0,11.7-4.8,21.9-13.5,28.8
			c-9.7,7.7-23.4,10.8-39.6,9.1c-20.1-2.1-33.4-6.9-68.4-40.8c-13.7-13.2-29.7-17.8-47.7-13.6c-13.6,3.2-23.1,10.3-23.2,10.4
			L764.9,26.5z"/>
	</g>
	<g>
		<radialGradient id="SVGID_2_" cx="799.95" cy="57.25" r="34.3554" gradientUnits="userSpaceOnUse">
			<stop  offset="0.1378" style="stop-color:#9D571B"/>
			<stop  offset="0.3687" style="stop-color:#D3ABAB"/>
			<stop  offset="0.6881" style="stop-color:#FFA920"/>
			<stop  offset="1" style="stop-color:#B6813F"/>
		</radialGradient>
		<path class="st1" d="M763.7,24.9l2.8,0.5c1.1,0.2,26.3,4.5,45.2,21.4c18.9,16.8,23.8,39.3,24,40.3l0.5,2.5l-2.8-0.5
			c-1.1-0.2-26.3-4.5-45.2-21.4c-18.9-16.8-23.8-39.3-24-40.3L763.7,24.9z M831.1,85c-1.9-6.4-7.9-23.1-22.2-35.8
			c-14.3-12.8-33-18.1-40.2-19.8c1.9,6.4,7.9,23.1,22.2,35.8C805.3,78,824,83.3,831.1,85z"/>
	</g>
	<g>
		<radialGradient id="SVGID_3_" cx="924.4" cy="90.1" r="14.3223" gradientUnits="userSpaceOnUse">
			<stop  offset="0.1378" style="stop-color:#9D571B"/>
			<stop  offset="0.3687" style="stop-color:#D3ABAB"/>
			<stop  offset="0.6881" style="stop-color:#FFA920"/>
			<stop  offset="1" style="stop-color:#B6813F"/>
		</radialGradient>
		<path class="st2" d="M909.3,103.6V90.1c0-7.4,6.8-13.5,15.1-13.5s15.1,6,15.1,13.5c0,7.4-6.8,13.5-15.1,13.5H909.3z M935.6,90.1
			c0-5.5-5-10-11.2-10s-11.2,4.5-11.2,10v10h11.2C930.6,100.1,935.6,95.6,935.6,90.1z"/>
	</g>
	<g>
		<radialGradient id="SVGID_4_" cx="862.4" cy="503.0237" r="73.6843" gradientUnits="userSpaceOnUse">
			<stop  offset="0.1378" style="stop-color:#9D571B"/>
			<stop  offset="0.3687" style="stop-color:#D3ABAB"/>
			<stop  offset="0.6881" style="stop-color:#FFA920"/>
			<stop  offset="1" style="stop-color:#B6813F"/>
		</radialGradient>
		<path class="st3" d="M764.9,513.4l2.5-2.7c0.1,0.1,9.8,7.3,23.4,10.4c18,4.1,34-0.4,47.6-13.6c35.1-33.9,48.4-38.7,68.4-40.8
			c16.2-1.7,29.9,1.4,39.6,9.1c8.7,6.9,13.5,17.1,13.5,28.8c0,19.4-19.2,35.2-42.7,35.2c-19,0-34.5-12.8-34.5-28.5
			c0-12.8,12.6-23.1,28-23.1c12.6,0,22.8,8.5,22.8,18.9c0,8.5-8.4,15.4-18.6,15.4V519c8.1,0,14.7-5.4,14.7-12
			c0-8.5-8.5-15.4-18.9-15.4c-13.3,0-24.1,8.8-24.1,19.7c0,13.8,13.7,25,30.6,25c21.4,0,38.8-14.2,38.8-31.7
			c0-10.7-4.3-20-12.2-26.2c-8.9-7-21.5-9.8-36.6-8.2c-19.1,2-31.8,6.6-66,39.7C806.1,543.8,765.3,513.7,764.9,513.4z"/>
	</g>
	<g>
		<radialGradient id="SVGID_5_" cx="799.95" cy="482.65" r="34.3554" gradientUnits="userSpaceOnUse">
			<stop  offset="0.1378" style="stop-color:#9D571B"/>
			<stop  offset="0.3687" style="stop-color:#D3ABAB"/>
			<stop  offset="0.6881" style="stop-color:#FFA920"/>
			<stop  offset="1" style="stop-color:#B6813F"/>
		</radialGradient>
		<path class="st4" d="M763.7,515l0.5-2.5c0.2-1,5.1-23.5,24-40.3s44.2-21.2,45.2-21.4l2.8-0.5l-0.5,2.5c-0.2,1-5.1,23.5-24,40.3
			s-44.2,21.2-45.2,21.4L763.7,515z M831.1,454.9c-7.2,1.7-25.9,7-40.2,19.8s-20.3,29.4-22.2,35.8c7.2-1.7,25.9-7,40.2-19.8
			C823.3,477.9,829.3,461.3,831.1,454.9z"/>
	</g>
	<g>
		<radialGradient id="SVGID_6_" cx="924.4" cy="449.7" r="14.3223" gradientUnits="userSpaceOnUse">
			<stop  offset="0.1378" style="stop-color:#9D571B"/>
			<stop  offset="0.3687" style="stop-color:#D3ABAB"/>
			<stop  offset="0.6881" style="stop-color:#FFA920"/>
			<stop  offset="1" style="stop-color:#B6813F"/>
		</radialGradient>
		<path class="st5" d="M909.3,449.7v-13.5h15.1c8.3,0,15.1,6,15.1,13.5c0,7.4-6.8,13.5-15.1,13.5S909.3,457.1,909.3,449.7z
			 M913.2,439.8v10c0,5.5,5,10,11.2,10s11.2-4.5,11.2-10s-5-10-11.2-10H913.2z"/>
	</g>
	<g>
		<radialGradient id="SVGID_7_" cx="97.5" cy="503.0237" r="73.6843" gradientUnits="userSpaceOnUse">
			<stop  offset="0.1378" style="stop-color:#9D571B"/>
			<stop  offset="0.3687" style="stop-color:#D3ABAB"/>
			<stop  offset="0.6881" style="stop-color:#FFA920"/>
			<stop  offset="1" style="stop-color:#B6813F"/>
		</radialGradient>
		<path class="st6" d="M0,504.6c0-11.7,4.8-21.9,13.5-28.8c9.7-7.7,23.4-10.8,39.6-9.1c20.1,2.1,33.4,6.9,68.4,40.8
			c13.6,13.2,29.6,17.8,47.6,13.6c13.6-3.1,23.3-10.3,23.4-10.4l2.5,2.7c-0.4,0.3-41.3,30.4-76.3-3.5c-34.2-33.1-46.9-37.7-66-39.7
			c-15.1-1.6-27.7,1.2-36.6,8.2c-7.9,6.2-12.2,15.5-12.2,26.2c0,17.5,17.4,31.7,38.8,31.7c16.9,0,30.6-11.2,30.6-25
			c0-10.8-10.8-19.7-24.1-19.7c-10.4,0-18.9,6.9-18.9,15.4c0,6.6,6.6,12,14.7,12v3.5c-10.3,0-18.6-6.9-18.6-15.4
			c0-10.4,10.2-18.9,22.8-18.9c15.5,0,28,10.4,28,23.1c0,15.7-15.5,28.5-34.5,28.5C19.2,539.8,0,524,0,504.6z"/>
	</g>
	<g>
		<radialGradient id="SVGID_8_" cx="159.95" cy="482.75" r="34.3554" gradientUnits="userSpaceOnUse">
			<stop  offset="0.1378" style="stop-color:#9D571B"/>
			<stop  offset="0.3687" style="stop-color:#D3ABAB"/>
			<stop  offset="0.6881" style="stop-color:#FFA920"/>
			<stop  offset="1" style="stop-color:#B6813F"/>
		</radialGradient>
		<path class="st7" d="M123.7,450.4l2.8,0.5c1.1,0.2,26.3,4.5,45.2,21.4c18.9,16.8,23.8,39.3,24,40.3l0.5,2.5l-2.8-0.5
			c-1.1-0.2-26.3-4.5-45.2-21.4c-18.9-16.8-23.8-39.3-24-40.3L123.7,450.4z M191.2,510.5c-1.9-6.4-7.9-23.1-22.2-35.8
			c-14.4-12.8-33-18.1-40.2-19.8c1.9,6.4,7.9,23.1,22.2,35.8C165.3,503.5,184,508.8,191.2,510.5z"/>
	</g>
	<g>
		<radialGradient id="SVGID_9_" cx="35.5" cy="449.7" r="14.3224" gradientUnits="userSpaceOnUse">
			<stop  offset="0.1378" style="stop-color:#9D571B"/>
			<stop  offset="0.3687" style="stop-color:#D3ABAB"/>
			<stop  offset="0.6881" style="stop-color:#FFA920"/>
			<stop  offset="1" style="stop-color:#B6813F"/>
		</radialGradient>
		<path class="st8" d="M20.4,449.7c0-7.4,6.8-13.5,15.1-13.5h15.1v13.5c0,7.4-6.8,13.5-15.1,13.5S20.4,457.1,20.4,449.7z
			 M46.7,439.8H35.5c-6.2,0-11.2,4.5-11.2,10s5,10,11.2,10s11.2-4.5,11.2-10V439.8z"/>
	</g>
	<g>
		<radialGradient id="SVGID_10_" cx="97.5" cy="36.8445" r="73.6763" gradientUnits="userSpaceOnUse">
			<stop  offset="0.1378" style="stop-color:#9D571B"/>
			<stop  offset="0.3687" style="stop-color:#D3ABAB"/>
			<stop  offset="0.6881" style="stop-color:#FFA920"/>
			<stop  offset="1" style="stop-color:#B6813F"/>
		</radialGradient>
		<path class="st9" d="M0,35.2C0,15.8,19.2,0.1,42.7,0.1c19,0,34.5,12.8,34.5,28.5c0,12.8-12.6,23.1-28,23.1
			c-12.6,0-22.8-8.5-22.8-18.9c0-8.5,8.4-15.4,18.6-15.4v3.5c-8.1,0-14.7,5.4-14.7,12c0,8.5,8.5,15.4,18.9,15.4
			c13.3,0,24.1-8.8,24.1-19.7c0-13.8-13.7-25-30.6-25C21.3,3.6,3.9,17.8,3.9,35.2c0,10.7,4.3,20,12.2,26.2c8.9,7,21.5,9.8,36.6,8.2
			c19.1-2,31.8-6.6,66-39.7c35.1-33.9,75.9-3.8,76.3-3.5l-2.5,2.7c-0.1-0.1-9.8-7.3-23.4-10.4c-18-4.1-34,0.4-47.6,13.6
			c-35,34-48.3,38.7-68.3,40.8C37,74.9,23.3,71.7,13.5,64C4.8,57.2,0,46.9,0,35.2z"/>
	</g>
	<g>
		<radialGradient id="SVGID_11_" cx="159.95" cy="57.15" r="34.3554" gradientUnits="userSpaceOnUse">
			<stop  offset="0.1378" style="stop-color:#9D571B"/>
			<stop  offset="0.3687" style="stop-color:#D3ABAB"/>
			<stop  offset="0.6881" style="stop-color:#FFA920"/>
			<stop  offset="1" style="stop-color:#B6813F"/>
		</radialGradient>
		<path class="st10" d="M123.7,89.5l0.5-2.5c0.2-1,5.1-23.5,24-40.3s44.2-21.2,45.2-21.4l2.8-0.5l-0.5,2.5c-0.2,1-5.1,23.5-24,40.3
			S127.5,88.8,126.5,89L123.7,89.5z M191.2,29.4c-7.2,1.7-25.9,7-40.2,19.8S130.7,78.6,128.8,85c7.2-1.7,25.9-7,40.2-19.8
			S189.3,35.8,191.2,29.4z"/>
	</g>
	<g>
		<radialGradient id="SVGID_12_" cx="35.5" cy="90.1" r="14.3224" gradientUnits="userSpaceOnUse">
			<stop  offset="0.1378" style="stop-color:#9D571B"/>
			<stop  offset="0.3687" style="stop-color:#D3ABAB"/>
			<stop  offset="0.6881" style="stop-color:#FFA920"/>
			<stop  offset="1" style="stop-color:#B6813F"/>
		</radialGradient>
		<path class="st11" d="M20.4,90.1c0-7.4,6.8-13.5,15.1-13.5s15.1,6,15.1,13.5v13.5H35.5C27.2,103.6,20.4,97.5,20.4,90.1z
			 M46.7,90.1c0-5.5-5-10-11.2-10s-11.2,4.5-11.2,10s5,10,11.2,10h11.2V90.1z"/>
	</g>
	<g>
		<radialGradient id="SVGID_13_" cx="480" cy="269.95" r="352.06" gradientUnits="userSpaceOnUse">
			<stop  offset="0.1378" style="stop-color:#9D571B"/>
			<stop  offset="0.3687" style="stop-color:#D3ABAB"/>
			<stop  offset="0.6881" style="stop-color:#FFA920"/>
			<stop  offset="1" style="stop-color:#B6813F"/>
		</radialGradient>
		<path class="st12" d="M46.7,439.8V100.1h2c12.3,0,28.2-5.1,61.4-42.4c33.9-38.1,64.7-33.1,68.1-32.4h603.7
			c3.4-0.7,34.1-5.7,68.1,32.4c33,37.3,49,42.4,61.3,42.4h2v339.7h-2c-12.3,0-28.2,5.1-61.4,42.4c-33.9,38.1-64.7,33.1-68.1,32.4
			H178.1c-3.4,0.7-34.1,5.7-68.1-32.4c-33.1-37.2-49.1-42.4-61.4-42.4L46.7,439.8L46.7,439.8z M50.6,103.5v332.8
			c13,0.5,30,7.1,62.5,43.6c33.5,37.7,64,31.2,64.3,31.2l0.2-0.1h0.3h604.5l0.2,0.1c0.3,0.1,30.8,6.5,64.3-31.2
			c32.5-36.5,49.5-43.1,62.5-43.6V103.5c-13-0.5-30-7.1-62.5-43.6c-33.6-37.8-64-31.2-64.3-31.2l-0.2,0.1H177.6l-0.2-0.1
			c-0.3-0.1-30.8-6.5-64.3,31.2C80.6,96.4,63.6,103,50.6,103.5z"/>
	</g>
</g>
</svg>
