<?xml version="1.0" encoding="utf-8"?>
<!-- Generator: Adobe Illustrator 23.0.3, SVG Export Plug-In . SVG Version: 6.00 Build 0)  -->
<svg version="1.1" id="Calque_1" xmlns="http://www.w3.org/2000/svg" xmlns:xlink="http://www.w3.org/1999/xlink" x="0px" y="0px"
	 viewBox="0 0 338.8 479.6" style="enable-background:new 0 0 338.8 479.6;" xml:space="preserve">
<style type="text/css">
	.st0{fill:#010101;}
</style>
<g>
	<g>
		<path class="st0" d="M90.3,23.9H32.7c-6.2,0-11.3-5-11.3-11.3c0-6.2,5-11.3,11.3-11.3h19.5c3.7,0,6.7,3,6.7,6.7s-3,6.7-6.7,6.7
			H34.9v-2.1h17.3c2.5,0,4.6-2.1,4.6-4.6s-2.1-4.6-4.6-4.6H32.7c-5.1,0-9.2,4.1-9.2,9.2s4.1,9.2,9.2,9.2h57.5v2.1H90.3z"/>
	</g>
	<g>
		<path class="st0" d="M23.8,90.5h-2.1V33c0-5.1-4.1-9.2-9.2-9.2S3.4,27.9,3.4,33v19.5c0,2.5,2.1,4.6,4.6,4.6s4.6-2.1,4.6-4.6V35.1
			h2.1v17.3c0,3.7-3,6.7-6.7,6.7s-6.7-3-6.7-6.7V33c0-6.2,5-11.3,11.3-11.3c6.2,0,11.3,5,11.3,11.3v57.5H23.8z"/>
	</g>
	<g>
		<rect x="109.2" y="30.1" class="st0" width="35.4" height="2.1"/>
	</g>
	<g>
		<rect x="109.2" y="13.5" class="st0" width="35.4" height="2.1"/>
	</g>
	<g>
		<rect x="13.2" y="113.5" class="st0" width="2.1" height="35.4"/>
	</g>
	<g>
		<rect x="29.8" y="113.5" class="st0" width="2.1" height="35.4"/>
	</g>
	<g>
		<path class="st0" d="M95.6,32.2v-2.1c4.1,0,7.5-3.4,7.5-7.5s-3.4-7.5-7.5-7.5H68.9V13h26.7c5.3,0,9.6,4.3,9.6,9.6
			S100.9,32.2,95.6,32.2z"/>
	</g>
	<g>
		<path class="st0" d="M22.5,109.4c-5.3,0-9.6-4.3-9.6-9.6V72.4H15v27.4c0,4.1,3.4,7.5,7.5,7.5s7.5-3.4,7.5-7.5h2
			C32,105.2,27.7,109.4,22.5,109.4z"/>
	</g>
	<g>
		<path class="st0" d="M15,72.4h-2.1c0-3.7,3-6.7,6.7-6.7v2.1C17,67.8,15,69.9,15,72.4z"/>
	</g>
	<g>
		<path class="st0" d="M64.3,19.8h-2.1c0-3.7,3-6.7,6.7-6.7v2.1C66.4,15.2,64.3,17.2,64.3,19.8z"/>
	</g>
	<g>
		<path class="st0" d="M47.4,56.5c-2.9,0-4.4-1.9-4.5-5.6c0-2,0-7.6,0-7.9H45c0,0.1,0,5.9,0,7.8c0,2.5,0.7,3.5,2.4,3.5
			c1.6,0,2.5-0.8,2.6-2.4c0.1-1.2,0-2.3,0-3.7c0-0.9,0-1.9,0-3.2c0-3.4,0-6.5-6.4-6.5c-2.1,0-3.7,0.5-4.6,1.6
			c-1.2,1.4-1.1,3.2-1.1,3.3v0.1v12h-2.1v-12c0-0.4-0.1-2.9,1.6-4.8c1.4-1.5,3.4-2.3,6.2-2.3c8.5,0,8.5,5.4,8.5,8.6
			c0,1.3,0,2.3,0,3.2c0,1.5,0,2.6,0,3.9C52,54.3,50.7,56.5,47.4,56.5z"/>
	</g>
	<g>
		<path class="st0" d="M32,100h-2.1V40c0-0.2,0-4.3,2.8-7.2c1.8-1.8,4.2-2.7,7.2-2.7h55.7v2.1H39.9c-2.4,0-4.4,0.7-5.7,2.1
			C32,36.5,32,39.9,32,39.9V100z"/>
	</g>
	<g>
		<path class="st0" d="M54.3,67.8H19.6v-2.1h34.7c2.4,0,4.4-0.7,5.7-2c2.2-2.3,2.2-5.7,2.2-5.7V18.8h2.1V58c0,0.2,0,4.3-2.8,7.2
			C59.8,66.9,57.3,67.8,54.3,67.8z"/>
	</g>
	<g>
		<path class="st0" d="M306.1,23.9h-57.5v-2.1h57.5c5.1,0,9.2-4.1,9.2-9.2s-4.1-9.2-9.2-9.2h-19.5c-2.5,0-4.6,2.1-4.6,4.6
			s2.1,4.6,4.6,4.6H304v2.1h-17.3c-3.7,0-6.7-3-6.7-6.7s3-6.7,6.7-6.7h19.5c6.2,0,11.3,5,11.3,11.3
			C317.4,18.8,312.3,23.9,306.1,23.9z"/>
	</g>
	<g>
		<path class="st0" d="M317.2,90.5h-2.1V33c0-6.2,5-11.3,11.3-11.3s11.3,5,11.3,11.3v19.5c0,3.7-3,6.7-6.7,6.7s-6.7-3-6.7-6.7V35.1
			h2.1v17.3c0,2.5,2.1,4.6,4.6,4.6s4.6-2.1,4.6-4.6V33c0-5.1-4.1-9.2-9.2-9.2s-9.2,4.1-9.2,9.2L317.2,90.5L317.2,90.5z"/>
	</g>
	<g>
		<rect x="104.1" y="21.8" class="st0" width="130.6" height="2.1"/>
	</g>
	<g>
		<rect x="194.3" y="30.1" class="st0" width="35.4" height="2.1"/>
	</g>
	<g>
		<rect x="194.3" y="13.5" class="st0" width="35.4" height="2.1"/>
	</g>
	<g>
		<rect x="323.6" y="113.5" class="st0" width="2.1" height="35.4"/>
	</g>
	<g>
		<rect x="307" y="113.5" class="st0" width="2.1" height="35.4"/>
	</g>
	<g>
		<path class="st0" d="M243.2,32.2c-5.3,0-9.6-4.3-9.6-9.6s4.3-9.6,9.6-9.6h26.7v2.1h-26.7c-4.1,0-7.5,3.4-7.5,7.5s3.4,7.5,7.5,7.5
			V32.2z"/>
	</g>
	<g>
		<path class="st0" d="M316.4,109.4c-5.3,0-9.6-4.3-9.6-9.6h2.1c0,4.1,3.4,7.5,7.5,7.5s7.5-3.4,7.5-7.5V72.4h2.1v27.4
			C326,105.2,321.7,109.4,316.4,109.4z"/>
	</g>
	<g>
		<path class="st0" d="M326,72.4h-2.1c0-2.5-2.1-4.6-4.6-4.6v-2.1C323,65.7,326,68.8,326,72.4z"/>
	</g>
	<g>
		<path class="st0" d="M276.6,19.8h-2.1c0-2.5-2.1-4.6-4.6-4.6v-2.1C273.6,13.1,276.6,16.1,276.6,19.8z"/>
	</g>
	<g>
		<path class="st0" d="M291.4,56.5c-3.3,0-4.6-2.3-4.7-4.4c-0.1-1.3,0-2.4,0-3.9c0-0.9,0-1.9,0-3.2c0-3.2,0-8.6,8.5-8.6
			c2.7,0,4.8,0.8,6.2,2.3c1.7,1.9,1.6,4.4,1.6,4.8v12h-2.1V43.4c0,0,0.2-1.9-1.1-3.3c-0.9-1-2.5-1.6-4.6-1.6c-6.4,0-6.4,3.2-6.4,6.5
			c0,1.3,0,2.3,0,3.2c0,1.5,0,2.5,0,3.7c0.1,1.6,0.9,2.4,2.6,2.4s2.4-1,2.4-3.5c0-1.9,0-7.8,0-7.8h2.1c0,0.2,0,5.9,0,7.9
			C295.9,54.7,294.4,56.5,291.4,56.5z"/>
	</g>
	<g>
		<path class="st0" d="M308.9,100h-2.1V40c0,0,0-3.5-2.2-5.7c-1.3-1.4-3.3-2-5.7-2h-55.7v-2.1h55.7c3,0,5.4,0.9,7.2,2.7
			c2.8,2.9,2.8,7,2.8,7.2L308.9,100z"/>
	</g>
	<g>
		<path class="st0" d="M319.3,67.8h-34.7c-3,0-5.4-0.9-7.2-2.7c-2.8-2.9-2.8-7-2.8-7.2V18.8h2.1V58c0,0,0,3.5,2.2,5.7
			c1.3,1.4,3.3,2,5.7,2h34.7L319.3,67.8L319.3,67.8z"/>
	</g>
	<g>
		<path class="st0" d="M306.1,479.4h-19.5c-3.7,0-6.7-3-6.7-6.7s3-6.7,6.7-6.7H304v2.1h-17.3c-2.5,0-4.6,2.1-4.6,4.6
			s2.1,4.6,4.6,4.6h19.5c5.1,0,9.2-4.1,9.2-9.2s-4.1-9.2-9.2-9.2h-57.5v-2.1h57.5c6.2,0,11.3,5,11.3,11.3
			C317.4,474.4,312.3,479.4,306.1,479.4z"/>
	</g>
	<g>
		<path class="st0" d="M326.3,459c-6.2,0-11.3-5-11.3-11.3v-57.5h2.1v57.5c0,5.1,4.1,9.2,9.2,9.2s9.2-4.1,9.2-9.2v-19.5
			c0-2.5-2.1-4.6-4.6-4.6s-4.6,2.1-4.6,4.6v17.3h-2.1v-17.3c0-3.7,3-6.7,6.7-6.7s6.7,3,6.7,6.7v19.5C337.6,454,332.5,459,326.3,459z
			"/>
	</g>
	<g>
		<rect x="194.3" y="448.6" class="st0" width="35.4" height="2.1"/>
	</g>
	<g>
		<rect x="194.3" y="465.2" class="st0" width="35.4" height="2.1"/>
	</g>
	<g>
		<rect x="315.3" y="108.4" class="st0" width="2.1" height="264"/>
	</g>
	<g>
		<rect x="323.6" y="331.9" class="st0" width="2.1" height="35.4"/>
	</g>
	<g>
		<rect x="307" y="331.9" class="st0" width="2.1" height="35.4"/>
	</g>
	<g>
		<path class="st0" d="M269.9,467.7h-26.7c-5.3,0-9.6-4.3-9.6-9.6c0-5.3,4.3-9.6,9.6-9.6v2.1c-4.1,0-7.5,3.4-7.5,7.5
			s3.4,7.5,7.5,7.5h26.7V467.7z"/>
	</g>
	<g>
		<path class="st0" d="M326,408.3h-2.1v-27.4c0-4.1-3.4-7.5-7.5-7.5s-7.5,3.4-7.5,7.5h-2.1c0-5.3,4.3-9.6,9.6-9.6
			c5.3,0,9.6,4.3,9.6,9.6V408.3z"/>
	</g>
	<g>
		<path class="st0" d="M319.3,415v-2.1c2.5,0,4.6-2.1,4.6-4.6h2.1C326,412,323,415,319.3,415z"/>
	</g>
	<g>
		<path class="st0" d="M269.9,467.7v-2.1c2.5,0,4.6-2.1,4.6-4.6h2.1C276.6,464.7,273.6,467.7,269.9,467.7z"/>
	</g>
	<g>
		<path class="st0" d="M295.2,444.3c-8.5,0-8.5-5.4-8.5-8.6c0-1.3,0-2.3,0-3.2c0-1.5,0-2.6,0-3.9c0.1-2.1,1.4-4.4,4.7-4.4
			c2.9,0,4.4,1.9,4.5,5.6c0,2,0,7.6,0,7.9h-2.1c0-0.1,0-5.9,0-7.8c0-2.5-0.7-3.5-2.4-3.5c-1.6,0-2.5,0.8-2.6,2.4
			c-0.1,1.2,0,2.3,0,3.7c0,0.9,0,1.9,0,3.2c0,3.4,0,6.5,6.4,6.5c2.1,0,3.6-0.5,4.6-1.6c1.3-1.4,1.1-3.3,1.1-3.3v-0.1v-12h2.1v12
			c0,0.4,0.1,2.9-1.6,4.8C300,443.6,298,444.3,295.2,444.3z"/>
	</g>
	<g>
		<path class="st0" d="M298.9,450.7h-55.7v-2.1h55.7c2.4,0,4.4-0.7,5.7-2.1c2.2-2.3,2.2-5.7,2.2-5.7v-60h2.1v60c0,0.2,0,4.3-2.8,7.2
			C304.4,449.8,302,450.7,298.9,450.7z"/>
	</g>
	<g>
		<path class="st0" d="M276.6,461.9h-2.1v-39.1c0-0.2,0-4.3,2.8-7.2c1.8-1.8,4.2-2.7,7.2-2.7h34.7v2.1h-34.7c-2.4,0-4.4,0.7-5.7,2.1
			c-2.2,2.3-2.2,5.7-2.2,5.7L276.6,461.9z"/>
	</g>
	<g>
		<path class="st0" d="M52.2,479.4H32.7c-6.2,0-11.3-5-11.3-11.3c0-6.2,5-11.3,11.3-11.3h57.5v2.1H32.7c-5.1,0-9.2,4.1-9.2,9.2
			s4.1,9.2,9.2,9.2h19.5c2.5,0,4.6-2.1,4.6-4.6s-2.1-4.6-4.6-4.6H34.9V466h17.3c3.7,0,6.7,3,6.7,6.7
			C58.9,476.4,55.9,479.4,52.2,479.4z"/>
	</g>
	<g>
		<path class="st0" d="M12.5,459c-6.2,0-11.3-5-11.3-11.3v-19.5c0-3.7,3-6.7,6.7-6.7s6.7,3,6.7,6.7v17.3h-2.1v-17.3
			c0-2.5-2.1-4.6-4.6-4.6s-4.6,2.1-4.6,4.6v19.5c0,5.1,4.1,9.2,9.2,9.2s9.2-4.1,9.2-9.2v-57.5h2.1v57.5C23.8,454,18.7,459,12.5,459z
			"/>
	</g>
	<g>
		<rect x="104.1" y="456.9" class="st0" width="130.6" height="2.1"/>
	</g>
	<g>
		<rect x="109.2" y="448.6" class="st0" width="35.4" height="2.1"/>
	</g>
	<g>
		<rect x="109.2" y="465.2" class="st0" width="35.4" height="2.1"/>
	</g>
	<g>
		<rect x="21.5" y="108.4" class="st0" width="2.1" height="264"/>
	</g>
	<g>
		<rect x="13.2" y="331.9" class="st0" width="2.1" height="35.4"/>
	</g>
	<g>
		<rect x="29.8" y="331.9" class="st0" width="2.1" height="35.4"/>
	</g>
	<g>
		<path class="st0" d="M95.6,467.7H68.9v-2.1h26.7c4.1,0,7.5-3.4,7.5-7.5s-3.4-7.5-7.5-7.5v-2.1c5.3,0,9.6,4.3,9.6,9.6
			C105.2,463.4,100.9,467.7,95.6,467.7z"/>
	</g>
	<g>
		<path class="st0" d="M15,408.3h-2.1v-27.4c0-5.3,4.3-9.6,9.6-9.6s9.6,4.3,9.6,9.6H30c0-4.1-3.4-7.5-7.5-7.5s-7.5,3.4-7.5,7.5
			C15,380.9,15,408.3,15,408.3z"/>
	</g>
	<g>
		<path class="st0" d="M19.6,415c-3.7,0-6.7-3-6.7-6.7H15c0,2.5,2.1,4.6,4.6,4.6V415z"/>
	</g>
	<g>
		<path class="st0" d="M68.9,467.7c-3.7,0-6.7-3-6.7-6.7h2.1c0,2.5,2.1,4.6,4.6,4.6V467.7z"/>
	</g>
	<g>
		<path class="st0" d="M43.6,444.3c-2.7,0-4.8-0.8-6.2-2.3c-1.7-1.9-1.6-4.4-1.6-4.8v-12h2.1v12.1c0,0-0.2,1.9,1.1,3.3
			c0.9,1,2.5,1.6,4.6,1.6c6.4,0,6.4-3.2,6.4-6.5c0-1.3,0-2.3,0-3.2c0-1.5,0-2.5,0-3.7c-0.1-1.6-0.9-2.4-2.6-2.4
			c-1.7,0-2.4,1-2.4,3.5c0,1.9,0,7.8,0,7.8h-2.1c0-0.2,0-5.9,0-7.9c0.1-3.7,1.6-5.6,4.5-5.6c3.3,0,4.6,2.3,4.7,4.4
			c0.1,1.3,0,2.4,0,3.9c0,0.9,0,1.9,0,3.2C52.1,438.9,52.1,444.3,43.6,444.3z"/>
	</g>
	<g>
		<path class="st0" d="M95.6,450.7H39.9c-3,0-5.4-0.9-7.2-2.7c-2.8-2.9-2.8-7-2.8-7.2v-60H32v60c0,0,0,3.5,2.2,5.7
			c1.3,1.4,3.3,2,5.7,2h55.7C95.6,448.5,95.6,450.7,95.6,450.7z"/>
	</g>
	<g>
		<path class="st0" d="M64.3,461.9h-2.1v-39.1c0,0,0-3.5-2.2-5.7c-1.3-1.4-3.3-2-5.7-2H19.6V413h34.7c3,0,5.4,0.9,7.2,2.7
			c2.8,2.9,2.8,7,2.8,7.2V461.9z"/>
	</g>
</g>
</svg>
